<?xml version="1.0" standalone="no"?>
<!DOCTYPE svg PUBLIC "-//W3C//DTD SVG 20010904//EN"
 "http://www.w3.org/TR/2001/REC-SVG-20010904/DTD/svg10.dtd">
<svg version="1.0" xmlns="http://www.w3.org/2000/svg"
 width="4248.000000pt" height="864.000000pt" viewBox="0 0 4248.000000 864.000000"
 preserveAspectRatio="xMidYMid meet">

<g transform="translate(0.000000,864.000000) scale(0.100000,-0.100000)"
fill="#000000" stroke="none">
<path d="M21160 7732 c0 -8 -35 -77 -79 -155 -198 -356 -325 -658 -407 -967
-26 -97 -28 -120 -29 -290 0 -163 3 -196 24 -274 51 -193 126 -332 240 -447
139 -139 249 -167 385 -100 163 80 308 286 376 536 31 112 39 336 16 457 -44
235 -195 625 -385 993 -108 210 -141 267 -141 247z m102 -679 c134 -262 227
-489 280 -685 28 -107 31 -297 5 -403 -58 -234 -233 -435 -379 -435 -108 0
-234 110 -312 273 -111 231 -113 431 -7 747 43 127 139 354 176 414 6 12 40
74 75 139 35 64 66 117 70 117 3 0 45 -75 92 -167z"/>
<path d="M15339 6585 c-108 -20 -299 -85 -403 -136 -231 -114 -414 -334 -500
-602 -46 -143 -60 -239 -60 -417 1 -171 18 -288 62 -422 11 -32 18 -58 17 -58
-2 0 -54 32 -116 71 -366 228 -808 386 -1289 460 -196 31 -613 33 -790 6 -244
-39 -436 -96 -626 -186 -135 -65 -200 -105 -322 -195 -164 -121 -229 -176
-397 -336 -670 -640 -1337 -1121 -2030 -1465 -644 -320 -1213 -494 -1875 -571
-186 -21 -660 -30 -858 -15 -707 54 -1388 260 -1982 600 -323 185 -710 483
-710 545 0 14 -39 59 -114 132 -133 129 -204 230 -301 429 -70 144 -123 300
-151 445 -14 73 -18 139 -17 280 1 163 4 196 26 281 111 426 486 642 820 472
72 -36 130 -95 165 -166 98 -201 50 -404 -131 -555 -65 -54 -237 -141 -341
-172 -86 -27 -113 -51 -102 -95 14 -55 103 -53 252 4 371 144 552 586 360 885
-156 244 -544 285 -809 85 -211 -159 -320 -443 -304 -794 13 -275 68 -481 198
-742 l76 -153 -51 31 c-28 17 -113 61 -189 99 -668 331 -1403 327 -1857 -11
-249 -185 -454 -520 -526 -859 -23 -112 -24 -299 0 -395 58 -239 225 -415 446
-471 228 -58 451 104 426 310 -11 99 -73 186 -153 217 -15 6 -56 11 -89 11
-264 1 -367 -251 -174 -425 l53 -48 -52 21 c-118 46 -208 108 -273 187 -172
208 -171 543 2 895 167 340 423 579 716 671 146 46 253 60 454 60 178 1 252
-6 425 -39 401 -76 866 -302 1021 -496 28 -35 87 -102 131 -148 44 -47 85 -94
91 -105 6 -11 12 -14 12 -7 0 7 33 -16 73 -50 343 -299 863 -574 1462 -773
886 -295 1742 -325 2668 -93 1009 251 2012 818 3034 1715 l161 141 -62 -123
c-115 -225 -191 -465 -221 -691 -36 -275 -6 -500 94 -709 109 -228 267 -371
490 -445 223 -75 422 -41 571 97 83 76 113 141 118 254 13 269 -188 440 -441
374 -80 -21 -134 -50 -185 -99 -71 -67 -87 -106 -87 -211 0 -79 4 -97 28 -142
37 -72 81 -120 151 -165 67 -43 66 -44 -13 -23 -194 50 -375 168 -477 311
-231 323 -213 826 48 1348 179 361 440 642 728 786 482 241 1224 264 1925 60
333 -98 671 -264 900 -445 55 -43 92 -83 131 -142 95 -142 314 -347 509 -476
244 -161 492 -243 768 -254 l149 -6 -119 -57 c-212 -101 -344 -193 -504 -347
-71 -69 -112 -100 -161 -122 -452 -205 -1249 -31 -1525 334 -60 78 -115 198
-144 310 -31 119 -34 373 -6 475 69 253 217 381 435 379 l77 -1 -47 -16 c-116
-42 -164 -155 -104 -247 24 -36 92 -83 132 -91 136 -25 255 129 200 260 -53
126 -217 193 -376 152 -210 -54 -352 -253 -390 -546 -33 -255 35 -519 181
-703 292 -365 914 -536 1459 -399 l106 27 -39 -60 c-89 -138 -168 -336 -209
-528 -28 -134 -31 -341 -4 -437 30 -112 83 -209 150 -276 159 -158 340 -163
418 -11 24 47 20 106 -9 146 -28 38 -99 71 -153 71 -53 0 -144 -41 -161 -71
-16 -31 13 -34 58 -6 76 48 141 59 192 33 53 -28 77 -85 61 -144 -14 -52 -61
-97 -117 -111 -163 -41 -361 139 -417 379 -20 84 -21 281 -1 391 70 401 298
746 649 981 182 121 437 233 601 262 50 9 144 32 210 51 66 18 146 39 177 45
32 6 61 18 65 25 5 8 59 37 122 64 133 60 313 158 496 270 72 43 131 78 132
77 2 -1 -8 -25 -21 -53 -59 -122 -75 -260 -42 -361 26 -79 117 -171 214 -219
67 -34 84 -38 151 -38 94 1 168 32 236 100 70 70 100 142 100 240 -1 94 -20
140 -85 199 -71 64 -164 90 -262 75 -57 -9 -98 -43 -98 -80 0 -32 26 -74 54
-87 34 -15 63 -3 102 41 17 20 43 39 57 43 36 8 84 -21 122 -75 25 -36 30 -54
33 -115 4 -81 -13 -135 -62 -193 -112 -133 -393 -83 -499 88 -53 86 -46 217
18 354 47 101 97 163 179 219 39 28 235 169 436 315 424 308 564 400 733 481
546 261 1149 232 1613 -78 327 -219 487 -545 471 -956 -8 -211 -54 -368 -158
-551 -163 -285 -402 -482 -674 -557 -67 -18 -108 -22 -250 -22 -193 -1 -264
13 -398 80 -330 165 -487 463 -448 851 37 371 184 574 481 664 55 17 100 23
170 23 112 1 164 -13 222 -57 129 -98 132 -295 5 -356 -54 -26 -69 -26 -149
-1 -81 25 -131 25 -186 -1 -65 -32 -97 -86 -97 -165 0 -53 4 -68 30 -105 109
-156 445 -150 586 9 178 202 168 515 -22 697 -111 106 -263 152 -464 142 -347
-19 -620 -191 -784 -497 -88 -164 -139 -399 -127 -583 25 -393 217 -754 501
-942 239 -159 562 -207 915 -135 236 48 348 108 526 285 138 137 214 245 304
430 256 529 251 1134 -15 1540 -61 94 -294 321 -404 394 -242 161 -481 236
-781 248 -249 9 -497 -31 -771 -126 -444 -153 -1091 -512 -1689 -936 -279
-198 -354 -244 -542 -335 -386 -186 -618 -247 -901 -237 -247 8 -405 59 -518
168 -73 71 -109 142 -109 219 1 105 74 236 167 298 47 31 65 37 123 40 38 2
85 -1 105 -8 89 -29 165 -139 165 -238 0 -101 -46 -143 -133 -121 -59 14 -90
7 -105 -26 -17 -38 -15 -69 9 -99 42 -54 143 -23 227 68 80 88 100 186 61 290
-38 104 -136 177 -267 199 -210 37 -395 -142 -396 -383 -1 -77 2 -92 31 -150
17 -36 31 -66 29 -67 -7 -8 -172 135 -239 208 -360 386 -497 954 -330 1359 88
214 267 402 486 510 143 71 226 71 412 1 123 -46 147 -49 175 -21 30 30 34 64
13 107 -38 80 -180 111 -354 78z"/>
<path d="M26775 6591 c-80 -21 -135 -75 -135 -132 0 -39 36 -79 71 -79 16 0
74 18 130 40 212 85 319 71 528 -67 166 -111 300 -269 371 -440 164 -393 38
-942 -307 -1338 -69 -80 -186 -185 -244 -219 l-31 -18 25 38 c38 58 61 147 53
209 -8 74 -41 162 -82 222 -117 170 -369 189 -520 39 -116 -116 -112 -290 9
-407 110 -107 232 -106 232 1 0 24 -8 46 -20 60 -21 23 -33 23 -132 4 -27 -5
-37 -1 -61 23 -82 81 -25 265 100 327 163 81 353 -28 413 -238 30 -101 0 -198
-87 -286 -62 -63 -121 -97 -223 -129 -137 -44 -223 -54 -397 -48 -208 8 -372
47 -616 149 -261 108 -431 206 -727 418 -594 425 -1274 800 -1723 950 -429
142 -830 158 -1172 44 -356 -119 -696 -409 -841 -718 -153 -327 -160 -757 -19
-1180 116 -346 323 -631 580 -800 153 -100 390 -157 660 -157 199 0 346 33
505 113 435 220 686 834 550 1345 -75 283 -256 517 -490 635 -133 67 -319 104
-479 95 -189 -11 -326 -75 -418 -194 -63 -84 -89 -157 -95 -268 -9 -158 37
-287 140 -390 53 -53 74 -66 133 -85 182 -58 388 -8 449 110 49 94 9 207 -90
251 -52 24 -92 24 -177 -2 -115 -35 -181 -10 -225 89 -20 42 -24 64 -19 98 12
90 71 165 161 206 64 28 216 31 315 5 87 -23 214 -87 272 -137 100 -87 182
-251 213 -427 22 -127 20 -341 -5 -438 -58 -228 -213 -413 -433 -520 -144 -69
-196 -80 -387 -80 -180 0 -253 13 -380 65 -345 143 -636 529 -701 929 -15 96
-12 312 6 407 56 293 220 535 474 699 513 331 1191 321 1769 -26 114 -69 190
-122 537 -374 160 -116 343 -249 408 -295 133 -94 161 -123 218 -233 74 -142
85 -272 31 -370 -61 -112 -235 -191 -367 -166 -171 32 -253 226 -162 382 25
43 75 77 111 77 9 0 41 -22 71 -50 30 -27 62 -50 69 -50 25 0 74 49 81 80 14
63 -40 102 -144 102 -122 0 -229 -62 -277 -160 -29 -57 -26 -192 4 -254 53
-107 164 -189 275 -204 143 -20 342 108 397 252 36 98 23 235 -35 363 -31 67
-31 67 3 45 172 -114 442 -264 611 -339 58 -26 110 -53 115 -61 6 -8 40 -20
76 -28 36 -7 106 -25 155 -40 50 -14 144 -37 210 -50 322 -64 702 -285 918
-533 218 -252 341 -553 354 -873 7 -157 -11 -252 -68 -368 -47 -96 -117 -172
-199 -216 -106 -58 -231 -31 -273 57 -22 46 -21 85 3 124 43 71 115 80 216 28
74 -39 84 -41 84 -22 0 19 -39 54 -82 72 -82 34 -190 5 -235 -64 -73 -110 48
-265 193 -248 154 17 310 185 365 394 67 250 -24 671 -205 958 -18 28 -35 55
-39 61 -4 7 29 1 76 -12 396 -116 928 -36 1262 189 125 84 257 231 319 354 65
131 101 345 86 515 -10 109 -15 134 -46 230 -48 148 -143 262 -272 325 -71 36
-82 38 -166 38 -73 -1 -101 -5 -141 -23 -104 -48 -160 -129 -153 -223 10 -144
154 -222 272 -149 55 33 88 83 94 139 7 80 -37 139 -130 173 l-53 19 100 -3
c88 -3 108 -8 168 -35 86 -41 153 -109 199 -204 108 -222 99 -556 -23 -805
-141 -288 -529 -494 -1007 -535 -152 -13 -318 -2 -448 31 -97 25 -238 91 -253
119 -18 33 -190 182 -292 252 -52 35 -159 97 -239 136 l-145 73 105 0 c309 0
625 114 914 328 129 96 348 315 414 413 56 84 117 138 277 242 367 239 827
395 1350 459 164 19 569 17 720 -5 404 -59 692 -185 925 -404 274 -258 494
-654 582 -1049 19 -85 22 -128 22 -304 0 -179 -3 -215 -21 -282 -79 -283 -274
-478 -571 -572 -101 -32 -132 -33 -73 -3 64 32 143 113 175 179 96 197 -9 391
-245 453 -216 58 -400 -65 -440 -293 -46 -262 197 -487 506 -469 318 19 603
250 716 580 49 145 62 228 62 402 1 296 -69 571 -223 882 -36 72 -61 129 -55
125 5 -3 62 -52 125 -108 1146 -1012 2290 -1617 3435 -1814 318 -54 440 -64
805 -64 358 0 478 9 783 60 765 129 1637 510 2147 938 47 39 88 70 92 69 4 -2
12 6 17 16 6 10 36 45 67 77 31 33 93 101 137 152 98 114 232 208 447 310 337
162 652 236 1005 236 267 0 459 -41 633 -135 284 -152 542 -499 639 -857 34
-127 38 -332 9 -427 -50 -165 -155 -288 -309 -363 -113 -55 -144 -63 -90 -23
154 112 161 310 15 397 -145 87 -313 52 -381 -81 -37 -71 -37 -189 0 -260 53
-104 196 -174 330 -161 223 20 415 182 494 417 37 111 46 306 21 442 -52 277
-202 565 -395 758 -193 192 -413 301 -716 354 -134 24 -408 24 -560 1 -298
-46 -609 -154 -855 -298 -52 -31 -96 -55 -98 -53 -1 1 20 42 47 91 101 182
179 404 205 586 46 318 21 546 -81 758 -38 80 -59 109 -132 181 -137 137 -269
193 -456 192 -267 -1 -448 -146 -496 -397 -21 -113 0 -230 67 -364 80 -163
231 -291 409 -348 107 -34 167 -36 197 -6 21 21 22 24 8 49 -18 32 -31 39
-165 87 -200 73 -351 189 -415 320 -88 178 -22 432 135 526 223 133 466 100
658 -88 159 -156 228 -351 229 -647 1 -237 -35 -413 -128 -631 -99 -232 -210
-399 -346 -519 -78 -69 -99 -93 -108 -125 -25 -91 -399 -376 -766 -581 -518
-290 -1118 -480 -1759 -556 -187 -22 -794 -25 -975 -5 -887 98 -1690 388
-2525 910 -484 302 -903 635 -1486 1180 -186 174 -243 220 -444 356 -241 164
-529 267 -890 318 -136 20 -559 16 -714 -5 -481 -67 -982 -246 -1340 -477 -51
-33 -94 -60 -96 -60 -2 0 5 28 16 63 139 454 46 942 -234 1234 -124 130 -214
188 -398 259 -182 70 -413 109 -504 85z"/>
</g>
</svg>
