<?xml version="1.0" standalone="no"?>
<!DOCTYPE svg PUBLIC "-//W3C//DTD SVG 20010904//EN"
 "http://www.w3.org/TR/2001/REC-SVG-20010904/DTD/svg10.dtd">
<svg version="1.0" xmlns="http://www.w3.org/2000/svg"
 width="1200.000000pt" height="727.000000pt" viewBox="0 0 1200.000000 727.000000"
 preserveAspectRatio="xMidYMid meet">
<metadata>
Created by potrace 1.16, written by Peter Selinger 2001-2019
</metadata>
<g transform="translate(0.000000,727.000000) scale(0.100000,-0.100000)"
fill="#000000" stroke="none">
<path d="M0 4825 l0 -2445 33 -1 32 -1 -33 -10 -32 -11 0 -1178 0 -1179 6000
0 6000 0 0 2154 0 2155 -59 -24 c-72 -28 -137 -40 -145 -27 -4 6 -21 7 -44 1
-22 -5 -54 -11 -73 -13 -19 -3 -45 -8 -59 -11 -14 -3 -68 -10 -120 -16 -52 -6
-97 -14 -100 -19 -8 -13 -360 -15 -393 -2 -16 7 -40 12 -53 12 -14 0 -32 6
-40 14 -7 8 -23 12 -34 9 -16 -4 -20 0 -20 19 0 34 -10 41 -31 22 -10 -9 -30
-17 -46 -19 -15 -2 -35 -5 -43 -6 -34 -5 -60 2 -60 16 0 8 -4 15 -10 15 -5 0
-10 -8 -10 -19 0 -26 -43 -69 -87 -88 -21 -8 -46 -22 -55 -30 -10 -9 -34 -17
-55 -19 -20 -2 -50 -10 -67 -18 -17 -8 -61 -20 -99 -27 -37 -7 -67 -16 -67
-21 0 -4 -26 -8 -59 -8 -59 0 -102 -10 -156 -37 -24 -11 -45 -13 -103 -5 -42
5 -75 5 -78 0 -3 -5 -11 -4 -18 1 -9 7 -16 7 -23 0 -11 -11 -93 8 -93 22 0 4
-17 3 -38 -3 -50 -13 -71 -12 -113 7 -35 16 -37 16 -94 -14 -32 -17 -63 -31
-70 -31 -6 0 -20 -9 -29 -19 -15 -16 -22 -18 -42 -9 -17 8 -31 8 -53 -2 -16
-6 -34 -9 -40 -6 -11 7 -89 -41 -187 -116 -19 -14 -57 -32 -84 -39 -50 -13
-60 -22 -39 -35 8 -5 6 -10 -6 -16 -11 -7 -21 -6 -28 1 -17 17 -37 13 -91 -14
-27 -14 -55 -25 -63 -25 -7 0 -13 -4 -13 -10 0 -5 -5 -10 -11 -10 -6 0 -25
-11 -43 -25 -18 -14 -43 -25 -54 -25 -13 0 -22 -6 -22 -15 0 -8 -7 -15 -16
-15 -9 0 -25 -11 -36 -25 -11 -14 -25 -24 -31 -22 -6 2 -19 -5 -29 -15 -11
-11 -35 -19 -60 -20 -24 -1 -52 -3 -63 -4 -11 -1 -37 -2 -57 -3 -25 -1 -46 -9
-60 -23 -12 -12 -31 -23 -42 -24 -47 -7 -63 -11 -109 -32 -27 -12 -56 -23 -65
-24 -9 -2 -20 -6 -23 -11 -3 -4 -20 -9 -37 -10 -18 -1 -32 -4 -32 -7 0 -3 -10
-6 -22 -7 -13 -1 -36 -3 -53 -5 -16 -2 -35 0 -42 5 -7 5 -16 1 -25 -11 -18
-26 -41 -33 -131 -43 -43 -4 -85 -13 -93 -20 -7 -6 -19 -9 -27 -6 -7 2 -40 -1
-74 -8 -36 -7 -94 -11 -136 -8 -49 3 -77 1 -81 -6 -4 -6 -18 -8 -31 -5 -13 3
-57 -2 -97 -11 -40 -10 -115 -19 -167 -20 -53 -2 -98 -8 -105 -15 -11 -11 -13
-103 -6 -315 2 -60 0 -129 -4 -152 -5 -29 -4 -43 3 -43 6 0 11 15 12 33 0 26
2 29 9 12 10 -23 12 -281 4 -337 -10 -57 -20 -46 -28 28 -7 66 -25 116 -47
130 -8 4 -9 3 -5 -4 4 -7 5 -12 2 -12 -13 0 -28 47 -31 93 -2 27 -6 76 -10
108 -5 40 -3 59 4 59 6 0 11 10 11 22 l0 22 -16 -22 c-8 -12 -24 -22 -34 -22
-18 0 -17 3 7 56 21 45 24 64 18 102 -4 25 -13 51 -20 57 -14 10 -48 85 -39
85 3 0 14 -19 24 -42 11 -24 20 -37 20 -30 0 7 -11 34 -25 61 -21 42 -27 48
-50 44 -28 -6 -30 -1 -15 28 8 15 7 19 -5 19 -8 0 -15 4 -15 9 0 6 -33 26 -72
45 -96 47 -203 65 -290 47 -35 -7 -70 -13 -78 -15 -9 -2 -16 -16 -18 -34 -3
-33 -19 -41 -40 -20 -9 9 -18 6 -38 -13 -29 -27 -64 -90 -64 -115 0 -13 -3
-14 -15 -4 -8 7 -23 9 -37 4 -36 -12 -48 -13 -54 -3 -7 11 -81 12 -88 1 -3 -5
-19 -7 -35 -4 -17 2 -28 8 -25 13 3 5 1 9 -5 9 -5 0 -11 -5 -13 -11 -2 -6 -25
-11 -51 -12 -37 -2 -46 -5 -42 -16 4 -10 0 -9 -14 3 -11 10 -26 16 -33 14 -7
-3 -22 -2 -33 3 l-20 8 20 0 c11 1 27 6 35 11 11 7 -3 10 -47 10 -52 0 -62 -3
-62 -17 -4 -97 3 -237 20 -378 21 -178 29 -218 56 -282 l16 -38 11 45 11 45
98 3 c72 2 99 -1 102 -10 11 -29 31 -169 25 -177 -3 -6 -47 -9 -98 -9 -51 1
-94 -1 -97 -3 -2 -3 6 -34 19 -69 l24 -65 91 -3 c50 -1 91 -5 91 -7 0 -18 31
-209 35 -216 3 -4 17 -70 30 -146 14 -76 33 -175 41 -221 22 -113 23 -112
-128 -112 -110 0 -120 -1 -113 -17 17 -45 35 -131 35 -168 l0 -40 -19 41 c-22
48 -69 90 -85 74 -17 -17 -27 -11 -16 9 13 26 13 32 -2 30 -7 -1 -20 1 -28 4
-115 49 -242 62 -352 36 -82 -20 -178 -62 -178 -79 0 -6 5 -10 10 -10 6 0 10
-5 10 -10 0 -6 -11 -3 -25 6 -23 15 -25 15 -25 0 0 -9 -6 -16 -13 -16 -17 0
-50 -36 -72 -79 -21 -42 -48 -211 -35 -226 13 -15 -21 -137 -36 -131 -7 3 -21
-6 -33 -18 -30 -31 -26 -44 4 -16 35 33 31 15 -5 -27 -17 -18 -30 -38 -30 -42
0 -5 -6 -11 -14 -14 -22 -9 -8 75 31 183 19 52 41 139 49 194 28 196 97 367
182 454 46 47 49 52 35 71 -8 12 -21 21 -30 21 -13 0 -14 -2 -2 -17 13 -15 12
-15 -9 -4 -28 15 -37 9 -73 -47 -16 -25 -29 -39 -30 -31 0 8 -4 6 -9 -6 -7
-17 -9 -15 -9 12 -2 77 48 237 94 306 26 38 39 45 50 27 3 -5 -2 -10 -12 -10
-13 0 -10 -5 12 -19 42 -28 81 -61 72 -61 -4 0 -24 7 -44 15 -45 19 -48 19
-29 -1 22 -22 20 -29 -16 -65 -30 -29 -31 -31 -6 -16 31 19 65 22 88 7 11 -7
4 -10 -27 -10 -23 0 -45 -5 -48 -10 -4 -6 -1 -9 6 -8 7 2 19 -18 28 -45 14
-41 19 -47 36 -41 128 41 170 47 267 36 140 -17 219 -60 266 -147 14 -26 16
-28 20 -10 2 11 8 22 12 25 4 3 10 21 13 40 6 33 6 33 -5 9 l-11 -27 -25 50
c-21 42 -28 49 -48 45 -13 -2 -24 0 -24 4 0 5 6 9 13 9 6 0 4 5 -6 11 -13 8
-22 7 -33 -1 -16 -14 -17 -7 -5 37 9 32 9 32 -32 36 -36 3 -39 5 -19 12 13 4
21 13 19 19 -2 6 5 19 15 30 22 24 17 31 -12 16 -11 -6 -29 -10 -38 -8 -13 3
-9 8 15 23 22 12 29 22 21 26 -9 6 -9 14 1 33 13 23 16 24 44 12 35 -14 67
-68 93 -156 16 -53 19 -68 24 -120 1 -14 4 -19 7 -12 2 6 13 12 24 12 16 0 19
7 19 50 0 51 -6 60 -28 38 -9 -9 -12 -9 -12 2 0 8 -24 65 -55 125 -30 61 -65
144 -77 185 -14 46 -33 86 -50 104 -26 27 -31 28 -87 22 l-60 -7 9 32 c5 18 7
36 3 42 -3 6 -6 26 -5 45 1 19 -5 46 -13 62 -8 15 -10 31 -5 36 5 5 5 27 1 49
-11 60 -5 626 7 634 16 10 -3 188 -34 318 -31 133 -43 227 -31 242 9 12 9 13
0 7 -8 -4 -13 -1 -13 8 0 10 9 16 25 16 14 0 25 -4 25 -9 0 -16 54 -17 80 -1
64 39 85 75 56 99 -8 7 -12 27 -11 51 1 22 -2 40 -7 40 -6 0 -8 6 -5 13 3 7
-1 21 -9 32 -8 10 -14 33 -14 51 0 18 -5 36 -10 39 -6 4 -8 11 -4 16 3 6 -3
17 -15 25 -12 8 -21 26 -21 39 0 13 -5 25 -11 27 -6 2 -12 22 -13 43 0 22 -5
43 -11 47 -6 5 -5 8 3 8 7 0 12 14 12 35 0 24 6 37 20 45 16 8 18 15 10 35 -5
14 -7 25 -3 25 4 0 -5 12 -19 28 -29 30 -45 72 -29 72 6 0 11 5 11 11 0 6 -6
9 -13 6 -7 -3 -24 3 -38 14 l-24 18 53 54 c34 34 51 59 47 69 -3 8 3 48 13 89
17 63 18 74 5 77 -8 2 -12 9 -10 16 3 8 -4 11 -24 8 -17 -3 -29 0 -29 7 0 6 5
11 10 11 17 0 11 18 -7 25 -34 11 -54 32 -47 49 4 11 13 15 27 10 20 -6 20 -6
-1 21 -12 15 -22 38 -22 50 0 21 -22 50 -31 41 -2 -3 -3 18 -3 45 1 27 -1 47
-5 46 -3 -2 -17 7 -30 20 -19 18 -21 23 -8 23 22 0 22 16 1 28 -11 6 -13 11
-5 16 16 10 14 41 -3 56 -8 6 -12 18 -9 25 2 8 -7 26 -23 40 -20 19 -23 25
-10 25 22 0 20 12 -4 30 -28 20 -25 33 5 27 20 -3 25 -1 23 12 -2 9 -9 16 -16
16 -14 0 -54 70 -45 79 3 3 0 13 -7 21 -9 11 -10 19 -3 26 7 7 17 2 31 -15 11
-14 25 -26 31 -26 6 0 11 -6 11 -14 0 -8 13 -28 30 -46 16 -18 30 -36 30 -41
0 -5 10 -9 23 -9 16 0 18 -3 8 -9 -11 -7 -9 -11 8 -21 15 -8 20 -17 16 -31 -5
-14 -2 -19 12 -19 11 0 14 3 7 8 -9 5 -8 11 2 20 12 11 14 8 14 -13 0 -17 5
-25 12 -23 7 3 19 -1 26 -9 20 -19 32 -16 33 10 1 49 11 124 19 156 11 40 6
51 -21 51 -11 0 -17 4 -14 10 3 5 -1 20 -9 32 -21 30 -20 37 4 31 11 -3 20 -9
20 -14 0 -5 7 -9 15 -9 8 0 15 7 15 15 0 8 -4 15 -10 15 -5 0 -10 5 -10 11 0
5 4 8 9 5 14 -9 20 57 6 74 -19 23 -25 48 -13 52 7 3 6 11 -3 26 -12 19 -12
24 -1 31 15 9 17 51 7 125 -5 37 -4 46 6 41 9 -6 11 1 6 31 -4 21 -7 45 -7 52
0 7 -4 10 -10 7 -6 -3 -7 1 -4 9 3 9 11 16 18 16 7 0 7 3 -2 8 -15 10 -5 44
12 36 6 -3 2 2 -8 10 -11 9 -15 16 -9 16 13 0 38 58 29 68 -4 3 -11 0 -17 -8
-7 -13 -10 -13 -18 -1 -13 19 -1 53 16 47 9 -4 11 -1 7 5 -4 7 -9 46 -11 89
-3 61 -1 79 11 90 18 14 21 40 6 40 -5 0 -10 9 -10 21 0 11 -5 29 -10 39 -8
15 -7 18 3 14 8 -3 20 -17 27 -32 l12 -27 9 23 c5 14 13 20 21 16 8 -5 9 -2 5
10 -4 10 -7 29 -7 42 0 14 -4 22 -10 19 -15 -9 -12 4 4 21 18 17 23 18 29 2 2
-7 3 -5 2 4 -2 9 8 24 21 32 22 15 23 17 6 45 -14 26 -15 38 -5 98 7 38 24 94
38 126 13 32 32 92 41 135 19 93 38 131 29 57 -4 -27 -18 -84 -32 -125 -24
-73 -39 -133 -50 -196 -12 -75 47 -33 89 63 13 29 27 53 32 53 4 0 5 -8 1 -17
-25 -66 -28 -222 -4 -207 5 3 9 -5 9 -17 0 -12 -17 -38 -39 -59 l-38 -37 -10
26 c-11 25 -11 25 -12 -11 -1 -27 -8 -42 -31 -61 l-30 -26 -7 -175 -6 -176 59
0 c80 0 192 25 225 50 16 11 34 20 42 20 16 0 47 31 47 48 0 7 -10 13 -22 13
-13 1 -5 5 17 9 43 9 86 3 96 -13 11 -16 32 66 30 115 -1 26 -9 71 -17 100
-49 180 -63 281 -37 271 7 -3 14 -8 14 -12 1 -3 3 -17 4 -31 2 -14 9 -38 16
-55 7 -16 13 -37 13 -45 1 -10 14 -16 38 -18 32 -3 36 -1 31 16 -2 11 -1 22 4
24 19 11 63 18 63 9 0 -4 -14 -11 -30 -14 -37 -8 -39 -23 -5 -31 16 -4 25 -13
25 -27 0 -11 4 -29 10 -39 7 -13 6 -19 -4 -23 -7 -3 -16 -19 -18 -37 -3 -23
-1 -30 9 -26 21 8 16 -38 -7 -59 -11 -10 -18 -20 -15 -23 2 -3 -1 -14 -7 -26
-11 -20 -10 -20 9 -3 32 28 34 20 8 -27 -30 -55 -31 -73 -4 -81 14 -5 18 -10
11 -17 -6 -6 -8 -17 -5 -25 5 -13 1 -12 -21 2 -25 17 -26 17 -20 -1 4 -11 10
-23 14 -29 3 -5 7 -22 8 -37 1 -22 -3 -28 -18 -28 -11 0 -20 -4 -20 -9 0 -5
-3 -18 -7 -28 -4 -13 -1 -11 14 6 l20 24 7 -29 c6 -24 3 -32 -18 -49 -23 -18
-39 -74 -17 -61 4 3 14 -7 20 -21 11 -23 10 -29 -5 -40 -10 -7 -19 -23 -21
-35 -4 -22 -3 -22 11 -3 15 20 15 20 16 -2 0 -12 5 -23 11 -25 7 -2 7 -12 1
-29 -7 -17 -6 -32 3 -48 15 -30 12 -170 -5 -181 -8 -5 -9 -13 -2 -26 6 -11 16
-44 22 -74 10 -45 9 -65 -3 -110 -19 -71 -20 -103 -3 -97 9 4 16 -4 19 -21 3
-15 15 -48 26 -74 15 -35 24 -46 36 -42 16 7 22 -20 6 -30 -15 -10 0 -57 18
-54 9 1 17 -2 19 -7 1 -6 -9 -11 -23 -13 -19 -3 -25 -8 -21 -19 3 -8 6 -17 6
-19 0 -2 4 -4 10 -4 5 0 7 7 4 15 -4 10 -2 13 7 10 9 -3 15 -24 17 -52 1 -26
6 -50 10 -53 4 -3 9 -21 11 -40 2 -19 7 -43 12 -52 5 -9 9 -33 9 -52 0 -20 5
-36 11 -36 5 0 8 -4 5 -9 -3 -4 -1 -35 4 -67 5 -33 14 -113 20 -179 6 -66 16
-128 21 -138 8 -15 12 -279 5 -392 -1 -17 5 -35 14 -42 12 -10 4 -11 -41 -8
-73 5 -90 -8 -119 -87 -31 -85 -33 -107 -9 -101 11 3 31 -5 50 -21 26 -22 28
-26 10 -26 -11 0 -23 5 -26 10 -11 18 -22 10 -18 -12 6 -32 63 -55 152 -62 87
-7 123 -15 116 -25 -2 -4 -30 -4 -62 1 -178 26 -205 28 -226 17 -18 -10 -19
-12 -4 -21 10 -5 17 -16 17 -24 0 -11 -7 -13 -26 -8 -18 5 -25 3 -21 -3 4 -6
-2 -13 -12 -16 -23 -6 -47 -41 -56 -82 l-7 -30 27 33 c51 63 94 77 235 77 119
0 128 -1 185 -30 33 -16 63 -31 66 -33 4 -2 9 15 11 38 3 36 1 41 -19 46 -26
7 -31 24 -7 24 8 0 22 6 30 14 12 13 11 15 -6 21 -28 9 -25 22 8 30 15 4 21
10 14 12 -6 3 -10 9 -6 14 3 5 -2 9 -10 9 -20 0 -20 14 -1 30 17 14 35 5 35
-18 0 -14 2 -15 9 -3 8 13 12 13 27 0 11 -9 15 -9 10 -1 -17 28 14 9 33 -20
15 -24 21 -28 21 -15 0 10 -11 29 -25 43 -14 14 -25 29 -25 34 0 4 -6 11 -12
13 -10 4 -10 6 -1 6 17 1 -4 60 -31 87 -27 26 -66 37 -66 19 0 -8 -5 -17 -12
-21 -8 -5 -9 0 -6 14 5 18 1 23 -20 29 -31 7 -93 43 -76 43 7 0 12 27 12 75 1
42 5 81 9 88 4 7 6 21 5 32 -2 17 -1 17 7 5 9 -12 11 -10 12 10 1 14 1 28 0
32 0 4 6 5 14 2 17 -7 21 11 5 21 -7 4 -4 13 7 23 10 10 19 31 21 47 2 17 9
50 16 75 20 64 27 110 17 110 -5 0 -8 11 -8 25 0 15 5 25 14 25 8 0 11 5 8 10
-4 6 -1 17 5 25 7 8 9 26 5 43 -5 23 -2 31 12 36 12 5 14 9 5 14 -11 8 -10 13
13 92 1 3 7 19 14 35 7 17 20 59 28 95 9 36 20 74 24 85 4 11 11 36 15 55 3
19 15 57 26 83 12 26 18 50 15 53 -3 3 4 30 14 60 11 30 17 60 13 65 -3 5 -1
16 5 22 14 17 31 141 28 196 -2 27 -9 46 -19 52 -12 7 -15 22 -13 66 4 105 17
173 37 198 12 16 17 32 13 45 -4 11 -2 20 4 20 6 0 11 15 11 33 0 21 -3 28 -9
19 -14 -22 -21 38 -7 62 6 12 14 23 17 26 11 10 18 40 9 40 -6 0 -10 5 -10 10
0 6 5 9 11 8 6 -2 14 3 17 11 3 8 0 11 -7 7 -6 -4 -11 -2 -11 4 0 6 8 14 18
17 27 10 31 23 15 53 -9 18 -12 49 -10 84 2 31 1 56 -2 56 -4 0 -7 8 -8 18 0
9 -6 32 -11 50 -10 30 -9 33 9 27 11 -4 19 -2 19 5 0 6 -4 9 -9 6 -5 -3 -12 6
-15 20 -7 28 0 64 14 64 10 0 8 -19 -3 -37 -5 -9 -2 -13 8 -13 9 0 20 -13 26
-28 11 -31 85 -72 130 -72 40 0 79 -23 73 -41 -3 -12 8 -23 43 -40 26 -12 50
-26 53 -30 3 -5 14 -8 25 -8 30 1 119 -34 138 -52 31 -31 153 -32 177 -1 3 4
22 15 43 24 20 10 37 24 37 33 0 8 6 15 13 15 19 0 50 -36 43 -48 -11 -18 29
-54 69 -61 35 -7 111 -2 252 15 24 3 49 12 57 20 8 8 19 14 23 14 5 0 19 9 31
20 46 44 91 67 116 63 22 -5 26 -2 26 19 0 30 -42 78 -68 78 -11 0 -31 9 -45
20 -30 23 -81 32 -115 19 -19 -7 -22 -12 -13 -23 30 -36 -139 -57 -178 -22
-11 10 -24 15 -29 12 -5 -3 -15 0 -21 7 -6 8 -28 19 -50 27 -28 9 -37 17 -34
29 5 21 -46 63 -99 80 -21 7 -38 17 -38 22 0 5 -6 9 -13 9 -8 0 -22 9 -32 20
-10 11 -24 20 -32 20 -7 0 -13 5 -13 10 0 6 -9 10 -20 10 -11 0 -20 5 -20 11
0 6 12 10 28 8 15 -1 35 2 45 6 10 4 35 0 59 -10 33 -13 58 -15 105 -10 35 4
65 11 68 16 4 5 15 9 26 9 10 0 19 7 19 15 0 8 5 15 10 15 6 0 10 7 10 15 0 8
-6 15 -14 15 -7 0 -19 6 -25 14 -8 9 -25 12 -54 9 -132 -15 -208 -17 -283 -8
-47 6 -51 5 -62 -19 -10 -22 -18 -26 -53 -26 -24 0 -50 -7 -59 -15 -16 -14
-21 -14 -55 2 -35 17 -38 17 -67 0 -36 -21 -71 -22 -87 -3 -8 9 -24 12 -49 9
-30 -4 -51 2 -100 28 -59 31 -62 33 -48 53 8 12 20 19 28 17 29 -9 212 5 238
19 19 10 19 12 4 35 -15 23 -15 24 10 31 15 3 39 1 55 -6 16 -6 38 -9 48 -6
10 3 58 10 107 15 80 8 92 12 109 35 10 14 27 26 37 26 10 0 28 16 41 36 18
30 20 40 10 56 -12 19 -7 38 9 38 5 0 11 -8 13 -17 4 -14 5 -13 6 4 1 29 27
43 62 33 28 -8 83 -13 125 -11 12 1 32 12 45 26 24 25 72 34 84 15 4 -6 11 -8
16 -4 5 3 16 0 24 -6 9 -8 44 -12 92 -10 108 2 122 4 116 12 -2 5 3 8 11 8 8
0 22 7 30 16 14 14 13 18 -10 41 -43 42 -134 50 -177 14 -10 -7 -110 -21 -103
-14 6 6 -85 93 -97 93 -20 0 -37 21 -37 46 l0 23 -460 0 c-451 1 -459 1 -470
-19 -6 -11 -17 -20 -25 -20 -9 0 -15 -9 -15 -23 0 -23 -17 -47 -32 -47 -11 0
-10 48 1 52 5 2 13 15 16 31 l7 27 -448 -1 c-247 0 -443 -3 -436 -6 6 -2 12
-14 12 -24 0 -18 -2 -18 -24 5 -23 25 -27 26 -147 26 -82 0 -120 -3 -113 -10
12 -12 6 -80 -8 -80 -5 0 -7 -8 -3 -19 3 -12 0 -21 -10 -25 -8 -3 -15 -16 -15
-29 0 -14 -15 -41 -36 -63 l-35 -39 6 30 c3 17 10 46 15 65 5 19 11 44 12 55
2 11 10 20 18 20 16 1 16 3 4 50 -6 26 -5 28 8 18 16 -14 28 -8 28 14 0 11
-123 13 -700 13 -616 0 -700 -2 -700 -15 0 -8 3 -15 8 -15 4 0 7 -11 7 -25 0
-14 -3 -25 -8 -25 -4 0 -3 -8 2 -17 34 -67 43 -91 39 -108 -2 -12 6 -29 20
-42 27 -25 46 -83 32 -97 -7 -7 -10 -3 -10 12 0 26 -36 66 -51 57 -5 -4 -16
-2 -23 4 -17 14 -14 -36 8 -165 15 -87 33 -131 114 -275 19 -35 29 -65 26 -80
-4 -21 -3 -21 4 -4 9 19 9 19 21 -3 8 -16 9 -27 1 -42 -6 -11 -8 -25 -5 -31 8
-12 10 -117 3 -124 -3 -3 -9 34 -13 82 -4 48 -10 82 -12 75 -3 -6 -9 -9 -15
-6 -7 5 -9 -23 -6 -84 3 -71 1 -89 -8 -81 -8 7 -14 6 -18 -3 -3 -7 -2 16 1 52
3 36 7 67 9 70 1 3 -1 12 -7 20 -7 12 -9 10 -9 -8 0 -21 -1 -22 -16 -8 -8 9
-17 16 -19 16 -2 0 -2 -35 0 -77 4 -74 -2 -92 -27 -93 -5 0 -8 32 -8 71 0 44
-4 68 -10 64 -5 -3 -10 -35 -10 -71 0 -36 -4 -64 -10 -64 -13 0 -13 1 -15 160
-1 74 -6 153 -13 175 -6 22 -14 107 -17 190 -3 82 -12 193 -20 245 -7 52 -19
134 -26 183 l-12 87 -2069 0 -2068 0 0 -2445z m7423 2386 c29 -9 41 -10 52 -1
11 9 16 7 25 -10 6 -11 10 -29 8 -39 -4 -27 56 -75 79 -63 11 7 21 6 30 -3 15
-16 17 -45 3 -45 -5 0 -10 9 -10 21 0 11 -4 18 -10 14 -5 -3 -7 -12 -4 -19 3
-9 -3 -17 -15 -21 -12 -3 -19 -10 -16 -14 9 -16 -30 -37 -65 -36 -84 4 -87 5
-98 30 -7 14 -20 25 -31 25 -10 0 -21 7 -25 15 -3 9 -18 15 -34 15 -37 0 -93
20 -87 30 3 5 -1 15 -9 23 -21 20 -16 57 6 57 10 0 18 5 18 10 0 6 7 10 15 10
8 0 15 4 15 10 0 5 6 7 13 5 6 -2 28 -1 47 4 19 4 40 5 45 1 6 -3 27 -12 48
-19z m-1603 -651 c0 -5 8 -10 18 -11 9 0 12 -3 6 -5 -7 -3 -10 -13 -7 -23 4
-15 0 -18 -20 -14 -14 3 -28 -1 -32 -8 -6 -9 1 -11 31 -7 33 5 42 2 57 -18 26
-35 5 -73 -23 -39 -18 21 -50 19 -50 -3 0 -10 6 -24 13 -31 10 -11 8 -13 -10
-8 -24 5 -33 -16 -13 -28 18 -11 10 -25 -15 -25 -22 0 -65 33 -65 51 0 4 -10
10 -22 14 -19 6 -13 9 31 19 30 6 56 16 58 23 5 14 -31 26 -54 19 -15 -5 -18
1 -17 37 1 23 2 48 3 55 1 15 111 17 111 2z m-1309 -332 c6 -12 13 -67 14
-122 4 -169 17 -330 27 -350 8 -14 7 -17 -3 -11 -9 6 -11 3 -6 -9 4 -10 7 -22
7 -27 0 -6 5 -7 10 -4 6 3 10 1 10 -4 0 -6 -5 -11 -12 -11 -6 0 -3 -7 8 -16
10 -8 14 -13 7 -10 -6 4 -14 2 -18 -4 -3 -5 -1 -10 6 -10 6 0 9 -8 6 -20 -3
-11 -1 -18 4 -14 8 5 13 -9 10 -28 0 -5 3 -8 8 -8 12 0 24 37 17 49 -4 5 -2
11 2 13 5 1 23 33 41 70 17 37 35 70 40 72 10 7 3 -114 -10 -164 -12 -46 -12
-160 0 -160 5 0 9 -13 9 -30 -1 -31 -12 -40 -21 -17 -3 7 -6 4 -6 -6 -1 -10
-9 -26 -18 -35 -15 -15 -16 -15 -11 -1 4 9 -2 23 -13 32 -18 16 -19 16 -19 -3
0 -10 -4 -21 -9 -24 -5 -3 -22 -41 -37 -83 -16 -43 -30 -70 -32 -60 -2 10 -13
17 -26 17 -12 0 -31 7 -42 15 -23 17 -54 19 -86 4 -27 -12 -83 4 -73 21 3 6
-2 13 -12 16 -10 3 -26 10 -36 15 -21 11 -106 1 -108 -12 -5 -27 -2 -34 21
-40 24 -7 24 -7 3 -8 -13 -1 -23 -5 -23 -11 0 -5 -9 -10 -21 -10 -15 0 -19 5
-14 19 7 24 -28 34 -75 21 -34 -10 -68 1 -83 26 -4 8 -14 14 -21 14 -8 0 -27
7 -42 15 l-29 15 45 1 c25 1 47 1 50 1 3 1 23 -2 45 -5 37 -6 41 -4 42 16 3
31 -68 70 -102 57 -18 -7 -30 -4 -49 11 -21 16 -31 18 -58 10 -29 -8 -30 -9
-8 -10 18 -1 21 -4 12 -10 -8 -4 -12 -19 -10 -32 3 -24 -3 -27 -74 -30 -10 0
-18 -4 -18 -8 0 -5 -9 -11 -20 -14 -11 -3 -20 -10 -20 -15 0 -11 55 -11 66 1
8 8 54 -31 54 -45 0 -9 -49 0 -65 13 -6 4 -17 4 -25 -1 -8 -6 -31 -10 -50 -10
-27 1 -31 3 -19 10 10 6 15 20 14 35 -3 19 1 25 16 25 28 0 23 24 -12 59 -39
40 -66 54 -74 41 -8 -13 -52 -13 -60 0 -4 6 -10 8 -15 5 -4 -3 -13 2 -20 10
-7 8 -23 15 -35 15 -12 0 -39 11 -59 25 -20 14 -40 25 -45 25 -9 0 -35 51 -32
64 1 5 -4 13 -11 17 -7 5 7 6 32 3 48 -7 150 -8 215 -1 22 2 48 4 58 5 30 3
18 20 -19 27 -33 6 -35 7 -18 20 18 13 17 14 -8 15 -15 0 -29 4 -32 9 -3 4
-20 11 -37 15 -38 7 -89 43 -89 62 0 8 -4 14 -9 14 -15 0 -22 33 -9 42 20 12
-6 25 -69 33 -29 3 -53 11 -53 16 0 5 -6 9 -12 9 -7 -1 -2 -10 11 -21 43 -35
14 -31 -64 9 l-76 39 30 31 c17 17 31 35 31 41 0 6 13 11 30 11 22 0 28 4 24
15 -6 15 0 19 49 29 15 4 27 13 27 21 0 9 10 15 25 15 14 0 25 5 25 11 0 6 7
9 15 5 8 -3 15 -2 15 2 0 5 24 16 54 25 47 15 60 16 95 5 23 -7 41 -16 41 -20
0 -5 12 -8 28 -8 15 0 46 -6 69 -13 33 -10 40 -16 33 -27 -24 -37 -13 -42 68
-35 42 3 107 8 145 10 78 4 97 9 97 28 0 22 27 40 44 30 8 -4 14 -12 13 -18
-2 -21 49 -28 81 -12 26 12 33 13 42 2 8 -10 8 -19 -2 -34 -11 -18 -10 -23 7
-35 30 -21 94 -27 126 -10 16 8 46 14 69 14 22 0 40 2 40 5 0 2 -13 46 -30 97
-16 51 -30 104 -30 119 0 28 4 30 82 37 10 1 23 -8 29 -20z m-1378 -370 c28 1
71 -30 59 -43 -13 -13 22 -24 37 -12 9 7 5 -1 -7 -17 -17 -22 -20 -31 -10 -37
25 -15 0 -19 -28 -4 -17 9 -30 11 -32 5 -7 -20 -30 -9 -75 34 -25 25 -48 42
-51 39 -3 -4 -6 -1 -6 6 0 8 7 10 20 6 11 -4 20 -3 19 2 -5 26 2 34 24 27 12
-5 35 -7 50 -6z m-587 -158 c13 0 24 -3 24 -6 0 -16 -23 -44 -35 -44 -22 0
-19 -40 3 -41 9 0 35 -3 57 -6 82 -10 140 -11 153 0 12 10 38 0 143 -54 30
-15 52 -18 127 -14 53 2 94 0 97 -5 3 -6 -2 -10 -11 -10 -40 0 6 -17 51 -19
11 -1 25 -12 32 -26 9 -21 8 -27 -6 -35 -10 -5 -22 -5 -27 0 -18 17 -199 17
-189 0 4 -6 3 -10 -2 -9 -4 1 -24 -1 -44 -5 -21 -5 -45 -4 -55 2 -12 6 -42 6
-77 2 -43 -6 -67 -5 -90 5 l-32 14 50 2 c28 2 59 4 70 5 11 1 27 2 35 3 10 1
11 4 3 12 -7 7 -34 13 -60 14 -26 0 -57 5 -68 10 -11 5 -37 9 -57 9 -20 0 -34
5 -31 10 4 5 -9 7 -30 3 -23 -3 -42 -1 -54 8 -10 8 -42 15 -70 15 -29 0 -53 3
-53 8 0 4 -18 6 -40 4 -31 -3 -40 -1 -40 11 0 16 -21 27 -48 27 -13 0 -11 -5
8 -21 l25 -20 -35 7 c-51 10 -53 12 -19 44 21 22 39 30 65 30 40 0 98 26 89
40 -4 6 5 10 19 10 37 0 55 10 49 26 -4 12 0 13 22 4 14 -5 37 -10 51 -10z
m1951 -608 c-3 -15 -2 -34 3 -42 5 -9 4 -20 -2 -28 -9 -10 -8 -16 1 -22 9 -5
10 -13 5 -21 -4 -8 -8 -33 -9 -56 0 -35 2 -40 14 -30 12 10 14 9 8 -7 -5 -11
-3 -22 4 -26 8 -5 8 -13 -2 -27 -10 -16 -9 -26 5 -53 12 -24 13 -36 5 -41 -7
-4 -8 -12 -4 -20 6 -9 3 -10 -10 -5 -18 7 -18 6 -1 -13 10 -10 16 -28 15 -38
-2 -10 1 -25 6 -33 5 -8 12 -35 16 -60 4 -25 13 -65 20 -89 9 -34 9 -45 0 -51
-9 -5 -8 -9 5 -14 15 -6 16 -8 0 -24 -9 -10 -16 -23 -16 -29 0 -6 -7 -14 -16
-17 -10 -4 -14 -14 -11 -26 3 -11 1 -23 -4 -26 -11 -6 -1 -46 13 -55 5 -3 9
-10 9 -15 -1 -5 4 -23 9 -40 6 -18 10 -36 9 -40 -1 -5 3 -21 9 -36 6 -15 9
-35 6 -43 -4 -8 -2 -21 4 -28 6 -6 11 -15 11 -20 3 -27 25 -98 32 -103 5 -3 9
-15 9 -28 0 -12 4 -26 10 -32 5 -5 11 -23 12 -39 1 -17 10 -38 20 -48 11 -11
18 -33 18 -55 0 -20 7 -46 15 -56 22 -29 19 -49 -5 -41 -22 7 -29 -18 -8 -31
7 -4 8 -3 4 4 -5 8 1 12 17 12 20 0 24 -4 20 -20 -3 -11 0 -20 6 -20 6 0 11
-14 11 -31 0 -36 -21 -35 -31 2 -5 18 -7 19 -8 5 -1 -18 -11 -18 -233 -12
-206 5 -548 21 -603 27 -11 1 12 5 50 9 l70 6 -95 1 c-61 1 -86 -2 -70 -7 24
-8 23 -8 -7 -9 -18 -1 -33 4 -33 9 0 6 -10 10 -22 10 -13 0 -59 18 -102 40
-43 22 -91 40 -107 40 -15 0 -30 4 -34 9 -9 15 -88 56 -141 74 -95 31 -224 51
-254 40 -18 -7 -33 -7 -45 0 -10 5 -45 11 -79 13 -139 7 -294 43 -354 82 -20
13 -24 13 -40 -1 -17 -15 -24 -14 -89 8 -84 28 -148 59 -176 86 -15 14 -17 19
-6 19 11 0 12 2 1 9 -14 8 56 20 143 25 32 1 40 6 45 25 5 21 7 22 19 7 7 -9
21 -16 30 -16 9 0 29 -7 45 -15 35 -19 44 -19 62 0 9 8 22 15 29 15 7 0 20 -7
29 -15 8 -8 22 -15 30 -15 9 0 16 -6 16 -14 0 -22 15 -27 46 -16 21 8 29 8 36
-2 9 -15 11 -44 1 -35 -3 4 -13 1 -21 -5 -11 -10 -17 -9 -26 3 -6 9 -30 16
-58 17 -25 1 -50 2 -55 3 -25 4 -43 -3 -43 -17 0 -10 6 -14 15 -10 8 3 15 1
15 -4 0 -6 -7 -10 -15 -10 -16 0 -21 -25 -6 -34 19 -12 292 -37 372 -34 65 2
77 5 54 11 -55 15 -130 51 -154 74 -13 13 -28 23 -32 23 -17 0 -9 37 14 57 18
17 36 21 96 22 40 1 77 4 82 7 5 3 32 7 61 10 93 8 203 30 185 37 -9 3 -23 4
-30 1 -7 -2 -24 5 -37 16 -26 23 -45 28 -108 32 -23 2 -42 8 -43 13 0 16 90
23 102 9 6 -7 36 -20 67 -30 31 -10 82 -29 112 -42 53 -24 64 -25 269 -26 162
-1 215 -4 219 -13 2 -7 10 -13 18 -13 8 0 14 -7 14 -16 0 -12 -6 -15 -22 -10
-35 9 -98 -15 -134 -50 -37 -37 -78 -45 -332 -65 -140 -11 -152 -14 -137 -28
17 -17 36 -18 498 -6 135 4 217 2 217 -4 0 -5 -6 -12 -12 -14 -24 -10 86 -7
116 3 17 5 43 12 59 15 15 3 36 14 46 24 11 11 33 22 51 26 19 4 34 15 40 30
5 12 21 25 35 29 15 4 25 10 22 13 -12 11 23 34 43 28 14 -4 20 -2 20 9 0 8 9
18 20 21 11 3 20 11 20 16 0 6 5 7 10 4 18 -11 11 41 -24 177 -19 73 -40 161
-47 195 -13 63 -32 83 -78 83 -11 0 -21 7 -25 15 -4 11 1 15 19 15 20 0 23 5
22 27 -2 22 3 29 21 31 27 4 27 7 2 34 -24 26 -25 38 -5 38 17 0 16 -4 20 111
l3 86 -24 -5 c-13 -2 -24 0 -24 6 0 13 40 37 40 25 0 -10 20 19 20 29 0 11
-450 7 -478 -4 -23 -8 -62 5 -62 20 1 21 68 39 128 34 58 -4 93 5 142 36 2 2
-2 7 -10 12 -13 8 -12 10 3 10 9 0 17 -6 17 -14 0 -13 82 -29 144 -27 39 1 77
27 69 47 -4 10 0 22 9 28 8 6 17 17 19 25 4 11 9 10 23 -4 17 -17 19 -18 28
-2 5 10 14 15 19 11 5 -3 9 -2 8 3 -2 13 1 23 7 23 4 0 4 -13 1 -28z m273
-1656 c0 -33 14 -69 36 -90 9 -10 18 -32 19 -49 3 -46 16 -100 27 -114 5 -7 7
-16 4 -22 -3 -5 1 -11 9 -15 8 -3 15 -14 15 -25 0 -11 9 -36 20 -56 11 -20 20
-42 20 -50 0 -8 5 -15 10 -15 7 0 7 -6 1 -18 -6 -10 -8 -40 -5 -65 3 -30 1
-47 -5 -47 -6 0 -11 9 -11 19 0 11 -5 23 -11 27 -8 5 -10 -1 -5 -19 3 -14 2
-28 -3 -32 -6 -3 -13 10 -17 30 -3 19 -10 35 -15 35 -5 0 -6 7 -3 15 4 8 1 22
-6 30 -7 8 -29 75 -50 148 -40 142 -46 150 -99 123 -51 -27 -147 1 -211 61
-54 49 -98 78 -140 91 -148 46 -158 43 125 36 160 -3 262 -10 266 -16 10 -15
20 7 13 26 -3 9 -1 16 5 16 6 0 11 -11 11 -24z m1000 -346 c0 -5 -4 -10 -9
-10 -15 0 -22 -32 -10 -46 8 -10 6 -13 -10 -11 -11 0 -24 12 -30 25 -6 13 -16
20 -21 17 -6 -4 -7 -13 -1 -23 10 -19 38 -177 43 -237 l3 -40 -45 0 -45 0 2
55 c2 30 6 62 10 70 7 17 8 20 18 103 7 49 5 57 -9 57 -9 0 -16 8 -16 17 0 13
3 14 11 6 9 -9 15 -8 26 3 19 18 37 18 30 -1 -4 -8 -2 -17 3 -20 6 -4 11 -1
11 4 1 6 3 16 4 21 1 6 3 12 4 15 2 10 31 5 31 -5z m331 -240 l0 -25 11 23 c6
12 16 22 22 22 23 -1 51 -26 50 -45 -3 -56 -5 -65 -12 -65 -5 0 -14 10 -20 23
-10 20 -11 18 -11 -20 -1 -23 -5 -43 -11 -45 -26 -9 -109 -102 -115 -128 -4
-17 -11 -30 -17 -30 -13 0 -1 54 22 94 10 17 21 50 25 74 4 23 10 40 15 37 4
-3 15 6 24 20 20 30 21 46 1 19 -13 -18 -14 -17 -15 16 0 51 11 85 21 68 5 -7
9 -24 10 -38z m999 0 c52 -10 160 -29 240 -40 80 -12 183 -28 230 -36 250 -39
411 -63 575 -84 39 -5 88 -14 110 -19 22 -6 61 -11 87 -11 26 0 67 -6 90 -14
24 -8 83 -17 131 -20 49 -3 103 -12 120 -20 18 -7 66 -14 107 -15 41 -2 95 -7
120 -11 35 -6 19 -8 -70 -9 -129 -1 -199 7 -178 20 13 9 10 9 -139 14 -82 3
-126 12 -119 24 3 5 -40 11 -96 13 -67 2 -103 8 -106 16 -2 7 -25 12 -60 12
-31 0 -75 5 -97 11 -22 6 -71 15 -110 20 -283 38 -427 59 -437 65 -5 3 -82 17
-171 31 -213 32 -195 29 -332 58 -98 20 -108 24 -55 19 36 -3 108 -14 160 -24z
m3670 -536 c230 -24 246 -34 50 -29 -180 5 -407 30 -425 46 -12 12 191 3 375
-17z m-5531 3 c1 -6 4 -32 5 -57 l3 -45 68 4 c46 2 65 0 61 -7 -6 -10 -19 -14
-96 -26 -14 -3 -44 -5 -67 -5 -43 -1 -52 -11 -34 -40 7 -11 17 -10 56 9 52 25
92 31 151 21 38 -6 60 -31 27 -31 -15 0 -16 -2 -3 -10 13 -8 12 -12 -7 -31
-17 -18 -37 -23 -97 -27 -86 -5 -103 3 -137 70 -14 28 -23 36 -37 31 -15 -6
-15 -5 -3 10 9 11 10 17 2 17 -20 0 -11 30 12 39 15 6 27 23 35 48 9 30 17 39
35 41 13 1 25 -4 26 -11z m-234 -179 c0 -68 -2 -135 -6 -150 -15 -54 6 -27 40
53 19 44 38 82 42 85 8 4 -69 -196 -96 -251 -8 -16 -23 -51 -34 -77 -21 -49
-37 -60 -47 -33 -11 27 7 68 43 101 34 31 35 34 32 96 -2 35 -8 66 -14 70 -6
5 -3 18 7 36 14 24 17 47 13 122 -3 68 -1 90 7 82 7 -7 12 -59 13 -134z m6708
51 c211 -29 210 -32 -13 -29 -114 1 -387 30 -485 51 -80 17 347 -2 498 -22z
m-6063 -1171 c0 -6 13 -32 30 -58 16 -26 39 -73 50 -105 21 -60 34 -155 22
-155 -4 0 -16 17 -27 38 -11 20 -44 62 -73 94 -44 46 -56 67 -67 115 -7 32
-13 58 -12 59 5 3 63 23 70 23 4 1 7 -4 7 -11z"/>
<path d="M3620 5981 c0 -5 7 -12 16 -15 20 -8 9 -26 -17 -26 -10 0 -19 -4 -19
-9 0 -24 14 -41 35 -41 13 0 26 -6 29 -12 5 -10 7 -10 12 0 8 17 34 15 80 -5
22 -9 50 -17 64 -17 14 -1 36 -7 48 -15 30 -16 40 -7 19 17 -24 27 -22 52 6
52 19 0 18 3 -12 21 -18 11 -36 29 -38 40 -5 18 -11 20 -37 14 -46 -10 -95
-11 -143 -2 -25 4 -43 3 -43 -2z"/>
<path d="M3816 5810 c37 -37 46 -51 40 -65 -3 -9 4 -20 16 -26 12 -7 29 -20
38 -30 16 -19 86 -29 108 -15 17 10 15 46 -4 53 -11 4 -14 14 -10 33 6 30 7
30 -116 46 -27 4 -48 10 -48 15 0 5 -10 9 -22 9 -22 0 -22 0 -2 -20z"/>
<path d="M8695 7258 c22 -5 55 -10 73 -10 29 1 32 -2 33 -31 1 -18 1 -35 0
-39 0 -5 13 -8 29 -8 20 0 30 -5 30 -15 0 -8 12 -17 28 -21 15 -3 42 -10 60
-16 35 -10 92 -2 92 13 0 6 12 9 28 8 48 -3 71 10 74 44 4 37 39 59 102 64 22
2 44 7 50 13 7 7 -98 10 -314 9 -235 -1 -314 -4 -285 -11z"/>
<path d="M10926 7254 c-9 -23 -8 -24 18 -24 15 0 30 -10 41 -26 l17 -27 -51 7
c-33 4 -51 3 -51 -4 0 -5 -13 -10 -30 -10 -31 0 -43 -23 -17 -33 9 -4 8 -8 -3
-17 -10 -7 -36 -9 -75 -4 -33 4 -84 9 -114 13 -47 5 -57 10 -71 36 -10 17 -15
35 -13 42 7 18 -35 36 -65 27 -15 -4 -47 -6 -71 -6 -28 1 -51 -4 -61 -13 -15
-13 -22 -14 -44 -3 -21 9 -32 9 -47 0 -23 -15 -75 -16 -84 -2 -4 6 6 11 22 11
17 1 21 3 11 6 -10 2 -18 8 -18 13 0 5 -21 9 -46 8 -36 0 -54 -7 -79 -29 -18
-16 -41 -29 -51 -29 -11 0 -28 -7 -38 -15 -11 -8 -27 -15 -37 -15 -9 0 -23 -7
-30 -16 -9 -11 -23 -14 -45 -11 -20 4 -41 -1 -59 -13 -27 -17 -64 -16 -76 3
-12 17 -29 -3 -29 -33 0 -20 -6 -31 -21 -35 -23 -8 -42 11 -34 32 2 7 -2 10
-11 6 -10 -4 -14 -13 -10 -26 3 -13 -2 -25 -12 -33 -23 -17 -15 -22 48 -34 30
-6 59 -15 64 -20 6 -6 25 -10 43 -10 24 0 37 -7 49 -25 9 -14 23 -25 31 -25
25 0 10 -35 -17 -38 -55 -6 -70 -13 -70 -31 0 -18 28 -32 70 -36 8 -1 20 -3
26 -4 7 0 14 -11 17 -22 4 -16 11 -20 24 -14 37 14 134 27 151 19 9 -4 42 -9
72 -10 105 -4 191 -33 229 -75 69 -79 81 -89 104 -89 16 0 28 8 36 26 10 22
15 25 44 18 58 -12 79 -24 74 -39 -4 -8 2 -16 13 -20 20 -6 52 7 83 34 18 15
20 14 38 -11 21 -28 54 -28 75 0 9 13 16 12 52 -3 23 -11 42 -22 42 -27 0 -19
-43 -50 -65 -46 -23 5 -25 -1 -10 -35 10 -24 3 -30 -76 -61 -75 -30 -99 -32
-99 -11 0 11 -13 15 -54 15 -35 0 -60 -5 -70 -15 -8 -8 -26 -15 -40 -15 -14 0
-51 -7 -82 -15 -31 -8 -61 -12 -66 -9 -5 3 -14 1 -21 -4 -7 -5 -39 -19 -71
-31 -46 -17 -65 -20 -85 -12 -14 5 -42 13 -61 16 -19 4 -54 13 -78 21 -24 8
-48 12 -53 8 -6 -3 -35 -7 -64 -8 -41 -2 -61 -8 -78 -24 -31 -29 -83 -44 -128
-37 -28 5 -38 3 -42 -9 -4 -9 -13 -16 -20 -16 -8 0 -20 -7 -27 -15 -10 -12 -9
-16 3 -21 18 -7 12 -32 -12 -52 -15 -11 -14 -13 0 -22 9 -5 26 -18 39 -28 l23
-18 -48 -45 c-26 -24 -51 -43 -56 -42 -4 2 -6 -4 -3 -12 8 -19 -6 -19 -42 -1
-19 10 -33 12 -45 5 -31 -16 -75 -10 -102 15 -15 14 -29 21 -32 17 -2 -5 -14
-11 -26 -14 -19 -5 -20 -3 -14 30 6 32 4 35 -12 28 -28 -13 -97 -6 -109 10 -6
8 -18 15 -27 15 -29 0 -29 20 1 48 16 15 35 37 41 50 7 13 21 22 35 22 13 0
29 7 36 15 9 11 9 15 1 15 -7 0 -9 5 -6 10 3 6 20 10 36 10 33 0 118 39 138
64 8 9 24 16 36 16 12 0 28 7 35 15 7 8 26 15 42 15 26 0 30 3 25 21 -5 18 -2
20 16 15 12 -3 30 -6 40 -6 9 0 17 -6 17 -14 0 -35 115 -29 147 7 17 20 17 20
-2 12 -37 -14 -65 -17 -65 -7 0 6 5 14 10 17 20 12 9 46 -27 84 -21 22 -43 47
-48 57 -9 13 -23 16 -65 15 -30 -1 -81 -2 -114 -1 -32 0 -64 -4 -70 -10 -20
-16 -121 -38 -149 -33 -30 6 -126 -22 -142 -40 -22 -27 -66 -38 -101 -27 -28
9 -41 8 -80 -10 -34 -14 -44 -24 -37 -31 6 -6 8 -19 6 -30 -5 -16 -15 -19 -74
-19 -53 0 -71 -4 -75 -15 -4 -8 -14 -15 -24 -15 -10 0 -25 -7 -34 -15 -8 -8
-22 -15 -31 -15 -10 0 -31 -12 -48 -26 -23 -19 -40 -25 -71 -24 -61 3 -63 2
-86 -22 -13 -14 -20 -17 -20 -8 0 7 -3 10 -6 7 -4 -4 -2 -12 4 -20 8 -10 5
-13 -14 -15 -21 -2 -23 0 -12 18 17 27 4 35 -34 20 -45 -18 -68 -39 -68 -63 0
-15 5 -18 22 -14 13 4 26 0 32 -9 9 -11 44 -15 154 -19 79 -3 149 -8 155 -12
7 -5 55 -8 107 -9 52 0 124 -7 160 -16 56 -13 67 -13 81 -1 21 17 99 7 99 -13
0 -8 8 -14 17 -14 13 0 14 -3 5 -12 -9 -9 -18 -9 -37 0 -24 11 -25 10 -25 -23
0 -32 3 -35 40 -45 24 -6 40 -17 40 -26 0 -8 8 -18 17 -21 15 -6 15 -7 -3 -14
-17 -7 -17 -8 -1 -8 10 -1 15 -5 12 -11 -3 -5 7 -12 22 -16 107 -23 135 -51
93 -89 -25 -22 -26 -34 -2 -29 9 2 23 0 30 -4 16 -11 19 -71 4 -98 -13 -25 -7
-34 22 -35 15 0 11 -4 -14 -14 -19 -7 -43 -14 -53 -14 -10 -1 -30 -12 -45 -26
-22 -21 -34 -25 -67 -21 -50 5 -106 -4 -99 -16 3 -5 0 -15 -6 -23 -10 -12 -7
-17 16 -26 16 -7 37 -11 47 -11 9 0 17 -3 17 -8 0 -5 12 -2 28 6 15 7 33 14
40 14 6 0 12 9 12 20 0 17 7 20 48 20 57 0 69 -8 42 -27 -11 -8 -20 -19 -20
-25 0 -15 70 -2 88 16 10 9 22 12 36 7 28 -10 50 -8 54 4 2 6 12 13 23 17 25
10 24 25 -2 33 -12 4 -18 12 -15 21 3 8 -1 14 -11 14 -11 0 -9 5 8 18 41 30
101 50 172 57 42 3 89 15 120 30 37 18 67 25 113 25 35 0 75 5 90 10 28 11 73
1 129 -28 41 -22 197 -18 290 7 68 18 69 19 42 30 -45 17 -22 31 53 31 55 0
71 -4 79 -17 8 -15 12 -16 35 -4 22 12 35 11 101 -8 80 -24 148 -22 162 4 5 7
25 25 46 39 29 20 50 26 94 26 30 0 83 7 117 16 76 20 190 22 279 5 37 -7 67
-15 67 -17 0 -19 -44 -46 -92 -55 -58 -12 -71 -22 -43 -33 8 -3 15 -12 15 -20
0 -8 10 -18 21 -21 17 -6 19 -9 8 -16 -10 -6 -7 -9 11 -10 66 -4 84 -1 94 14
13 21 3 30 -34 30 -16 0 -30 4 -30 9 0 4 8 8 18 8 10 0 28 7 40 16 26 18 99
23 155 10 31 -7 37 -6 37 8 0 9 4 16 9 16 5 0 15 16 21 35 13 41 13 40 65 15
40 -19 126 -26 173 -14 l22 6 0 514 c0 507 0 514 -20 514 -13 0 -20 7 -20 20
0 13 7 20 20 20 19 0 20 7 20 95 0 92 -1 95 -19 85 -48 -25 -59 11 -11 38 25
14 30 23 30 55 l0 37 -534 0 c-478 0 -535 -2 -540 -16z m752 -107 c29 2 42 -2
42 -11 0 -16 -99 -59 -183 -80 -70 -18 -77 -22 -77 -45 0 -14 -10 -20 -37 -24
-21 -2 -42 0 -47 4 -6 5 -18 9 -28 9 -10 0 -25 11 -34 25 -12 19 -25 25 -50
25 -47 0 -44 25 4 37 20 5 62 7 92 4 63 -7 144 14 136 34 -10 26 17 36 79 28
33 -4 79 -7 103 -6z m166 -532 c-4 -8 -17 -15 -31 -15 -13 0 -21 -4 -18 -10 8
-13 -37 -30 -81 -30 -26 0 -34 -4 -34 -19 0 -15 -10 -19 -57 -24 -31 -3 -65
-1 -75 4 -24 13 -20 40 9 54 11 6 29 17 38 25 12 10 42 14 106 12 48 0 91 3
94 8 4 6 17 10 30 10 18 0 23 -4 19 -15z m-504 -19 c8 -11 18 -12 36 -5 32 12
44 11 44 -1 0 -5 -10 -10 -22 -10 -20 0 -20 -1 -5 -18 32 -35 21 -57 -25 -53
-19 2 -16 -21 7 -49 7 -8 13 -28 13 -44 -1 -30 35 -69 75 -82 14 -4 18 -13 15
-35 -3 -16 0 -30 6 -33 20 -7 -10 -27 -43 -28 -24 -1 -39 7 -66 38 -19 21 -34
45 -35 53 0 8 -8 20 -17 27 -17 13 -17 13 0 14 27 0 20 28 -15 61 -24 22 -40
29 -58 25 -36 -7 -49 4 -39 31 7 19 14 22 37 17 37 -7 45 5 30 46 -9 29 -9 35
7 47 24 17 40 17 55 -1z m-1640 -569 c64 2 88 -7 98 -37 15 -41 1 -48 -92 -46
-61 1 -81 5 -84 16 -3 8 -11 20 -18 25 -23 17 27 59 56 48 8 -4 26 -6 40 -6z
m392 -63 c7 -4 23 -16 35 -27 20 -17 31 -19 90 -14 37 4 62 3 57 -2 -9 -9
-117 -50 -143 -55 -7 -1 -24 -12 -36 -24 -24 -23 -37 -28 -32 -13 1 4 -13 29
-31 55 -24 33 -40 46 -57 46 -27 0 -39 14 -31 37 5 12 18 14 71 10 35 -3 70
-9 77 -13z"/>
<path d="M5581 4493 c0 -23 3 -44 8 -47 4 -3 11 -24 15 -45 4 -24 14 -44 25
-50 10 -6 60 -11 112 -11 52 -1 119 -5 149 -10 83 -14 278 -21 285 -11 3 5 -9
14 -25 20 -35 12 -40 30 -7 33 32 2 40 1 59 -7 14 -6 16 1 16 50 0 31 -3 52
-7 47 -8 -13 -199 0 -228 16 -30 16 -53 15 -74 -4 -16 -14 -20 -14 -49 1 -22
11 -44 14 -70 10 -23 -4 -55 -1 -82 8 -23 8 -59 12 -80 10 -29 -4 -37 -1 -41
14 -3 10 -5 -1 -6 -24z"/>
<path d="M6087 3533 c-4 -3 -7 -15 -7 -25 0 -12 -8 -18 -22 -18 -101 -2 -362
3 -443 9 -88 7 -73 8 125 11 191 3 211 4 130 10 -197 16 -377 10 -365 -11 3
-4 1 -10 -5 -14 -5 -3 -10 -23 -10 -44 l0 -38 58 -7 c107 -12 277 -16 402 -8
l124 7 12 65 c12 67 12 75 1 63z"/>
</g>
</svg>
