<?xml version="1.0" standalone="no"?>
<!DOCTYPE svg PUBLIC "-//W3C//DTD SVG 20010904//EN"
 "http://www.w3.org/TR/2001/REC-SVG-20010904/DTD/svg10.dtd">
<svg version="1.0" xmlns="http://www.w3.org/2000/svg"
 width="512.000000pt" height="288.000000pt" viewBox="0 0 512.000000 288.000000"
 preserveAspectRatio="xMidYMid meet">
<metadata>
Created by potrace 1.16, written by Peter Selinger 2001-2019
</metadata>
<g transform="translate(0.000000,288.000000) scale(0.100000,-0.100000)"
fill="#000000" stroke="none">
<path d="M0 2327 l0 -552 22 -10 c32 -14 35 -63 5 -67 l-22 -3 -3 -379 c-2
-297 1 -381 10 -388 10 -6 10 -10 -1 -17 -11 -7 -12 -31 -7 -117 4 -60 7 -135
6 -167 -1 -51 2 -59 20 -64 22 -6 25 -19 11 -42 -8 -12 -12 -12 -25 -2 -14 12
-16 10 -16 -8 0 -14 6 -21 18 -21 17 0 52 -29 52 -42 0 -4 -9 -4 -20 -1 -15 4
-20 0 -20 -15 0 -12 -7 -25 -16 -30 -14 -8 -14 -12 -3 -32 11 -18 11 -24 2
-27 -10 -4 -13 -48 -13 -174 0 -107 4 -168 10 -164 5 3 7 19 4 34 -4 17 -1 32
6 36 8 5 11 1 8 -11 -2 -11 6 -29 17 -42 16 -20 28 -23 77 -21 42 2 58 6 58
16 0 8 5 11 10 8 6 -4 8 -11 5 -16 -4 -5 10 -9 30 -9 22 0 34 4 30 10 -3 5 -1
10 4 10 6 0 11 -4 11 -8 0 -4 16 -9 36 -10 27 -2 34 0 28 10 -6 10 -5 10 7 1
19 -15 139 -15 158 0 12 9 13 9 7 0 -4 -7 -3 -13 3 -13 5 0 11 5 13 11 3 9 9
9 25 1 27 -15 185 -13 195 2 5 8 8 7 8 -1 0 -9 17 -13 51 -13 37 0 48 3 43 13
-6 9 -4 9 7 -1 19 -17 295 -17 302 1 4 9 6 9 6 0 1 -8 14 -13 31 -13 28 0 29
2 24 33 -4 24 -3 28 5 17 6 -8 11 -24 11 -35 2 -32 22 23 23 60 0 17 2 22 4
12 3 -10 9 -14 16 -10 9 5 9 3 1 -8 -6 -8 -14 -26 -16 -42 l-5 -27 106 1 c68
1 109 5 113 12 6 9 8 9 8 0 0 -8 14 -13 35 -13 21 0 35 5 35 13 0 9 2 9 8 0
11 -18 164 -12 188 7 18 14 18 14 5 -2 -12 -16 -11 -18 6 -18 10 0 24 5 31 12
9 9 12 9 12 0 0 -8 24 -12 80 -12 69 0 80 2 80 18 1 16 1 16 11 0 9 -17 34
-18 289 -18 154 0 280 4 280 8 0 4 -4 12 -9 18 -5 5 -12 19 -16 32 -5 16 -2
22 9 22 9 0 13 -6 10 -14 -3 -8 2 -26 11 -40 17 -26 19 -26 146 -26 l129 0 0
37 c0 32 13 40 16 10 0 -7 2 -20 2 -29 2 -17 28 -18 402 -18 l400 0 2 33 c0
17 0 43 -1 56 -3 39 20 19 43 -37 l21 -52 108 0 c84 0 107 3 107 14 0 7 11 16
25 18 27 6 32 -1 13 -20 -9 -9 -8 -12 4 -12 9 0 19 7 22 16 4 9 9 14 13 10 3
-3 12 3 20 14 20 28 43 25 43 -6 0 -14 -4 -23 -9 -19 -5 3 -12 1 -16 -5 -4 -6
176 -10 539 -10 l546 0 0 219 c0 143 -4 222 -10 226 -8 5 -7 11 1 21 10 12 9
17 -1 27 -10 9 -11 9 -6 -1 10 -17 -9 -15 -27 3 -8 8 -16 12 -18 11 -2 -2 -10
2 -16 9 -21 22 3 26 29 6 17 -14 28 -17 39 -9 11 7 11 11 1 15 -7 3 -26 16
-42 30 -24 20 -29 21 -23 6 7 -17 6 -17 -20 0 -14 9 -30 17 -34 17 -4 0 0 -5
10 -11 26 -15 20 -30 -10 -25 -24 4 -25 3 -12 -7 9 -7 21 -22 28 -35 11 -21
10 -23 -14 -19 -15 2 -31 10 -36 18 -7 11 -9 11 -9 1 0 -10 -4 -10 -16 2 -20
20 -34 20 -34 1 0 -8 -5 -15 -11 -15 -5 0 -7 -5 -4 -10 5 -8 12 -7 23 2 10 7
14 8 10 4 -4 -5 0 -15 10 -23 16 -12 16 -13 -3 -7 -38 12 -90 37 -107 51 -13
11 -21 12 -38 3 -21 -11 -21 -11 11 -51 30 -38 30 -39 7 -36 -12 2 -23 10 -23
18 0 8 -6 18 -12 22 -7 4 -13 14 -13 22 0 8 -10 21 -22 29 -27 19 -18 32 11
16 25 -13 26 -10 5 34 -14 27 -15 40 -5 67 10 31 9 32 -4 15 -12 -16 -18 -17
-27 -8 -8 8 -8 12 -1 12 13 0 14 48 2 56 -5 3 -19 7 -30 9 l-22 4 22 -22 c23
-26 28 -46 9 -43 -26 4 -49 23 -52 43 -3 12 -10 31 -16 43 -11 20 -13 21 -30
5 -23 -20 -36 -4 -20 25 9 17 14 19 26 9 10 -8 14 -8 14 0 0 6 -5 11 -11 11
-5 0 -8 3 -6 8 3 4 -6 7 -19 7 -13 0 -24 -3 -24 -7 0 -5 5 -8 11 -8 5 0 7 -5
3 -12 -5 -8 -10 -6 -19 5 -10 13 -13 11 -23 -16 -9 -23 -9 -28 0 -19 7 7 16
12 22 12 5 0 -1 -8 -12 -19 l-22 -18 25 -29 c25 -29 28 -51 5 -46 -8 2 -10 -3
-6 -14 4 -10 2 -20 -3 -24 -7 -3 -7 -17 -2 -35 l8 -30 13 30 c12 29 18 50 19
69 1 4 12 5 25 2 14 -3 28 -1 31 4 7 11 25 4 25 -10 0 -5 -7 -10 -16 -12 -8
-2 1 -8 20 -14 30 -9 34 -9 24 3 -8 11 -8 17 2 26 10 10 11 9 5 -2 -5 -8 -4
-12 1 -9 11 7 30 -13 28 -29 -1 -7 -2 -19 -3 -27 0 -7 -11 -16 -22 -19 -16 -4
-20 -11 -16 -26 6 -23 -8 -29 -16 -7 -3 7 -15 16 -26 19 -12 3 -19 1 -15 -4 3
-5 12 -9 20 -9 8 0 14 -4 14 -10 0 -13 -36 -31 -45 -22 -5 4 -5 1 -1 -6 9 -15
36 -16 36 -1 0 5 4 8 10 4 5 -3 2 -14 -7 -25 -16 -18 -17 -17 -49 15 -18 18
-34 42 -37 52 -3 10 -5 1 -6 -19 -1 -29 3 -38 19 -43 11 -4 18 -10 15 -15 -3
-5 0 -12 6 -16 8 -4 9 -3 5 4 -4 7 -3 12 3 12 5 0 13 -5 16 -10 4 -6 11 -8 16
-4 23 14 1 -47 -24 -66 -32 -25 -37 -16 -6 11 24 21 17 39 -15 39 -28 0 -45
19 -52 57 -3 15 -9 30 -15 31 -5 2 -7 8 -4 12 3 5 -3 18 -15 30 -19 19 -22 19
-24 -7 -1 -7 -6 -12 -11 -10 -6 1 -9 4 -8 7 1 3 4 14 8 25 4 15 3 15 -6 -3 -9
-16 -18 -21 -33 -17 -18 5 -19 4 -4 -5 9 -6 27 -25 40 -43 14 -20 16 -27 6
-19 -10 8 -22 11 -27 8 -5 -4 -13 -1 -17 5 -4 8 -3 9 4 5 22 -13 12 4 -18 34
-36 35 -50 38 -50 11 0 -30 -17 -34 -34 -9 -14 19 -16 20 -16 5 0 -10 -5 -15
-10 -12 -7 4 -7 13 0 26 6 11 9 23 6 27 -3 4 -1 14 5 22 5 10 9 11 9 3 0 -7 6
-10 14 -7 10 4 13 0 11 -13 -1 -10 -8 -17 -15 -15 -6 1 -9 -2 -6 -7 6 -10 56
9 56 21 0 13 -62 79 -69 73 -3 -4 3 -13 13 -21 19 -14 19 -14 -2 -14 -12 0
-22 -5 -22 -11 0 -6 -10 -19 -22 -29 -19 -16 -21 -22 -11 -38 10 -17 9 -19 -7
-15 -11 3 -28 2 -37 -2 -10 -5 -21 -8 -25 -7 -3 1 -12 -6 -20 -15 -11 -14 -11
-16 1 -9 9 6 12 5 9 -4 -9 -28 -24 -19 -24 12 1 29 4 33 26 31 l25 -3 -24 14
c-14 7 -26 21 -27 31 -4 27 -11 28 -18 0 -4 -14 -11 -25 -17 -25 -6 0 -7 5 -4
10 3 6 2 10 -4 10 -6 0 -9 14 -7 30 l3 30 -24 -26 c-13 -14 -27 -23 -30 -20
-4 4 -2 11 4 17 8 8 8 20 3 35 -5 13 -6 24 -1 24 5 0 12 -7 15 -16 4 -9 9 -15
11 -12 10 9 -7 38 -21 38 -19 0 -18 27 1 38 22 12 28 68 9 86 -15 15 -19 46
-6 46 10 0 39 -20 29 -20 -4 0 0 -11 9 -25 13 -20 19 -23 30 -14 12 10 11 17
-6 44 -26 42 -26 55 0 25 11 -13 20 -19 20 -15 0 4 8 1 19 -9 17 -16 19 -15
24 21 5 27 1 45 -13 67 -23 39 -65 76 -85 76 -24 0 -17 27 8 33 12 2 39 3 60
2 37 -3 38 -2 21 16 -9 11 -15 22 -12 25 3 3 -11 24 -32 47 -21 23 -36 45 -34
49 10 16 29 7 49 -21 10 -16 23 -27 28 -24 5 3 13 -1 18 -8 4 -8 12 -14 16
-14 12 -1 56 -26 71 -42 11 -11 11 -13 -3 -13 -33 0 15 -91 64 -121 17 -10 36
-30 41 -44 5 -14 12 -25 16 -25 3 0 3 7 0 16 -4 12 -2 15 9 10 10 -3 15 1 16
12 0 14 2 14 9 -3 12 -28 12 -37 0 -30 -6 3 -10 -4 -10 -17 0 -19 -2 -20 -11
-8 -9 12 -10 12 -5 -3 3 -10 6 -23 6 -28 0 -5 7 -9 15 -9 8 0 15 -6 15 -14 0
-8 5 -18 10 -21 6 -4 9 -1 8 6 -2 6 3 14 11 17 9 3 11 0 6 -9 -5 -8 3 -3 17
11 l24 25 -23 26 c-22 24 -30 49 -16 49 4 0 24 -17 45 -37 21 -20 38 -31 38
-24 0 7 4 10 8 7 13 -8 11 27 -3 44 -7 8 -13 22 -13 30 0 8 -3 26 -6 40 -4 14
-4 19 0 12 3 -6 9 -10 13 -7 5 2 13 -13 20 -35 17 -56 33 -62 25 -8 -7 46 -21
71 -35 62 -5 -3 -9 2 -9 10 0 32 19 24 39 -17 12 -24 21 -49 21 -55 0 -7 5
-12 12 -12 6 0 9 -3 5 -6 -11 -11 25 -38 49 -37 43 2 45 3 38 15 -4 8 -3 10 2
5 5 -5 10 -13 10 -18 1 -5 2 -13 3 -19 0 -5 8 -10 17 -10 14 0 14 3 4 15 -19
23 -3 31 20 10 19 -17 20 -17 29 6 8 23 9 22 16 -14 4 -22 12 -36 19 -34 6 3
10 11 8 18 -2 11 1 11 11 -1 18 -21 50 -38 65 -33 20 7 14 48 -11 71 -34 32
-51 29 -31 -5 15 -26 15 -27 -1 -8 -9 11 -23 33 -31 48 -15 28 -15 28 6 17 12
-6 28 -9 35 -6 8 3 17 1 20 -4 3 -6 15 -15 27 -21 12 -7 18 -7 14 -1 -8 14 4
43 15 36 5 -3 5 5 0 19 -5 13 -5 30 -1 38 11 17 18 11 24 -26 2 -17 5 -32 5
-35 1 -3 5 2 11 10 5 9 5 19 -2 27 -6 8 -8 16 -5 19 3 3 10 -3 16 -14 8 -15 7
-29 -3 -53 -13 -31 -11 -69 4 -69 5 0 6 10 2 22 -8 34 11 14 37 -36 12 -26 26
-44 31 -41 4 3 9 59 9 125 1 120 1 120 -24 130 -32 12 -33 24 0 16 l25 -6 0
259 c0 239 -1 260 -17 264 -17 4 -17 5 0 6 14 1 17 11 17 71 0 51 -3 68 -13
65 -6 -3 -18 4 -25 15 -15 24 -1 60 23 60 12 0 15 20 15 113 l0 113 -36 1
c-50 1 -71 24 -56 58 7 14 9 38 6 52 -6 21 -4 24 12 21 15 -3 18 -11 16 -35
-2 -23 3 -35 20 -47 12 -9 26 -16 30 -16 5 0 8 187 8 415 l0 415 -190 0 c-158
0 -190 -2 -190 -14 0 -8 7 -21 15 -30 8 -8 15 -28 15 -45 0 -32 -8 -39 -27
-20 -5 5 -21 11 -34 13 -32 4 -62 17 -71 30 -6 7 -11 6 -18 -4 -7 -11 -10 -12
-10 -2 0 8 13 27 29 43 l29 29 -77 0 -77 0 -10 -72 c-6 -40 -14 -81 -18 -90
-6 -12 -2 -17 16 -20 34 -5 32 -48 -3 -90 -34 -39 -37 -58 -10 -58 50 0 69
-64 24 -81 -36 -13 -73 5 -66 32 3 11 -1 26 -8 35 -10 13 -10 17 2 25 14 8 12
10 -13 13 -7 0 -14 8 -16 17 -3 18 43 53 58 44 6 -4 10 7 10 24 0 56 -7 61
-75 61 -35 0 -67 -5 -70 -10 -4 -6 -11 -8 -16 -4 -5 3 -27 -13 -50 -35 -22
-23 -44 -41 -49 -41 -6 0 -10 -6 -10 -14 0 -28 -66 -36 -85 -10 -10 14 -11 11
-9 -22 3 -50 2 -48 19 -34 12 10 15 10 15 -2 0 -21 49 -11 76 15 27 25 50 29
65 11 6 -8 22 -14 35 -14 41 0 29 -35 -22 -65 -29 -17 -33 -17 -64 -1 -44 22
-64 21 -57 -3 2 -10 0 -26 -5 -35 -8 -14 -5 -21 11 -32 27 -20 26 -42 -4 -76
-30 -34 -33 -34 -45 -3 -5 14 -17 25 -26 25 -13 0 -14 3 -4 15 7 8 18 15 25
15 13 0 25 21 25 46 0 24 -19 15 -26 -13 -6 -21 -9 -24 -18 -12 -14 19 -90 43
-109 36 -8 -3 -23 0 -33 7 -33 22 -54 27 -47 10 3 -7 0 -14 -5 -14 -6 0 -12
15 -14 33 -3 36 -21 40 -26 5 -2 -12 -21 -43 -43 -69 -35 -42 -44 -47 -96 -54
-32 -4 -79 -8 -105 -8 -27 0 -48 -4 -48 -8 0 -4 -3 -14 -6 -22 -4 -11 2 -14
22 -14 18 0 36 -10 51 -27 26 -30 32 -79 9 -70 -9 3 -17 -3 -21 -16 -5 -17
-14 -20 -43 -19 -34 2 -82 -17 -82 -32 0 -4 7 -10 16 -13 8 -3 12 -10 9 -16
-10 -16 -23 -12 -30 10 -3 11 -11 20 -17 20 -6 0 -16 7 -23 16 -12 18 -60 11
-50 -7 13 -20 -9 -7 -38 24 l-31 32 24 -42 c13 -23 26 -40 30 -38 4 2 7 -1 7
-8 1 -7 20 -54 43 -106 61 -140 95 -291 107 -479 6 -94 7 -101 18 -74 19 44
40 47 64 8 12 -18 21 -43 21 -55 0 -12 4 -20 9 -16 5 3 16 -3 23 -13 7 -11 23
-22 35 -26 29 -9 48 -62 26 -71 -9 -3 -20 0 -25 7 -6 11 -10 10 -17 -1 -6 -10
-13 -11 -29 -2 -29 16 -32 14 -32 -15 0 -20 -4 -25 -16 -20 -8 3 -13 2 -10 -3
3 -5 -7 -11 -22 -13 -21 -3 -33 2 -47 21 -10 13 -13 21 -7 17 7 -4 20 0 29 9
15 16 18 16 28 1 11 -14 14 -14 30 4 28 31 14 47 -44 46 -44 -1 -51 2 -53 21
-3 20 -8 18 -78 -29 -72 -48 -76 -53 -97 -116 -28 -80 -30 -100 -8 -82 13 11
14 10 9 -4 -3 -9 -9 -16 -14 -16 -4 0 -10 -48 -13 -107 -7 -136 -52 -290 -80
-280 -6 2 -23 -11 -39 -27 -16 -17 -27 -24 -26 -16 2 8 -6 16 -19 18 -13 2
-23 -1 -23 -7 0 -5 -13 -12 -30 -16 -16 -4 -30 -11 -30 -16 0 -5 -3 -8 -7 -7
-5 1 -20 -2 -36 -6 -18 -6 -34 -3 -50 7 -20 13 -25 13 -47 0 -21 -13 -21 -12
3 7 15 12 32 32 38 43 9 19 8 20 -3 7 -21 -25 -61 -50 -80 -50 -31 0 -20 17
22 34 31 12 45 26 66 68 l27 52 -6 201 c-7 235 -9 249 -46 240 l-26 -6 28 26
c24 23 26 31 21 68 -23 174 -33 212 -58 229 -8 5 -7 8 2 8 17 0 15 17 -6 38
-9 9 -23 35 -29 57 -7 22 -17 56 -23 77 -11 36 -33 54 -52 41 -6 -3 -8 -1 -5
4 4 6 0 14 -9 17 -8 3 -12 2 -9 -4 3 -6 2 -10 -3 -10 -6 0 -12 6 -15 14 -6 15
-77 20 -77 6 0 -4 -10 -5 -23 -3 -41 8 -108 -17 -149 -55 l-40 -38 10 -49 c6
-28 14 -60 17 -72 6 -18 3 -23 -9 -23 -10 0 -15 -4 -12 -9 5 -8 8 -23 21 -116
2 -16 9 -59 14 -95 6 -36 13 -86 16 -111 5 -37 10 -47 33 -56 22 -9 23 -11 7
-12 -20 -1 -20 -7 -19 -246 1 -135 4 -249 8 -252 3 -3 0 -13 -7 -21 -10 -13
-9 -15 6 -9 11 4 16 3 12 -3 -6 -9 16 -15 40 -10 6 1 5 -4 -1 -10 -17 -17 -72
14 -78 43 -12 55 -15 59 -12 14 4 -47 -7 -71 -18 -42 -3 8 -15 15 -26 15 -12
0 -18 5 -15 10 3 6 1 10 -5 10 -6 0 -9 3 -7 8 3 4 -6 8 -19 8 -29 2 -30 -3 -4
-36 24 -31 26 -54 4 -46 -9 3 -22 6 -30 6 -9 0 -13 3 -11 8 3 4 -8 7 -24 7
-16 1 -29 -3 -29 -8 0 -4 -3 -6 -7 -4 -12 7 -55 -12 -49 -21 2 -4 -5 -9 -17
-9 -17 -2 -19 0 -7 7 13 9 13 10 0 11 -8 1 -19 1 -24 0 -4 -1 -14 4 -22 10
-12 10 -13 9 -8 -4 3 -9 13 -18 22 -20 10 -2 2 -4 -16 -4 -22 0 -29 3 -20 8
10 7 9 9 -4 9 -10 0 -18 -4 -18 -10 0 -5 -11 -9 -24 -8 -14 1 -23 5 -20 9 2 4
-3 9 -13 11 -14 2 -17 14 -16 58 0 30 -1 42 -4 25 -7 -46 -24 -108 -28 -103
-3 2 0 42 6 89 6 46 10 105 9 132 -1 41 2 47 20 47 11 0 20 5 20 11 0 5 -4 8
-9 4 -6 -3 -15 5 -22 17 -6 13 -27 40 -47 60 l-36 38 -170 -5 c-93 -3 -202 -5
-242 -5 l-71 0 -6 -73 c-7 -79 -28 -151 -53 -178 -15 -16 -14 -20 5 -48 26
-36 27 -48 4 -30 -16 12 -17 12 -6 -2 7 -8 32 -25 57 -38 25 -12 48 -27 52
-32 15 -25 -12 -20 -81 17 -52 27 -79 47 -88 66 -6 16 -18 28 -26 28 -11 0 -9
-5 5 -21 18 -20 18 -21 1 -30 -10 -6 -14 -15 -11 -21 4 -6 1 -9 -7 -6 -7 2
-16 15 -20 29 l-6 24 -11 -25 c-6 -14 -11 -19 -11 -12 -1 17 -38 15 -44 -2 -3
-8 -3 -24 0 -35 3 -12 1 -21 -6 -21 -6 0 -11 7 -11 16 0 11 -6 14 -22 9 -17
-6 -20 -4 -15 9 4 9 2 16 -4 16 -6 0 -13 -9 -16 -21 -5 -16 -11 -19 -27 -13
-11 4 -35 7 -52 7 -41 1 -85 58 -66 87 17 27 -1 33 -22 8 -13 -15 -15 -23 -6
-28 18 -11 7 -46 -13 -42 -9 2 -17 -2 -17 -8 0 -5 -4 -10 -10 -10 -5 0 -10 8
-10 18 0 10 -7 27 -15 38 -12 16 -14 17 -15 2 0 -9 -5 -18 -12 -20 -7 -3 -13
-18 -14 -34 -1 -26 -4 -29 -33 -28 -21 1 -31 -3 -31 -12 0 -8 -4 -14 -10 -14
-5 0 -10 6 -10 14 0 8 -16 32 -35 53 l-35 38 0 -54 c0 -45 4 -56 25 -73 32
-25 32 -38 0 -38 -14 0 -25 6 -25 13 0 8 -9 22 -20 32 -11 10 -20 30 -21 44 0
22 -1 23 -8 7 -6 -16 -9 -17 -16 -6 -6 10 -10 8 -17 -9 -6 -17 -13 -21 -28
-16 -14 4 -20 2 -20 -8 0 -7 -7 -14 -15 -14 -17 0 -21 33 -4 39 7 2 4 15 -7
35 -17 29 -17 31 -1 48 17 16 17 18 0 30 -25 19 -34 1 -28 -60 4 -53 -11 -84
-49 -98 -13 -5 -17 -13 -12 -31 3 -14 1 -28 -5 -31 -6 -4 -13 2 -16 13 -2 11
-13 22 -24 25 -10 3 -19 13 -19 22 0 13 6 16 25 11 20 -5 25 -3 25 14 0 22
-33 60 -53 60 -7 0 -12 -13 -12 -32 0 -28 -4 -33 -30 -38 -43 -8 -75 -1 -68
16 3 8 1 14 -3 14 -5 0 -20 3 -34 7 -25 6 -25 6 -6 -15 11 -12 16 -25 13 -28
-3 -4 -2 -15 4 -25 12 -23 2 -24 -22 -3 -20 18 -43 10 -35 -12 3 -8 1 -14 -4
-14 -6 0 -10 5 -10 10 0 6 -9 10 -20 10 -12 0 -25 10 -30 23 -15 35 -38 60
-49 52 -6 -3 -11 -2 -11 3 0 5 -11 7 -26 4 -32 -6 -30 -42 4 -57 13 -6 22 -18
22 -32 0 -13 5 -23 10 -23 6 0 10 -7 10 -15 0 -8 -4 -15 -10 -15 -5 0 -10 6
-10 13 0 20 -39 40 -54 27 -16 -13 -36 8 -39 39 -1 11 -7 23 -13 25 -15 6 -28
61 -19 76 5 8 11 7 21 -1 19 -15 18 -9 -6 46 -25 58 -25 87 -2 108 18 17 76
23 106 11 14 -6 14 -8 -3 -23 -23 -20 -18 -66 6 -57 8 4 25 9 37 12 18 4 22
11 18 36 -4 29 -3 30 22 24 48 -12 93 64 46 79 -53 17 -65 67 -26 104 23 22
24 25 10 46 -11 17 -12 29 -5 49 11 26 44 36 56 16 3 -5 20 -10 37 -10 17 0
39 -7 48 -15 20 -18 54 -9 46 11 -3 8 8 20 29 30 22 10 35 23 35 35 0 15 -7
19 -40 19 -33 0 -40 3 -40 20 0 18 -10 48 -33 97 -15 33 5 73 38 73 16 0 25
-6 25 -16 0 -9 6 -30 14 -47 8 -18 17 -40 20 -51 5 -14 13 -17 37 -14 20 3 33
0 36 -9 7 -18 21 -16 19 3 0 9 7 21 17 28 16 9 21 7 33 -10 18 -26 53 -22 84
11 15 16 26 21 34 14 60 -48 74 -58 80 -52 3 3 6 1 6 -5 0 -7 7 -12 15 -12 8
0 15 7 15 15 0 8 -4 15 -9 15 -14 0 -29 53 -21 74 6 17 10 15 42 -18 45 -46
78 -49 78 -6 0 17 -4 30 -10 30 -5 0 -10 9 -10 20 0 11 7 20 15 20 8 0 21 14
30 30 16 31 29 37 40 20 3 -5 14 -14 24 -20 17 -9 18 -1 19 133 0 78 5 171 11
207 17 96 67 240 102 295 17 27 35 59 40 72 5 13 14 23 20 23 6 0 8 7 5 16 -4
10 3 25 17 39 12 13 33 43 45 68 12 25 29 51 38 58 8 7 24 29 34 49 37 72 268
250 414 319 66 31 201 72 306 92 93 18 374 15 475 -6 159 -33 302 -92 429
-180 38 -25 70 -44 73 -42 2 3 5 14 6 25 0 11 5 18 10 15 4 -3 16 2 26 11 10
9 31 16 47 14 38 -3 132 54 159 96 21 32 92 64 148 65 15 1 30 7 33 15 9 25
56 49 91 48 23 -1 37 5 46 18 6 11 22 20 35 20 22 0 82 26 82 35 0 3 -848 5
-1885 5 l-1885 0 0 -553z m755 504 c22 -5 34 -9 27 -10 -7 0 -10 -5 -7 -11 3
-5 2 -10 -3 -10 -6 0 -13 -10 -16 -22 -5 -21 -65 -58 -94 -58 -6 0 -14 -9 -17
-20 -8 -26 -62 -27 -111 -1 l-35 19 -42 -39 c-48 -44 -85 -52 -82 -16 2 12 -3
31 -10 43 -12 19 -9 22 51 44 35 14 64 28 64 32 0 4 6 5 14 2 8 -3 26 2 40 11
25 17 119 42 161 43 11 1 38 -3 60 -7z m-325 -216 c14 -16 6 -35 -16 -35 -8 0
-14 -9 -14 -21 0 -11 -13 -34 -30 -52 -33 -36 -37 -47 -15 -47 8 0 15 4 15 9
0 4 25 16 55 26 30 9 55 21 55 27 0 12 48 2 67 -14 17 -14 16 -28 -2 -28 -8 0
-15 -4 -15 -9 0 -17 -100 -44 -138 -37 -31 5 -40 2 -57 -20 -16 -21 -26 -24
-48 -19 -30 8 -35 32 -15 64 9 15 9 28 0 57 -15 51 4 84 51 84 17 0 43 7 57
14 33 18 35 19 50 1z m3992 -450 c4 -5 10 -6 14 -2 4 4 13 -1 21 -11 12 -16
13 -16 7 1 -3 9 -4 17 -1 17 11 0 26 -74 20 -97 -4 -19 -11 -23 -32 -21 -21 2
-27 9 -29 36 -4 37 -12 40 -30 12 -11 -17 -15 -18 -35 -8 -12 7 -25 18 -29 25
-10 14 -45 5 -61 -16 -19 -27 -72 -45 -95 -32 -25 13 -32 6 -32 -36 0 -32 -1
-33 -44 -33 -25 0 -47 -4 -50 -9 -3 -5 -14 -7 -24 -4 -15 4 -18 11 -13 41 6
37 7 37 51 34 44 -3 46 -2 63 36 24 56 59 93 76 83 7 -5 21 -6 31 -4 10 3 23
-4 32 -15 12 -18 16 -18 33 -6 10 8 26 14 36 14 9 0 22 7 29 15 9 11 16 12 33
2 12 -7 25 -16 29 -22z m-4058 -25 c-3 -8 -8 -28 -11 -44 -5 -24 -3 -28 10
-23 9 3 18 1 21 -6 2 -7 8 -2 12 11 5 17 9 20 20 11 10 -8 15 -3 22 23 6 25
14 32 28 30 10 -1 35 -4 54 -5 31 -2 35 -5 38 -34 3 -33 1 -35 -68 -48 -43 -9
-60 -22 -60 -45 0 -21 -39 -34 -57 -18 -8 6 -16 8 -20 4 -3 -3 -1 -6 5 -6 7 0
12 -7 12 -15 0 -19 -11 -19 -56 2 -36 18 -36 18 -32 70 5 54 -5 66 -30 41 -9
-9 -12 -7 -12 13 1 38 25 63 54 55 19 -5 26 -2 26 8 0 11 5 12 25 3 16 -8 23
-17 19 -27z m3660 -319 c11 -12 16 -31 14 -53 -3 -29 0 -33 22 -36 14 -2 29
-10 33 -18 4 -8 14 -14 22 -14 9 0 12 -9 10 -27 -3 -16 1 -47 8 -70 8 -32 18
-45 39 -52 21 -8 28 -16 28 -36 0 -34 20 -28 34 11 9 23 16 28 36 26 13 -2 33
-10 44 -18 18 -12 18 -14 3 -14 -9 0 -22 -9 -29 -19 -6 -10 -18 -17 -25 -14
-9 3 -13 -3 -13 -21 0 -23 -3 -26 -26 -20 -25 6 -26 5 -22 -25 4 -28 2 -31
-23 -31 -25 0 -37 15 -44 55 -9 56 -18 75 -35 75 -27 0 -35 18 -16 39 24 27
20 50 -19 97 -19 23 -39 54 -45 69 -10 25 -14 27 -48 21 -20 -4 -44 -8 -52 -8
-8 0 -20 -5 -27 -10 -20 -16 -32 0 -20 26 7 13 15 22 19 20 5 -3 11 1 14 9 3
8 21 18 40 22 19 3 38 13 41 21 7 19 17 18 37 -5z m-1203 -121 c50 -14 57 -26
75 -114 15 -71 15 -78 -1 -102 -35 -54 -164 -83 -235 -54 -30 13 -45 45 -65
148 -8 40 12 75 58 98 61 32 112 39 168 24z m1113 -795 c-5 19 -5 20 10 1 8
-10 17 -23 18 -28 2 -5 12 -10 23 -12 22 -3 31 -21 16 -31 -6 -3 -11 -1 -11 6
0 9 -3 10 -11 2 -8 -8 -6 -20 6 -43 9 -17 14 -44 12 -58 -2 -15 -2 -21 0 -14
3 9 12 5 29 -13 17 -19 24 -38 24 -67 l0 -40 -25 16 c-13 9 -32 16 -42 16 -15
0 -16 2 -3 10 13 8 11 11 -7 16 -13 4 -21 10 -18 14 3 5 1 11 -5 15 -14 9 -13
-18 2 -33 9 -9 9 -12 -2 -12 -13 0 -13 -2 0 -10 11 -7 11 -10 2 -10 -24 0 -53
21 -45 33 5 8 2 8 -9 -1 -13 -10 -19 -10 -33 4 -12 13 -13 19 -4 24 6 5 8 14
4 21 -5 8 4 3 18 -10 l27 -24 0 57 c0 36 4 55 10 51 15 -9 12 0 -11 42 -29 50
-35 95 -12 86 12 -5 14 -3 9 8 -4 8 2 3 13 -11 18 -21 20 -22 15 -5z m-196
-188 c6 3 12 0 12 -6 0 -6 -7 -11 -15 -11 -9 0 -13 -6 -9 -17 2 -10 -3 -4 -12
14 -14 26 -23 32 -46 30 -34 -2 -37 -24 -5 -37 22 -9 66 -49 92 -85 14 -19 14
-18 5 9 -9 23 -8 27 4 23 8 -3 17 -3 19 1 2 4 2 1 0 -7 -2 -7 2 -20 8 -27 9
-11 7 -14 -7 -16 -34 -2 -39 -3 -52 -12 -7 -4 -16 -5 -19 -2 -4 3 -1 6 5 6 6
0 9 7 6 15 -4 8 -10 12 -15 9 -6 -3 -16 0 -24 6 -12 10 -15 10 -15 0 0 -8 -3
-10 -6 -7 -4 4 -1 14 7 24 9 11 10 14 2 9 -8 -4 -13 -1 -13 8 0 23 -17 20 -25
-4 -3 -11 -11 -20 -16 -20 -13 0 -11 44 4 59 10 11 10 13 0 7 -8 -4 -13 -1
-13 8 0 9 -8 13 -24 12 -28 -3 -41 15 -23 33 15 15 -6 14 -22 -1 -8 -7 -6 -1
4 15 19 30 33 34 41 13 3 -7 16 -13 30 -13 20 0 23 3 18 20 -5 17 4 12 42 -19
27 -23 55 -39 62 -37z"/>
<path d="M2970 2552 c0 -10 45 -52 88 -81 17 -12 32 -27 32 -33 0 -6 -7 -5
-17 4 -10 8 -25 19 -33 24 -13 7 -13 5 1 -16 9 -14 29 -47 44 -75 16 -27 33
-53 38 -56 5 -3 8 -10 8 -15 -1 -17 10 -44 20 -44 5 0 8 -3 7 -7 -3 -9 17 -60
31 -83 14 -23 24 -53 22 -67 -1 -7 2 -13 7 -13 6 0 9 -6 9 -12 -1 -7 2 -32 7
-55 5 -27 3 -49 -4 -63 -14 -26 -1 -21 37 13 13 11 25 18 28 15 9 -9 -17 -58
-28 -51 -25 16 31 -124 59 -146 l25 -19 37 33 c22 21 40 31 46 25 6 -6 4 -16
-5 -26 -12 -15 -10 -15 15 1 24 16 26 20 13 30 -15 10 -15 13 0 28 16 15 16
21 -1 74 -34 107 -85 225 -130 297 -48 76 -144 186 -164 186 -15 0 -7 -18 46
-106 44 -74 107 -217 116 -269 4 -16 -2 -8 -12 20 -13 33 -21 45 -25 35 -4 -8
-4 -4 -1 9 4 15 2 21 -4 17 -6 -4 -8 3 -5 16 4 19 3 21 -7 8 -10 -13 -11 -13
-6 3 6 20 -3 49 -14 42 -5 -3 -6 5 -3 17 4 19 3 20 -6 8 -12 -16 -11 -18 -15
35 0 11 -6 19 -13 18 -8 -2 -10 4 -6 14 4 11 3 14 -5 9 -8 -5 -10 -2 -6 9 4
10 2 15 -6 13 -7 -2 -22 16 -34 40 -12 23 -27 42 -35 42 -12 0 -11 3 1 18 18
20 13 42 -9 42 -8 0 -24 12 -35 26 -18 22 -89 74 -103 74 -3 0 -5 -4 -5 -8z"/>
<path d="M2740 2426 c-38 -14 -186 -102 -195 -115 -2 -5 -28 -20 -57 -34 -61
-30 -190 -132 -298 -236 l-75 -72 89 65 c49 35 133 89 185 119 101 57 351 162
411 172 71 12 150 -59 150 -134 0 -46 14 -26 31 43 9 38 9 50 -1 56 -7 4 -10
15 -7 23 4 10 1 14 -6 11 -7 -2 -18 9 -24 27 -8 20 -16 28 -24 23 -9 -5 -11
-1 -7 14 12 44 -93 67 -172 38z"/>
<path d="M1710 2237 c0 -22 -73 -97 -99 -102 -14 -2 -32 1 -40 8 -21 17 -43
16 -48 -3 -4 -13 -3 -13 7 0 9 12 11 12 8 1 -3 -8 -17 -19 -33 -24 -30 -10
-64 -37 -48 -37 5 0 32 6 59 14 66 20 123 26 130 15 3 -5 0 -8 -8 -7 -21 5
-16 -11 39 -122 57 -116 118 -280 104 -280 -5 0 -17 24 -27 53 -25 77 -81 204
-116 266 -29 50 -32 53 -45 35 -7 -10 -12 -23 -9 -29 2 -5 12 -27 21 -48 9
-22 12 -36 7 -33 -5 3 -15 19 -22 35 -11 27 -14 29 -27 15 -10 -10 -13 -25 -9
-46 5 -25 4 -29 -8 -19 -11 10 -17 6 -29 -18 -9 -17 -11 -33 -7 -36 5 -3 7
-12 4 -20 -4 -8 -10 -13 -14 -10 -5 3 -12 0 -16 -6 -5 -8 -3 -9 6 -4 10 6 12
4 7 -10 -5 -11 1 -29 17 -50 14 -18 23 -35 20 -38 -8 -8 5 -47 16 -47 11 0 20
39 10 45 -5 3 -10 0 -13 -7 -2 -7 -2 -2 0 11 3 15 -3 28 -17 38 -20 14 -28 63
-10 63 5 0 6 -7 3 -17 -4 -9 -2 -14 3 -10 6 3 16 -11 23 -31 8 -20 20 -45 28
-54 8 -9 13 -25 10 -35 -3 -13 -5 -12 -6 7 -2 25 -2 25 -15 -5 -10 -25 -9 -41
10 -107 12 -43 28 -86 35 -96 11 -14 9 -13 -9 2 -12 11 -22 25 -22 32 0 7 -3
15 -7 17 -11 7 -10 -55 0 -70 6 -9 2 -13 -12 -13 -12 0 -21 7 -21 16 0 8 -5
12 -11 8 -8 -4 -9 0 -4 15 4 12 2 21 -4 21 -6 0 -11 -4 -11 -10 0 -5 -7 -7
-15 -4 -11 5 -14 2 -9 -12 13 -36 24 -41 96 -43 40 -1 87 -4 104 -7 26 -5 32
-2 37 15 4 18 13 21 58 21 29 0 50 -2 48 -5 -5 -5 -43 -13 -69 -14 -12 -1 -12
-3 -2 -10 8 -4 32 -6 55 -4 23 3 70 5 105 6 64 2 80 11 77 47 0 8 2 17 6 20
10 8 22 53 12 47 -5 -3 -14 3 -21 13 -10 16 -9 18 6 14 16 -5 16 -5 0 9 -10 8
-21 28 -24 46 -5 23 -12 31 -28 32 -20 0 -20 1 -1 9 11 4 31 6 44 3 21 -5 22
-4 12 16 -7 11 -20 21 -30 21 -20 0 -30 20 -55 105 -8 28 -22 68 -32 90 -10
22 -17 43 -16 46 1 4 -6 5 -16 3 -12 -4 -21 5 -30 28 -21 50 -72 151 -87 172
-13 17 -17 17 -32 5 -17 -13 -17 -13 0 11 36 52 39 60 22 60 -8 0 -15 -6 -15
-13z"/>
<path d="M1021 1048 c13 -23 -4 -48 -32 -48 -11 0 -19 -7 -19 -15 0 -8 -6 -15
-14 -15 -16 0 -39 -77 -25 -86 26 -16 -24 -64 -68 -64 -7 0 -13 -10 -13 -21 0
-17 3 -19 14 -10 11 9 17 8 29 -3 13 -14 16 -14 28 0 15 18 29 3 29 -32 0 -12
7 -25 16 -28 24 -9 26 -8 15 11 -14 26 35 143 60 143 13 0 11 -37 -5 -68 -18
-36 -28 -82 -19 -82 17 0 54 72 48 91 -4 10 -4 19 -2 19 16 0 77 -32 77 -40 0
-15 50 -12 51 3 0 6 2 20 4 30 2 11 -3 17 -16 17 -10 0 -23 9 -29 20 -6 12
-19 19 -32 17 -16 -2 -21 4 -22 26 -2 34 20 58 30 33 10 -25 42 -40 58 -27 8
6 22 9 32 5 18 -5 18 -5 2 6 -10 6 -18 21 -18 33 0 16 -3 18 -9 9 -7 -11 -9
-11 -14 2 -4 9 -13 13 -21 10 -9 -3 -21 5 -32 21 -9 14 -24 25 -33 24 -30 -3
-41 1 -41 15 0 7 -9 16 -20 19 -17 4 -18 2 -9 -15z"/>
<path d="M4228 979 c-3 -64 6 -104 21 -95 5 3 7 -2 4 -12 -2 -10 5 -26 16 -36
18 -17 21 -17 21 -3 0 9 -4 19 -10 22 -15 9 -12 22 5 22 8 0 15 -5 15 -11 0
-6 4 -5 9 2 7 11 13 9 31 -10 12 -12 29 -33 37 -45 18 -27 33 -22 26 7 -3 11
-14 20 -24 20 -11 0 -19 5 -19 11 0 6 7 9 15 5 8 -3 15 -3 15 0 0 13 -22 44
-30 44 -17 0 -50 34 -50 51 0 18 -25 42 -53 52 -10 4 -16 11 -12 16 3 5 1 12
-4 15 -5 4 -11 -21 -13 -55z"/>
</g>
</svg>
