<?xml version="1.0" standalone="no"?>
<!DOCTYPE svg PUBLIC "-//W3C//DTD SVG 20010904//EN"
 "http://www.w3.org/TR/2001/REC-SVG-20010904/DTD/svg10.dtd">
<svg version="1.0" xmlns="http://www.w3.org/2000/svg"
 width="1280.000000pt" height="768.000000pt" viewBox="0 0 1280.000000 768.000000"
 preserveAspectRatio="xMidYMid meet">
<metadata>
Created by potrace 1.16, written by Peter Selinger 2001-2019
</metadata>
<g transform="translate(0.000000,768.000000) scale(0.100000,-0.100000)"
fill="#000000" stroke="none">
<path d="M0 5420 c0 -2226 0 -2260 19 -2248 15 9 23 9 35 -1 20 -17 21 -50 2
-57 -8 -3 -17 -21 -20 -40 -4 -20 -13 -34 -21 -34 -22 0 -22 -522 -1 -540 8
-6 20 -28 27 -48 6 -20 20 -54 31 -75 19 -39 19 -39 -2 -44 -19 -5 -19 -6 -3
-18 13 -9 22 -10 35 -2 20 13 27 8 33 -22 2 -12 27 -47 55 -79 57 -64 100
-143 100 -184 0 -32 42 -76 80 -84 47 -10 55 -19 57 -70 1 -27 4 -71 7 -98 7
-62 -6 -86 -44 -86 -32 0 -60 23 -84 67 -20 38 -63 77 -110 100 l-40 18 3 63
c2 60 1 66 -39 118 -22 29 -43 61 -46 69 -8 20 -60 20 -68 -1 -3 -9 -6 -229
-6 -490 l0 -474 32 -20 c50 -29 56 -37 68 -80 6 -22 16 -43 23 -47 7 -4 18
-20 26 -36 11 -21 12 -30 3 -39 -15 -15 -15 -51 0 -66 9 -9 9 -15 0 -24 -7 -7
-12 -20 -12 -30 0 -10 -4 -18 -9 -18 -17 0 -33 30 -27 53 4 18 -3 29 -39 57
-24 19 -47 44 -51 55 -5 12 -10 -33 -11 -109 -3 -107 -1 -131 11 -138 9 -5 31
-25 50 -46 31 -32 38 -35 53 -24 10 6 25 15 33 19 19 8 43 41 50 67 3 10 15
25 26 33 19 12 24 10 57 -21 24 -23 43 -33 56 -29 34 9 65 125 42 161 -4 7 -6
24 -4 36 4 21 9 23 47 19 30 -4 45 -1 55 11 7 9 18 16 23 16 18 0 57 -46 78
-93 26 -56 129 -147 165 -147 19 0 26 8 34 38 6 20 11 42 11 47 0 6 6 21 13
35 24 46 28 90 11 126 -9 19 -23 34 -31 34 -12 0 -14 7 -9 30 5 25 2 30 -14
30 -11 0 -20 4 -20 10 0 5 -17 28 -37 51 -28 31 -34 42 -23 49 22 14 3 88 -45
170 -21 35 -19 87 3 99 19 10 72 3 72 -9 0 -4 8 -7 17 -6 14 1 18 -6 16 -27
l-2 -27 30 17 c16 9 30 22 30 28 1 5 3 17 3 25 1 8 5 34 10 58 6 32 4 48 -8
67 -26 39 -31 99 -12 146 14 34 15 44 4 50 -7 5 -16 9 -20 9 -5 0 -8 7 -8 16
0 9 -6 22 -14 28 -12 9 -12 23 -5 72 9 53 7 69 -11 117 -12 32 -25 57 -29 57
-11 0 -51 93 -51 119 0 11 -18 35 -41 54 -53 45 -75 106 -84 231 l-7 99 53 -8
c30 -5 63 -8 74 -7 11 1 112 6 225 11 190 8 209 10 263 35 32 14 64 26 73 26
8 0 26 8 40 17 19 12 50 17 118 18 77 1 98 5 135 25 37 21 42 28 37 51 -8 40
3 69 27 69 11 0 17 3 14 7 -4 3 2 12 13 20 11 8 17 20 14 28 -4 8 -1 15 6 15
6 0 9 -4 5 -10 -7 -11 56 -7 75 5 10 6 9 11 -5 22 -25 17 -36 17 -29 -2 4 -8
1 -15 -6 -15 -6 0 -8 5 -4 12 5 8 0 9 -17 4 -13 -4 -46 -9 -74 -11 l-50 -4 50
9 c27 5 55 16 62 25 10 15 17 15 50 5 43 -14 196 -91 190 -96 -2 -2 -30 7 -62
21 -44 18 -62 21 -67 12 -4 -7 -8 -8 -8 -3 0 19 -53 -40 -75 -85 -13 -25 -31
-74 -39 -110 -9 -35 -21 -80 -26 -99 -7 -22 -8 -71 -2 -135 7 -86 5 -108 -12
-168 l-21 -69 38 -34 c20 -19 47 -34 59 -34 21 0 23 -5 23 -45 0 -64 22 -82
119 -96 61 -9 86 -18 110 -39 17 -15 41 -30 53 -34 12 -4 38 -20 58 -36 21
-17 46 -30 57 -30 11 0 28 -5 39 -11 20 -10 19 -11 -5 -30 -13 -10 -28 -19
-33 -19 -5 0 -26 -18 -47 -39 -47 -48 -44 -76 6 -66 52 10 160 46 200 66 47
24 68 24 146 -1 35 -11 69 -20 75 -20 6 0 -11 23 -38 50 -41 42 -47 52 -35 60
8 5 22 9 30 9 8 0 10 -3 4 -5 -6 -3 3 -20 22 -41 18 -20 31 -40 28 -45 -3 -4
2 -11 11 -14 11 -5 13 -9 6 -14 -7 -4 12 -30 51 -67 94 -90 228 -230 228 -238
0 -4 -7 -1 -16 6 -43 35 -81 13 -89 -51 -5 -37 -3 -49 13 -63 26 -23 79 -18
110 11 17 15 28 19 32 11 5 -7 10 -8 14 -1 3 5 -9 25 -27 43 -44 46 -7 18 83
-61 41 -37 88 -75 103 -85 l28 -18 -27 -28 c-24 -25 -25 -30 -14 -64 7 -20 26
-52 42 -71 35 -39 55 -39 100 4 l27 25 37 -32 c25 -22 43 -31 57 -27 37 9 104
-49 165 -143 30 -47 83 -123 116 -168 34 -45 86 -117 116 -160 30 -42 106
-130 169 -195 63 -65 109 -118 102 -118 -6 0 -19 9 -28 20 -20 23 -38 27 -30
6 4 -10 -3 -14 -28 -14 -20 0 -36 6 -39 15 -5 11 -27 14 -114 12 -59 -2 -112
0 -118 3 -8 4 -42 4 -128 0 -21 -2 -27 -6 -22 -17 3 -8 1 -15 -5 -15 -6 0 -13
9 -16 20 -4 16 -11 18 -37 13 -17 -4 -48 -7 -68 -7 -21 -1 -38 -5 -38 -10 0
-5 -6 -4 -12 2 -15 12 -99 19 -113 10 -21 -13 -74 -12 -99 1 -17 10 -29 11
-38 4 -8 -6 -39 -7 -76 -4 -34 4 -69 3 -78 -2 -9 -5 -37 -6 -62 -2 -63 10
-372 13 -378 4 -2 -4 -28 -5 -57 -2 -57 6 -89 7 -127 4 -14 -1 -71 0 -127 2
-57 2 -103 0 -103 -4 0 -7 -114 -3 -189 5 -25 3 -50 1 -57 -5 -7 -6 -21 -8
-31 -5 -10 3 -51 8 -92 11 -64 4 -72 3 -61 -10 8 -10 9 -15 2 -15 -6 0 -13 4
-17 10 -3 5 -12 7 -20 3 -9 -3 -15 1 -15 10 0 15 -30 18 -41 3 -4 -4 -16 -3
-28 3 -17 10 -21 9 -21 -3 0 -13 -12 -15 -72 -10 -64 5 -181 6 -272 4 -17 -1
-35 -4 -40 -8 -6 -3 -26 -5 -44 -3 -23 2 -38 -3 -47 -16 -14 -17 -14 -17 -15
3 0 21 -35 40 -45 25 -2 -4 -50 -8 -106 -9 -83 -2 -100 1 -96 12 3 8 3 17 0
20 -8 8 -34 -14 -28 -24 3 -4 -2 -10 -10 -14 -9 -3 -15 0 -15 9 0 8 -4 15 -10
15 -5 0 -10 -7 -10 -16 0 -8 -5 -12 -10 -9 -6 4 -7 11 -4 17 4 7 -1 7 -17 2
-13 -5 -58 -9 -101 -9 -42 0 -74 -3 -72 -6 2 -4 -3 -9 -11 -13 -8 -3 -17 -1
-20 4 -3 5 -56 6 -118 3 -61 -3 -110 -3 -106 1 3 3 21 6 40 7 112 5 199 33
199 64 0 22 -28 18 -35 -5 -6 -20 -55 -30 -55 -11 0 5 9 7 20 4 11 -3 20 -1
20 5 0 13 -115 13 -145 1 -14 -5 -6 -8 28 -8 32 -1 46 -5 41 -12 -3 -6 -17 -8
-30 -5 -14 4 -24 2 -24 -4 0 -17 -36 -11 -55 10 -10 11 -23 20 -29 20 -6 0
-22 9 -36 20 -27 21 -45 26 -35 10 3 -5 1 -10 -4 -10 -6 0 -11 9 -11 20 0 21
24 27 50 10 9 -6 17 -5 21 1 3 6 18 7 32 4 15 -4 24 -11 21 -16 -6 -11 4 -11
31 1 16 7 17 9 3 9 -27 1 -30 18 -6 40 l22 21 -23 0 c-14 0 -25 -7 -28 -19 -9
-35 -61 -6 -85 49 -5 11 -7 9 -7 -8 -1 -19 -5 -22 -21 -17 -19 6 -20 2 -20
-68 0 -69 2 -75 22 -81 13 -3 27 -1 32 4 13 13 59 13 51 0 -3 -5 -17 -10 -31
-10 -13 0 -24 -5 -24 -11 0 -5 -4 -8 -9 -5 -14 9 -41 -5 -41 -21 0 -10 6 -12
21 -8 15 5 19 4 15 -4 -4 -6 -14 -11 -22 -11 -21 0 -19 -59 3 -67 20 -8 57
-43 45 -43 -5 0 -19 9 -32 20 -29 25 -41 17 -14 -9 20 -19 124 -36 124 -20 0
5 -15 10 -32 10 -18 1 1 5 42 10 43 4 82 3 92 -2 9 -5 31 -9 48 -9 18 0 29 -4
25 -10 -3 -6 -1 -10 4 -10 6 0 11 4 11 10 0 6 22 8 53 5 80 -7 249 -17 272
-16 79 2 81 3 60 11 -11 4 -27 5 -35 2 -10 -3 -12 -2 -5 6 12 12 119 24 129
14 4 -4 -8 -12 -26 -18 -28 -10 -30 -13 -14 -19 10 -4 21 -4 25 2 3 5 15 13
25 16 17 7 17 6 5 -10 -8 -9 -9 -14 -2 -10 6 4 23 3 37 -3 19 -7 27 -6 33 4 4
7 19 16 33 20 l25 7 -25 -15 c-14 -9 -20 -15 -15 -16 6 0 20 7 31 15 12 8 23
12 26 10 12 -12 132 -14 139 -3 6 9 14 9 34 0 14 -7 36 -12 47 -12 21 0 21 0
2 15 -14 11 -15 14 -4 14 23 0 54 -26 38 -32 -9 -4 -8 -6 4 -6 9 -1 18 3 20 8
2 4 14 11 28 15 19 6 21 5 10 -3 -12 -9 -11 -11 7 -11 12 0 25 5 28 10 3 6 12
10 18 9 9 0 9 -2 0 -6 -27 -10 -11 -18 32 -15 25 2 42 8 39 13 -3 5 0 9 5 9 6
0 11 -5 11 -11 0 -6 9 -9 20 -6 11 3 20 2 20 -2 0 -4 24 -4 53 -1 28 4 62 6
75 3 13 -2 21 0 19 4 -3 4 19 8 49 9 33 1 54 -3 54 -10 0 -6 20 -11 48 -12 41
-1 44 0 19 8 -15 6 -25 14 -21 19 7 12 44 12 44 0 0 -15 52 -22 86 -12 21 6
36 5 42 -1 8 -8 20 -7 41 2 16 6 35 9 42 5 6 -4 14 -3 18 3 4 7 24 6 61 -4 74
-19 124 -19 116 1 -7 20 57 21 73 1 12 -14 133 -17 147 -3 4 4 19 7 33 7 21 0
23 -2 11 -10 -11 -7 -6 -10 22 -10 20 0 38 5 40 11 3 8 16 8 46 -2 37 -11 44
-10 60 4 10 10 25 17 33 17 12 0 11 -2 -1 -10 -10 -7 63 -8 225 -4 287 7 534
14 555 16 8 0 29 0 45 -1 17 -1 127 3 245 8 377 17 594 25 628 25 33 -1 47 15
15 17 -14 0 -15 2 -3 6 8 3 26 14 39 25 17 13 33 17 53 13 16 -4 28 -2 28 3 0
11 125 10 136 0 3 -4 12 -2 19 5 8 9 34 11 86 6 41 -3 79 -2 84 1 6 4 55 8
110 8 67 1 95 -2 85 -8 -23 -15 -7 -12 26 4 28 14 174 23 491 29 55 1 99 6 96
11 -3 5 -34 6 -69 3 -36 -2 -66 -1 -69 3 -3 5 15 19 40 31 62 31 107 70 160
140 67 86 115 205 115 287 0 30 -2 31 -20 20 -30 -19 -94 19 -174 102 -36 37
-66 65 -66 62 0 -4 -4 -2 -8 3 -4 6 -29 30 -56 55 -45 41 -54 40 -18 -2 8 -10
12 -18 8 -18 -11 0 -86 77 -86 88 0 5 -21 35 -46 68 -63 80 -75 107 -68 143 4
17 9 31 13 31 3 0 17 -17 31 -38 91 -137 231 -311 257 -318 38 -10 46 3 41 75
-4 56 -57 233 -103 344 -6 13 -2 17 16 17 21 0 29 -13 61 -93 71 -175 106
-316 94 -382 -6 -29 -11 -35 -34 -36 l-27 -1 28 -10 c21 -7 32 -7 40 1 13 13
15 109 4 156 -5 19 -4 25 2 15 5 -8 12 -34 16 -58 4 -24 18 -55 32 -70 19 -21
23 -23 19 -8 -4 11 -11 39 -17 64 -5 24 -14 53 -20 63 -15 30 1 46 18 18 13
-24 13 -24 7 6 -9 41 -64 192 -104 288 -25 60 -39 81 -59 88 -14 6 -48 27 -76
47 -27 21 -75 54 -105 75 -95 64 -115 83 -98 90 9 3 32 -6 52 -19 23 -16 36
-20 36 -12 0 7 10 1 21 -14 20 -27 21 -27 41 -9 11 11 26 17 34 14 20 -7 17 4
-6 34 -11 14 -20 34 -20 44 0 10 -5 21 -10 24 -6 4 -10 14 -9 23 3 33 -1 40
-33 56 l-33 16 33 0 c30 0 35 -5 53 -47 11 -26 29 -53 39 -60 11 -8 20 -22 20
-31 0 -13 -5 -12 -20 8 -10 14 -22 22 -25 18 -4 -4 5 -19 19 -34 15 -17 32
-55 43 -96 10 -37 21 -68 25 -68 26 0 -15 154 -70 265 l-30 60 30 6 c16 4 35
12 41 19 9 10 7 11 -11 5 -19 -5 -37 7 -108 74 -47 45 -92 81 -100 81 -8 0
-13 -4 -10 -9 4 -5 -3 -7 -15 -4 -19 5 -18 7 12 32 31 26 31 28 15 47 -17 20
-17 20 -67 -3 -41 -20 -55 -22 -77 -14 -26 10 -26 11 6 5 17 -3 32 -1 32 4 0
11 -47 22 -91 22 -22 0 -29 5 -29 20 0 11 6 20 14 20 7 0 19 6 25 14 10 12 9
20 -5 41 -17 27 -18 27 -26 6 -4 -12 -10 -21 -12 -21 -3 0 -1 12 5 27 13 36
-2 50 -32 29 -26 -18 -39 -20 -39 -8 0 5 11 14 25 20 14 6 25 18 25 27 0 8 4
15 8 15 14 0 32 -23 32 -42 0 -19 34 -26 45 -9 3 6 29 21 58 36 28 14 59 29
67 35 24 14 141 66 192 84 56 21 62 27 44 51 -11 15 -20 16 -70 8 -31 -6 -59
-6 -62 -2 -3 5 -20 9 -37 10 -18 0 -26 3 -19 6 24 10 11 33 -28 50 -43 19 -52
38 -20 46 28 7 25 25 -3 20 -31 -6 -62 35 -41 54 10 10 17 8 32 -12 27 -34 36
-31 17 5 -16 31 -21 33 -65 31 -46 -2 -56 12 -38 56 17 44 7 88 -33 144 -26
36 -38 32 -14 -5 10 -14 13 -26 9 -26 -13 0 -41 20 -29 20 6 0 1 7 -9 15 -16
12 -17 18 -8 27 17 17 15 29 -3 22 -10 -4 -15 0 -15 10 0 9 7 19 16 23 11 4
14 13 10 29 -4 15 0 34 10 49 13 20 14 33 6 72 -6 27 -16 80 -23 118 -7 39
-19 83 -27 100 -8 16 -19 41 -23 55 -5 15 -7 -16 -5 -80 1 -58 -1 -121 -5
-140 -4 -19 -10 -64 -13 -99 -2 -35 -9 -68 -15 -74 -16 -16 -14 27 6 160 15
101 15 116 2 144 l-15 32 -18 -64 c-20 -74 -58 -181 -62 -177 -1 2 6 35 16 73
27 105 43 226 35 270 -10 55 -54 204 -72 240 -28 56 -88 155 -95 155 -12 0
-18 -53 -16 -135 2 -68 -1 -85 -20 -115 l-22 -35 1 35 c2 109 -8 200 -24 218
-19 21 -22 48 -7 57 14 9 -7 35 -26 35 -8 0 -14 7 -14 15 0 8 -4 15 -9 15 -5
0 -28 19 -52 41 -64 61 -117 82 -184 74 -51 -7 -55 -6 -55 13 0 12 9 26 21 32
31 17 22 56 -12 52 -19 -2 -29 4 -38 25 -11 24 -10 25 4 13 20 -17 29 -7 19
22 -9 25 -11 33 -13 48 0 5 -20 23 -43 40 -42 31 -69 40 -50 17 11 -13 -8 -49
-24 -46 -25 4 -54 -2 -49 -11 10 -17 -6 -11 -24 8 -9 9 -22 17 -28 18 -7 1
-26 2 -43 3 -16 0 -30 6 -30 12 0 5 4 8 9 4 5 -3 12 -1 16 5 3 5 3 10 -2 11
-4 1 -24 3 -43 5 -19 3 -44 6 -55 7 -11 1 -38 -4 -60 -11 -35 -12 -41 -12 -52
4 -11 15 -152 57 -162 48 -2 -2 7 -34 19 -71 12 -37 24 -74 26 -80 2 -8 19
-13 42 -13 50 0 62 -14 62 -73 0 -28 4 -46 10 -42 14 9 80 -22 80 -38 0 -22
273 -286 334 -323 67 -40 189 -143 229 -192 15 -19 27 -46 27 -59 0 -33 13
-55 87 -147 98 -122 97 -118 98 -291 0 -82 -2 -173 -5 -202 -3 -43 0 -58 18
-82 12 -17 22 -36 22 -43 0 -7 9 -19 20 -26 11 -7 20 -17 20 -23 0 -7 -6 -7
-17 2 -15 13 -15 12 0 -18 17 -32 34 -48 52 -48 5 0 10 -7 10 -15 0 -8 12 -31
27 -50 15 -19 34 -49 43 -65 l16 -30 -4 57 -4 57 36 -28 c45 -36 104 -182 80
-197 -5 -3 -9 1 -9 8 0 10 -3 9 -10 -2 -12 -20 -20 -9 -24 34 -4 42 -21 65
-36 50 -6 -6 -6 -23 1 -47 5 -21 9 -46 7 -56 -2 -10 5 -28 15 -39 18 -19 17
-20 -13 -35 l-31 -16 6 32 c4 25 -1 39 -21 62 l-26 30 15 -30 c13 -26 13 -34
1 -58 -13 -24 -13 -39 1 -119 14 -77 24 -104 65 -172 40 -64 53 -98 64 -161
14 -78 29 -188 30 -232 1 -22 16 -46 16 -25 0 7 11 12 25 12 35 0 155 -125
155 -162 0 -4 -36 -5 -80 -1 -61 5 -80 3 -80 -7 0 -9 -12 -11 -49 -6 -58 8
-87 -11 -97 -63 -6 -30 -5 -32 12 -23 18 9 19 6 19 -57 0 -47 -4 -65 -12 -63
-7 1 -13 -3 -13 -8 0 -6 -11 -16 -25 -22 -22 -10 -38 -34 -41 -63 0 -5 -9 -29
-18 -52 -15 -35 -25 -45 -55 -53 -20 -5 -45 -10 -57 -10 -11 0 -47 -8 -80 -19
-32 -10 -79 -23 -104 -29 -25 -6 -62 -18 -81 -26 l-36 -15 16 -70 c9 -38 19
-72 22 -76 4 -3 17 -2 30 3 74 28 71 29 146 -71 124 -163 188 -226 302 -294
l33 -20 -271 -1 c-149 -1 -271 0 -271 1 0 1 9 31 20 65 20 65 29 233 10 185
-25 -63 -90 -45 -210 59 -84 72 -105 97 -241 283 -123 168 -196 278 -298 447
-45 76 -84 138 -87 138 -13 0 162 -302 178 -308 4 -2 8 -8 8 -14 0 -5 13 -28
29 -51 15 -23 38 -62 50 -86 26 -49 61 -98 223 -306 34 -44 67 -83 72 -87 6
-4 7 -8 3 -8 -4 0 -2 -10 5 -22 7 -13 13 -27 14 -33 1 -29 18 -55 54 -84 44
-35 44 -51 2 -51 -29 0 -58 32 -46 51 7 12 -27 47 -41 42 -9 -3 -65 78 -65 93
0 10 -45 45 -70 55 -14 5 -32 19 -39 32 -13 20 -13 21 2 8 10 -8 17 -9 17 -3
0 6 -4 14 -10 17 -5 3 -10 14 -10 24 0 9 -14 30 -31 47 -17 16 -62 75 -100
131 -38 56 -73 104 -79 108 -5 3 -10 14 -10 23 0 29 -47 111 -80 138 -17 15
-43 50 -57 78 -14 28 -50 90 -79 139 -29 48 -51 93 -48 101 7 19 -30 87 -68
122 -20 19 -29 23 -25 12 4 -10 3 -18 -1 -18 -9 1 -62 120 -62 140 0 26 -46
114 -74 139 -14 14 -26 28 -26 33 0 4 -29 50 -64 101 -52 76 -106 169 -106
184 0 2 6 3 14 1 8 -2 15 0 15 5 5 48 -3 62 -59 118 -33 32 -60 67 -60 76 0
10 -14 49 -30 88 -17 38 -30 71 -30 72 0 8 50 2 55 -7 3 -5 10 -10 14 -10 13
0 21 44 11 54 -28 28 20 37 57 11 18 -13 22 -13 33 0 21 25 38 6 42 -48 6 -70
79 -305 135 -430 25 -56 56 -129 70 -162 31 -75 162 -337 175 -350 13 -14 -19
58 -95 210 -157 315 -250 578 -259 733 -3 45 -1 62 8 62 20 0 28 -38 29 -130
0 -66 5 -95 22 -130 12 -25 37 -95 57 -157 43 -138 73 -208 188 -438 209 -417
389 -706 624 -1001 118 -148 155 -183 213 -203 29 -9 36 -8 60 12 25 21 26 24
19 97 -4 41 -16 104 -27 140 -12 36 -21 72 -20 80 0 26 45 -93 58 -155 18 -86
19 -96 20 -132 1 -18 6 -33 11 -33 36 0 -45 313 -95 370 -12 14 -39 58 -59 99
-20 40 -36 71 -36 67 0 -22 23 -95 29 -91 16 9 73 -159 101 -296 8 -42 8 -68
0 -101 l-12 -45 -38 7 c-33 6 -146 78 -136 87 1 2 22 -7 45 -19 l42 -23 21 25
c17 21 19 33 14 80 -4 30 -16 88 -28 128 -17 58 -24 70 -34 61 -23 -19 -60 -1
-121 59 -174 171 -433 587 -576 927 -69 161 -114 317 -89 301 5 -3 14 -31 21
-63 19 -83 149 -403 165 -403 5 0 -27 81 -49 121 -17 31 -55 166 -55 194 1 13
9 4 26 -28 14 -26 29 -45 34 -42 5 3 14 -4 20 -15 14 -26 -3 -52 -27 -43 -11
5 -6 -12 17 -55 19 -33 37 -59 41 -56 4 2 11 -5 14 -17 4 -11 8 -19 10 -17 2
2 -2 22 -10 43 -16 45 -20 84 -7 70 5 -6 22 -41 37 -80 47 -115 131 -274 198
-372 34 -50 63 -90 65 -88 2 2 -4 24 -13 50 -10 25 -15 48 -12 51 3 3 15 -26
27 -65 16 -50 31 -78 52 -96 54 -46 62 -14 23 97 -14 39 -34 86 -45 105 -10
18 -15 33 -10 33 6 0 10 -3 10 -7 0 -5 14 -24 30 -43 26 -32 28 -33 23 -10 -6
22 -5 24 10 11 9 -7 17 -23 17 -35 0 -25 69 -148 70 -124 0 9 -4 19 -9 22 -5
3 -19 31 -31 62 -19 47 -21 57 -9 65 17 11 29 11 29 2 0 -5 19 -45 43 -90 l43
-82 64 39 c36 22 69 39 74 40 15 0 -36 -36 -84 -60 -25 -12 -47 -24 -49 -26
-3 -2 7 -30 22 -62 71 -155 119 -267 138 -319 29 -77 37 -84 32 -26 -6 62 20
167 52 209 14 18 21 34 16 36 -6 2 -6 57 0 143 16 227 14 486 -4 596 -24 141
-68 301 -137 504 -34 99 -74 221 -90 270 -39 125 -37 121 -83 149 -23 13 -51
34 -62 46 -24 27 -333 212 -517 310 -73 40 -170 102 -216 138 -46 37 -88 66
-95 64 -7 -2 -9 0 -4 4 4 4 -3 18 -15 32 -20 21 -21 25 -7 35 8 7 39 56 68
111 29 54 85 151 123 215 39 64 73 120 76 125 3 5 0 6 -6 2 -7 -4 -12 -3 -12
3 0 6 8 15 19 20 10 6 21 20 24 31 3 11 1 18 -3 15 -11 -6 -30 27 -30 50 0 9
5 13 10 10 6 -3 10 -15 10 -25 0 -26 22 -16 42 18 9 15 37 50 62 77 25 27 45
49 43 50 -1 0 -28 18 -60 40 -66 44 -102 81 -46 47 44 -27 53 -20 71 59 6 30
17 57 22 61 21 14 126 9 151 -8 14 -9 25 -12 25 -7 0 6 39 13 88 16 70 5 89 3
99 -9 16 -22 26 1 11 25 -19 31 3 49 42 34 17 -6 30 -7 30 -2 0 29 141 -25
160 -62 6 -10 30 -27 55 -38 47 -21 77 -59 97 -123 7 -24 23 -46 45 -60 19
-13 45 -45 59 -71 16 -32 36 -53 58 -64 19 -9 40 -26 47 -39 6 -13 40 -50 75
-83 60 -58 116 -144 177 -273 14 -30 41 -77 60 -105 43 -65 95 -189 111 -266
7 -33 19 -63 28 -68 20 -11 80 -105 82 -127 1 -18 73 -131 91 -144 6 -5 5 -12
-3 -20 -9 -9 -14 -9 -24 4 -7 9 -30 39 -52 66 l-39 50 -24 -29 c-29 -34 -25
-53 21 -98 l34 -33 -4 33 c-2 17 -11 45 -19 62 -8 17 -13 32 -11 34 8 8 101
-112 120 -155 10 -23 23 -42 27 -42 5 0 0 20 -11 45 -10 24 -16 47 -11 49 14
9 95 7 186 -5 112 -15 172 -14 193 3 29 25 332 5 332 -22 0 -4 11 -11 25 -14
25 -6 62 -29 153 -93 76 -53 99 -111 117 -295 8 -84 18 -130 36 -165 22 -42
35 -53 67 -53 34 0 77 -53 101 -124 12 -35 21 -70 21 -79 0 -25 45 -100 73
-121 20 -14 53 -21 134 -27 207 -16 313 -57 408 -156 55 -57 60 -66 62 -110 2
-69 24 -83 125 -83 91 0 164 16 192 41 20 19 55 98 75 172 16 55 37 76 76 77
68 1 74 -3 116 -75 13 -22 39 -65 56 -96 18 -30 44 -66 57 -78 46 -43 167 -40
212 4 20 20 24 34 24 82 0 92 -37 207 -86 266 -17 20 -41 66 -53 102 -13 35
-29 69 -37 76 -24 20 -36 84 -24 129 6 23 9 49 6 58 -3 10 -33 32 -66 50 -46
26 -73 51 -117 110 -32 42 -65 84 -74 93 -9 9 -21 23 -25 30 -11 17 -79 69
-91 69 -14 1 -61 44 -64 60 -2 8 5 28 15 43 14 20 16 31 8 39 -8 8 -8 17 0 32
20 38 46 55 95 62 60 7 90 -6 148 -67 22 -23 55 -53 73 -67 23 -18 32 -31 28
-44 -7 -30 22 -116 44 -128 33 -18 50 -2 50 46 0 40 -3 45 -37 65 -36 21 -73
73 -73 104 0 32 250 185 302 185 10 0 36 13 56 29 48 37 68 43 82 25 7 -8 19
-14 27 -14 8 0 49 -11 91 -25 101 -33 265 -38 307 -11 30 20 55 19 178 -8 63
-14 107 -16 230 -12 269 10 361 17 392 27 17 6 44 13 60 16 35 5 75 29 93 54
6 10 25 20 41 24 16 3 35 13 42 21 6 8 18 14 25 14 16 0 51 18 72 38 18 17 32
15 48 -5 20 -26 17 -36 -21 -86 l-36 -46 21 -21 c28 -28 22 -53 -40 -195 -95
-216 -93 -210 -94 -333 -1 -112 -1 -114 26 -135 14 -12 61 -51 102 -86 42 -35
94 -73 116 -85 21 -11 72 -45 112 -74 201 -146 236 -159 334 -126 l46 16 37
-30 c54 -43 159 -170 186 -225 13 -26 26 -66 30 -90 4 -23 16 -59 26 -79 35
-70 107 -60 143 19 28 62 97 83 147 45 76 -58 139 -82 266 -102 70 -10 180
-22 243 -26 63 -4 129 -12 146 -19 37 -15 104 -94 104 -122 0 -38 -12 -82 -24
-86 -6 -2 -45 0 -86 4 -186 20 -785 40 -1030 34 -252 -6 -434 -22 -408 -36 56
-30 623 -54 1263 -53 394 0 529 4 558 13 36 12 43 11 100 -18 39 -19 85 -33
123 -37 113 -12 184 42 184 138 0 72 -20 111 -127 251 -29 38 -53 75 -53 83 0
7 -10 19 -22 25 -36 18 -78 61 -78 79 0 9 -4 20 -8 25 -4 6 -14 28 -21 50 -8
22 -24 55 -36 72 -28 43 -134 153 -146 153 -5 0 -9 8 -10 18 0 11 -2 13 -6 4
-4 -10 -13 -6 -34 14 -16 15 -29 33 -29 40 0 6 -7 17 -15 24 -8 7 -12 16 -9
21 3 5 -18 31 -46 57 -29 26 -79 80 -112 120 -34 41 -83 95 -110 120 -59 55
-78 88 -71 125 12 62 88 18 141 -81 19 -35 53 -77 84 -103 63 -54 63 -54 113
-115 57 -70 150 -164 162 -164 12 0 61 -75 69 -105 3 -13 13 -30 22 -38 15
-14 22 -13 59 4 53 24 67 49 68 124 2 63 29 180 48 204 6 7 16 23 22 35 6 12
47 39 96 62 103 50 129 79 129 144 0 87 -25 135 -100 196 -116 93 -106 118 32
85 51 -12 118 -25 148 -27 30 -3 72 -6 93 -8 l37 -4 0 2469 0 2469 -6400 0
-6400 0 0 -2260z m8480 1879 c0 -8 17 -10 53 -7 28 3 66 1 82 -3 20 -4 3 -7
-54 -8 -46 0 -82 -3 -79 -6 2 -3 42 -7 87 -10 46 -2 89 -9 97 -16 11 -9 18 -8
32 4 17 15 19 15 32 -3 16 -22 46 -27 52 -8 3 8 18 5 49 -10 24 -11 71 -23
104 -26 33 -3 61 -10 63 -16 2 -6 9 -7 15 -2 19 14 107 2 107 -14 0 -10 12
-14 40 -14 29 0 40 4 40 15 0 18 5 19 32 4 15 -8 17 -13 8 -19 -25 -15 45 -40
115 -40 59 0 65 -2 65 -21 0 -15 4 -19 16 -15 29 11 56 -4 51 -26 -5 -18 -2
-20 26 -15 18 3 26 3 20 0 -7 -2 -13 -11 -13 -19 0 -8 -9 -14 -19 -14 -11 0
-21 -5 -23 -11 -2 -7 -51 -11 -136 -12 -105 -1 -135 2 -142 13 -14 22 -64 -4
-57 -30 3 -12 1 -18 -5 -14 -5 4 -24 -4 -40 -16 -17 -13 -28 -18 -24 -11 8 13
4 14 -18 5 -9 -3 -16 -12 -16 -20 0 -8 -4 -14 -10 -14 -5 0 -10 4 -10 9 0 6
-12 6 -30 0 -34 -12 -35 -15 -15 -35 8 -9 15 -21 15 -27 0 -8 -3 -8 -11 0 -6
6 -18 9 -25 6 -8 -3 -14 1 -14 10 0 11 -10 6 -32 -16 -18 -18 -46 -41 -63 -52
-26 -16 -27 -19 -10 -25 17 -6 17 -7 1 -13 -27 -11 -36 -8 -36 8 0 17 -45 21
-55 5 -3 -5 -16 -10 -28 -10 -12 0 -31 -7 -41 -15 -11 -8 -39 -15 -62 -15 -58
0 -74 -8 -74 -36 0 -29 -11 -31 -30 -4 -8 11 -18 20 -22 20 -4 0 -8 -9 -8 -20
0 -17 -7 -20 -40 -20 -33 0 -40 -3 -40 -20 0 -17 -7 -20 -40 -20 -29 0 -40 -4
-40 -15 0 -17 -68 -20 -179 -9 -59 7 -61 8 -61 35 0 23 -4 29 -22 29 -13 0
-32 7 -42 15 -17 13 -18 15 -3 15 9 0 17 5 17 10 0 6 -6 10 -14 10 -8 0 -17 7
-20 16 -3 8 -10 13 -15 10 -5 -3 -17 7 -27 22 -35 53 -88 90 -140 96 -138 18
-134 18 -134 -12 0 -16 -8 -32 -20 -40 -14 -9 -20 -9 -20 -1 0 8 -5 7 -15 -1
-9 -7 -14 -19 -11 -25 2 -7 -10 -26 -28 -42 -19 -16 -37 -39 -40 -51 -4 -12
-11 -22 -16 -22 -4 0 -8 -15 -8 -32 0 -18 -2 -37 -3 -43 -6 -20 61 -111 73
-99 2 1 5 -8 6 -22 2 -32 32 -73 54 -74 11 0 15 -6 11 -19 -6 -23 24 -36 44
-20 21 18 28 2 7 -18 -17 -17 -17 -18 14 -21 23 -2 32 -8 32 -21 0 -22 62 -36
91 -21 10 6 29 10 43 10 24 0 26 3 26 50 l0 50 80 0 c78 0 80 -1 80 -24 0 -19
4 -23 20 -19 12 3 29 -2 39 -11 15 -13 20 -14 24 -4 3 10 12 9 38 -6 19 -11
36 -22 39 -25 3 -4 18 -12 33 -19 16 -7 25 -17 21 -23 -10 -18 11 -25 61 -21
45 4 48 7 63 43 16 41 47 53 58 24 8 -19 66 -20 103 -1 19 11 45 13 84 9 67
-7 75 -20 15 -26 -42 -3 -41 -4 9 -5 32 -1 65 -10 87 -23 23 -13 43 -18 57
-14 15 5 19 4 15 -4 -4 -6 0 -14 9 -18 10 -3 21 0 26 8 6 11 11 11 21 1 6 -6
22 -12 34 -12 13 0 29 -7 38 -15 17 -17 46 -20 46 -5 0 6 5 10 10 10 6 0 10
-9 10 -20 0 -17 7 -20 40 -20 38 0 40 2 40 30 0 28 2 30 40 30 22 0 40 -4 40
-9 0 -5 9 -11 21 -14 11 -3 23 -15 26 -26 3 -12 12 -21 19 -21 8 0 14 -7 14
-15 0 -8 -6 -15 -14 -15 -7 0 -25 -9 -38 -20 -14 -10 -28 -16 -32 -13 -3 3 -6
1 -6 -5 0 -7 -9 -12 -20 -12 -11 0 -20 5 -20 12 0 17 -29 -24 -30 -42 0 -8
-12 -23 -25 -33 -24 -17 -43 -19 -215 -16 -8 0 -26 0 -40 -1 -63 -2 -80 0 -80
10 0 5 5 10 11 10 5 0 -2 13 -18 29 -15 16 -30 25 -33 21 -9 -12 -160 -20
-160 -8 0 7 -19 9 -55 5 -53 -5 -88 7 -43 16 13 2 4 5 -19 6 -31 1 -43 5 -43
16 0 8 -4 15 -8 15 -14 0 -32 -23 -32 -41 0 -10 -9 -21 -20 -24 -11 -3 -20
-14 -20 -23 -1 -15 -2 -15 -15 2 -8 11 -16 18 -17 15 -2 -2 -8 -13 -13 -23 -6
-11 -29 -25 -50 -31 -22 -7 -55 -20 -73 -30 -18 -9 -39 -14 -47 -11 -8 3 -38
-2 -67 -10 -103 -29 -184 -44 -233 -44 -27 0 -63 -7 -79 -15 -16 -9 -35 -14
-42 -11 -6 2 -17 -1 -23 -7 -6 -6 -11 -7 -11 -2 0 6 -4 4 -9 -4 -10 -15 -52
-21 -156 -24 -64 -1 -157 30 -133 45 24 14 -10 32 -62 31 -27 0 -47 3 -44 8 3
5 0 9 -5 9 -6 0 -11 -4 -11 -9 0 -5 -13 -11 -30 -13 -21 -3 -30 0 -33 11 -3
10 -5 7 -6 -7 0 -12 -9 -26 -18 -29 -10 -4 -24 -13 -31 -20 -18 -17 -48 -17
-64 1 -11 12 -15 12 -30 -1 -11 -10 -18 -12 -18 -5 0 7 4 12 9 12 5 0 7 9 4
20 -3 12 1 22 11 26 19 7 23 84 5 84 -6 0 -20 11 -30 24 -11 14 -28 28 -39 31
-11 4 -20 13 -20 21 0 8 -5 14 -11 14 -5 0 -8 4 -5 8 4 8 -50 56 -66 58 -4 1
-10 3 -13 4 -3 1 -9 4 -15 5 -5 1 -12 4 -15 5 -3 1 -8 3 -12 4 -5 1 -23 6 -40
10 -18 4 -33 12 -33 18 0 7 -4 7 -12 0 -7 -5 -28 -9 -45 -7 -18 1 -31 -1 -28
-5 2 -4 -7 -5 -20 -2 -14 2 -25 0 -25 -6 0 -21 -37 -33 -66 -22 -15 6 -24 13
-20 17 7 8 -13 33 -26 33 -6 0 -8 -14 -6 -32 l5 -32 -28 32 c-17 18 -26 38
-23 47 4 9 0 15 -9 15 -22 0 -31 36 -18 68 6 15 13 59 15 97 5 85 3 80 21 65
19 -16 19 -11 -4 49 -19 47 -19 51 -3 92 33 86 79 128 125 113 16 -5 19 -3 13
12 -4 10 -4 15 0 11 4 -4 22 4 40 18 18 14 37 25 41 24 24 -4 43 3 43 16 0 8
5 15 10 15 6 0 10 9 10 19 0 22 20 40 20 19 1 -7 7 1 15 19 7 17 24 34 37 38
12 5 29 16 36 26 8 11 25 19 43 19 25 0 64 26 72 48 1 4 7 7 12 7 24 2 52 29
47 47 -2 10 1 18 7 18 6 0 11 -4 11 -10 0 -19 25 -10 57 20 18 17 43 30 57 30
15 0 26 6 26 13 0 7 19 21 43 32 23 10 46 24 50 32 4 7 13 13 18 13 6 0 7 -5
4 -10 -8 -13 44 -2 63 13 10 8 16 7 23 -4 8 -12 11 -11 20 4 7 13 18 17 33 13
11 -3 28 -1 36 4 13 9 13 10 0 11 -8 1 1 5 20 10 38 9 70 4 70 -12 0 -13 38
-11 42 2 2 7 13 6 33 -2 l30 -13 -40 -5 c-69 -10 -21 -21 69 -15 47 2 86 1 85
-3 -1 -4 -1 -25 0 -45 1 -37 2 -38 41 -38 22 0 40 5 40 10 0 6 9 10 20 10 22
0 27 -15 8 -23 -9 -4 -8 -6 3 -6 8 -1 21 5 27 11 8 8 15 9 20 3 8 -12 82 -14
82 -2 0 4 21 7 48 8 26 1 58 4 72 8 l25 7 -24 13 -24 13 39 14 c21 8 65 14 97
15 31 1 57 5 57 10 0 5 -11 9 -25 9 -14 0 -25 6 -25 13 0 9 12 14 31 14 17 0
35 6 40 14 7 11 9 11 9 -3 0 -23 12 -23 52 2 18 11 40 20 49 20 9 0 22 7 29
15 15 18 30 20 30 4z m1272 -320 c14 -11 42 -19 62 -19 23 0 45 -8 59 -21 l22
-20 3 20 c4 24 22 18 22 -6 0 -9 7 -25 17 -35 15 -17 15 -18 0 -18 -33 0 -16
-18 23 -24 31 -5 40 -11 40 -26 0 -10 5 -22 10 -25 6 -3 10 -24 10 -45 0 -21
5 -40 13 -43 8 -3 5 -7 -7 -13 -13 -5 -21 -3 -24 4 -5 15 -62 16 -62 1 0 -13
-92 -1 -101 14 -4 5 -27 8 -53 5 -39 -5 -48 -2 -57 14 -7 12 -16 17 -26 13 -9
-3 -20 0 -24 6 -5 8 -19 7 -53 -6 -25 -10 -46 -22 -46 -26 0 -14 -38 -11 -44
4 -5 10 -7 10 -12 0 -3 -7 -12 -13 -20 -13 -10 0 -14 12 -14 40 0 31 4 40 18
41 13 0 12 2 -5 9 -27 11 -29 25 -5 39 15 9 15 11 -8 21 -25 10 -25 10 5 7 29
-3 30 -1 30 38 0 39 1 40 38 43 29 3 37 7 37 23 0 14 7 19 30 19 23 0 30 -4
30 -20 0 -14 7 -20 22 -20 17 0 19 3 10 12 -7 7 -12 20 -12 30 0 16 3 17 23 7
12 -7 34 -20 49 -30z m-3614 -393 c12 -4 22 -12 22 -17 0 -5 7 -9 15 -9 8 0
15 -6 15 -14 0 -7 7 -19 15 -26 8 -7 15 -21 15 -32 0 -11 15 -52 34 -91 59
-128 64 -141 59 -179 -3 -21 -9 -38 -14 -38 -5 0 -9 -4 -9 -9 0 -23 -65 -73
-99 -77 -80 -7 -106 -13 -109 -23 -2 -6 -22 -11 -45 -11 -28 0 -37 3 -28 9 11
7 9 10 -9 16 -15 5 -20 13 -17 26 7 26 -12 92 -29 102 -8 4 -14 15 -14 22 0 8
-4 15 -9 15 -5 0 -15 16 -22 35 -7 19 -17 35 -21 35 -5 0 -8 6 -6 13 1 6 -3
21 -9 32 -13 23 -12 90 1 102 5 5 6 2 1 -6 -6 -10 -4 -12 4 -7 6 4 9 15 6 25
-6 21 36 61 65 61 12 0 17 5 14 14 -3 8 0 17 7 22 31 19 122 24 167 10z
m-3845 -101 c64 -19 176 -95 228 -153 69 -79 116 -169 139 -266 24 -106 40
-237 27 -229 -5 3 -13 -1 -18 -8 -7 -11 -9 -11 -9 3 0 9 5 18 11 20 7 2 8 22
3 56 -7 54 -29 68 -29 19 -1 -14 -9 -34 -18 -45 -9 -10 -17 -23 -17 -29 0 -6
-16 -31 -35 -56 -19 -25 -35 -49 -35 -54 -1 -10 -97 -68 -130 -78 -14 -4 -23
-6 -20 -3 39 34 92 70 86 58 -4 -8 0 -6 8 4 9 11 16 23 16 28 0 4 6 8 13 8 25
0 87 94 101 155 4 17 15 38 23 48 14 15 14 17 1 17 -20 0 -32 -16 -49 -62 -7
-21 -19 -38 -27 -38 -9 0 -12 -6 -8 -15 3 -9 -7 -29 -24 -48 -20 -21 -28 -25
-23 -13 4 14 3 17 -6 12 -6 -4 -10 -4 -9 1 2 5 -6 28 -17 51 -22 45 -42 54
-219 98 l-69 17 47 24 c26 13 55 23 65 21 10 -2 19 0 19 5 5 20 1 27 -10 21
-7 -4 1 15 17 42 l29 49 -45 -37 -45 -36 -1 31 c-1 41 -4 51 -32 112 -13 28
-33 58 -44 68 -21 16 -21 17 -2 11 11 -4 1 8 -22 26 -24 17 -43 35 -43 39 0
15 -77 43 -131 48 -42 4 -77 0 -130 -17 -86 -25 -182 -66 -221 -93 -47 -32
-33 3 23 55 64 60 215 134 309 152 47 9 275 -5 323 -19z m9328 -442 c8 -9 13
-19 11 -22 -1 -3 14 -8 35 -11 23 -3 33 -8 26 -13 -6 -4 -11 -21 -11 -39 1
-20 -6 -36 -18 -45 -10 -8 -18 -18 -17 -23 4 -14 -47 -50 -71 -50 -11 0 -30
12 -43 26 -21 25 -21 28 -8 61 8 20 15 42 15 51 0 21 42 82 56 82 6 0 18 -7
25 -17z m-1473 -92 c9 -5 36 -18 59 -28 24 -10 45 -26 48 -35 3 -9 14 -20 25
-23 10 -3 23 -18 30 -33 22 -55 58 -118 74 -131 9 -7 16 -19 16 -25 0 -18 61
-71 97 -85 20 -8 44 -10 65 -5 18 4 40 9 48 10 8 2 26 6 40 9 35 9 76 -34 100
-105 16 -44 19 -84 20 -202 0 -87 -4 -149 -10 -153 -5 -3 -10 -16 -10 -29 0
-12 -7 -31 -15 -42 -8 -10 -15 -27 -15 -36 0 -10 -4 -18 -10 -18 -5 0 -10 -6
-10 -12 0 -7 -21 -35 -47 -61 -26 -27 -42 -51 -37 -56 5 -4 38 -20 74 -35 36
-15 74 -31 85 -36 38 -17 139 -25 232 -18 62 4 90 -17 99 -74 5 -28 2 -39 -16
-56 -12 -11 -28 -37 -35 -59 -20 -58 -48 -63 -132 -26 -80 35 -120 47 -151 44
-27 -3 -137 24 -189 46 -47 20 -139 42 -175 43 -15 0 -56 -9 -91 -21 l-64 -21
-43 22 c-23 12 -45 31 -48 42 -4 18 -10 19 -46 13 -83 -15 -113 -11 -155 23
-22 18 -44 32 -48 32 -7 0 -74 -71 -93 -100 -11 -16 -51 -30 -88 -30 -84 0
-162 85 -162 178 0 35 -6 38 -34 17 -25 -19 -41 -19 -88 2 -47 21 -48 40 -9
108 34 59 102 125 160 155 63 32 183 53 276 48 138 -7 238 -77 299 -208 14
-30 26 -61 26 -67 0 -20 30 -15 79 13 59 35 57 32 36 48 -30 22 -34 91 -11
161 12 33 24 62 29 63 4 2 7 9 7 16 0 8 9 25 20 39 11 14 20 34 20 44 0 11 3
23 7 27 14 14 31 76 21 82 -5 3 -8 13 -7 22 5 51 -2 92 -15 92 -8 0 -16 7 -20
15 -3 8 -14 15 -24 15 -11 0 -31 11 -46 25 -15 14 -34 25 -42 25 -7 0 -14 6
-14 13 0 7 -16 19 -36 26 -19 7 -38 19 -41 27 -3 8 -10 14 -17 14 -19 1 -88
68 -81 79 3 6 -1 25 -9 43 -19 43 -31 118 -18 118 5 0 12 9 15 20 4 15 14 20
41 20 20 0 44 -4 54 -9z m-7343 -174 c106 6 179 3 218 -8 23 -7 44 -13 47 -14
3 0 16 -7 30 -16 57 -34 88 -50 143 -75 31 -15 57 -31 57 -35 0 -5 17 7 38 27
20 19 75 54 122 77 73 35 95 41 165 45 67 3 85 0 113 -17 33 -22 40 -47 22
-82 -6 -10 -17 -19 -26 -19 -8 0 -34 -10 -57 -21 -40 -20 -41 -21 -24 -2 24
27 22 38 -16 77 -33 33 -36 34 -78 25 -52 -11 -169 -70 -220 -110 -20 -16 -39
-26 -43 -22 -3 4 -24 -11 -46 -32 l-40 -39 0 57 c0 31 -4 57 -9 57 -11 0 -31
-77 -32 -122 0 -31 -1 -31 -10 -10 -5 13 -7 27 -4 32 6 10 -15 70 -25 70 -5 0
-14 -26 -21 -57 -13 -62 -27 -98 -36 -90 -2 3 1 58 7 122 9 82 9 120 2 127 -8
8 -9 1 -6 -22 3 -18 3 -44 -1 -59 l-7 -26 -19 24 c-22 26 -26 16 -6 -14 8 -11
17 -28 20 -37 11 -32 -7 -19 -33 22 -13 22 -29 40 -36 40 -14 0 -27 28 -18 41
3 5 12 9 20 9 29 0 13 16 -18 18 -18 2 -43 12 -55 24 -13 12 -23 17 -23 11 0
-6 -21 -10 -50 -9 -30 1 -50 -2 -50 -8 0 -6 -4 -5 -8 2 -7 10 -18 9 -55 -7
-37 -16 -47 -17 -47 -7 0 8 17 18 38 23 l37 10 -37 8 c-21 4 -38 11 -38 17 0
5 15 6 38 1 20 -4 55 -7 77 -6z m9353 -179 c-3 -18 0 -28 8 -28 7 0 19 -18 25
-41 11 -35 11 -42 -3 -50 -9 -5 -19 -21 -23 -36 -3 -15 -12 -31 -18 -35 -9 -6
-8 -8 1 -8 7 0 10 -5 7 -10 -4 -6 -11 -8 -16 -5 -5 4 -9 -1 -9 -10 0 -9 -4
-13 -10 -10 -5 3 -10 15 -10 26 0 13 -4 18 -11 13 -8 -5 -10 2 -6 21 6 32 -1
58 -13 50 -10 -6 -22 88 -14 109 4 11 1 16 -10 16 -12 0 -15 7 -12 27 3 14 10
31 16 37 8 8 9 6 5 -5 -4 -12 1 -18 20 -21 24 -5 24 -4 10 12 -8 9 -15 27 -15
40 0 20 4 18 41 -21 32 -34 40 -49 37 -71z m-5168 -218 c25 -18 28 -24 23 -63
-3 -23 -11 -49 -18 -57 -7 -8 -15 -24 -17 -35 -2 -11 -9 -19 -16 -18 -6 2 -9
-4 -6 -12 4 -10 0 -15 -13 -15 -10 0 -35 -9 -56 -20 -66 -36 -96 -22 -117 51
-11 39 8 94 37 110 13 7 26 23 29 36 5 18 14 23 38 24 17 1 42 5 56 9 14 4 27
8 28 9 2 1 17 -8 32 -19z m-3287 -21 c13 -6 33 -26 43 -43 42 -72 134 -125
280 -161 54 -13 89 -29 116 -52 9 -8 22 -12 29 -7 7 4 10 3 6 -4 -4 -5 12 -21
36 -35 23 -14 51 -34 61 -46 21 -23 42 -29 29 -8 -4 6 -8 16 -8 22 0 5 -7 10
-15 10 -8 0 -29 10 -45 22 -28 21 -28 22 -6 18 12 -2 29 -9 37 -16 11 -9 14
-8 14 5 0 10 5 14 11 10 6 -3 14 -2 18 4 5 8 17 8 41 1 28 -8 47 -6 95 9 58
19 61 19 86 1 14 -10 34 -16 45 -15 10 2 30 -5 43 -15 13 -11 29 -19 35 -19
12 0 41 -38 41 -55 1 -26 18 -35 53 -29 l37 7 -19 -22 c-11 -11 -25 -21 -33
-21 -7 0 -13 -9 -13 -20 0 -20 0 -20 33 0 35 22 47 25 47 12 0 -5 -11 -15 -25
-22 -20 -11 -23 -16 -12 -22 8 -4 20 -21 27 -38 9 -21 19 -30 36 -30 13 0 24
-4 24 -10 0 -5 7 -10 15 -10 8 0 15 -6 15 -14 0 -22 36 -8 48 19 7 14 7 26 1
32 -5 5 -13 23 -18 40 -10 34 -2 44 63 78 21 11 40 26 43 33 9 23 123 10 123
-14 0 -8 4 -14 9 -14 5 0 21 -25 37 -56 17 -34 39 -62 54 -68 69 -32 87 -50
103 -100 37 -120 44 -153 40 -186 -3 -19 1 -48 8 -65 7 -16 12 -33 11 -37 -1
-5 5 -8 13 -8 8 0 19 -8 24 -18 8 -15 6 -19 -7 -21 -46 -6 -74 0 -94 19 -19
18 -32 21 -80 18 -32 -2 -58 -1 -58 4 0 4 -11 8 -24 8 -45 0 -244 48 -264 63
-20 16 -126 14 -146 -2 -19 -16 -66 -24 -66 -11 0 14 -32 21 -45 10 -9 -7 -16
-6 -25 5 -7 8 -20 15 -29 15 -14 0 -14 2 -1 10 13 8 13 10 -2 10 -9 0 -23 6
-30 14 -8 7 -32 19 -53 26 -22 7 -53 19 -68 27 -15 8 -34 12 -42 9 -8 -3 -14
-2 -14 2 3 21 -3 24 -17 6 -15 -19 -15 -19 -11 3 7 32 -18 18 -37 -20 -19 -40
-21 -11 -2 34 19 46 5 73 -32 64 -21 -5 -24 -4 -15 6 9 9 7 16 -10 29 -56 44
-190 99 -242 101 l-30 1 28 8 c31 9 105 -12 167 -48 19 -11 49 -23 65 -26 28
-6 27 -4 -22 40 -29 25 -53 52 -53 60 0 8 -5 14 -11 14 -5 0 -8 -4 -5 -8 3 -5
-10 -4 -29 2 -18 6 -31 15 -27 21 3 5 -1 4 -9 -2 -9 -7 -31 -12 -50 -11 -19 0
-45 -2 -58 -7 -15 -5 -21 -4 -17 3 3 6 32 14 64 18 42 5 52 9 37 15 -33 13 -4
10 55 -6 30 -8 56 -13 57 -11 4 4 -49 40 -59 41 -3 0 -10 3 -14 8 -13 12 -51
8 -104 -13 -27 -11 -50 -17 -50 -14 0 9 105 54 128 54 12 0 22 4 22 10 0 15
-46 23 -68 11 -31 -16 -41 -13 -12 4 30 17 6 21 -36 5 -15 -6 -29 -8 -32 -5
-3 3 13 13 36 22 53 21 53 33 0 33 -59 0 -44 7 48 23 l79 14 -48 8 c-29 4 -72
3 -109 -5 -37 -7 -63 -8 -67 -2 -3 5 -13 11 -21 14 -16 5 51 28 83 28 9 0 17
4 17 10 0 10 -64 3 -127 -15 -10 -3 -5 1 11 8 l29 14 -28 7 c-15 4 -41 4 -57
1 -16 -4 -34 -2 -41 3 -7 5 -21 12 -32 14 -11 3 12 3 50 2 39 -1 88 -7 110
-12 36 -10 66 -8 34 2 -8 2 -29 9 -48 15 -19 6 -55 11 -80 12 -41 0 -105 17
-73 18 11 1 11 3 0 14 -7 8 -20 17 -28 20 -8 4 9 6 38 4 44 -2 50 0 35 10 -43
32 -152 28 -187 -6 -14 -14 -16 -21 -7 -21 8 0 24 -12 37 -26 l24 -25 -47 7
c-49 7 -69 14 -40 14 10 0 17 5 17 10 0 6 -4 10 -10 10 -18 0 -11 29 10 40 19
10 19 12 4 27 -14 15 -12 18 31 39 26 12 52 27 58 33 13 13 11 13 40 0z m7526
-206 c30 -33 51 -69 51 -90 0 -8 18 -35 39 -60 29 -32 39 -53 39 -75 -1 -30
-2 -30 -42 -24 -22 4 -48 14 -58 22 -11 11 -26 14 -47 9 -44 -9 -66 1 -69 31
-1 15 -6 32 -11 38 -6 7 -11 40 -12 75 -2 57 0 65 22 82 33 26 57 24 88 -8z
m-8093 -61 c5 -4 21 -24 33 -45 22 -35 23 -42 11 -78 -19 -55 -41 -72 -89 -67
l-40 3 -60 -105 c-33 -58 -61 -113 -63 -124 -2 -15 15 -25 97 -55 55 -21 116
-45 135 -53 19 -8 46 -14 60 -12 14 1 31 3 38 3 6 1 12 8 12 16 0 8 4 15 8 15
5 0 7 -13 4 -30 -5 -32 -12 -36 -44 -19 -11 6 -22 9 -24 6 -5 -5 122 -67 147
-72 10 -2 37 -16 60 -31 41 -26 51 -28 134 -26 76 2 94 -1 115 -18 l25 -19
-30 2 c-20 1 -29 -2 -28 -10 5 -21 -86 -17 -111 5 -20 16 -20 16 -6 -3 8 -11
27 -35 42 -53 49 -57 47 -74 -16 -167 -49 -71 -66 -88 -113 -112 -67 -34 -82
-52 -280 -359 -142 -219 -149 -228 -286 -359 -141 -135 -156 -144 -157 -88 0
12 -20 80 -44 151 -66 193 -70 220 -56 385 24 299 53 498 71 480 5 -5 3 -27
-5 -54 -13 -38 -28 -170 -52 -438 -4 -53 -3 -72 5 -67 6 4 11 20 11 37 0 67
54 408 72 458 25 67 134 230 228 340 l71 85 -45 13 c-25 7 -48 18 -51 23 -4 6
-18 2 -36 -10 -16 -12 -29 -17 -29 -11 0 5 5 13 10 16 6 3 10 16 10 28 0 12
12 42 25 66 15 26 23 52 20 62 -4 11 -2 19 3 19 6 0 20 17 32 38 12 20 16 31
9 25 -19 -19 -36 -16 -62 13 l-24 25 -61 -36 c-41 -24 -76 -55 -102 -90 -22
-30 -53 -61 -69 -69 -16 -9 -31 -22 -34 -31 -4 -8 -11 -15 -16 -15 -21 0 3 31
50 65 28 20 53 43 56 53 3 9 15 28 27 41 l21 24 -23 -14 c-12 -8 -25 -22 -28
-31 -8 -26 -33 -48 -54 -48 -10 0 -31 -5 -45 -10 -23 -9 -25 -13 -15 -25 10
-12 9 -16 -3 -21 -16 -6 -37 -54 -37 -86 0 -10 8 -21 18 -25 17 -6 51 -42 52
-55 0 -4 -6 -5 -14 -2 -10 4 -16 -5 -19 -33 -3 -21 -5 -45 -5 -53 0 -8 -11
-58 -26 -110 -14 -52 -26 -104 -26 -116 0 -14 -44 -62 -132 -146 l-133 -124
-130 -27 c-156 -32 -157 -33 -186 -6 l-24 21 27 -16 c26 -15 36 -14 165 14
l138 30 70 72 c39 40 52 57 30 38 -22 -19 -49 -44 -60 -56 -11 -11 -36 -28
-55 -37 -33 -17 -34 -17 -61 9 -15 15 -37 52 -49 83 -25 63 -37 91 -74 173
-14 31 -26 62 -26 67 0 18 36 12 54 -8 10 -11 24 -17 32 -14 9 3 14 -2 14 -17
0 -17 -4 -20 -20 -15 -19 6 -19 6 -2 -24 11 -20 23 -29 33 -26 11 4 20 -4 29
-25 28 -66 109 -107 160 -80 18 9 17 12 -5 58 -32 67 -50 135 -36 140 6 2 11
14 11 27 0 13 5 27 10 30 6 3 10 11 10 17 0 6 -11 3 -25 -6 -13 -9 -30 -16
-37 -15 -10 0 -9 2 1 6 7 3 22 14 32 24 11 11 26 19 34 19 8 0 15 5 15 10 0 6
-7 10 -16 10 -14 0 -15 2 -3 17 13 15 11 16 -19 10 -21 -4 -31 -3 -27 3 10 16
-5 12 -36 -11 -16 -11 -35 -19 -41 -17 -18 6 51 54 117 80 62 25 69 36 49 78
-6 14 -20 58 -29 97 -14 59 -15 76 -5 88 7 9 8 15 2 15 -15 0 -24 32 -11 41
17 10 7 21 -56 65 l-56 38 -34 -18 c-23 -13 -44 -17 -65 -12 -53 10 -100 -24
-100 -74 0 -9 -6 -23 -14 -29 -21 -18 -30 -85 -15 -109 10 -16 10 -31 0 -76
-18 -83 -21 -80 -81 64 -12 30 -29 70 -36 88 -8 18 -12 37 -9 42 3 5 -1 21
-10 34 -16 24 -16 25 27 57 53 39 206 111 273 129 28 7 56 20 64 29 8 10 15
12 18 5 3 -8 18 -9 51 -2 85 17 327 14 447 -6 109 -18 111 -18 210 3 92 19
123 20 100 3 -15 -11 -135 -149 -135 -156 0 -3 11 -13 26 -22 24 -16 26 -16
40 5 8 11 21 21 28 21 8 0 13 7 12 15 -1 14 113 165 124 165 3 0 10 -4 16 -8z
m5262 -63 c2 7 12 7 28 0 14 -5 40 -9 57 -9 18 0 46 -7 62 -16 24 -13 63 -16
190 -17 191 -1 215 1 232 15 10 8 18 7 31 -5 9 -8 30 -17 46 -19 37 -4 75 -50
58 -71 -6 -7 -9 -23 -5 -35 11 -44 -68 -171 -108 -172 -8 0 -19 -4 -25 -8 -12
-11 -102 -30 -177 -37 -70 -6 -113 -35 -123 -79 -9 -46 -22 -56 -68 -56 -29 0
-37 3 -26 10 22 13 5 23 -27 16 -21 -6 -24 -9 -12 -17 18 -11 10 -11 -51 2
-29 6 -50 16 -50 24 0 7 -11 16 -24 19 -28 7 -86 -3 -86 -14 0 -15 -60 -22
-75 -10 -19 15 -19 44 -2 59 15 12 11 68 -6 89 -8 10 -7 16 2 22 8 4 10 13 6
19 -6 10 -17 68 -28 146 -2 11 -8 19 -14 18 -7 -2 -15 6 -18 17 -3 10 -21 24
-40 30 -18 6 -36 18 -39 27 -11 28 11 39 74 37 40 -1 60 3 60 11 0 8 20 9 77
3 49 -5 79 -5 81 1z m-5161 -65 c-11 -11 13 -44 33 -44 10 0 77 -31 149 -70
72 -38 134 -70 137 -70 4 0 33 -16 65 -36 l59 -35 -20 -39 c-11 -22 -20 -50
-20 -64 0 -28 -20 -47 -20 -19 -1 10 -8 -2 -16 -26 -13 -36 -13 -45 -2 -52 10
-7 10 -9 -2 -9 -8 0 -27 12 -41 28 -38 41 -46 61 -12 29 l31 -29 -3 45 c-2 51
-12 70 -30 63 -7 -2 -12 3 -11 12 0 9 -4 16 -10 15 -6 -1 -11 8 -10 20 1 16
-5 22 -20 22 -11 0 -28 6 -36 12 -8 7 -17 10 -20 7 -7 -7 -78 63 -78 76 0 6 5
10 12 10 6 0 1 9 -11 19 -20 18 -21 20 -4 23 23 4 -66 58 -96 58 -11 0 -22 9
-26 21 -5 14 -13 19 -26 16 -26 -7 -24 2 4 13 28 11 32 12 24 4z m-61 -119
c20 -14 43 -25 50 -25 23 0 16 -18 -8 -22 -13 -2 -28 4 -35 12 -6 8 -15 12
-19 8 -4 -5 1 -17 11 -28 13 -15 22 -17 36 -10 30 17 46 11 60 -21 9 -24 10
-41 1 -73 -6 -24 -7 -42 -1 -44 5 -2 19 -13 31 -23 l23 -20 -30 6 c-16 4 -32
11 -34 16 -2 6 -13 2 -25 -9 -25 -23 -96 -37 -96 -19 0 7 16 25 35 40 36 29
48 62 19 50 -14 -5 -15 -3 -4 17 11 20 10 22 -5 16 -9 -3 -28 -9 -42 -12 l-26
-7 22 22 c23 23 20 41 -7 41 -13 0 -13 2 4 15 18 14 18 16 2 29 -18 13 -24 47
-11 59 9 10 8 10 49 -18z m2825 -162 c123 -59 199 -153 199 -250 0 -39 3 -44
38 -62 40 -20 90 -30 162 -32 25 -1 77 -10 116 -20 55 -13 100 -17 191 -14 65
2 125 0 131 -4 29 -18 -8 -47 -73 -56 -25 -3 -62 -19 -87 -36 -14 -11 -46 -22
-70 -25 -36 -5 -54 -1 -96 21 -51 26 -55 27 -248 28 -174 2 -197 4 -208 20
-16 21 -64 22 -113 2 -50 -21 -96 -19 -118 5 -10 11 -22 20 -28 20 -5 0 -27
16 -49 36 -34 31 -45 35 -72 29 -87 -18 -103 -17 -153 9 -28 14 -53 32 -57 41
-16 42 106 219 186 273 93 61 238 67 349 15z m-2595 -17 c3 -8 15 -11 30 -8
20 4 24 0 25 -19 1 -13 1 -27 0 -31 0 -5 4 -8 10 -8 13 0 69 -61 69 -76 0 -19
-105 -45 -127 -31 -25 15 -13 26 42 37 62 13 65 30 5 30 -21 0 -47 3 -57 7
-14 6 -8 9 22 14 38 6 37 6 -16 8 -40 1 -61 6 -73 19 -15 18 -15 19 10 31 20
9 30 9 40 0 8 -6 14 -8 14 -4 0 4 -10 15 -22 26 l-23 18 23 1 c12 0 25 -6 28
-14z m7977 -36 c26 -20 77 -138 77 -176 0 -24 -24 -48 -63 -63 -15 -6 -27 -17
-27 -25 0 -10 -18 -16 -62 -21 -52 -5 -71 -3 -109 14 -62 28 -68 37 -71 108
-3 73 16 107 70 129 20 9 53 24 72 35 46 24 81 24 113 -1z m-9439 -256 c3 -8
20 -23 38 -34 32 -20 32 -20 10 -26 -21 -6 -23 -12 -21 -55 3 -48 1 -51 -69
-126 l-71 -77 -26 24 c-28 26 -35 10 -7 -18 9 -9 25 -30 35 -45 10 -16 -38 20
-106 80 -69 59 -126 112 -126 116 -1 5 4 5 10 2 6 -4 17 2 25 14 8 12 21 21
27 21 7 0 4 -7 -7 -15 -26 -19 -11 -38 25 -30 18 4 36 2 44 -5 30 -25 14 7
-21 43 -20 21 -35 40 -32 42 3 3 24 -16 48 -41 l43 -47 36 19 c19 10 50 34 68
52 18 17 39 32 47 32 8 0 26 4 40 10 l25 9 -30 31 c-37 36 -45 38 -23 5 8 -13
13 -28 10 -34 -10 -15 -40 -2 -52 24 -10 21 -9 26 10 38 23 16 42 13 50 -9z
m9746 -50 c17 -17 20 -88 3 -105 -6 -6 -29 -13 -52 -16 -49 -7 -81 15 -81 56
0 71 81 111 130 65z m-2222 -5 c27 -9 31 -15 26 -37 -18 -89 -43 -155 -84
-217 -25 -38 -52 -86 -60 -105 -7 -19 -19 -42 -27 -51 -7 -8 -13 -27 -13 -41
0 -15 -3 -33 -6 -42 -13 -35 -81 -3 -71 34 3 11 -1 44 -9 73 -22 82 -18 175 9
228 82 156 136 193 235 158z m-1904 -89 c31 -28 33 -33 26 -67 -12 -49 -38
-73 -85 -76 -32 -1 -40 2 -40 15 0 9 -8 24 -16 35 -20 22 -39 58 -39 72 0 17
62 51 92 51 16 0 41 -12 62 -30z m3818 -79 c14 -2 32 -46 30 -76 -3 -36 -21
-57 -94 -107 -32 -21 -58 -41 -58 -44 0 -3 22 -27 48 -53 38 -36 52 -58 62
-99 6 -29 16 -55 21 -58 5 -3 9 -18 9 -34 0 -40 19 -116 42 -165 22 -49 33
-124 24 -160 -6 -24 -10 -26 -39 -21 -28 5 -35 2 -49 -21 -9 -16 -16 -45 -15
-65 1 -51 -35 -91 -75 -83 -21 5 -35 1 -58 -18 -33 -28 -30 -37 14 -37 84 -1
153 -52 140 -104 -9 -39 -44 -57 -125 -66 -73 -8 -123 -35 -97 -52 10 -6 8 -8
-4 -8 -10 0 -18 5 -18 10 0 6 -5 10 -12 10 -6 0 -9 -3 -5 -6 3 -3 -5 -18 -19
-32 -13 -15 -24 -35 -24 -45 0 -10 -7 -33 -14 -52 -13 -31 -19 -35 -50 -35
-27 0 -42 7 -63 30 -21 24 -34 30 -68 30 -31 0 -52 8 -83 32 -23 18 -42 37
-42 43 0 6 -19 19 -42 29 -59 25 -148 103 -154 135 -4 15 -24 39 -50 59 -56
42 -69 71 -50 117 25 59 57 66 190 38 88 -18 116 -14 116 15 0 11 9 40 20 65
22 50 96 103 131 94 42 -11 79 66 65 136 -4 17 -9 57 -12 88 -5 48 -3 58 13
70 11 8 29 35 41 62 12 26 28 50 36 53 9 3 16 12 16 19 0 7 7 19 16 26 25 21
40 61 42 116 2 29 12 39 102 102 55 38 108 68 118 66 9 -2 20 -4 24 -4z
m-10558 -35 c22 -9 36 -23 40 -40 8 -32 44 -48 86 -39 17 3 56 0 88 -6 48 -10
76 -8 172 8 105 17 131 19 119 7 -2 -2 -56 -12 -119 -21 -91 -13 -131 -15
-189 -6 -44 6 -83 6 -97 1 -13 -5 -26 -5 -29 -1 -3 5 -14 7 -25 4 -13 -4 -32
7 -62 37 l-43 42 -75 -5 c-67 -5 -97 -14 -203 -56 -46 -18 -21 7 35 35 95 48
238 67 302 40z m6333 -143 c7 -3 17 -21 24 -41 16 -48 47 -108 55 -104 4 2 12
-7 18 -20 10 -19 20 -23 56 -24 99 -1 108 -4 145 -39 32 -30 36 -38 30 -66 -4
-17 -14 -40 -24 -51 -52 -65 -55 -67 -112 -72 -50 -5 -59 -3 -79 19 -30 31
-40 32 -40 1 0 -14 -4 -36 -10 -50 -9 -26 -9 -26 40 -26 85 0 147 -18 175 -52
24 -28 34 -83 16 -90 -4 -1 -11 -19 -15 -39 -6 -33 -4 -36 28 -52 35 -16 56
-59 56 -112 0 -47 -85 -67 -198 -48 -68 12 -90 32 -74 68 15 32 10 42 -26 50
-15 3 -45 20 -65 38 -28 24 -39 43 -46 80 -4 26 -6 48 -2 49 3 0 -23 4 -59 7
-72 8 -80 3 -80 -46 0 -47 -32 -73 -89 -73 -67 0 -106 14 -180 64 -36 24 -86
53 -111 66 -100 49 -120 61 -121 75 -1 8 -2 19 -3 24 -1 5 12 25 27 44 22 28
45 41 110 62 93 32 131 34 158 9 15 -13 22 -14 33 -5 8 7 36 21 63 31 26 11
40 19 29 20 -16 0 -18 6 -14 45 7 56 82 208 124 251 47 47 64 48 161 7z m3245
-35 c43 2 49 -1 63 -28 27 -51 20 -75 -29 -104 -55 -32 -93 -33 -136 -3 -77
51 -53 161 30 139 14 -3 46 -5 72 -4z m494 -34 c65 -6 94 -38 94 -104 0 -38
-39 -65 -95 -66 -114 -1 -123 -3 -118 -22 6 -25 -33 -60 -49 -44 -7 7 -25 12
-40 12 -35 0 -36 14 -3 44 16 15 33 22 46 19 33 -9 59 24 59 76 0 36 5 50 28
71 15 15 31 24 36 22 5 -3 24 -6 42 -8z m-8865 -235 c67 -56 117 -93 110 -82
-9 18 -8 20 9 16 11 -3 23 -9 26 -14 3 -5 14 -9 25 -9 11 0 23 -10 28 -22 5
-13 12 -22 17 -21 14 4 104 -77 104 -93 0 -8 9 -34 20 -57 16 -33 17 -37 3
-18 -26 36 -93 104 -138 142 -22 18 -8 -1 32 -42 69 -72 115 -144 206 -325
l35 -70 -31 -1 c-97 -3 -117 -5 -112 -13 3 -4 -3 -6 -12 -4 -10 2 -58 -5 -108
-15 -49 -11 -80 -20 -68 -20 12 -1 24 -5 27 -10 3 -5 -42 -9 -104 -9 -62 -1
-112 3 -116 9 -3 5 -15 7 -26 4 -10 -4 -47 -3 -81 1 -60 8 -61 8 -22 14 l40 5
-23 20 c-12 11 -30 21 -40 22 -9 2 -110 22 -224 45 l-208 43 -6 33 c-18 94 30
344 102 535 l26 67 51 -6 c212 -25 277 -47 373 -125 100 -83 124 -101 118 -85
-3 9 -10 16 -15 16 -4 0 -6 6 -3 14 3 8 1 17 -5 21 -7 4 -9 -1 -5 -12 5 -15 4
-15 -4 -3 -6 8 -9 17 -6 21 2 4 -34 42 -81 85 -47 42 -85 84 -85 91 0 8 11 2
25 -15 14 -17 80 -76 146 -133z m9550 27 c55 -23 86 -53 122 -119 18 -34 57
-99 85 -145 29 -46 52 -87 52 -90 0 -4 18 -38 40 -76 22 -38 42 -76 43 -85 2
-9 11 -30 20 -48 20 -38 23 -132 4 -157 -10 -13 -22 -16 -46 -13 -35 6 -46 13
-65 44 -6 11 -31 50 -55 87 -46 70 -46 70 -106 51 -32 -10 -58 16 -50 48 4 15
13 27 20 27 22 0 28 20 12 38 -21 25 -30 61 -28 112 2 41 -3 50 -46 100 -107
121 -124 165 -87 218 18 26 38 28 85 8z m-8191 -15 c0 -5 -35 -41 -77 -80 -76
-69 -137 -140 -129 -148 2 -3 36 5 76 17 39 12 77 19 83 17 15 -5 -143 -55
-202 -64 -29 -4 -42 -3 -40 5 10 26 145 165 206 211 69 51 83 59 83 42z m4585
-177 c8 -11 30 -17 73 -18 33 -2 68 -8 76 -15 9 -7 22 -11 31 -8 8 4 21 0 29
-8 8 -8 26 -15 41 -15 25 0 115 -53 115 -68 0 -19 51 -35 117 -37 39 -1 77 -6
85 -12 7 -6 44 -13 82 -16 38 -4 72 -11 75 -15 3 -5 21 -17 40 -26 18 -10 62
-47 97 -83 52 -53 64 -70 64 -97 0 -43 -7 -48 -41 -31 -15 8 -41 15 -57 15
-15 0 -33 5 -40 12 -9 9 -20 9 -46 0 -28 -10 -42 -10 -78 2 -24 9 -57 15 -74
15 -42 0 -122 16 -173 35 -24 9 -48 13 -53 10 -20 -13 -132 34 -150 61 -4 7
-25 17 -46 24 -22 8 -51 24 -66 37 -14 13 -31 24 -38 24 -7 0 -32 -20 -56 -44
-44 -46 -77 -58 -127 -49 -39 8 -64 40 -65 82 0 33 10 46 96 122 28 25 43 69
23 69 -13 0 -11 24 3 38 17 17 49 15 63 -4z m1738 -37 c15 -30 17 -43 8 -69
-10 -27 -8 -33 14 -54 29 -27 31 -49 9 -103 -10 -26 -25 -43 -45 -51 -16 -7
-35 -22 -40 -33 -10 -17 -18 -19 -72 -13 -103 11 -277 109 -277 156 0 26 47
60 83 60 20 0 41 10 59 27 l28 27 75 -19 c41 -10 78 -16 81 -13 3 4 1 15 -5
26 -6 12 -11 34 -11 49 0 65 63 72 93 10z m-6162 -542 c39 -84 59 -115 72
-115 10 0 27 -5 39 -11 11 -6 22 -8 25 -6 3 3 -8 12 -24 21 -20 11 -23 15 -10
16 11 0 15 5 11 11 -4 7 1 7 15 -1 12 -6 35 -32 51 -58 16 -26 40 -66 54 -88
14 -23 26 -45 26 -49 0 -4 8 -14 19 -23 10 -10 29 -35 42 -56 21 -37 21 -39 3
-32 -10 4 -34 10 -53 13 -26 5 -33 3 -29 -8 3 -8 17 -14 31 -14 15 -1 35 -9
44 -18 10 -10 12 -17 6 -17 -7 0 -15 5 -18 10 -3 6 -16 10 -28 9 -22 0 -22 0
1 -10 17 -6 40 -44 83 -134 33 -69 67 -129 75 -132 9 -3 36 -49 61 -102 35
-76 44 -105 42 -142 -2 -35 4 -57 25 -92 15 -26 30 -47 34 -47 4 0 27 14 52
31 61 41 120 71 120 61 0 -21 -33 -50 -70 -61 -56 -17 -105 -47 -90 -56 6 -4
20 1 31 11 10 9 22 15 25 12 9 -9 -56 -50 -70 -45 -18 7 -8 -30 23 -91 19 -37
25 -42 44 -36 12 4 31 7 42 6 11 -1 35 8 53 18 52 31 52 23 0 -10 -45 -28 -48
-33 -48 -73 0 -31 -6 -49 -20 -62 -11 -10 -23 -15 -26 -12 -4 3 -19 0 -35 -8
-19 -11 -35 -12 -51 -6 -22 9 -21 10 8 10 18 1 46 7 63 14 l31 13 -24 23 -24
22 -60 -32 c-51 -28 -63 -31 -76 -20 -15 12 -76 117 -76 131 0 7 62 33 74 31
5 -1 6 6 2 15 -3 9 -9 27 -12 40 -3 13 -9 24 -12 24 -14 0 -72 -52 -67 -61 4
-5 -4 -8 -17 -6 -33 5 -424 615 -468 729 -38 100 -75 147 -159 204 -61 41 -70
44 -132 44 -73 0 -155 -22 -288 -77 -68 -28 -98 -47 -152 -100 -38 -36 -75
-81 -84 -99 -9 -19 -18 -34 -20 -34 -6 0 -35 93 -30 98 3 3 11 -10 18 -28 16
-37 20 -33 37 30 32 123 156 268 262 308 134 50 263 49 393 -3 68 -27 109 -30
201 -12 l62 12 -24 35 c-28 40 -104 229 -104 257 1 26 37 -35 101 -172z m8199
-117 c16 -18 36 -45 42 -59 6 -15 27 -35 46 -45 40 -21 66 -51 152 -173 36
-50 77 -108 92 -127 21 -27 27 -46 26 -80 -1 -47 -3 -49 -41 -35 -33 13 -61
43 -171 186 -102 133 -141 195 -169 270 -38 104 -32 121 23 63z m402 22 c23 0
44 -13 89 -57 51 -50 60 -64 62 -98 2 -31 -2 -40 -16 -43 -11 -2 -29 6 -41 17
-12 12 -46 28 -75 37 -88 26 -140 105 -93 140 9 7 23 11 30 9 8 -3 27 -5 44
-5z m-9997 -110 c40 -77 143 -405 131 -417 -3 -3 -8 6 -12 21 -3 14 -10 24
-14 21 -5 -3 -11 4 -15 15 -5 16 -15 20 -51 20 -32 0 -44 -4 -44 -15 0 -7 -7
-18 -15 -23 -13 -7 -14 -16 -7 -48 5 -21 13 -47 17 -56 4 -11 3 -18 -4 -18 -6
0 -11 5 -11 10 0 6 -7 10 -15 10 -9 0 -12 -6 -9 -15 4 -8 10 -13 14 -10 5 3
11 1 15 -5 4 -6 10 -8 15 -5 5 3 8 -3 7 -12 0 -10 16 -42 36 -70 36 -51 49
-92 25 -77 -8 5 -9 2 -4 -12 4 -10 9 -25 10 -33 2 -8 10 -19 19 -26 9 -7 14
-14 11 -17 -2 -3 2 -8 10 -11 20 -8 10 20 -17 50 -27 31 -17 38 14 10 13 -12
27 -21 31 -19 5 1 7 -1 6 -5 -6 -17 25 -72 36 -66 6 3 1 -4 -11 -17 l-21 -23
-34 38 c-51 57 -72 96 -73 128 0 18 -6 32 -15 35 -13 5 -13 3 -1 -12 8 -9 12
-19 9 -22 -11 -10 -65 99 -60 119 1 4 -1 7 -6 7 -4 0 -12 12 -19 28 -32 76
-59 124 -111 198 -112 159 -135 194 -131 199 3 2 45 -54 94 -126 49 -71 90
-129 91 -129 2 0 1 15 -2 33 -3 17 -8 53 -11 79 -6 52 -10 48 80 63 59 9 65
35 33 132 -14 43 -26 84 -26 91 0 22 19 13 35 -18z m9259 -111 c34 -27 35 -71
1 -104 -30 -31 -55 -32 -83 -2 -34 36 -38 74 -11 103 28 29 58 31 93 3z m-596
-11 c18 -18 15 -38 -14 -75 -25 -33 -80 -63 -114 -63 -23 0 -34 -43 -19 -73 7
-12 26 -43 44 -68 17 -25 39 -76 49 -113 18 -64 18 -68 1 -86 -10 -11 -30 -20
-46 -20 -22 0 -32 9 -57 53 -42 75 -86 110 -228 178 -97 47 -127 66 -139 89
-20 39 -13 51 67 123 85 78 112 77 173 -5 18 -25 41 -42 66 -50 22 -6 40 -9
42 -7 1 2 9 18 17 34 16 31 103 95 130 95 9 0 21 -5 28 -12z m-8110 -282 c24
-27 45 -62 52 -88 6 -23 16 -61 21 -83 49 -195 149 -441 284 -703 77 -150 80
-161 30 -162 -15 0 -31 18 -58 63 -20 35 -37 67 -37 71 0 4 -17 38 -37 74 -21
37 -39 74 -39 82 -2 19 -68 189 -89 230 -23 44 -28 32 -10 -19 8 -23 14 -45
13 -49 -3 -16 26 -61 36 -55 6 3 8 2 3 -2 -4 -5 -1 -18 7 -31 8 -12 12 -25 9
-28 -6 -6 -28 26 -74 109 -23 40 -61 166 -54 174 3 2 11 -2 20 -9 28 -23 15 5
-70 158 -47 84 -85 161 -85 171 0 10 7 38 15 62 9 24 14 52 11 62 -7 28 9 20
52 -27z m2521 -1186 c-25 -82 -52 -150 -62 -159 -7 -5 -26 -6 -44 -3 l-31 7
13 38 c7 20 9 40 4 43 -5 3 -9 2 -10 -3 -6 -63 -29 -113 -51 -113 -6 0 -5 7 5
18 8 9 25 51 36 92 14 55 20 66 20 43 1 -35 17 -44 28 -15 4 9 12 21 20 25 7
4 13 14 13 20 0 20 17 32 43 32 21 0 23 -3 16 -25z m-104 -190 c-4 -6 -48 -38
-98 -72 -51 -34 -96 -66 -100 -72 -6 -8 -10 -8 -13 1 -4 8 -20 7 -59 -7 -72
-25 -95 -38 -95 -55 0 -8 -4 -15 -10 -15 -14 0 -13 8 7 41 9 16 29 33 43 39
22 9 21 10 -12 6 -21 -3 -41 0 -44 6 -4 7 -2 8 4 4 7 -4 12 -3 12 2 0 5 25 12
56 15 41 4 74 17 127 48 45 27 85 43 107 44 19 1 44 6 55 13 25 14 28 15 20 2z"/>
<path d="M2963 4140 c-24 -5 -58 -16 -77 -25 -54 -26 -129 -126 -172 -228 -52
-123 -52 -189 0 -344 21 -62 46 -123 57 -137 l20 -26 37 19 c20 10 66 40 100
66 35 25 67 44 70 40 3 -3 -46 -58 -111 -122 -64 -65 -118 -115 -121 -112 -3
3 1 28 8 57 17 63 6 75 -32 36 -15 -15 -20 -24 -12 -19 10 6 9 2 -3 -12 -19
-21 -15 -67 6 -80 6 -3 7 -1 3 6 -6 8 -1 10 16 6 19 -5 40 11 120 85 94 88
138 138 142 163 1 7 21 41 45 77 23 35 68 116 99 179 52 104 57 120 57 180 0
42 -6 79 -17 102 -17 34 -48 70 -48 54 0 -3 -15 3 -33 14 -40 25 -98 33 -154
21z m134 -39 c59 -27 97 -88 97 -155 0 -44 -11 -74 -73 -201 -90 -182 -100
-197 -159 -236 l-47 -31 45 40 45 41 -44 -21 c-24 -12 -62 -22 -85 -22 -37 -1
-42 2 -59 37 -56 119 -59 247 -8 352 39 78 120 159 185 185 50 20 47 20 -33 5
-9 -2 -20 -4 -24 -4 -5 -1 -5 -6 -1 -13 5 -8 2 -9 -10 -5 -10 4 -15 3 -11 -3
3 -5 0 -7 -8 -4 -21 7 -81 -56 -112 -116 -40 -78 -75 -194 -75 -247 0 -49 55
-233 70 -233 4 0 13 7 20 15 7 8 17 15 22 15 5 0 -2 -14 -17 -32 -20 -24 -23
-33 -13 -39 9 -6 10 -9 1 -9 -31 0 -103 204 -103 289 0 89 62 249 124 320 70
79 188 110 273 72z"/>
<path d="M1544 3669 c-24 -26 -24 -111 0 -214 27 -115 48 -148 134 -210 47
-34 87 -72 104 -100 16 -25 32 -43 37 -41 5 3 14 -1 21 -9 7 -8 20 -15 29 -14
11 0 9 4 -7 11 -12 6 -43 40 -68 75 -25 35 -63 75 -84 88 -21 13 -42 30 -46
36 -4 8 -3 9 4 5 7 -4 12 -3 12 3 0 5 -5 13 -11 16 -5 4 -9 17 -7 30 1 12 -3
30 -11 39 -18 22 -6 33 16 15 14 -10 13 -8 -2 10 -11 13 -21 35 -21 50 -1 14
-3 26 -4 26 -1 0 -3 7 -5 15 -2 8 -13 37 -25 64 -29 64 -18 75 49 50 28 -10
51 -21 51 -25 0 -3 11 -6 25 -6 14 0 25 1 25 2 0 2 -23 11 -51 20 -28 9 -48
19 -45 22 2 3 49 -10 103 -28 54 -19 105 -34 113 -35 9 0 25 -6 36 -12 22 -11
69 -13 56 -1 -10 9 -183 77 -281 110 -101 35 -122 36 -147 8z"/>
<path d="M3748 4099 c-31 -17 -109 -128 -125 -177 -9 -26 -36 -80 -61 -120
-24 -40 -43 -75 -41 -77 2 -2 40 40 84 93 44 53 119 138 167 188 49 50 85 94
81 97 -10 11 -86 8 -105 -4z"/>
<path d="M3958 3899 c-17 -29 -17 -30 17 -75 19 -25 35 -49 35 -54 0 -5 23
-13 52 -19 28 -6 71 -20 96 -31 60 -27 62 -25 22 11 -19 18 -73 69 -120 115
l-85 83 -17 -30z"/>
<path d="M4260 3369 c0 -13 -3 -33 -5 -44 -5 -17 9 -27 82 -65 82 -42 153 -97
153 -116 0 -5 -23 -22 -52 -39 -28 -16 -69 -47 -90 -67 -22 -21 -50 -38 -62
-38 -33 0 -46 -19 -46 -66 0 -53 20 -73 48 -47 29 29 80 63 93 63 57 0 297
196 272 221 -9 9 -24 8 -65 -3 -29 -9 -59 -17 -67 -19 -10 -3 -18 13 -27 56
-22 105 -25 110 -106 143 -40 17 -85 34 -100 37 -25 6 -28 4 -28 -16z"/>
<path d="M5532 2078 c-26 -24 -48 -43 -49 -43 -1 -1 0 -11 4 -24 4 -16 11 -21
24 -18 23 6 23 6 5 -28 l-14 -26 -16 23 c-15 22 -16 22 -16 2 0 -69 46 -109
71 -63 7 14 17 19 30 16 24 -7 24 -7 -11 53 -20 35 -25 50 -16 50 8 0 23 -16
35 -36 17 -29 25 -34 44 -28 51 15 72 55 39 73 -10 5 -27 28 -37 50 -10 23
-24 41 -32 41 -7 0 -35 -19 -61 -42z"/>
<path d="M3875 1543 c8 -18 15 -40 15 -50 0 -10 9 -33 21 -52 16 -27 23 -31
30 -20 5 8 9 10 10 4 4 -49 12 -73 35 -106 32 -46 109 -119 125 -119 7 0 9 -3
6 -6 -3 -4 -1 -16 5 -28 7 -11 13 -27 14 -34 1 -8 4 -15 6 -15 2 -1 15 -12 29
-25 l26 -23 -1 40 c-1 22 -5 43 -10 48 -5 4 -6 3 -2 -4 4 -7 5 -13 2 -13 -6 0
-36 55 -36 65 0 3 7 5 15 5 9 0 22 -16 30 -35 8 -19 23 -52 32 -72 l18 -38 3
38 c5 60 -64 255 -102 286 -11 10 -10 1 5 -40 21 -55 22 -120 2 -126 -17 -6
-84 58 -149 142 -31 41 -61 73 -67 72 -12 -2 -34 36 -41 73 -3 14 -12 34 -21
45 -15 18 -15 17 0 -12z"/>
<path d="M1300 1454 c-16 -5 -50 -58 -50 -79 0 -7 -7 -18 -16 -26 -13 -10 -17
-10 -25 2 -7 10 -8 5 -3 -16 4 -22 3 -26 -4 -16 -9 13 -13 13 -28 0 -10 -8
-15 -9 -11 -2 5 8 -1 15 -18 19 -14 3 -25 11 -25 16 0 5 -7 3 -15 -5 -9 -10
-27 -13 -50 -10 -46 6 -81 -16 -90 -57 -8 -38 8 -60 44 -60 29 -1 91 -47 94
-70 1 -8 10 -26 20 -40 9 -13 17 -34 17 -46 0 -25 25 -50 34 -35 3 5 0 12 -6
14 -9 4 -9 6 -1 6 6 1 19 -6 27 -15 24 -23 79 -29 98 -10 9 9 18 21 20 28 3 7
24 -7 51 -35 26 -25 62 -54 80 -63 17 -9 43 -25 56 -35 25 -20 133 -27 159
-10 16 10 42 58 42 77 0 21 20 27 38 11 9 -8 32 -14 49 -14 28 0 32 3 27 22
-7 28 12 75 31 75 8 0 22 11 31 26 9 14 30 32 45 40 19 9 29 22 29 37 0 36 47
100 96 131 41 26 84 70 84 85 0 4 -10 18 -22 30 -20 22 -26 23 -112 18 -50 -3
-134 -16 -186 -30 -52 -13 -122 -27 -154 -30 -32 -3 -64 -11 -69 -16 -20 -20
-66 -12 -97 18 -17 15 -30 31 -30 35 0 23 -33 36 -87 35 -32 -1 -65 -3 -73 -5z"/>
<path d="M615 651 c-4 -27 -13 -42 -31 -49 -13 -7 -24 -18 -24 -26 0 -7 -7
-19 -15 -26 -13 -11 -15 -8 -15 18 l0 30 -42 -22 c-24 -13 -55 -25 -70 -28
-24 -5 -26 -3 -17 19 16 42 9 49 -17 19 -23 -26 -28 -27 -63 -18 -36 9 -39 8
-55 -19 -24 -41 -40 -37 -33 7 4 25 2 34 -6 31 -7 -2 -12 -22 -13 -45 -1 -23
-7 -48 -14 -57 -20 -24 -4 -29 19 -6 28 28 38 26 48 -6 l10 -28 12 23 c6 12
16 22 21 22 13 0 13 -37 0 -45 -15 -9 -12 -25 5 -25 8 0 19 9 25 20 14 25 83
28 107 4 15 -14 14 -18 -11 -37 -26 -21 -27 -23 -12 -52 14 -26 19 -29 58 -26
24 1 47 6 53 9 14 9 -45 22 -75 17 -20 -4 -19 -2 8 10 33 16 36 19 46 68 4 15
13 27 21 27 20 0 19 -29 0 -36 -23 -9 -18 -23 6 -17 12 4 25 0 30 -8 8 -11 16
-7 39 20 21 24 27 28 24 14 -4 -15 0 -22 18 -27 17 -4 29 1 47 21 l24 28 -33
6 c-18 4 -39 14 -47 22 -13 12 -10 21 21 70 20 31 36 59 36 63 0 3 -11 3 -25
0 -29 -7 -35 13 -10 34 18 15 3 40 -25 40 -13 0 -20 -11 -25 -39z"/>
<path d="M1115 573 c-15 -23 -18 -23 -34 -9 -29 26 -136 -1 -168 -43 -11 -13
-14 -14 -22 -2 -5 7 -14 10 -20 6 -9 -5 -9 -10 -1 -20 8 -9 5 -14 -10 -18 -11
-3 -20 -13 -20 -23 0 -9 -7 -26 -17 -36 -15 -17 -14 -19 11 -43 15 -14 32 -25
37 -25 6 0 7 -4 4 -10 -3 -5 -2 -10 4 -10 5 0 9 12 7 28 -1 15 3 39 11 54 11
23 17 26 47 21 19 -3 36 -1 40 6 4 6 20 8 38 4 24 -5 30 -3 26 8 -3 9 -17 13
-36 12 -22 -2 -30 1 -28 12 4 25 15 29 81 31 47 1 71 7 90 22 20 16 32 18 61
12 40 -9 56 -20 31 -20 -22 0 -22 -36 0 -44 9 -4 21 -2 27 4 5 5 15 10 21 10
5 0 3 -5 -5 -10 -13 -9 -12 -13 9 -30 29 -25 51 -26 51 -2 0 11 9 27 21 38 17
16 22 16 30 4 8 -11 12 -12 16 -2 2 6 10 12 16 12 22 1 57 38 57 61 0 21 -1
21 -19 5 -16 -14 -23 -15 -41 -6 -14 7 -35 9 -54 5 -72 -17 -109 -16 -130 4
-14 12 -36 19 -68 19 -39 0 -50 -4 -63 -25z"/>
</g>
</svg>
