<?xml version="1.0" standalone="no"?>
<!DOCTYPE svg PUBLIC "-//W3C//DTD SVG 20010904//EN"
 "http://www.w3.org/TR/2001/REC-SVG-20010904/DTD/svg10.dtd">
<svg version="1.0" xmlns="http://www.w3.org/2000/svg"
 width="1280.000000pt" height="720.000000pt" viewBox="0 0 1280.000000 720.000000"
 preserveAspectRatio="xMidYMid meet">
<metadata>
Created by potrace 1.16, written by Peter Selinger 2001-2019
</metadata>
<g transform="translate(0.000000,720.000000) scale(0.100000,-0.100000)"
fill="#000000" stroke="none">
<path d="M0 5095 c0 -1679 3 -2103 12 -2100 35 13 97 12 233 -5 83 -10 173
-18 200 -18 131 3 455 19 583 29 137 10 144 10 183 -11 23 -11 43 -19 46 -17
2 3 29 -1 59 -8 35 -8 69 -9 96 -4 61 12 188 11 293 -2 107 -14 202 -13 425 3
242 18 499 16 583 -5 77 -19 164 -22 169 -7 2 6 48 13 108 15 223 10 291 17
345 36 48 17 81 19 243 18 103 0 259 5 347 11 169 12 300 3 359 -26 45 -22
118 -17 183 12 68 30 175 45 213 31 19 -7 60 -4 152 12 150 26 258 19 353 -24
48 -22 101 -33 116 -25 29 18 159 -36 159 -66 0 -7 8 -18 19 -23 10 -6 26 -25
34 -43 18 -37 63 -88 77 -88 6 0 10 -4 10 -9 0 -5 27 -39 61 -74 48 -52 68
-67 99 -72 72 -12 93 -1 115 61 17 47 28 60 63 80 23 13 56 24 73 24 31 0 31
0 28 53 -4 85 -1 97 26 107 14 5 25 14 25 20 0 26 66 -33 129 -115 59 -77 168
-213 212 -265 42 -50 119 -154 287 -387 34 -48 62 -92 62 -98 0 -17 24 -65 32
-65 4 0 14 -16 22 -35 8 -19 20 -35 25 -35 6 0 11 -6 11 -13 0 -7 9 -23 20
-35 11 -12 20 -25 20 -30 0 -5 9 -21 21 -36 15 -19 30 -26 54 -26 26 0 39 -8
62 -35 53 -67 161 -190 283 -325 128 -142 196 -235 249 -341 17 -35 42 -82 56
-104 13 -22 36 -69 52 -105 47 -111 175 -330 237 -406 14 -18 26 -35 26 -40 0
-4 12 -20 27 -36 14 -15 25 -30 22 -32 -2 -2 -80 -6 -174 -10 -93 -3 -212 -10
-264 -16 -71 -9 -96 -9 -101 0 -7 12 -74 7 -135 -10 -69 -20 -145 -31 -230
-34 -85 -3 -90 -4 -89 -24 1 -24 -12 -28 -36 -12 -10 6 -11 10 -2 10 6 0 12 9
12 20 0 20 -15 25 -44 14 -12 -5 -13 -9 -3 -25 9 -14 9 -21 -1 -31 -17 -17
-15 -23 12 -36 20 -9 29 -7 49 8 24 19 25 19 47 0 25 -22 67 -13 62 14 -2 9 2
16 8 16 5 0 10 -7 10 -16 0 -11 5 -14 16 -10 47 18 65 18 79 0 12 -16 18 -17
44 -7 36 13 38 6 15 -43 -9 -19 -14 -38 -10 -41 9 -9 35 28 36 50 0 9 5 17 10
17 6 0 10 7 10 15 0 8 -5 15 -12 15 -6 0 -8 3 -5 7 11 10 57 10 57 0 0 -5 7
-4 15 3 12 10 18 10 30 0 11 -9 25 -8 65 5 56 19 82 10 73 -25 -3 -12 0 -20 6
-20 7 0 9 -4 6 -10 -3 -5 1 -10 10 -10 8 0 18 -7 21 -15 7 -17 -14 -48 -26
-40 -5 3 -11 1 -15 -5 -3 -5 -1 -10 4 -10 6 0 11 -6 11 -13 0 -7 7 -22 15 -33
14 -18 16 -18 29 -1 20 26 39 22 32 -7 -4 -18 -1 -25 14 -29 28 -7 25 -27 -5
-27 -20 0 -25 5 -25 26 0 16 -5 24 -12 21 -8 -2 -12 -17 -10 -35 2 -18 -1 -32
-7 -32 -6 0 -11 11 -11 25 0 18 -8 29 -27 37 -38 16 -37 16 -23 33 8 10 9 15
2 13 -6 -2 -17 6 -25 16 -8 10 -19 16 -25 12 -17 -10 -15 -26 3 -26 8 0 15 -7
15 -15 0 -17 -16 -20 -25 -5 -11 17 -55 12 -55 -7 0 -15 -2 -15 -14 2 -12 16
-16 17 -30 6 -9 -7 -16 -19 -16 -26 0 -8 -8 -11 -20 -8 -12 3 -20 0 -20 -7 0
-7 -7 -18 -15 -24 -14 -10 -14 -13 0 -34 14 -19 25 -22 92 -22 42 0 73 3 70 7
-12 11 65 33 82 23 13 -7 12 -10 -9 -19 -20 -8 -13 -10 40 -9 36 1 74 8 86 15
21 14 54 9 54 -8 0 -5 16 -9 35 -9 37 0 46 15 23 38 -10 10 -10 15 2 22 20 12
33 1 19 -16 -10 -12 -4 -14 34 -14 27 0 47 5 50 12 3 9 10 7 21 -7 16 -20 16
-20 39 6 33 36 55 42 69 19 7 -11 18 -20 25 -20 6 0 13 -6 16 -12 2 -7 8 -10
12 -5 5 4 -9 23 -31 42 -43 38 -41 42 10 21 19 -8 39 -10 47 -6 7 5 17 6 21 4
4 -3 8 4 8 16 0 19 5 21 48 18 36 -2 47 0 47 12 0 12 -15 15 -70 15 -40 1 -79
6 -90 14 -17 11 -27 10 -60 -3 -25 -11 -41 -13 -43 -6 -2 5 -11 10 -19 10 -9
0 -14 3 -10 6 3 3 44 7 90 9 46 1 93 7 104 14 12 6 35 8 52 5 28 -6 31 -4 31
20 0 24 -2 26 -50 25 -42 -1 -50 -5 -50 -20 0 -23 -26 -25 -38 -3 -8 14 -12
14 -30 3 -19 -12 -24 -11 -39 5 -16 16 -16 18 -2 13 13 -4 16 0 13 16 -2 12
-1 16 2 9 5 -10 9 -10 20 -1 10 8 17 9 28 0 10 -8 22 -8 47 3 47 20 112 106
81 106 -5 0 -17 6 -27 14 -19 14 -19 15 9 41 29 26 29 27 23 123 -10 178 -101
402 -255 627 -38 57 -76 104 -177 218 -38 44 -89 104 -112 132 -23 29 -50 59
-60 66 -24 18 -56 69 -44 69 6 0 29 -25 51 -55 35 -48 66 -75 84 -75 3 0 6 11
6 24 0 13 9 44 20 69 19 43 19 77 -1 77 -5 0 -12 7 -15 15 -6 15 63 105 82
105 6 0 39 -14 72 -31 78 -39 148 -42 211 -10 75 39 45 52 -81 35 -29 -3 -48
-2 -48 4 0 5 -11 7 -24 5 -13 -3 -27 0 -30 6 -4 6 -16 11 -27 11 -10 0 -19 5
-19 10 0 6 -9 10 -20 10 -13 0 -24 10 -30 25 -5 14 -14 25 -19 25 -18 0 -28
64 -21 120 10 67 31 117 66 159 15 18 25 33 23 34 -2 1 -18 10 -36 20 -17 9
-38 17 -46 17 -27 0 -27 15 1 48 35 40 72 42 121 5 20 -15 38 -31 39 -35 2 -4
8 -8 13 -8 12 0 2 74 -11 78 -6 2 -7 8 -4 14 3 5 -2 15 -11 22 -16 11 -16 15
-1 49 12 29 12 37 2 37 -13 0 -116 -45 -261 -115 -81 -38 -137 -52 -129 -31 7
18 -16 25 -45 15 -19 -8 -22 -14 -16 -37 14 -50 11 -57 -20 -60 -16 -2 -35
-10 -42 -19 -12 -16 -67 -11 -79 8 -3 6 29 43 72 84 43 41 75 78 71 81 -4 4
-20 -2 -35 -14 -66 -52 -162 -115 -168 -110 -3 3 12 19 34 34 22 16 90 71 151
122 163 134 304 232 334 232 14 0 29 6 34 13 13 20 3 150 -14 176 -10 15 -13
34 -9 55 4 17 8 40 10 51 1 11 14 26 27 35 14 8 36 25 48 37 47 44 91 58 175
56 58 -2 87 -8 113 -23 19 -11 41 -20 49 -20 8 0 14 -4 14 -10 0 -19 73 -43
100 -33 19 7 29 6 39 -5 9 -9 25 -12 47 -9 21 4 39 1 46 -7 7 -7 21 -15 31
-19 9 -3 17 -13 17 -22 0 -8 4 -15 10 -15 5 0 16 -16 24 -35 8 -19 22 -35 30
-35 9 0 16 -4 16 -9 0 -4 11 -6 24 -4 17 4 27 -1 35 -16 7 -12 18 -21 25 -21
7 0 21 -9 31 -20 10 -11 24 -20 32 -20 7 0 13 -6 13 -12 0 -7 11 -35 24 -62
22 -46 23 -51 9 -85 -9 -20 -19 -38 -23 -41 -4 -3 -10 -18 -13 -35 -3 -16 -9
-42 -12 -57 -10 -39 47 -106 124 -145 54 -28 66 -30 128 -26 37 3 73 10 79 15
7 5 28 5 51 0 24 -6 65 -5 108 2 77 12 99 22 89 38 -4 6 -2 8 3 5 6 -4 14 0
17 9 3 8 9 13 13 11 5 -3 24 -8 44 -11 46 -7 85 -22 94 -35 3 -6 30 -11 58
-11 44 1 55 4 71 27 15 20 17 29 8 42 -27 37 -52 91 -42 91 5 0 10 11 10 25 0
14 -4 25 -10 25 -11 0 -50 38 -84 83 -30 39 -37 107 -11 107 12 0 15 17 15 93
1 111 12 177 34 193 9 6 16 16 16 23 0 6 9 20 20 31 23 23 94 27 168 9 51 -11
70 -27 82 -70 10 -33 -10 -111 -30 -117 -5 -2 -10 -21 -10 -42 0 -20 -7 -55
-16 -75 -14 -35 -14 -42 1 -82 9 -23 21 -43 26 -43 6 0 22 -11 37 -25 15 -14
33 -23 42 -20 20 6 41 -8 44 -31 2 -10 13 -24 26 -31 13 -6 32 -28 42 -48 13
-25 34 -43 70 -60 62 -30 58 -29 58 -7 0 12 14 25 40 37 29 13 40 24 40 40 0
13 -6 25 -14 28 -8 3 -20 18 -28 33 -8 17 -29 33 -60 44 -52 20 -84 45 -68 55
5 3 10 28 10 54 l0 48 51 22 c52 21 189 31 189 13 0 -5 12 -14 26 -20 19 -9
24 -17 19 -32 -5 -14 -2 -20 9 -20 9 0 16 -6 16 -12 0 -16 72 -162 83 -166 4
-2 7 -8 7 -13 0 -11 12 -27 58 -76 22 -23 32 -42 29 -54 -3 -11 0 -19 7 -19 7
0 21 -9 31 -20 10 -11 31 -20 47 -20 15 0 28 -4 28 -10 0 -5 9 -10 20 -10 24
0 26 25 7 63 -14 27 -11 97 4 97 5 0 9 18 9 39 0 31 -7 46 -31 71 l-32 31 13
88 c11 80 15 90 41 105 45 27 64 77 61 170 -2 62 1 83 14 97 10 11 23 19 30
19 7 0 14 5 16 11 5 14 121 14 126 0 2 -6 18 -13 37 -17 18 -3 43 -17 56 -30
26 -27 54 -31 66 -9 6 10 31 17 73 20 73 7 140 24 140 37 0 13 28 9 33 -4 3
-10 7 -10 19 0 8 7 42 17 74 23 33 6 62 15 65 21 4 5 80 14 170 19 153 9 260
23 284 39 6 4 48 8 95 9 75 2 91 -1 135 -24 27 -15 56 -36 65 -48 21 -30 48
-107 50 -142 0 -16 14 -48 30 -69 17 -22 30 -47 31 -55 0 -9 9 -29 19 -46 44
-69 53 -100 52 -170 -2 -81 16 -131 64 -182 21 -22 37 -31 48 -27 9 3 23 1 31
-6 18 -15 83 -15 146 -1 25 6 55 8 67 4 12 -3 33 -2 47 1 l25 6 0 2296 c0
2177 -1 2295 -17 2300 -18 6 -125 50 -152 63 -8 4 -22 22 -30 39 -14 28 -21
32 -58 32 -40 0 -49 -6 -44 -33 1 -4 -25 -7 -56 -5 -47 2 -57 6 -55 19 2 12
-9 18 -44 23 -63 8 -4114 8 -4114 -1 0 -3 7 -14 15 -23 14 -15 14 -18 0 -30
-8 -7 -15 -22 -15 -34 0 -11 -4 -16 -8 -11 -4 6 -16 15 -26 21 -25 14 -32 34
-12 34 24 0 20 38 -5 45 -12 4 -26 2 -32 -4 -8 -8 -8 -11 1 -11 7 0 12 -4 12
-10 0 -5 -9 -10 -20 -10 -13 0 -20 -7 -20 -20 0 -29 -18 -25 -32 8 -7 15 -13
28 -14 30 0 1 -8 0 -16 -3 -10 -4 -14 -14 -11 -26 8 -30 -22 -23 -56 14 l-31
32 -1162 3 c-1161 2 -1345 -1 -1330 -22 4 -6 9 -23 11 -38 2 -21 -2 -28 -15
-28 -10 0 -15 3 -11 6 9 9 -16 32 -30 27 -6 -3 -21 0 -32 6 -16 9 -28 7 -55
-8 -19 -11 -37 -17 -41 -13 -3 3 -3 -1 1 -11 4 -11 0 -19 -10 -23 -9 -3 -14
-9 -11 -13 2 -4 -14 -18 -35 -32 -22 -13 -40 -27 -40 -30 0 -7 41 -14 147 -25
42 -4 68 -13 79 -25 24 -27 14 -31 -42 -19 -51 11 -193 8 -212 -4 -17 -10 -15
-46 3 -46 18 0 65 -21 65 -29 -1 -36 -59 -35 -75 1 -17 37 -42 46 -65 23 -17
-18 -18 -25 -9 -60 6 -22 19 -45 28 -52 22 -17 -2 -17 -30 0 -18 10 -23 9 -41
-13 -11 -14 -26 -24 -33 -22 -7 1 -25 -23 -39 -53 -15 -30 -31 -55 -35 -55 -5
0 -11 -13 -14 -30 -7 -33 -55 -110 -68 -110 -5 0 -9 -5 -9 -10 0 -6 -10 -27
-23 -48 -12 -20 -29 -55 -36 -77 -19 -54 -51 -85 -51 -50 0 9 8 27 17 42 10
14 18 32 19 39 1 7 43 97 93 199 50 103 91 188 91 190 0 19 86 143 135 195 34
36 82 87 106 114 24 28 52 58 62 68 9 10 17 22 17 28 0 6 -899 10 -2640 10
l-2640 0 0 -2105z m4146 499 c96 -31 180 -69 233 -106 30 -21 58 -38 63 -38 4
0 16 16 25 35 13 26 23 35 37 33 31 -4 31 -36 1 -68 l-27 -28 28 -18 c16 -11
62 -42 103 -71 41 -29 78 -53 84 -53 10 0 92 -62 112 -85 6 -6 26 -22 45 -35
95 -65 254 -214 313 -292 27 -36 28 -37 79 -31 58 7 61 -10 3 -21 -19 -4 -35
-11 -35 -15 0 -5 11 -28 23 -50 21 -36 26 -39 36 -27 18 22 50 29 66 16 21
-17 1 -50 -30 -50 -14 0 -25 -6 -25 -12 2 -37 134 -234 270 -402 66 -81 608
-800 665 -881 53 -77 129 -176 185 -245 30 -36 70 -86 89 -111 l34 -44 132 1
c73 1 138 5 144 8 6 4 11 3 11 -2 0 -5 -8 -12 -18 -14 -16 -5 -18 -14 -16 -71
2 -44 -2 -75 -11 -94 -8 -15 -15 -50 -15 -78 0 -47 4 -56 84 -157 115 -148
129 -162 156 -148 12 6 26 10 33 7 7 -2 2 -9 -11 -16 -33 -18 -27 -40 31 -119
28 -39 77 -106 107 -149 30 -43 78 -105 105 -138 69 -82 205 -263 212 -283 4
-10 2 -13 -6 -8 -15 10 -225 264 -351 426 -52 67 -124 159 -160 204 -36 45
-74 94 -85 108 -11 15 -60 79 -110 143 -49 64 -100 131 -113 148 -12 18 -29
40 -37 49 -12 14 -89 117 -210 280 -11 15 -54 70 -95 123 -41 53 -84 109 -95
125 -11 15 -54 72 -95 126 -41 53 -88 116 -105 139 -16 23 -77 103 -135 179
-249 327 -493 670 -554 781 -38 69 -134 217 -175 270 -49 65 -300 316 -347
349 -111 75 -187 126 -191 126 -2 0 -20 11 -41 23 -20 13 -54 30 -75 36 -21 7
-51 24 -67 38 -17 14 -74 47 -128 74 -81 41 -135 61 -280 105 -7 2 -10 8 -7
14 9 15 85 12 141 -6z m-43 -299 c32 -8 70 -22 85 -32 47 -29 123 -107 138
-142 17 -41 18 -51 1 -31 -28 36 -92 65 -147 67 -30 1 -113 6 -183 12 -74 6
-136 6 -145 1 -10 -4 -43 -16 -76 -25 -47 -14 -72 -30 -126 -82 -37 -35 -71
-75 -74 -88 -4 -14 -11 -25 -16 -25 -6 0 -10 -9 -10 -20 0 -12 -7 -20 -16 -20
-14 0 -15 8 -9 48 10 72 39 123 113 198 128 130 301 182 465 139z m1587 -192
c43 -21 71 -27 125 -28 90 -2 145 -19 196 -64 99 -84 118 -240 40 -324 -24
-26 -31 -28 -91 -25 -36 1 -71 -1 -77 -5 -7 -4 -26 -1 -43 8 -17 9 -46 15 -65
13 -19 -1 -40 3 -47 10 -13 13 -44 16 -51 5 -2 -5 -2 -2 0 6 2 8 -2 11 -12 8
-9 -4 -21 5 -32 23 -9 17 -20 30 -24 30 -10 0 -22 57 -22 95 1 26 15 69 47
146 19 44 -101 22 -151 -27 -10 -11 -31 -25 -46 -31 -21 -10 -27 -19 -27 -43
0 -28 -2 -30 -20 -20 -15 8 -20 20 -19 48 1 20 -2 47 -6 60 -5 14 -3 22 4 22
6 0 11 8 11 18 0 21 42 64 85 86 51 27 159 21 225 -11z m2290 -512 c0 -126
-62 -479 -90 -516 -4 -5 -11 -28 -14 -50 -4 -22 -12 -47 -17 -55 -16 -23 -5
52 20 140 25 89 61 353 61 448 0 63 10 92 32 92 4 0 8 -27 8 -59z m-618 -1729
c12 -19 25 -58 29 -86 6 -34 16 -56 30 -67 l22 -16 -24 -17 c-13 -9 -29 -16
-36 -16 -6 0 -15 -9 -18 -20 -3 -11 -10 -20 -15 -20 -12 0 -18 27 -18 88 0 63
-10 78 -61 86 -45 7 -71 28 -71 58 0 16 4 19 23 14 12 -4 37 -10 56 -13 l33
-6 -7 44 -7 44 21 -19 c12 -11 31 -35 43 -54z"/>
<path d="M5824 4932 c-75 -24 -111 -105 -77 -172 35 -68 134 -86 192 -34 37
33 47 76 29 128 -20 61 -86 96 -144 78z"/>
<path d="M11944 2913 c-39 -7 -48 -117 -14 -168 11 -16 22 -50 26 -75 7 -52
28 -90 49 -90 8 0 15 -4 15 -10 0 -22 43 -8 77 24 35 33 36 35 25 76 -6 23 -8
49 -5 57 8 21 -17 101 -41 130 -55 66 -64 70 -132 56z"/>
<path d="M11567 2640 c-16 -5 -35 -14 -43 -20 -7 -7 -28 -10 -46 -8 -25 4 -39
-1 -63 -23 -16 -16 -35 -29 -41 -29 -7 0 -14 -13 -16 -30 -5 -33 20 -80 49
-92 27 -10 65 -9 58 1 -7 12 18 18 80 20 33 0 52 6 58 16 4 9 12 13 17 10 5
-3 11 3 15 14 3 10 15 21 25 24 31 8 23 38 -21 85 -22 23 -41 42 -42 41 -1 0
-15 -5 -30 -9z"/>
<path d="M372 2530 c-10 -8 -31 -24 -45 -35 -15 -11 -34 -34 -42 -50 -12 -27
-12 -38 0 -84 8 -30 23 -63 34 -75 11 -11 25 -42 30 -69 10 -42 9 -51 -11 -82
-13 -19 -29 -35 -37 -35 -8 0 -11 -3 -8 -6 7 -7 -30 -44 -45 -44 -4 0 -8 7 -8
15 0 8 -9 15 -21 15 -11 0 -17 5 -14 10 4 6 -13 19 -37 30 -89 40 -135 110
-144 217 -2 36 -9 73 -14 82 -6 10 -10 -67 -10 -218 l0 -234 47 7 c26 3 52 11
57 16 6 6 27 10 48 10 21 0 49 6 61 14 29 19 197 37 190 20 -2 -7 10 -14 31
-18 22 -4 37 -14 41 -26 5 -16 10 -17 30 -10 16 6 27 6 30 -1 4 -5 15 -7 25
-4 33 10 54 13 161 20 106 7 266 39 374 76 53 19 72 20 165 13 169 -12 322 1
395 36 22 10 69 26 104 36 35 10 69 24 77 31 15 15 44 7 44 -13 0 -8 4 -14 9
-14 24 0 -32 -126 -62 -139 -16 -6 -30 -57 -33 -119 -1 -41 -8 -70 -18 -81
-22 -24 -20 -52 4 -58 11 -3 20 -9 20 -14 0 -5 16 -9 36 -9 19 0 43 -4 53 -10
42 -22 260 -7 269 19 2 6 14 11 26 11 13 0 26 3 30 8 4 4 20 8 34 8 65 3 152
18 152 25 0 18 85 9 120 -13 19 -12 44 -23 55 -25 96 -14 383 11 500 43 50 14
115 32 145 40 36 10 77 13 120 10 170 -15 319 -8 384 17 17 6 39 12 50 12 57
3 66 6 66 20 0 11 12 15 43 16 83 3 152 -3 158 -13 14 -22 114 -27 264 -14 82
7 200 15 250 17 11 0 71 8 134 16 63 8 137 13 165 10 78 -7 266 44 266 74 0 3
-11 11 -25 17 -14 6 -25 20 -25 29 0 13 -15 24 -48 35 -43 16 -68 34 -109 80
-27 29 -42 36 -108 43 -75 8 -108 19 -142 51 -61 56 -209 23 -227 -51 -8 -31
-79 -87 -100 -79 -9 3 -16 10 -16 15 0 5 -6 9 -14 9 -18 0 -66 46 -66 64 0 13
-14 15 -76 14 -68 -2 -79 -5 -103 -28 -14 -15 -33 -31 -41 -36 -9 -5 -21 -21
-27 -36 -8 -17 -20 -28 -33 -28 -11 0 -20 -5 -20 -10 0 -23 -24 -35 -61 -32
-22 2 -39 0 -39 -6 0 -12 -29 -5 -165 38 -113 35 -145 50 -152 66 -4 12 -49 2
-83 -18 -60 -35 -80 -52 -80 -68 0 -28 -75 -36 -122 -13 -21 10 -38 24 -38 31
0 6 -3 11 -7 11 -21 -3 -32 3 -38 22 -10 31 -40 57 -108 95 -99 55 -141 74
-164 74 -12 0 -33 5 -47 11 -21 10 -28 7 -61 -22 -49 -46 -81 -53 -113 -29
-14 11 -29 20 -35 20 -6 0 -21 10 -34 22 -18 17 -36 22 -80 22 -40 1 -58 -3
-61 -13 -3 -8 -19 -28 -37 -45 -17 -17 -37 -40 -42 -51 -16 -29 -2 -89 35
-163 18 -34 32 -76 32 -93 0 -38 -27 -102 -39 -95 -5 3 -22 -1 -39 -11 -27
-16 -30 -16 -58 3 -16 11 -42 26 -57 34 -69 34 -115 107 -122 190 -6 67 -19
120 -43 167 -12 23 -22 47 -22 53 0 13 -75 90 -88 90 -5 0 -20 -8 -33 -18 -13
-10 -32 -21 -41 -25 -10 -3 -18 -11 -18 -17 0 -5 -7 -10 -16 -10 -8 0 -22 -7
-30 -15 -9 -8 -27 -15 -42 -16 -67 -2 -108 3 -118 17 -7 8 -28 14 -52 14 -22
0 -43 4 -47 9 -3 5 -30 17 -60 25 -29 9 -60 23 -69 31 -16 17 -66 20 -66 5 0
-5 -11 -10 -25 -10 -14 0 -25 -4 -25 -10 0 -5 -11 -12 -24 -16 -17 -4 -26 -14
-28 -32 -4 -32 -43 -45 -110 -36 -44 5 -52 11 -45 31 1 4 -11 10 -28 13 -24 5
-29 10 -28 28 2 13 -5 26 -17 32 -11 6 -31 22 -44 35 -14 14 -29 25 -35 25 -5
0 -39 14 -75 30 -71 33 -156 53 -183 43 -10 -4 -30 -17 -46 -29 -21 -18 -35
-22 -65 -17 -20 3 -38 10 -40 15 -2 4 -8 8 -13 8 -5 0 -27 11 -49 25 -44 28
-96 30 -128 5z"/>
<path d="M8273 2457 l-32 -22 -1 -98 c0 -76 3 -96 13 -90 6 4 34 13 62 18 56
11 75 35 75 95 0 45 -39 114 -65 117 -11 1 -34 -8 -52 -20z"/>
<path d="M5777 2442 c-10 -10 -17 -24 -17 -30 0 -7 -6 -12 -13 -12 -17 0 -54
-82 -63 -139 -6 -40 -14 -53 -64 -106 -22 -23 -27 -74 -7 -76 6 -1 23 -1 36
-1 15 1 35 -10 53 -29 36 -37 104 -48 175 -29 55 15 123 49 123 63 0 4 7 15
15 23 19 20 19 65 0 90 -8 10 -15 29 -15 42 0 12 -4 22 -10 22 -5 0 -10 9 -10
19 0 21 -154 181 -175 181 -6 0 -19 -8 -28 -18z"/>
<path d="M6244 2198 c-13 -61 -7 -86 26 -103 41 -21 119 -20 135 2 10 13 10
22 1 37 -22 38 -49 65 -77 76 -16 7 -29 16 -29 21 0 5 -10 9 -23 9 -20 0 -25
-7 -33 -42z"/>
<path d="M5426 2167 c-10 -7 -45 -38 -78 -70 -66 -64 -67 -62 35 -86 83 -19
95 -17 179 37 l37 24 -21 43 c-12 24 -32 48 -45 54 -31 14 -83 13 -107 -2z"/>
<path d="M7902 2100 c-79 -49 -76 -165 5 -209 57 -30 149 6 165 64 33 116 -71
205 -170 145z"/>
<path d="M6428 354 c-6 -5 -43 -9 -165 -18 -34 -3 -71 -10 -83 -16 -11 -6 -25
-8 -30 -5 -5 3 -36 1 -67 -6 -32 -6 -76 -14 -98 -18 -26 -4 -40 -11 -40 -21 0
-16 18 -17 113 -4 45 6 55 4 67 -12 14 -18 14 -18 15 3 0 28 25 36 112 35 71
-1 98 -12 98 -40 0 -12 3 -13 12 -4 8 8 8 15 -1 25 -13 17 -5 47 14 47 7 0 20
-11 29 -25 9 -14 26 -25 37 -25 17 0 20 4 15 25 -5 18 -1 27 14 35 11 6 20 15
20 20 0 11 -53 14 -62 4z"/>
</g>
</svg>
