<?xml version="1.0" standalone="no"?>
<!DOCTYPE svg PUBLIC "-//W3C//DTD SVG 20010904//EN"
 "http://www.w3.org/TR/2001/REC-SVG-20010904/DTD/svg10.dtd">
<svg version="1.0" xmlns="http://www.w3.org/2000/svg"
 width="1048.000000pt" height="635.000000pt" viewBox="0 0 1048.000000 635.000000"
 preserveAspectRatio="xMidYMid meet">
<metadata>
Created by potrace 1.16, written by Peter Selinger 2001-2019
</metadata>
<g transform="translate(0.000000,635.000000) scale(0.100000,-0.100000)"
fill="#000000" stroke="none">
<path d="M490 6330 c-9 -17 -8 -20 10 -20 11 0 20 -5 20 -11 0 -6 -11 -8 -28
-4 -24 5 -30 2 -40 -20 -7 -14 -17 -23 -22 -20 -6 4 -3 17 10 34 24 34 16 47
-13 20 -26 -24 -92 -26 -105 -3 -11 20 -32 10 -32 -16 0 -13 7 -18 23 -18 43
3 77 -2 77 -10 0 -5 -39 -10 -87 -11 -49 -1 -96 -4 -105 -7 -26 -8 -181 15
-190 28 -4 7 -8 -33 -7 -89 1 -93 3 -103 20 -103 10 0 25 10 34 23 l16 22 -3
-30 c-2 -23 -8 -30 -26 -31 -12 -1 -26 -5 -30 -8 -4 -4 -9 -57 -10 -117 l-4
-109 27 0 c15 0 24 -4 20 -10 -3 -5 -15 -10 -26 -10 -16 0 -19 -7 -19 -46 0
-32 5 -51 17 -59 16 -12 9 -40 -8 -30 -5 4 -9 -17 -9 -49 0 -34 5 -56 13 -59
10 -4 10 -6 0 -6 -18 -1 -18 -302 -1 -319 9 -9 9 -12 0 -12 -22 0 -14 -56 11
-69 l22 -11 -22 6 c-23 5 -23 4 -23 -102 0 -90 3 -109 17 -120 17 -13 17 -13
1 -14 -16 0 -18 -14 -18 -157 0 -116 4 -165 14 -185 12 -23 12 -27 0 -32 -8
-3 -14 -16 -14 -29 0 -20 4 -23 25 -19 14 2 25 0 25 -6 0 -6 -10 -12 -22 -14
-18 -2 -24 -11 -26 -35 -3 -28 0 -33 17 -33 12 0 21 7 21 15 0 8 5 15 11 15 6
0 8 -9 4 -20 -9 -29 14 -25 25 5 6 17 17 25 32 24 l23 0 -23 -11 c-12 -6 -22
-15 -22 -20 0 -14 39 -9 47 7 8 13 11 13 31 -1 12 -8 22 -20 22 -26 0 -7 -4
-7 -13 0 -17 14 -42 -2 -34 -22 5 -12 0 -16 -16 -16 -12 0 -31 -7 -41 -15 -11
-8 -34 -15 -50 -14 -30 1 -30 1 8 12 22 7 41 18 44 25 4 14 -14 16 -23 2 -3
-6 -18 -7 -32 -4 -17 5 -24 3 -19 -4 3 -6 2 -13 -3 -16 -5 -3 -9 -40 -10 -81
-1 -58 3 -76 15 -83 15 -8 15 -10 0 -15 -11 -5 -16 -19 -16 -51 0 -43 1 -45
33 -51 17 -3 41 -4 51 -2 10 1 21 -4 23 -10 3 -10 -11 -13 -51 -13 -56 0 -56
0 -56 -31 0 -20 4 -28 12 -23 8 5 9 2 4 -12 -5 -10 -10 -39 -13 -64 -3 -36 -2
-41 7 -27 6 9 18 17 25 17 21 0 18 -9 -8 -30 l-23 -19 0 -318 1 -318 27 3 c16
1 28 -2 28 -8 0 -9 -16 -14 -47 -13 -8 0 -12 -33 -12 -117 1 -116 1 -118 22
-112 12 3 27 9 34 14 7 5 17 7 23 3 17 -11 -20 -46 -41 -40 -27 9 -34 -13 -36
-119 -2 -90 0 -100 20 -118 22 -19 22 -19 1 -13 -19 5 -21 1 -21 -35 0 -21 4
-37 8 -34 5 3 9 11 9 17 0 7 11 13 25 13 14 1 25 -2 25 -7 0 -5 -6 -9 -12 -9
-7 0 -23 -11 -36 -24 -19 -21 -22 -35 -22 -104 l0 -81 81 4 c57 2 86 8 98 19
14 15 13 16 -7 16 -14 0 -21 4 -17 11 4 6 14 8 24 4 25 -9 81 -49 81 -57 0
-13 -28 -9 -33 5 -3 9 -7 9 -18 1 -8 -6 -49 -14 -92 -18 -56 -5 -83 -12 -96
-25 -18 -18 -18 -20 -2 -36 15 -17 15 -17 -2 -12 -14 5 -17 1 -17 -24 0 -26 3
-29 20 -24 11 4 20 2 20 -4 0 -6 18 -16 40 -22 22 -7 40 -16 40 -21 0 -13 -35
-9 -66 7 -16 8 -35 15 -41 15 -17 0 -17 -47 -1 -53 10 -3 10 -7 2 -18 -6 -8
-12 -38 -13 -66 -1 -41 2 -53 13 -53 8 0 17 4 20 9 7 11 66 -16 66 -29 0 -5
-8 -6 -17 -3 -12 5 -15 2 -10 -10 5 -14 2 -15 -19 -7 -48 19 -54 14 -54 -40 0
-47 14 -67 26 -36 3 8 22 22 42 31 64 28 92 46 92 57 0 7 6 3 14 -8 13 -17 18
-18 45 -7 37 14 41 2 6 -21 -26 -17 -51 -21 -58 -8 -2 4 -2 2 -1 -5 5 -18 -15
-27 -22 -9 -3 8 -12 12 -20 9 -11 -4 -12 -8 -3 -19 17 -20 2 -31 -21 -16 -30
19 -36 14 -10 -8 18 -16 20 -22 10 -34 -6 -9 -9 -20 -5 -26 3 -5 -1 -10 -9
-10 -8 0 -18 -5 -21 -11 -5 -7 3 -9 21 -7 24 2 30 8 34 37 3 20 13 39 25 45
11 6 23 15 26 19 3 5 12 7 20 6 21 -4 120 61 112 73 -4 7 1 9 15 6 12 -3 29 0
39 8 10 7 29 14 41 14 15 0 26 7 29 19 4 16 11 18 37 14 22 -3 38 0 48 10 9 9
28 19 42 23 15 3 34 17 42 29 17 25 51 39 57 22 4 -12 24 -5 142 47 66 30 75
36 50 37 l-30 1 30 9 c17 5 35 7 41 5 13 -5 66 12 132 42 24 11 38 22 32 24
-8 2 -2 11 14 21 23 15 26 16 26 2 0 -12 4 -14 19 -5 11 5 29 10 41 10 12 0
38 9 58 20 81 42 169 79 207 86 22 3 47 12 55 18 8 7 35 21 60 31 25 10 54 27
66 37 11 10 36 18 55 18 19 0 43 7 54 16 11 8 37 19 58 25 30 8 37 13 28 22
-9 9 -16 8 -31 -1 -11 -6 -24 -12 -30 -12 -17 0 -11 28 8 34 21 6 74 3 87 -6
6 -3 37 7 70 23 33 15 67 28 75 29 9 0 33 9 55 20 22 11 49 20 62 20 12 0 26
6 30 13 11 16 63 40 142 66 79 25 117 27 125 5 6 -15 8 -15 25 2 17 18 17 19
-2 27 -31 12 -4 34 58 47 50 10 53 13 60 46 3 19 14 38 23 41 9 4 25 16 35 26
9 11 20 17 23 14 4 -3 -10 -23 -30 -44 l-36 -38 31 -3 c17 -2 41 4 54 12 34
22 55 11 52 -26 -1 -19 3 -33 12 -36 13 -4 13 18 0 68 -3 10 5 16 24 18 15 2
27 7 27 11 0 13 -38 20 -74 14 -21 -3 -36 -1 -41 7 -5 7 -4 11 1 8 22 -14 172
12 241 41 83 36 123 40 123 14 0 -22 -30 -68 -56 -88 -19 -14 -19 -14 1 -29
19 -14 19 -15 -8 -27 -21 -10 -38 -10 -67 -3 -29 8 -37 8 -33 -1 2 -7 -4 -15
-13 -19 -22 -8 -33 2 -14 14 8 5 12 12 8 15 -5 5 -59 -24 -98 -53 -2 -2 2 -7
9 -11 7 -5 10 -14 7 -20 -10 -16 -26 -14 -26 3 0 24 -18 28 -51 10 -17 -8 -42
-14 -55 -11 -13 2 -29 -2 -35 -10 -7 -7 -20 -11 -30 -8 -13 4 -19 1 -19 -9 0
-9 -7 -16 -15 -16 -17 0 -20 17 -4 22 14 5 0 38 -17 38 -8 0 -14 -7 -14 -15 0
-9 -6 -18 -14 -21 -8 -3 -12 -13 -8 -26 3 -14 -1 -26 -13 -34 -18 -13 -18 -14
-1 -14 9 0 25 4 35 9 10 6 28 7 40 4 21 -5 21 -7 5 -24 -9 -11 -23 -19 -31
-19 -7 0 -16 -7 -19 -15 -4 -8 -17 -15 -30 -15 -15 0 -24 -6 -24 -15 0 -8 -5
-15 -11 -15 -7 0 -9 10 -5 24 3 14 2 28 -4 31 -5 3 -10 15 -10 25 0 13 -5 17
-15 14 -8 -4 -15 -1 -15 5 0 6 5 11 10 11 6 0 10 9 10 20 0 11 -4 20 -10 20
-5 0 -9 -6 -7 -12 1 -7 -8 -14 -21 -16 -16 -2 -21 -8 -18 -20 7 -23 -4 -39
-36 -51 -22 -8 -26 -16 -24 -38 2 -15 -1 -31 -6 -34 -10 -7 0 -39 13 -39 5 0
10 9 10 20 2 32 3 33 28 68 20 28 28 32 50 27 30 -8 37 -13 28 -21 -4 -4 -13
-1 -21 5 -15 13 -36 7 -36 -8 0 -5 10 -11 23 -15 l22 -6 -23 -16 c-15 -10 -21
-22 -17 -34 4 -13 0 -20 -14 -25 -10 -3 -22 -12 -25 -21 -4 -10 -13 -13 -30
-8 -13 3 -34 0 -46 -6 -19 -10 -20 -14 -8 -26 12 -12 19 -13 49 -1 26 11 41
11 67 2 l32 -11 -22 -22 c-52 -50 -61 -64 -47 -72 8 -6 21 0 36 16 25 28 41
30 69 10 21 -16 23 -14 -32 -31 -11 -4 -14 -12 -10 -29 4 -17 1 -26 -10 -30
-22 -9 -24 -8 -18 8 8 22 -14 29 -38 12 -27 -19 -59 -21 -55 -4 1 6 -6 14 -15
16 -10 2 -18 -2 -18 -8 0 -7 -10 -24 -21 -38 l-22 -27 6 33 c9 45 -18 43 -38
-4 -12 -28 -19 -34 -34 -29 -13 4 -34 -5 -66 -30 -26 -19 -50 -35 -55 -35 -5
0 -11 -9 -15 -19 -4 -12 -12 -18 -20 -14 -9 3 -18 -4 -25 -21 -11 -29 -32 -36
-28 -8 5 29 -40 28 -51 -1 -11 -28 -32 -39 -52 -26 -13 8 -6 13 14 10 11 -2 8
14 -5 27 -9 9 -8 12 4 12 9 0 20 5 24 11 5 9 -1 10 -20 5 -33 -8 -66 1 -66 17
0 7 -23 20 -50 30 -30 11 -48 22 -44 29 4 6 -1 6 -15 -1 -30 -17 -26 -28 14
-35 28 -6 34 -11 32 -29 -1 -15 3 -21 13 -19 12 3 13 1 3 -9 -19 -19 -16 -39
7 -39 26 0 26 -27 0 -35 -11 -3 -40 -3 -64 0 -47 7 -86 0 -86 -16 0 -6 9 -7
20 -4 24 7 26 -4 6 -31 -14 -18 -15 -18 -21 -1 -11 26 -28 20 -21 -7 8 -32
-13 -45 -31 -20 -14 18 -15 18 -39 -10 -20 -22 -36 -30 -72 -33 -25 -2 -51 -8
-58 -14 -6 -5 -19 -7 -28 -3 -11 4 -19 -2 -25 -19 -6 -14 -20 -28 -33 -32 -13
-4 -35 -20 -50 -36 -19 -21 -36 -29 -55 -27 -37 2 -135 -22 -148 -37 -17 -20
-55 -36 -66 -29 -6 3 -24 -4 -41 -16 -17 -12 -53 -30 -80 -40 -28 -10 -44 -20
-37 -23 12 -4 12 -7 1 -18 -11 -12 -15 -11 -23 3 -8 14 -14 15 -34 6 -30 -14
-33 -28 -5 -28 11 0 20 -4 20 -10 0 -5 -6 -10 -14 -10 -8 0 -21 -3 -30 -6 -12
-4 -16 0 -16 15 0 18 -4 20 -27 15 -16 -4 -33 -11 -39 -16 -6 -4 -31 -19 -55
-31 -24 -13 -44 -28 -44 -34 0 -24 -16 -25 -38 -1 -23 25 -58 28 -38 4 8 -9 4
-16 -17 -26 -15 -7 -35 -16 -44 -21 -27 -14 -31 -11 -25 17 4 24 3 25 -34 19
-26 -4 -39 -3 -39 4 0 6 8 11 18 11 10 0 23 5 29 11 7 7 19 8 30 4 37 -16 57
-15 74 4 24 26 5 40 -21 16 -10 -9 -24 -15 -30 -13 -6 2 10 19 35 38 40 30 44
35 26 38 -25 4 -27 15 -6 32 12 10 18 10 30 0 13 -11 15 -8 15 14 0 24 -2 25
-25 14 -27 -12 -49 -3 -26 11 7 5 11 15 9 22 -3 8 12 22 36 34 32 16 40 25 38
43 -2 12 2 22 7 22 6 0 11 5 11 10 0 11 -33 14 -43 3 -4 -3 -2 -12 3 -19 8 -9
3 -18 -16 -33 -35 -27 -57 -28 -49 -1 7 23 -3 25 -40 8 -15 -7 -24 -17 -21
-25 3 -8 -2 -13 -12 -13 -24 -1 -52 -24 -52 -44 0 -11 -9 -16 -26 -16 -21 0
-24 3 -15 13 8 10 7 17 -2 27 -10 10 -8 12 6 6 13 -4 29 2 49 19 l30 25 -26 0
c-14 0 -26 3 -26 8 0 4 -14 7 -30 8 -17 1 -30 -3 -30 -8 0 -5 -4 -7 -9 -4 -12
8 -22 -20 -15 -38 8 -20 -10 -49 -32 -52 -60 -8 -79 -21 -63 -40 9 -11 7 -14
-10 -14 -18 0 -21 -4 -16 -20 5 -16 2 -20 -19 -20 -23 0 -26 -4 -25 -32 1 -18
3 -25 6 -15 6 23 27 16 31 -10 2 -14 13 -23 30 -26 33 -6 46 1 32 18 -8 9 -4
17 15 29 25 16 26 16 23 -1 -2 -12 4 -19 19 -21 35 -5 27 -20 -17 -32 -22 -6
-40 -15 -40 -21 0 -6 5 -7 10 -4 13 8 42 -14 34 -26 -3 -5 2 -12 10 -15 23 -9
20 -34 -4 -34 -10 0 -24 -9 -30 -20 -9 -17 -8 -20 10 -20 27 0 21 -25 -6 -25
-10 -1 -25 -5 -33 -9 -9 -6 -12 -5 -9 5 9 24 -23 67 -54 71 -15 3 -28 1 -28
-4 0 -4 11 -8 25 -8 34 0 34 -37 0 -50 -19 -7 -25 -17 -25 -40 0 -30 24 -43
32 -18 3 7 18 11 37 10 19 -1 39 3 47 9 7 6 19 9 26 6 9 -4 8 -6 -3 -6 -9 -1
-22 -7 -28 -15 -6 -7 -22 -11 -34 -9 -30 6 -60 -22 -52 -48 4 -12 1 -21 -9
-25 -19 -7 -21 -40 -3 -48 9 -5 9 -7 0 -12 -20 -9 -15 -24 7 -24 25 0 26 -20
1 -27 -17 -4 -19 -15 -18 -109 1 -89 4 -103 17 -99 8 2 22 0 30 -5 13 -8 13
-11 -3 -27 -10 -11 -17 -13 -17 -5 0 7 -7 12 -15 12 -13 0 -15 -19 -14 -128
l1 -127 52 2 c28 2 53 8 54 13 2 6 16 10 32 10 16 0 36 7 45 16 12 12 19 14
27 6 8 -8 3 -15 -18 -24 -16 -6 -36 -13 -44 -13 -8 -1 -21 -3 -29 -4 -7 0 -11
-7 -8 -15 3 -8 -1 -20 -9 -26 -11 -10 -14 -9 -14 4 0 12 -10 16 -45 16 l-45 0
0 -65 c0 -46 4 -65 13 -65 21 0 58 30 67 56 11 28 35 32 44 8 8 -21 4 -25 -23
-27 -15 -1 -21 -8 -21 -24 0 -20 -5 -23 -34 -23 -19 0 -38 -4 -41 -10 -3 -5 3
-10 13 -10 26 0 48 -25 31 -36 -6 -4 -16 0 -21 10 -13 24 -28 20 -28 -9 0 -19
4 -23 18 -18 16 6 16 5 0 -13 -12 -14 -17 -36 -17 -77 1 -31 2 -57 3 -57 0 0
16 4 34 9 20 6 32 6 32 0 0 -5 -10 -9 -23 -9 -13 0 -28 -5 -35 -12 -17 -17
-15 -39 3 -32 9 4 15 0 15 -10 0 -9 -7 -16 -15 -16 -23 0 -21 -70 3 -70 16 -1
16 -1 -1 -14 -15 -12 -17 -29 -16 -125 1 -86 4 -110 13 -102 7 6 17 6 26 1 20
-13 80 -13 80 0 0 6 9 10 20 10 11 0 20 -4 20 -10 0 -5 5 -10 10 -10 6 0 10 7
10 15 0 8 4 15 9 15 5 0 11 -7 15 -15 8 -22 158 -21 177 1 8 10 23 14 43 11
21 -3 43 3 69 20 45 29 55 26 27 -7 -16 -19 -33 -25 -71 -26 -85 -4 -68 -15
19 -13 64 2 82 5 78 16 -8 19 4 16 20 -4 13 -17 15 -17 29 1 13 17 15 17 21 3
8 -21 24 -22 24 -3 0 8 5 18 11 22 8 4 9 0 4 -15 -5 -17 -2 -21 13 -21 11 0
23 6 25 13 4 9 8 9 14 1 13 -18 523 -17 523 0 0 9 9 12 25 8 14 -2 25 -8 25
-12 0 -5 63 -9 141 -9 90 -1 138 3 134 9 -3 6 -18 10 -33 10 -37 0 -13 21 30
26 24 3 29 1 18 -6 -13 -8 -11 -11 8 -16 12 -4 22 -10 22 -15 0 -5 23 -9 51
-9 32 0 48 4 44 10 -4 6 -21 8 -39 5 -22 -5 -36 -2 -45 8 -10 13 -3 15 49 15
44 0 67 5 81 18 10 9 22 15 25 12 3 -3 -10 -20 -28 -37 l-33 -31 31 0 c27 0
32 4 37 30 6 27 11 30 42 30 19 0 37 0 40 0 3 0 5 -3 5 -7 1 -5 -14 -10 -32
-13 -21 -3 -34 -11 -36 -23 -3 -16 6 -17 90 -16 51 1 101 7 110 12 11 8 20 7
30 0 7 -6 50 -11 96 -11 l82 0 -20 28 -20 28 28 10 c34 13 60 13 95 0 20 -8
24 -13 16 -19 -7 -4 -20 -4 -28 0 -9 5 -27 7 -41 4 -30 -4 -52 -23 -27 -23 9
0 17 -7 17 -15 0 -12 14 -15 64 -15 55 0 64 3 69 20 3 11 13 20 22 20 12 0 15
-5 10 -20 -6 -19 -2 -20 118 -20 99 0 127 3 137 15 10 13 9 15 -8 15 -12 0
-24 4 -27 10 -3 5 -2 10 3 10 5 0 12 9 15 20 8 32 30 25 23 -7 -4 -16 -3 -23
1 -18 11 14 87 19 78 6 -3 -6 -14 -11 -24 -11 -10 0 -26 -9 -36 -20 -18 -20
-17 -20 68 -20 51 0 87 4 87 10 0 5 18 22 40 36 22 15 40 32 40 39 0 21 39 24
63 5 l22 -19 -37 5 c-33 4 -38 1 -38 -16 0 -11 5 -20 10 -20 6 0 10 -9 10 -20
0 -18 7 -20 64 -20 53 0 65 3 69 17 4 16 5 16 6 1 1 -13 11 -16 49 -16 26 0
52 5 59 10 7 5 14 5 18 -2 3 -5 43 -10 91 -10 81 0 85 1 94 25 12 32 29 33 23
1 -5 -23 -2 -25 38 -24 51 0 79 12 79 34 0 11 -4 12 -19 4 -11 -5 -28 -10 -38
-10 -16 1 -15 3 6 20 13 11 31 20 40 20 9 0 23 13 33 29 16 28 74 68 85 57 9
-9 -8 -26 -28 -26 -10 0 -19 -4 -19 -9 0 -5 -3 -18 -7 -28 -6 -15 -5 -16 9 -5
11 9 18 10 23 2 10 -16 -4 -30 -30 -30 -27 0 -36 -17 -23 -42 13 -27 39 -22
70 15 15 17 28 26 28 20 0 -21 28 -15 35 8 6 19 8 19 25 4 12 -11 38 -18 69
-18 33 -1 51 -6 51 -14 0 -7 -12 -13 -26 -13 -14 0 -23 -4 -19 -10 3 -5 43
-10 88 -10 80 0 146 15 169 38 15 15 28 15 28 2 0 -6 -15 -17 -32 -25 l-33
-14 52 1 c35 2 49 6 43 12 -14 14 -12 26 3 26 7 0 18 -9 25 -20 11 -19 23 -20
266 -18 140 1 254 5 253 9 -1 4 3 7 8 7 6 0 9 -3 8 -7 -2 -10 41 -9 48 2 4 5
15 4 28 -2 28 -16 280 -11 274 5 -2 6 -22 17 -45 25 -35 11 -46 11 -87 -4 -63
-24 -66 -24 -66 -7 0 9 9 15 25 15 14 0 27 3 30 6 3 3 14 11 25 18 18 11 18
12 -7 8 -29 -4 -37 6 -15 20 19 12 57 3 99 -23 46 -30 71 -25 88 16 14 33 26
36 53 16 24 -18 21 -29 -5 -22 -17 4 -30 -2 -50 -27 -46 -53 -40 -57 76 -57
59 0 108 4 111 10 3 6 11 10 16 10 6 0 7 -4 4 -10 -9 -14 19 -12 33 2 9 9 12
9 12 0 0 -7 7 -12 15 -12 9 0 15 6 14 13 -3 27 2 37 21 37 11 0 23 -7 26 -15
4 -8 13 -15 21 -15 8 0 11 -4 8 -10 -11 -18 121 -12 140 6 12 13 13 19 4 24
-14 9 -3 30 16 30 9 0 12 -6 9 -15 -4 -8 -1 -15 6 -15 6 0 14 9 17 20 4 14 13
20 32 19 l26 0 -22 -16 c-30 -20 -29 -33 2 -33 14 0 25 5 25 10 0 6 5 10 10
10 6 0 10 -6 10 -14 0 -18 -32 -26 -74 -19 -20 3 -36 1 -40 -6 -5 -8 14 -11
61 -11 57 0 70 3 81 20 8 13 23 20 43 20 29 0 70 22 113 62 21 19 56 24 56 9
0 -5 -13 -14 -30 -21 -16 -7 -30 -16 -30 -20 0 -11 -81 -50 -103 -50 -9 0 -19
-4 -22 -10 -4 -6 10 -10 34 -10 24 0 41 5 41 11 0 7 11 9 28 6 15 -3 38 1 52
8 32 18 73 19 68 3 -3 -7 -15 -14 -27 -14 -43 -2 -33 -14 12 -14 26 0 47 5 47
10 0 6 9 10 20 10 11 0 20 -4 20 -10 0 -5 23 -10 51 -10 28 0 48 4 44 9 -8 14
14 24 28 12 19 -15 102 -27 93 -13 -4 7 -3 12 3 12 5 0 13 -4 16 -10 4 -6 113
-10 296 -9 278 1 289 2 284 20 -4 11 -2 19 3 19 14 0 33 -26 25 -33 -3 -4 1
-7 10 -7 10 0 17 4 17 8 0 5 6 17 14 27 13 18 14 17 11 -8 -3 -27 17 -38 30
-17 3 6 11 10 16 10 6 0 8 -4 5 -9 -8 -13 354 -14 370 0 10 8 14 8 14 0 0 -6
9 -11 20 -11 11 0 20 4 20 8 0 11 35 52 44 52 12 0 6 -23 -11 -42 -15 -17 -15
-18 5 -18 12 0 33 12 47 27 25 27 26 27 40 9 8 -10 12 -23 9 -27 -3 -5 20 -9
50 -9 31 0 56 5 56 10 0 6 -9 10 -19 10 -15 0 -18 5 -14 21 5 18 3 20 -16 14
-12 -4 -21 -2 -21 4 0 14 36 14 61 0 16 -8 19 -7 17 3 -2 7 2 13 7 13 6 0 9
-17 9 -37 l-2 -38 254 1 c140 0 252 4 249 9 -8 13 21 20 34 7 8 -8 17 -8 33 0
42 20 60 24 56 11 -3 -7 -15 -15 -29 -19 -17 -5 -9 -7 28 -8 32 -1 53 4 55 11
3 9 11 9 34 1 16 -6 89 -11 162 -11 130 0 133 0 112 18 -12 11 -27 21 -33 23
-7 2 -9 8 -5 12 4 4 14 2 23 -5 13 -10 19 -10 34 4 15 14 23 15 47 4 l29 -12
-40 -7 c-39 -6 -39 -7 8 -4 26 1 50 -2 53 -6 3 -5 -6 -9 -20 -9 -14 0 -26 -4
-26 -10 0 -5 23 -10 50 -10 36 0 50 4 50 14 0 16 41 15 83 -2 17 -7 79 -12
155 -11 70 1 118 4 107 6 -11 3 -26 10 -32 15 -7 6 -24 7 -38 4 -23 -6 -33 3
-20 16 10 9 98 -11 115 -27 22 -20 40 -19 40 1 0 22 38 54 63 54 19 0 16 -14
-4 -16 -5 -1 -13 -2 -19 -3 -19 -2 -10 -21 9 -21 37 0 31 -19 -6 -23 -21 -2
-3 -4 40 -5 56 -2 77 1 77 11 0 13 40 43 53 39 5 -1 6 2 2 7 -10 18 6 59 26
64 20 5 27 -17 9 -28 -6 -3 -10 -16 -10 -29 0 -15 -9 -27 -27 -36 l-28 -13 25
-8 c36 -10 118 -11 102 0 -11 7 -10 10 3 15 24 9 28 8 21 -9 -5 -13 17 -15
159 -15 103 0 165 4 165 10 0 6 7 10 15 10 8 0 15 -4 15 -10 0 -16 37 -12 44
5 3 8 10 15 17 15 6 0 8 -7 5 -15 -5 -14 22 -16 239 -14 l245 2 0 53 c0 42 -4
53 -17 57 -17 4 -17 5 0 6 10 1 17 9 17 22 0 11 -4 17 -10 14 -5 -3 -10 0 -10
9 0 8 6 16 12 19 10 3 10 9 0 26 -7 12 -8 21 -2 21 5 0 10 18 10 40 0 31 -3
38 -15 34 -8 -4 -15 -1 -15 5 0 6 6 11 14 11 18 0 20 91 3 102 -9 5 -9 10 1
20 18 18 16 98 -3 98 -8 0 -15 5 -15 10 0 15 -36 12 -49 -4 -20 -23 -71 -1
-56 24 5 8 11 8 20 0 10 -8 21 -7 43 4 26 14 31 14 42 1 21 -25 30 -6 30 62 0
56 -3 66 -20 70 -11 3 -20 9 -20 14 0 5 9 9 20 9 16 0 20 7 20 34 0 24 -5 36
-17 39 -15 4 -15 5 -2 6 14 1 17 16 18 96 1 84 -1 95 -16 95 -17 1 -17 1 -1
14 14 10 17 30 17 109 0 95 -1 97 -24 97 -18 0 -24 6 -27 28 -2 15 -8 26 -15
24 -7 -1 -13 2 -13 8 0 18 39 10 50 -10 20 -37 29 -21 29 54 0 73 0 73 -25 68
-19 -3 -23 -1 -18 11 3 9 14 19 25 22 16 5 19 16 19 76 0 68 0 69 -24 63 -13
-3 -27 -1 -31 5 -4 7 6 14 24 17 28 6 31 10 31 45 0 22 -4 39 -10 39 -5 0 -10
7 -10 16 0 8 4 13 8 10 14 -8 13 167 -1 176 -9 6 -9 10 -1 15 7 5 12 41 12 88
1 44 -2 75 -6 68 -4 -6 -19 -9 -35 -6 l-28 6 23 11 c13 6 24 22 26 34 2 12 8
22 13 22 5 0 9 19 9 43 -1 33 -3 38 -11 24 -14 -23 -28 -21 -39 6 -5 12 -9 16
-9 10 -1 -15 -27 -17 -36 -3 -11 18 42 35 70 22 22 -10 25 -9 25 7 0 10 -10
22 -22 28 l-23 10 23 12 c18 10 22 20 22 61 0 33 -4 50 -12 50 -9 0 -8 4 2 10
12 8 13 13 2 30 -7 12 -8 20 -2 20 16 0 12 70 -5 76 -8 4 -15 11 -15 16 0 6 7
8 15 4 12 -4 15 4 15 44 0 38 -4 50 -15 50 -8 0 -15 5 -15 11 0 6 6 9 14 6 11
-4 14 12 14 85 1 89 1 90 -19 73 -10 -10 -19 -26 -19 -37 0 -22 -7 -23 -26 -4
-17 17 -18 26 -3 26 6 0 24 9 40 21 24 17 29 28 29 60 0 24 -5 39 -12 39 -9 0
-9 3 0 12 19 19 15 66 -5 71 -17 4 -17 5 0 6 14 1 17 11 17 52 l0 50 -26 -20
c-15 -12 -36 -21 -48 -21 -19 1 -19 2 -4 13 9 7 18 24 20 37 2 16 10 24 25 25
32 2 37 10 18 28 -19 20 -19 27 0 27 23 0 18 27 -7 35 l-23 8 23 4 c26 5 30
33 5 33 -17 1 -17 1 -1 14 15 11 18 29 17 112 0 93 -1 98 -16 77 -11 -16 -26
-23 -49 -23 -18 0 -36 -5 -39 -10 -4 -6 -10 -8 -15 -5 -4 3 -13 -2 -20 -10 -7
-8 -20 -15 -29 -15 -9 -1 -34 -9 -56 -20 -22 -11 -49 -19 -60 -19 -20 0 -20 0
-1 14 11 8 27 15 36 15 20 0 70 23 70 31 0 11 -29 19 -35 9 -3 -5 -12 -7 -20
-3 -9 3 -22 0 -30 -7 -12 -10 -15 -9 -15 4 0 11 9 16 33 16 17 0 41 7 51 15
11 8 25 15 30 15 6 0 5 -4 -3 -9 -10 -7 -11 -10 -1 -16 8 -5 18 -2 24 7 8 10
20 12 44 7 17 -3 32 -3 32 2 0 5 -7 9 -15 9 -8 0 -15 5 -15 10 0 6 15 8 38 4
27 -4 41 -2 50 9 10 12 5 17 -29 30 -30 12 -47 14 -60 6 -25 -13 -44 -2 -29
16 12 15 91 9 101 -8 4 -5 11 -7 17 -3 13 8 13 86 0 86 -5 0 -4 8 2 19 17 33
13 89 -7 94 -17 4 -17 5 0 6 12 1 17 9 17 30 0 25 -3 28 -22 25 l-23 -5 23 10
c25 12 31 51 7 51 -8 0 -15 4 -15 9 0 5 7 11 15 15 10 3 15 19 15 44 0 37 -1
38 -30 34 -25 -4 -30 -1 -30 16 0 21 26 37 35 22 10 -17 25 -11 25 9 0 14 -6
17 -24 14 -30 -6 -44 13 -16 22 31 10 13 25 -23 19 -31 -5 -31 -5 -12 11 13
10 30 14 48 11 15 -3 27 -1 27 4 0 6 -6 10 -14 10 -25 0 -27 16 -6 43 22 28
29 127 9 127 -8 0 -7 5 2 16 10 13 10 17 -2 26 -11 7 -11 11 -2 15 26 10 14
33 -17 33 -19 0 -30 5 -30 14 0 8 14 17 30 21 l30 7 0 79 c0 51 -4 78 -10 74
-5 -3 -10 1 -10 9 0 8 5 18 10 21 6 3 10 44 10 91 0 54 -4 83 -10 79 -5 -3
-10 3 -10 14 0 11 5 23 10 26 6 3 10 13 10 22 0 13 -3 13 -15 3 -8 -7 -15 -21
-15 -32 0 -11 -5 -29 -11 -41 -7 -12 -13 -30 -14 -42 -1 -11 -3 -25 -4 -31 -2
-18 -49 -23 -68 -8 -10 7 -13 14 -6 14 6 0 15 -5 18 -10 4 -6 11 -8 16 -5 15
10 10 22 -11 28 -16 4 -18 9 -11 29 4 12 15 23 23 23 25 0 48 26 48 54 0 18 7
29 23 36 12 6 23 19 25 30 3 21 -1 22 -83 28 -22 1 -44 8 -48 15 -6 9 -13 9
-29 1 -14 -8 -23 -8 -31 0 -11 11 0 18 42 23 30 4 39 25 14 31 -15 4 -14 5 4
6 12 0 24 -3 27 -8 3 -5 16 -7 29 -4 l22 5 -23 -17 c-17 -12 -21 -20 -13 -28
7 -7 22 -5 51 9 l40 19 0 103 c0 90 -2 102 -17 102 -17 1 -17 1 0 11 20 12 23
29 3 29 -21 0 -64 -40 -48 -46 6 -3 12 -11 12 -19 0 -17 -55 -25 -105 -15 -22
4 -31 9 -20 9 70 7 87 10 93 16 4 4 1 10 -6 12 -21 8 30 53 61 53 l27 0 0 75
c0 68 -2 75 -19 75 -11 0 -23 5 -26 10 -4 6 5 10 19 10 21 0 26 5 26 24 0 19
-4 22 -25 18 -14 -2 -30 -13 -36 -23 -5 -11 -14 -19 -20 -19 -11 0 8 41 25 52
6 4 21 8 34 8 19 0 22 5 22 36 0 25 -4 33 -12 28 -10 -6 -10 -4 0 7 17 19 15
29 -8 29 -11 0 -20 7 -20 15 0 8 9 15 20 15 17 0 20 7 20 50 0 38 -4 50 -15
50 -8 0 -15 7 -15 15 0 8 7 15 15 15 8 0 15 7 15 15 0 8 -7 15 -17 15 -15 0
-15 1 0 18 18 20 23 52 9 52 -18 0 -72 -32 -72 -42 0 -6 -10 -8 -24 -4 -13 3
-38 3 -56 -1 -30 -6 -32 -8 -27 -39 4 -25 2 -34 -8 -34 -9 0 -12 6 -8 16 5 13
2 15 -18 9 -13 -4 -31 -14 -40 -21 -9 -8 -23 -12 -31 -9 -9 4 -23 -1 -32 -11
-12 -11 -26 -14 -46 -11 -24 5 -36 -1 -75 -38 -35 -34 -45 -50 -40 -65 5 -15
2 -20 -12 -20 -10 0 -31 -7 -47 -15 -15 -8 -35 -15 -42 -15 -8 0 -14 -7 -14
-15 0 -8 -9 -15 -20 -15 -11 0 -20 7 -20 15 0 15 49 45 75 45 19 0 55 35 55
54 0 17 -50 9 -57 -10 -3 -8 -14 -14 -24 -14 -10 0 -36 -18 -56 -40 -40 -43
-69 -53 -61 -22 4 15 1 18 -19 14 -29 -5 -39 -20 -24 -35 20 -20 12 -27 -30
-27 -28 0 -38 4 -33 11 5 9 -1 10 -22 5 -33 -8 -56 -26 -33 -26 8 0 20 -9 27
-20 11 -17 10 -21 -5 -27 -9 -4 -19 -1 -21 5 -2 7 -13 12 -25 13 -12 0 -16 3
-9 6 23 9 12 20 -18 15 -16 -2 -30 -8 -30 -13 0 -5 -12 -9 -28 -9 -16 0 -32
-8 -39 -19 -15 -24 -6 -33 17 -19 14 9 22 7 39 -9 l22 -20 -59 -5 c-32 -3 -73
-13 -90 -22 -19 -10 -32 -12 -32 -6 0 6 7 13 15 16 8 4 15 13 15 21 0 10 -6
12 -22 7 -47 -14 -66 -23 -73 -33 -3 -6 -17 -11 -30 -11 -13 0 -27 -5 -31 -11
-4 -8 0 -9 15 -4 17 5 21 2 21 -14 0 -13 -7 -21 -17 -21 -10 0 -29 -3 -42 -7
-17 -4 -22 -3 -17 5 10 17 -33 15 -68 -3 -15 -8 -37 -15 -47 -15 -11 0 -19 -6
-19 -14 0 -9 -7 -12 -20 -9 -11 3 -20 1 -20 -4 0 -6 -26 -18 -57 -27 -90 -27
-91 -28 -63 -36 14 -5 50 -9 80 -10 49 -2 51 -3 23 -10 -18 -4 -45 -6 -60 -4
-99 14 -196 6 -150 -12 9 -3 24 -4 32 0 8 3 15 2 15 -3 0 -13 -58 -19 -70 -7
-7 7 -17 7 -31 -2 -11 -7 -29 -10 -39 -7 -13 4 -22 -1 -29 -14 -15 -27 -14
-31 9 -31 11 0 20 -4 20 -9 0 -17 -24 -19 -53 -4 -24 12 -32 12 -60 -2 -23
-11 -33 -22 -33 -37 1 -17 -7 -23 -31 -29 -18 -3 -33 -3 -33 2 0 5 6 9 14 9 7
0 19 7 26 15 11 13 8 15 -14 15 -14 0 -26 -4 -26 -8 0 -5 -19 -16 -43 -26 -23
-10 -57 -26 -76 -34 -19 -9 -50 -18 -70 -22 -21 -4 -35 -11 -33 -19 3 -15 -37
-50 -59 -51 -8 0 -20 5 -26 11 -8 8 -17 7 -34 -5 -13 -9 -31 -16 -41 -16 -10
0 -27 -9 -39 -21 -11 -11 -27 -18 -35 -15 -20 8 -59 -9 -86 -36 -20 -20 -23
-21 -26 -5 -2 9 -7 17 -12 17 -16 0 -21 -19 -9 -38 10 -16 20 -19 52 -14 28 3
38 2 33 -6 -4 -6 2 -17 14 -24 11 -7 20 -20 20 -28 -1 -12 -3 -11 -11 3 -12
21 -29 22 -29 3 0 -19 -73 -76 -96 -76 -14 0 -9 8 19 31 45 37 76 89 53 89 -7
0 -16 -7 -20 -15 -3 -8 -10 -15 -16 -15 -5 0 -10 7 -10 15 0 8 -6 15 -14 15
-8 0 -16 6 -19 13 -3 9 -9 9 -28 0 -13 -6 -39 -15 -57 -18 -18 -4 -36 -13 -39
-21 -3 -8 -11 -14 -19 -14 -8 0 -14 -4 -14 -8 0 -16 36 -42 57 -42 32 0 17
-40 -20 -52 l-30 -11 24 -13 c13 -7 32 -13 42 -14 10 0 29 -7 42 -16 29 -19
45 -11 45 22 0 15 6 24 16 24 11 0 14 -6 9 -22 -6 -17 -4 -20 9 -15 10 4 14 3
11 -2 -3 -5 -1 -12 4 -15 5 -3 12 6 16 21 4 19 2 31 -9 39 -23 16 -20 21 14
26 25 4 29 2 25 -13 -3 -9 -1 -20 5 -24 16 -10 12 -40 -9 -59 -15 -14 -24 -15
-40 -7 -13 7 -22 8 -26 1 -3 -5 7 -15 22 -22 15 -6 52 -22 82 -35 57 -25 76
-29 66 -14 -3 5 -1 12 4 15 5 4 13 -4 17 -16 4 -13 12 -26 18 -30 7 -5 -7 -23
-36 -49 -47 -40 -48 -42 -48 -100 0 -33 -2 -59 -5 -59 -4 0 -20 7 -37 16 -33
17 -43 12 -53 -27 -7 -30 1 -33 129 -45 42 -4 79 -11 82 -15 3 -5 -1 -9 -9 -9
-10 0 -16 -16 -20 -47 -4 -27 -9 -60 -13 -74 -7 -30 -4 -31 139 -44 64 -6 69
-5 74 14 7 29 23 27 23 -3 0 -20 6 -24 40 -30 51 -8 43 -26 -10 -26 -35 0 -40
-3 -46 -27 -3 -16 -10 -43 -15 -62 -5 -19 -7 -37 -4 -39 8 -8 171 -23 203 -18
40 6 87 -15 70 -32 -7 -7 -17 -12 -23 -12 -12 0 -38 -117 -29 -131 3 -5 29
-10 57 -10 29 -1 66 -4 82 -8 29 -7 29 -7 9 -19 -16 -8 -42 -9 -90 -3 -38 5
-72 6 -76 2 -4 -3 -10 -29 -14 -58 -8 -60 -12 -58 115 -68 48 -3 78 -1 87 6
11 9 15 7 20 -5 3 -9 13 -16 21 -16 11 0 7 -7 -11 -21 -23 -18 -31 -19 -78
-10 -29 6 -82 12 -118 14 l-64 2 -8 -54 c-5 -30 -6 -56 -4 -58 6 -6 215 -26
279 -26 31 -1 57 -1 57 -2 0 -1 -13 -11 -28 -22 -28 -20 -31 -20 -148 -6 -185
23 -177 24 -190 -17 -15 -44 -3 -60 42 -60 18 0 45 -5 60 -10 14 -6 52 -13 83
-15 48 -4 137 -23 150 -32 2 -1 -2 -9 -8 -17 -9 -11 -20 -12 -43 -5 -17 4 -34
7 -37 5 -3 -2 -47 4 -96 15 -155 32 -191 23 -183 -49 3 -24 8 -28 53 -33 28
-4 82 -12 120 -19 102 -17 138 -18 157 -1 16 13 18 12 18 -10 -1 -55 -10 -56
-201 -22 -21 4 -27 0 -32 -17 -3 -12 -10 -19 -15 -16 -6 3 -8 14 -5 25 4 15
-3 19 -53 25 -65 7 -75 2 -77 -45 -2 -31 0 -33 48 -45 63 -17 60 -17 81 3 16
16 16 16 10 -5 -7 -21 -5 -22 53 -22 33 0 63 -5 66 -10 3 -6 26 -10 51 -10 44
0 53 -10 36 -37 -6 -10 -23 -10 -78 2 -92 19 -130 20 -115 1 9 -11 5 -15 -24
-18 -33 -4 -37 -2 -42 23 -4 24 -12 29 -52 38 -32 7 -49 6 -56 -1 -7 -7 -6
-12 3 -15 11 -4 10 -8 -1 -22 -9 -9 -17 -25 -19 -36 -2 -17 5 -21 47 -28 28
-5 94 -17 148 -28 54 -10 109 -19 122 -19 31 0 33 -25 4 -41 -16 -8 -23 -8
-29 1 -4 6 -18 10 -31 8 -13 -1 -60 6 -104 16 -158 36 -159 36 -171 23 -6 -7
-14 -29 -17 -49 -5 -30 -2 -40 13 -48 25 -13 83 -13 75 0 -7 11 22 26 32 16 3
-3 0 -13 -8 -22 -13 -16 -12 -17 10 -11 14 3 29 0 38 -9 17 -17 56 -18 82 -2
10 6 26 8 37 4 18 -8 18 -8 0 -15 -19 -7 -19 -8 3 -14 36 -9 19 -32 -23 -31
-23 1 -36 -3 -36 -11 0 -7 -9 -15 -21 -18 -17 -5 -20 -2 -16 13 6 22 -12 31
-42 23 -12 -3 -21 -1 -21 6 0 6 -16 11 -36 11 -21 0 -33 -4 -29 -10 3 -6 1
-10 -5 -10 -6 0 -10 7 -8 17 2 11 -7 19 -26 24 -41 11 -44 7 -53 -83 -5 -47
-4 -48 23 -48 42 0 198 -31 208 -41 14 -13 82 65 111 127 13 28 31 57 40 64 8
7 15 20 15 30 0 10 7 23 15 30 8 7 15 19 15 27 0 7 6 24 14 36 15 22 55 136
62 172 2 11 10 47 18 80 15 63 29 187 28 243 -1 87 -2 92 -17 92 -10 0 -15 10
-15 30 0 22 4 28 15 24 9 -4 15 0 15 10 0 9 -8 16 -20 16 -11 0 -20 5 -20 10
0 6 7 10 15 10 21 0 19 23 -9 131 -31 118 -72 216 -135 322 -24 39 -13 51 17
17 60 -70 162 -302 162 -369 0 -15 4 -31 9 -36 5 -6 15 -58 22 -117 16 -135 1
-349 -31 -448 -12 -36 -31 -95 -43 -132 -12 -38 -25 -68 -29 -68 -5 0 -8 -6
-8 -12 0 -19 -57 -124 -104 -193 -65 -96 -171 -218 -244 -281 -37 -33 -76 -67
-87 -77 -43 -39 -197 -139 -271 -176 -128 -63 -406 -161 -459 -161 -14 0 -41
-6 -60 -14 -18 -8 -58 -17 -89 -21 -58 -8 -58 -8 -71 -73 -12 -57 -82 -77
-320 -93 -427 -28 -857 29 -1286 171 -85 28 -167 57 -184 64 -16 8 -58 26 -91
40 -72 30 -188 87 -296 145 -84 45 -95 62 -85 125 5 30 2 34 -36 55 -23 11
-53 29 -67 39 -14 9 -43 28 -63 40 -20 13 -37 28 -37 33 0 5 -5 9 -11 9 -6 0
-16 6 -24 13 -7 6 -53 44 -101 82 -49 39 -104 85 -122 102 -19 18 -39 33 -45
33 -7 0 -5 5 3 10 9 6 10 10 3 10 -15 0 -53 37 -76 73 -10 15 -24 27 -31 27
-7 0 -19 14 -26 30 -7 17 -18 30 -25 30 -7 0 -20 11 -29 25 -16 24 -250 261
-347 351 -24 22 -71 61 -104 85 -159 118 -300 216 -337 235 -22 11 -47 29 -55
40 -7 10 -18 20 -23 20 -6 1 -14 2 -19 3 -5 0 -16 7 -23 14 -8 6 -45 27 -83
46 -39 18 -87 42 -107 52 -193 101 -450 193 -645 230 -35 6 -63 16 -63 21 0 5
20 51 45 101 25 51 45 97 45 102 0 11 -51 -68 -82 -126 -24 -46 -34 -54 -51
-41 -7 6 -25 12 -42 14 -23 2 -32 10 -39 33 -13 40 -13 40 -31 25 -9 -7 -24
-10 -37 -6 -13 4 -52 12 -88 17 -130 19 -215 34 -225 40 -5 3 -28 7 -50 8 -22
1 -53 6 -70 10 -16 5 -82 15 -145 21 -63 7 -128 16 -145 20 -16 5 -50 11 -75
15 -49 7 -115 19 -225 40 -142 29 -255 46 -264 40 -5 -3 -17 -2 -26 1 -12 5
-14 14 -10 35 8 34 5 35 -35 10 -29 -17 -75 -18 -85 -1 -3 4 2 29 10 56 8 26
13 50 11 52 -2 2 -25 -22 -52 -52 -44 -52 -70 -66 -88 -49 -4 4 -23 6 -42 4
-30 -2 -34 0 -33 21 0 13 9 37 20 53 19 30 59 112 59 122 0 3 -8 2 -17 -1 -17
-7 -17 -6 0 11 15 15 19 16 26 4 7 -10 20 -12 52 -7 52 8 65 16 48 27 -11 7
-10 9 4 9 9 0 17 -6 17 -13 0 -16 63 -37 108 -37 17 0 32 -6 36 -15 7 -18 42
-20 49 -2 3 8 10 5 22 -10 18 -26 50 -30 58 -9 4 9 14 12 26 9 13 -3 21 -1 21
7 0 10 3 10 14 1 8 -7 20 -11 28 -10 24 3 38 -1 38 -11 0 -5 -9 -10 -19 -10
-26 0 -35 -16 -15 -24 27 -10 51 -7 64 9 7 9 21 13 31 10 13 -4 19 -1 19 9 0
20 9 20 32 -1 17 -15 17 -17 2 -35 -16 -17 -16 -18 7 -19 13 -1 41 -3 63 -5
23 -2 47 3 60 11 11 8 30 15 41 14 16 0 14 -3 -7 -11 -34 -12 -36 -26 -4 -34
30 -7 66 3 63 18 -1 7 14 12 36 13 40 2 46 -5 21 -29 -14 -15 -13 -16 8 -16
13 0 29 9 36 21 11 17 16 18 28 8 8 -7 13 -18 10 -24 -7 -20 55 6 84 35 20 20
29 23 48 15 27 -12 30 -29 3 -22 -11 2 -31 -5 -47 -19 -27 -22 -28 -23 -8 -24
12 0 25 7 28 16 4 10 13 13 26 9 20 -6 55 17 43 29 -3 3 2 8 11 12 10 4 22 2
28 -4 8 -8 7 -13 -5 -18 -9 -3 -14 -10 -11 -15 3 -5 9 -7 14 -4 16 10 70 13
70 4 0 -5 -4 -9 -10 -9 -5 0 -10 -7 -10 -15 0 -8 7 -15 15 -15 8 0 15 4 15 9
0 4 15 13 33 19 31 10 31 10 5 11 -15 1 -30 6 -33 11 -4 6 -14 10 -23 9 -25
-3 -52 11 -52 27 0 8 10 14 24 14 13 0 32 3 42 7 14 5 16 2 12 -15 -4 -12 -3
-22 0 -22 13 1 38 25 45 43 7 18 27 24 27 8 0 -5 3 -16 6 -25 4 -11 1 -16 -10
-16 -9 0 -16 -4 -16 -10 0 -5 4 -10 9 -10 6 0 13 5 16 10 9 15 25 12 25 -4 0
-23 37 -29 62 -12 12 9 34 16 48 16 14 0 32 6 39 13 11 10 13 9 7 -6 -3 -10
-6 -23 -6 -28 0 -5 -7 -9 -15 -9 -7 0 -18 -6 -22 -13 -12 -20 -43 -30 -36 -11
6 18 2 18 -32 0 -16 -8 -22 -17 -16 -21 16 -9 4 -24 -27 -36 -38 -15 -15 -25
73 -33 39 -4 82 -9 97 -12 17 -3 31 0 40 11 33 40 53 55 74 55 12 0 24 4 26 8
5 12 121 82 137 82 7 0 11 -6 8 -12 -2 -7 -11 -13 -20 -13 -24 0 -33 -15 -17
-25 12 -8 10 -10 -8 -10 -15 0 -29 -11 -42 -32 -23 -39 -80 -73 -110 -65 -14
3 -20 1 -17 -6 5 -16 94 -35 139 -29 24 3 42 12 52 27 8 13 30 25 49 29 23 4
38 14 45 32 15 32 15 35 -3 28 -23 -9 -18 20 7 36 35 24 68 62 62 71 -3 5 0 9
5 9 6 0 22 13 37 29 16 19 32 27 44 24 15 -4 21 2 28 28 7 29 13 34 37 34 20
0 29 -5 31 -18 3 -25 14 -35 14 -14 0 10 8 17 20 17 12 0 20 7 20 16 0 12 -6
15 -21 11 -16 -4 -18 -3 -8 9 6 8 20 14 31 14 10 0 32 7 47 15 72 37 115 20
86 -34 l-15 -31 31 7 c25 5 31 3 27 -8 -3 -9 -18 -13 -41 -12 -27 2 -36 -2
-40 -17 -3 -11 -12 -20 -21 -20 -21 0 -21 16 0 24 10 4 14 12 10 23 -4 9 1 24
10 35 20 22 10 37 -14 21 -10 -6 -16 -21 -14 -37 3 -26 -20 -37 -33 -16 -7 12
-25 4 -25 -11 0 -5 8 -9 17 -9 34 0 -5 -23 -42 -25 -41 -2 -75 -29 -59 -45 7
-7 19 -8 37 -1 19 8 28 7 34 -2 4 -7 19 -17 32 -23 20 -9 29 -7 48 9 12 11 20
24 16 30 -3 5 3 6 15 3 11 -4 23 -2 27 4 8 13 35 13 35 0 0 -6 -12 -16 -27
-23 -15 -6 -36 -20 -45 -29 -14 -14 -30 -17 -72 -13 -31 2 -64 9 -75 14 -27
15 -54 14 -49 -1 5 -15 -29 -35 -93 -54 -37 -11 -48 -20 -59 -50 -8 -20 -25
-44 -37 -54 -13 -10 -23 -23 -23 -30 0 -8 -9 -11 -24 -8 -27 5 -65 -18 -50
-31 11 -11 63 -16 313 -32 173 -12 185 -11 197 6 10 14 11 23 2 39 -6 11 -11
23 -10 26 0 3 -8 8 -18 12 -12 4 -20 2 -24 -8 -3 -8 1 -14 10 -14 8 0 12 -5 9
-10 -4 -6 -10 -8 -15 -5 -5 3 -15 0 -22 -7 -29 -27 -60 -40 -70 -30 -7 7 -3
14 10 21 14 7 18 17 15 31 -4 15 0 20 16 20 11 0 21 4 21 10 0 5 12 20 27 34
20 19 33 23 55 19 21 -4 28 -2 28 11 0 9 -7 16 -15 16 -8 0 -15 5 -15 10 0 15
12 12 40 -10 22 -17 23 -19 7 -25 -9 -4 -17 -13 -17 -21 0 -16 16 -19 25 -4 8
13 45 13 45 0 0 -15 -36 -30 -71 -30 -31 0 -31 -1 -15 -19 13 -14 14 -21 6
-26 -9 -6 -9 -10 1 -16 15 -9 52 18 44 32 -3 4 -1 10 5 14 5 3 10 1 10 -5 0
-8 9 -10 25 -6 18 5 25 2 25 -9 0 -8 7 -15 16 -15 14 0 14 -3 4 -15 -11 -13
-9 -15 13 -15 14 0 28 7 31 15 3 9 13 15 22 13 17 -3 29 28 14 37 -4 3 -6 14
-3 25 6 21 47 28 58 10 8 -13 25 -13 25 0 0 6 -7 10 -16 10 -11 0 -14 5 -10
16 5 13 2 15 -16 10 -13 -3 -29 -6 -35 -6 -7 0 -13 -7 -13 -15 0 -8 -7 -15
-15 -15 -10 0 -15 7 -13 17 2 12 -4 18 -20 19 -31 2 -38 11 -13 19 22 7 27 20
12 29 -4 3 -20 -8 -35 -24 -27 -31 -50 -38 -61 -19 -4 5 7 15 24 22 17 6 31
17 31 23 0 18 29 25 51 13 25 -13 56 -3 62 19 4 16 5 16 6 0 0 -10 8 -18 16
-18 8 0 15 -4 15 -10 0 -5 11 -10 24 -10 39 0 54 -10 49 -31 -6 -23 -23 -26
-23 -3 0 8 -4 12 -10 9 -12 -8 10 -45 27 -45 21 0 15 -17 -7 -23 -14 -4 -18
-10 -14 -22 6 -14 3 -16 -12 -11 -10 3 -26 1 -34 -4 -12 -8 -9 -10 13 -10 38
0 34 -20 -5 -21 -18 -1 -36 -1 -40 0 -5 0 -8 -4 -8 -9 0 -16 73 -11 99 6 17
12 26 13 34 5 17 -17 27 -13 27 9 0 11 5 20 10 20 6 0 10 -4 10 -10 0 -18 29
-10 41 11 10 20 9 21 -15 17 -14 -3 -26 -2 -26 2 0 10 32 36 53 43 9 4 17 11
17 18 0 6 -7 8 -16 5 -9 -3 -20 -6 -26 -6 -5 0 -23 -14 -39 -32 -21 -22 -33
-28 -40 -21 -8 8 -4 18 11 33 15 15 19 25 11 29 -7 4 6 17 31 31 30 17 38 25
26 28 -9 2 -26 -2 -37 -8 -12 -6 -21 -7 -21 -1 0 5 7 11 15 15 9 3 15 18 15
36 0 17 5 30 13 31 6 0 27 2 45 5 24 3 32 0 30 -8 -3 -7 -17 -14 -31 -16 -33
-4 -35 -20 -3 -32 18 -7 22 -14 19 -34 -6 -31 16 -36 24 -6 3 12 14 20 27 20
19 -1 19 -2 4 -11 -26 -14 -24 -42 2 -34 23 7 24 6 10 -29 -10 -27 -35 -35
-42 -14 -2 6 -10 8 -16 4 -18 -11 -14 -27 5 -24 29 5 27 -29 -1 -36 -37 -9
-32 -28 7 -24 19 2 32 9 32 17 0 17 31 38 42 27 4 -4 -1 -14 -11 -22 -26 -19
-11 -18 92 1 44 9 84 15 89 14 21 -4 33 2 33 15 0 8 -10 16 -22 19 -23 4 -23
4 2 14 21 9 25 8 28 -8 2 -11 11 -19 21 -19 24 0 81 20 81 29 0 3 15 12 33 20
17 8 35 19 40 25 9 14 27 -12 20 -31 -6 -15 32 -19 42 -3 3 6 -1 10 -9 10 -20
0 -20 14 0 34 20 20 28 20 20 1 -7 -19 21 -32 36 -17 6 6 16 8 23 6 7 -3 16
-1 20 5 10 18 38 13 31 -5 -5 -14 -1 -15 31 -9 21 3 42 11 48 16 5 5 22 9 38
9 16 0 41 6 55 14 15 8 47 19 72 26 112 29 150 44 147 59 -1 7 4 16 12 19 10
3 12 0 8 -12 -7 -18 12 -22 41 -7 9 5 64 26 122 46 58 20 110 42 115 49 6 7
19 15 29 19 15 6 17 10 8 19 -17 17 -15 38 4 38 11 0 15 -6 11 -20 -9 -34 16
-42 64 -22 24 11 70 27 101 36 31 9 60 21 63 26 3 6 16 10 28 10 12 0 34 6 49
14 14 8 46 17 70 21 24 4 49 12 56 18 7 5 29 11 50 13 21 2 43 11 50 21 10 14
15 15 21 5 6 -10 18 -10 59 0 29 6 47 15 41 18 -14 10 35 22 55 14 8 -3 20 -2
27 2 6 4 40 8 75 10 35 1 78 9 95 18 17 9 35 14 39 11 4 -3 48 0 96 6 49 5
122 12 162 14 64 3 75 6 93 29 21 26 62 35 74 16 3 -5 -3 -10 -14 -10 -12 0
-21 -4 -21 -10 0 -5 -7 -10 -15 -10 -8 0 -15 -5 -15 -10 0 -7 6 -7 18 -1 9 5
29 7 43 4 15 -3 41 3 59 12 17 9 34 14 38 11 3 -3 0 -6 -7 -6 -7 0 -9 -4 -6
-10 3 -5 13 -10 21 -10 17 0 53 38 54 56 0 6 18 14 41 17 22 3 46 12 52 21 8
10 17 13 25 7 10 -6 5 -13 -20 -28 -18 -10 -41 -22 -50 -26 -20 -7 -24 -32 -8
-42 6 -3 10 -2 10 4 0 10 61 34 76 29 16 -4 54 22 54 37 0 8 5 15 10 15 13 0
13 -17 0 -25 -6 -4 -9 -14 -8 -23 2 -12 -5 -18 -22 -20 -34 -5 -48 -20 -26
-28 9 -4 37 4 64 16 26 13 55 27 64 32 10 4 24 8 32 8 8 0 57 18 107 40 51 22
98 40 105 40 8 0 40 14 72 30 33 17 67 30 76 30 10 0 36 11 59 23 23 13 56 27
72 31 17 4 41 15 55 24 14 9 31 17 37 18 7 1 24 12 39 23 23 18 24 21 8 21
-18 1 -18 1 1 12 11 6 25 18 31 26 8 11 15 12 30 4 17 -10 17 -11 -9 -17 -26
-7 -33 -16 -21 -28 11 -10 65 15 60 28 -3 8 6 21 20 30 14 9 22 20 19 25 -4 6
3 10 15 10 18 0 21 5 17 28 -2 15 -2 22 0 15 2 -6 11 -13 19 -15 13 -2 11 -7
-5 -25 -12 -12 -21 -29 -21 -38 0 -8 -7 -15 -15 -15 -8 0 -15 -4 -15 -10 0
-16 18 -11 46 13 14 12 38 23 54 24 16 2 61 18 102 36 40 19 98 44 128 57 30
13 62 30 71 37 8 7 26 13 40 13 32 1 97 41 92 57 -3 7 2 16 11 19 9 3 16 13
16 21 0 17 39 52 58 53 7 0 20 9 29 20 10 11 21 20 25 20 5 0 8 -9 8 -20 0
-14 -7 -20 -23 -20 -26 0 -74 -36 -69 -52 2 -6 -5 -19 -14 -29 -15 -17 -15
-19 -1 -19 19 0 47 26 47 45 0 7 9 15 21 18 19 5 20 4 5 -12 -14 -16 -15 -20
-2 -30 12 -10 17 -8 26 9 9 17 18 21 38 17 19 -4 34 1 52 17 14 13 55 36 92
52 55 23 67 32 62 46 -3 10 0 18 7 18 9 0 9 4 -1 15 -10 12 -7 17 14 26 14 7
26 17 26 22 0 5 -6 5 -13 -2 -8 -6 -17 -8 -20 -4 -13 13 -7 31 13 36 13 3 18
10 14 21 -4 11 -1 16 11 16 11 0 15 -6 10 -19 -3 -10 -1 -31 5 -46 10 -26 12
-26 28 -12 11 10 27 14 40 10 29 -7 28 -23 0 -23 -13 0 -32 -7 -42 -15 -11 -8
-28 -13 -38 -9 -13 4 -18 0 -18 -15 0 -27 19 -26 72 1 62 33 106 47 128 41 11
-3 20 -1 20 3 0 5 14 15 31 23 38 16 30 26 -19 23 -36 -3 -37 -2 -15 13 15 11
39 15 70 13 34 -2 47 1 45 10 -1 7 9 12 29 12 36 0 72 17 64 31 -4 5 -21 9
-39 9 -40 0 -69 26 -41 36 9 4 20 2 24 -4 4 -6 21 -7 48 -2 24 4 54 6 68 5 28
-4 45 18 38 46 -3 11 0 19 6 19 18 0 13 -61 -6 -76 -16 -12 -16 -13 -2 -14 9
0 22 7 29 15 7 8 18 15 26 15 26 0 82 33 77 45 -2 7 1 16 8 21 8 4 10 3 5 -4
-5 -8 2 -12 19 -12 14 0 28 7 31 15 4 9 11 14 18 13 30 -5 118 26 276 100 30
14 61 27 68 28 8 1 21 6 30 9 15 6 15 8 -3 16 -16 8 -15 8 7 4 21 -4 31 0 40
15 14 21 34 27 40 10 5 -16 82 16 93 38 7 16 15 20 33 15 16 -4 48 5 96 27 39
18 103 47 141 65 39 18 81 36 93 40 13 4 43 20 66 35 23 16 51 28 62 28 10 -1
31 2 47 5 25 7 27 11 27 57 l0 50 -72 0 c-39 0 -87 -5 -105 -12 -26 -9 -36
-10 -41 -1 -5 8 -13 9 -22 3 -20 -13 -33 -12 -25 0 4 6 -6 10 -24 10 -16 0
-31 -6 -34 -12 -3 -10 -7 -10 -19 0 -11 9 -44 12 -109 10 -81 -3 -94 -5 -91
-20 2 -12 -3 -15 -18 -11 -16 4 -18 8 -9 19 9 11 7 14 -10 14 -13 0 -21 -6
-21 -17 -1 -17 -2 -17 -15 1 -13 17 -25 18 -134 14 -75 -3 -126 -10 -135 -17
-8 -7 -23 -11 -33 -8 -15 3 -14 6 7 15 l25 11 -31 0 c-20 1 -36 -6 -45 -18
-10 -15 -21 -18 -42 -14 -21 4 -25 8 -17 18 9 11 -11 13 -105 13 -94 0 -114
-3 -105 -13 9 -10 4 -15 -20 -20 -36 -8 -90 2 -90 17 0 6 9 8 20 5 11 -3 23
-1 26 4 7 12 -93 11 -117 -1 -13 -7 -19 -7 -19 0 0 6 -67 10 -194 10 -163 0
-195 -2 -200 -15 -3 -8 -10 -15 -16 -15 -5 0 -10 7 -10 15 0 11 -12 15 -50 15
-32 0 -50 -4 -50 -12 0 -9 -3 -9 -12 0 -15 15 -364 17 -373 2 -3 -5 -13 -10
-21 -10 -8 0 -12 5 -9 10 4 6 -17 10 -57 10 -52 0 -65 -3 -76 -20 -7 -11 -20
-20 -30 -20 -14 1 -13 4 8 21 l24 20 -39 -3 c-36 -3 -64 -28 -31 -28 9 0 16
-4 16 -9 0 -5 -9 -7 -19 -4 -10 3 -30 -1 -42 -8 -20 -10 -22 -10 -13 2 6 8 11
22 11 32 0 14 -10 17 -59 17 -32 0 -58 -4 -58 -10 0 -5 -13 -10 -30 -10 -16 0
-30 4 -30 10 0 15 -91 10 -97 -6 -3 -8 -10 -14 -15 -14 -6 0 -8 7 -4 15 4 13
-20 15 -182 14 -103 -1 -192 -6 -199 -11 -7 -6 -14 -5 -18 2 -10 16 -105 13
-105 -4 0 -16 -80 -39 -104 -30 -22 8 -42 -6 -25 -17 8 -5 9 -9 3 -9 -6 0 -23
11 -37 24 l-25 23 51 1 c29 0 63 5 77 11 18 7 -20 10 -143 10 -110 1 -166 -2
-162 -9 8 -13 -28 -13 -40 -1 -6 6 -29 7 -51 4 -34 -4 -41 -9 -37 -24 4 -14
11 -17 29 -13 35 9 30 -12 -6 -25 -16 -5 -30 -15 -30 -20 0 -6 -7 -11 -15 -11
-8 0 -15 5 -15 10 0 6 7 10 15 10 8 0 15 5 15 10 0 6 -9 10 -20 10 -21 0 -27
15 -10 25 6 3 10 13 10 21 0 21 -212 21 -230 -1 -7 -8 -19 -15 -26 -15 -8 0
-14 7 -14 15 0 12 -16 15 -82 14 -60 0 -77 -3 -60 -9 25 -11 29 -25 7 -34 -24
-9 -47 5 -42 25 4 16 -1 19 -33 19 -24 0 -40 -5 -44 -15 -3 -9 -19 -15 -41
-15 -24 0 -35 4 -35 15 0 22 -21 18 -27 -5 -6 -21 -36 -35 -54 -25 -6 4 -9 0
-7 -11 2 -14 -4 -18 -34 -19 -21 -1 -38 3 -38 8 0 5 -9 7 -20 4 -11 -3 -23 -1
-26 4 -9 16 -24 10 -24 -10 0 -14 5 -18 19 -14 10 3 22 0 25 -6 9 -14 -46 -15
-60 -1 -14 14 -44 2 -44 -16 0 -8 -5 -14 -10 -14 -6 0 -8 11 -4 28 9 37 23 50
34 32 8 -13 11 -12 23 4 11 15 22 18 56 13 32 -4 44 -2 48 9 3 8 15 14 27 13
41 -3 66 1 66 11 0 6 -45 10 -117 9 -65 -1 -112 -4 -105 -6 6 -3 12 -9 12 -14
0 -14 -30 -11 -46 6 -9 8 -29 15 -45 15 -25 0 -28 -3 -20 -17 5 -10 19 -24 30
-32 23 -17 19 -31 -9 -31 -10 0 -20 -7 -24 -15 -3 -8 -13 -15 -21 -15 -14 0
-13 4 4 26 26 33 28 53 3 31 -23 -21 -42 -22 -42 -2 0 8 4 15 9 15 5 0 11 9
14 20 5 18 1 19 -57 16 -33 -2 -73 -7 -88 -11 -16 -4 -28 -3 -28 2 0 5 -41 9
-91 10 -49 0 -85 -3 -79 -7 9 -6 9 -9 0 -15 -6 -4 -19 0 -29 9 -19 18 -41 21
-41 7 0 -6 5 -13 10 -16 8 -5 8 -11 0 -20 -15 -18 6 -31 24 -16 11 9 14 6 14
-14 0 -30 -17 -32 -41 -4 -23 26 -40 20 -52 -19 -12 -42 -39 -44 -30 -2 7 31
7 32 -49 34 -11 1 -21 7 -24 15 -3 9 5 11 32 7 19 -3 39 -7 43 -8 15 -4 53 23
53 37 0 12 -20 15 -110 15 -60 0 -110 -4 -110 -9 0 -5 -15 -12 -32 -16 -18 -4
-38 -9 -45 -10 -18 -5 -3 23 15 28 10 3 -12 5 -47 6 -54 1 -62 -1 -52 -13 10
-12 8 -17 -7 -25 -15 -8 -18 -6 -18 12 1 17 -6 23 -28 25 -27 3 -29 2 -23 -28
l7 -31 -25 27 c-19 20 -36 27 -72 30 -27 1 -38 1 -25 -2 25 -6 29 -22 8 -30
-16 -6 -59 13 -52 24 2 4 -36 8 -85 9 -53 2 -89 -1 -89 -7 0 -6 -7 -10 -16
-10 -8 0 -12 4 -9 10 3 6 -25 9 -72 9 -48 0 -81 -5 -85 -12 -6 -9 -8 -9 -8 1
0 15 -26 16 -36 0 -4 -6 1 -17 10 -23 15 -12 15 -13 0 -19 -25 -9 -34 2 -24
29 9 24 8 25 -31 25 -24 0 -38 -4 -34 -10 4 -6 -7 -10 -27 -9 -27 0 -30 2 -13
9 13 6 15 9 5 9 -8 0 -24 -6 -34 -14 -26 -19 -42 -19 -26 0 10 13 9 15 -9 15
-11 0 -20 -6 -18 -12 1 -7 -9 -14 -23 -16 -21 -3 -22 -2 -11 12 12 15 -7 16
-213 16 -141 0 -225 -4 -221 -9 6 -11 -33 -36 -42 -27 -3 3 0 12 7 21 10 12
10 15 -3 15 -9 0 -29 -16 -44 -35 -27 -34 -53 -46 -53 -25 0 6 4 10 9 10 12 0
41 29 41 41 0 15 -104 11 -126 -5 -10 -8 -16 -18 -12 -21 4 -4 3 -16 -2 -25
-8 -15 -3 -21 30 -34 22 -9 40 -17 40 -19 0 -2 -25 -3 -55 -3 -49 1 -55 3 -55
22 0 12 -6 24 -14 27 -9 4 -12 0 -9 -13 5 -17 0 -18 -53 -13 -53 6 -58 5 -46
-9 9 -12 10 -18 2 -23 -14 -9 -16 -7 -24 28 -5 22 -3 27 11 27 10 0 30 6 44
14 15 7 43 12 63 11 20 -2 36 0 36 5 0 5 3 15 6 24 10 26 -72 22 -88 -4 -7
-11 -18 -20 -25 -20 -16 0 -17 12 -1 28 9 9 6 12 -16 12 -16 0 -35 -8 -42 -17
-13 -17 -15 -17 -28 0 -19 25 -57 22 -64 -5 -5 -20 -6 -21 -12 -3 -9 27 -90
33 -90 7 -1 -16 -1 -16 -14 1 -10 12 -28 17 -67 17 -53 0 -55 -1 -54 -26 0
-23 -10 -32 -71 -63 -40 -21 -87 -54 -107 -74 -36 -39 -57 -46 -76 -24 -14 18
6 35 97 83 l24 12 -22 7 c-16 5 -20 12 -16 28 3 12 6 25 6 30 0 4 9 7 19 7 11
0 23 5 26 10 4 6 -33 10 -103 10 -95 0 -111 -2 -118 -17 -4 -10 -6 -24 -5 -31
1 -6 -9 -16 -22 -21 -14 -6 -27 -16 -30 -23 -2 -7 -8 -10 -12 -6 -4 4 -2 14 4
22 7 8 10 20 6 27 -5 8 -1 9 14 4 18 -5 21 -2 21 19 l0 26 -110 -1 c-60 0
-110 -4 -110 -8 0 -16 14 -20 27 -9 17 13 31 2 16 -13 -6 -6 -30 -10 -52 -7
-33 3 -42 0 -47 -14 -3 -10 -9 -18 -14 -18 -5 0 -15 -3 -24 -6 -10 -4 -16 -1
-16 10 0 10 6 13 15 10 8 -4 15 -2 15 3 0 5 9 19 20 31 l21 22 -183 -1 c-101
0 -201 -4 -223 -8 -22 -5 -34 -9 -27 -10 6 0 12 -6 12 -12 0 -6 -8 -8 -19 -4
-11 3 -22 2 -25 -3 -7 -12 -66 -13 -66 -1 0 5 14 12 30 16 69 13 19 20 -165
21 -172 1 -193 0 -188 -14 7 -20 -13 -34 -51 -34 l-30 0 34 25 34 25 -102 0
c-77 0 -102 -3 -102 -13 0 -25 -25 -48 -44 -41 -16 6 -15 9 11 30 l28 23 -66
1 c-36 0 -69 -3 -73 -7 -11 -11 -66 -12 -66 -2 0 5 -18 9 -40 9 -30 0 -38 -3
-34 -14 4 -11 -4 -15 -34 -14 -27 0 -39 4 -36 12 3 8 -16 12 -61 14 -55 1 -66
-1 -75 -18z m2547 -158 c-21 -23 -22 -36 -2 -28 8 3 15 1 15 -4 0 -6 15 -10
34 -10 19 0 38 -5 41 -11 9 -14 -4 -27 -13 -13 -10 14 -64 16 -73 3 -4 -8 -13
-7 -28 2 -18 12 -26 11 -56 -5 -20 -11 -35 -27 -35 -38 0 -10 -2 -18 -4 -18
-2 0 -12 -3 -20 -6 -12 -5 -15 -2 -10 10 3 9 1 16 -5 16 -5 0 -13 -22 -17 -50
-6 -46 -18 -64 -26 -40 -2 6 -11 1 -20 -10 -17 -19 -17 -20 2 -20 11 0 20 -4
20 -10 0 -10 -14 -14 -38 -11 -8 1 -20 -3 -28 -10 -11 -9 -14 -8 -14 3 0 8 5
19 12 26 15 15 21 52 8 53 -26 4 -62 20 -78 36 -11 11 -12 17 -2 29 11 13 15
12 32 -6 10 -11 16 -25 12 -32 -5 -8 -2 -9 10 -5 10 4 23 7 28 7 6 0 8 3 5 7
-9 8 32 53 49 53 6 0 17 7 24 15 11 13 9 15 -13 15 -14 0 -28 -7 -31 -16 -5
-14 -9 -14 -22 -3 -14 11 -18 11 -29 -4 -15 -21 -22 -21 -42 -2 -20 21 -12 27
37 29 22 0 40 4 40 9 0 5 8 6 18 3 11 -4 28 2 42 14 l23 20 22 -20 c21 -20 47
-22 74 -6 11 7 11 10 0 17 -7 4 -10 11 -6 15 3 4 13 2 20 -4 10 -9 18 -8 33 3
26 20 30 19 11 -3z m-509 -95 c-4 -29 -33 -29 -32 -1 0 19 -2 20 -18 11 -17
-11 -22 -26 -19 -54 1 -6 -3 -14 -9 -18 -5 -3 -10 -10 -10 -16 0 -16 29 -10
51 12 25 25 32 20 23 -15 -4 -19 -11 -25 -23 -22 -9 3 -23 -5 -34 -19 -11 -16
-14 -25 -6 -25 6 0 18 8 25 17 17 24 23 15 17 -23 -4 -26 -11 -33 -35 -38 -18
-3 -37 -1 -45 6 -9 7 -17 8 -24 1 -6 -6 4 -14 30 -22 35 -10 43 -9 61 6 12 10
31 37 42 61 11 23 24 42 29 42 12 0 11 -2 -5 -36 -8 -16 -17 -39 -20 -51 -6
-18 -4 -20 14 -16 11 3 20 14 20 24 0 13 7 19 23 20 12 0 43 2 70 4 52 3 57
-3 27 -30 -16 -14 -23 -16 -32 -7 -7 7 -26 11 -42 11 -24 -1 -26 -3 -8 -6 13
-3 22 -12 22 -23 0 -22 -35 -46 -45 -30 -3 5 -11 10 -16 10 -6 0 -7 -5 -3 -11
3 -6 0 -16 -7 -21 -11 -7 -11 -11 -1 -15 6 -2 12 -10 12 -17 0 -9 9 -12 25 -8
14 2 32 -2 41 -9 13 -10 17 -10 25 2 7 10 9 8 7 -11 -3 -21 -7 -25 -33 -22
-16 2 -32 8 -35 13 -4 5 -20 5 -40 -1 -26 -7 -37 -6 -50 5 -15 13 -19 13 -38
-5 -23 -21 -30 -50 -12 -50 6 0 10 -4 10 -10 0 -5 -9 -10 -20 -10 -13 0 -20 7
-20 20 0 18 -3 19 -20 8 -13 -9 -18 -19 -14 -35 7 -25 -2 -28 -41 -13 -21 8
-24 13 -16 27 8 16 4 18 -26 19 -30 0 -33 -1 -19 -11 20 -15 21 -25 1 -25 -7
0 -18 7 -23 16 -6 11 -16 13 -35 9 -34 -9 -45 -25 -18 -25 20 0 29 -24 14 -33
-5 -2 -2 -2 5 -1 16 4 42 -6 42 -16 0 -4 -13 -13 -30 -20 -25 -10 -29 -17 -26
-43 3 -27 20 -44 49 -46 17 -2 5 17 -15 24 l-23 7 25 8 c17 5 19 8 8 9 -28 2
-21 30 9 37 18 5 30 2 38 -10 7 -9 19 -14 29 -10 18 7 21 -4 6 -26 -7 -10 -12
-11 -17 -4 -14 19 -40 23 -40 6 0 -10 4 -20 9 -23 5 -3 4 -17 -2 -33 -14 -37
-5 -47 27 -35 35 13 38 7 8 -21 -19 -17 -28 -20 -38 -12 -17 14 -83 5 -115
-16 -17 -11 -26 -12 -31 -4 -5 8 -19 7 -50 -4 -31 -10 -47 -12 -55 -4 -7 7 -4
10 10 10 11 0 29 7 40 15 10 8 27 15 37 15 10 0 17 8 17 20 0 11 4 20 10 20 5
0 7 -7 3 -16 -4 -12 -1 -15 13 -12 10 2 20 13 22 25 3 18 -1 20 -19 16 -18 -5
-21 -3 -16 10 5 12 1 17 -12 17 -28 0 -51 10 -51 22 0 6 -7 16 -14 22 -19 14
-34 72 -17 62 7 -4 18 -3 26 4 10 8 15 8 20 0 4 -7 -2 -14 -14 -17 -27 -7 -27
-23 -1 -23 11 0 20 7 20 15 0 8 7 15 15 15 22 0 18 14 -7 25 -12 6 -24 16 -26
23 -3 11 0 12 16 3 32 -17 59 -13 65 10 6 24 -17 37 -37 20 -11 -9 -15 -8 -20
5 -7 17 18 43 43 44 8 0 11 7 8 20 -3 13 0 20 9 20 8 0 14 -9 14 -20 0 -21 10
-24 48 -14 26 7 30 36 5 32 -12 -2 -18 3 -18 17 0 11 6 19 13 17 7 -1 15 5 18
13 4 10 13 13 25 10 11 -4 19 -2 19 4 0 6 -7 11 -16 11 -8 0 -12 5 -8 11 3 6
17 9 30 6 13 -2 24 0 24 4 0 5 6 9 13 9 8 0 22 9 32 20 10 11 26 20 37 20 20
0 24 16 6 23 -10 4 -10 7 0 15 17 12 6 38 -21 47 -21 7 -20 8 6 12 17 3 27 10
27 21 0 10 14 30 31 45 25 22 34 25 50 16 13 -6 19 -18 17 -32z m-308 -142
c-7 -8 -27 -17 -46 -21 -19 -3 -34 -8 -34 -9 0 -32 46 -48 56 -20 6 15 34 21
34 7 0 -4 -6 -14 -12 -20 -10 -10 -10 -15 2 -22 12 -7 8 -12 -17 -21 -18 -6
-33 -15 -33 -20 0 -5 -16 -9 -35 -9 -21 0 -35 -5 -36 -12 -1 -7 -2 -27 -2 -44
-1 -17 -10 -38 -20 -48 -9 -10 -15 -22 -12 -27 4 -5 3 -14 -1 -20 -15 -25 -22
16 -8 49 8 19 14 49 14 66 -1 30 -1 30 -16 11 -13 -17 -16 -18 -24 -5 -13 21
-7 35 16 36 31 1 74 15 74 25 0 5 -13 9 -30 9 -35 0 -40 15 -9 23 17 5 20 11
15 30 -5 21 -3 24 19 19 18 -3 25 0 25 10 0 11 7 14 24 11 13 -3 27 0 30 6 4
6 14 11 23 11 12 0 13 -3 3 -15z m750 -105 c0 -14 -47 -43 -59 -36 -5 3 -7 -2
-4 -12 3 -12 -4 -23 -21 -32 -14 -7 -26 -17 -26 -22 0 -11 7 -10 33 6 46 29
66 29 77 2 11 -29 19 -31 70 -16 l35 9 -25 -20 c-14 -12 -32 -35 -40 -52 -17
-34 -45 -55 -57 -43 -4 4 0 12 10 17 9 6 17 16 17 24 0 7 6 15 13 18 15 5 -37
57 -59 57 -27 0 -63 -30 -57 -48 6 -14 4 -15 -8 -6 -19 15 -79 6 -79 -12 0 -8
5 -14 11 -14 6 0 2 -8 -9 -17 -16 -13 -20 -25 -15 -46 8 -38 27 -29 34 16 8
48 12 52 64 53 55 2 74 13 51 30 -9 6 -13 15 -8 18 6 3 21 -3 33 -13 23 -19
23 -20 4 -27 -11 -4 -37 -21 -58 -38 -30 -24 -40 -27 -46 -17 -12 19 -31 4
-31 -23 0 -13 -7 -29 -15 -36 -18 -15 -10 -31 10 -23 8 3 15 1 15 -5 0 -5 -9
-12 -21 -15 -12 -3 -18 -10 -14 -16 3 -6 2 -11 -4 -11 -5 0 -11 5 -13 12 -2 6
-15 12 -28 13 -17 1 -26 9 -30 26 -5 18 -13 24 -39 25 -36 2 -57 16 -47 33 8
13 58 11 67 -3 11 -15 39 2 39 24 0 11 7 20 15 20 8 0 14 3 13 8 -5 24 17 63
38 68 23 6 23 7 7 19 -17 13 -17 14 2 21 11 4 26 14 34 22 24 24 61 45 68 38
3 -3 12 3 20 14 15 21 33 27 33 10z m-247 -37 c-3 -10 -10 -23 -15 -30 -5 -7
-7 -21 -3 -32 3 -10 2 -22 -3 -25 -6 -3 -13 -22 -17 -42 -5 -28 -13 -39 -36
-47 -16 -6 -29 -15 -29 -19 0 -14 -27 -8 -41 8 -11 14 -10 19 9 34 25 20 30
50 8 50 -7 0 -22 -17 -31 -37 -17 -35 -18 -36 -32 -17 -11 13 -17 15 -20 7 -3
-10 -8 -9 -20 3 -14 13 -14 17 2 34 22 24 35 26 35 5 0 -8 4 -15 9 -15 15 0
23 18 11 25 -14 9 6 45 25 45 8 0 15 -5 15 -10 0 -6 11 -15 24 -20 19 -7 23
-14 19 -32 -3 -13 -11 -29 -16 -36 -9 -11 -6 -13 13 -10 20 2 25 9 24 33 0 17
6 35 14 41 8 5 15 25 17 44 2 19 11 40 21 47 23 17 25 16 17 -4z m-1799 -94
c-19 -22 -19 -22 4 -15 24 8 29 -3 11 -21 -7 -7 -9 -19 -5 -29 5 -14 15 -16
64 -10 l57 6 -24 -20 c-26 -23 -51 -26 -69 -8 -6 6 -15 8 -19 4 -4 -4 -1 -11
7 -16 13 -8 11 -17 -12 -61 l-27 -51 33 6 c25 5 33 3 33 -8 0 -8 -3 -14 -6
-13 -7 1 -53 -23 -61 -32 -15 -18 -70 -50 -70 -41 0 6 7 13 15 16 18 7 20 34
2 34 -7 0 -23 -10 -36 -21 -17 -16 -26 -18 -34 -10 -8 8 -7 11 6 11 9 0 17 4
17 10 0 5 18 15 41 21 45 14 68 48 42 62 -12 8 -12 12 3 28 9 10 20 16 24 14
10 -6 7 22 -3 31 -4 4 -2 13 4 21 14 16 -3 18 -31 3 -12 -7 -38 -7 -67 -2 -45
7 -46 9 -26 20 17 9 28 9 47 1 21 -10 30 -9 53 7 l28 19 -27 3 c-30 4 -37 16
-13 26 8 3 15 11 15 19 0 20 22 39 34 27 6 -6 3 -17 -10 -31z m1549 -175 c3
-4 25 -8 48 -9 23 -2 45 -8 48 -13 3 -4 15 -12 25 -16 19 -6 19 -7 0 -21 -25
-19 -40 -19 -24 0 16 20 -7 20 -32 1 -22 -16 -23 -26 -3 -26 8 0 15 -4 15 -10
0 -5 -11 -10 -24 -10 -13 0 -26 -7 -30 -15 -6 -16 -56 -21 -56 -6 0 15 -32 22
-47 10 -10 -9 -17 -9 -25 -1 -17 17 -2 26 42 27 28 0 39 4 35 13 -2 6 3 12 13
12 11 0 17 9 18 25 2 25 -6 32 -20 18 -14 -15 -82 -32 -103 -27 -35 9 -28 27
7 19 22 -5 37 -1 56 14 27 21 46 26 57 15z m-294 -146 c20 -7 37 -13 39 -14 1
-1 0 -8 -4 -17 -3 -9 -19 -19 -35 -22 -16 -4 -29 -11 -29 -17 0 -6 -7 -7 -16
-4 -9 3 -34 1 -56 -5 -27 -7 -44 -7 -50 -1 -7 7 -22 5 -46 -5 -19 -8 -43 -12
-54 -10 -11 3 -22 -2 -28 -14 -6 -10 -21 -19 -34 -19 -13 0 -29 -7 -36 -15
-14 -17 -40 -20 -40 -5 0 6 -5 10 -11 10 -6 0 -9 -9 -6 -20 3 -13 -1 -21 -14
-25 -10 -4 -19 -11 -19 -16 0 -5 -11 -9 -24 -9 -13 0 -30 -10 -39 -22 -8 -13
-19 -19 -23 -15 -5 4 -2 12 6 17 8 6 11 10 6 10 -5 0 -3 6 4 14 6 8 17 13 24
10 7 -3 19 2 26 11 9 11 9 15 1 15 -8 0 -10 8 -6 20 8 26 -1 25 -37 -5 -32
-27 -43 -30 -53 -15 -3 6 6 15 20 20 27 10 30 38 4 31 -31 -8 -43 -5 -47 11
-5 27 34 43 62 25 19 -13 26 -13 47 -1 36 20 48 16 19 -6 -22 -17 -23 -19 -7
-26 19 -7 77 13 77 27 0 5 13 6 30 3 17 -4 46 0 71 10 28 11 45 13 53 7 8 -7
21 -3 41 15 20 17 31 21 36 12 4 -6 30 -12 58 -12 41 -1 51 2 51 15 0 10 -11
20 -25 23 -14 4 -23 11 -20 16 8 13 41 12 84 -2z m-546 -205 c4 -4 -5 -20 -20
-36 -26 -27 -26 -29 -7 -25 18 5 21 1 20 -18 -1 -18 -10 -27 -32 -34 -18 -6
-34 -19 -37 -30 -3 -11 -17 -22 -33 -25 -16 -3 -37 -10 -46 -16 -27 -14 -23
15 4 41 32 30 6 45 -35 20 -16 -10 -36 -16 -43 -13 -18 7 -8 23 15 23 10 0 21
9 24 20 3 11 17 22 33 26 16 4 41 15 56 25 14 11 35 19 46 19 11 0 22 7 26 15
6 16 18 19 29 8z m1622 -34 c-5 -14 -3 -19 7 -17 7 2 15 -1 16 -7 2 -5 -5 -11
-15 -13 -30 -5 -93 -34 -93 -44 0 -12 38 -10 45 2 4 6 15 8 25 5 13 -4 26 1
37 14 21 25 61 28 70 5 3 -8 -2 -23 -11 -32 -15 -15 -16 -15 -16 5 0 31 -14
36 -35 13 -10 -11 -28 -20 -41 -20 -13 0 -26 -5 -30 -11 -3 -6 -19 -9 -35 -5
-32 6 -48 -8 -23 -22 11 -6 15 -16 11 -27 -6 -14 -9 -14 -21 -3 -7 8 -17 24
-20 36 -13 38 -36 27 -31 -15 2 -21 4 -41 4 -45 1 -8 80 -23 105 -20 10 1 24
-2 31 -8 9 -7 21 -6 40 4 28 15 45 13 45 -3 0 -10 -34 -22 -70 -26 -14 -1 -47
-5 -75 -9 -29 -3 -44 -2 -37 3 28 17 6 41 -38 41 -24 -1 -24 -1 -6 -15 10 -7
15 -18 11 -24 -9 -16 -25 -13 -25 4 0 17 -16 20 -26 4 -3 -6 -15 -8 -26 -6
-14 4 -22 -1 -28 -19 -6 -16 -17 -24 -32 -24 -20 1 -21 2 -7 13 9 7 14 18 12
25 -3 7 4 12 14 12 11 0 28 8 39 18 11 10 26 16 34 14 9 -3 5 6 -9 22 -26 28
-24 48 2 21 21 -21 27 -19 27 9 0 16 -7 27 -20 31 -11 3 -20 11 -20 16 0 6 4
8 8 5 5 -3 20 1 34 8 18 10 29 11 36 4 17 -17 42 -1 39 24 -1 16 3 22 12 20
28 -6 61 8 61 27 0 19 8 31 22 31 5 0 6 -9 3 -21z m-860 -479 c-7 -23 -2 -25
26 -10 15 8 19 7 19 -4 0 -8 -6 -19 -14 -23 -18 -11 -46 -67 -46 -93 0 -32 25
-19 26 14 1 14 4 29 7 32 9 9 28 -6 21 -17 -7 -13 14 -39 32 -39 8 0 13 6 12
13 -4 16 82 23 92 7 4 -7 16 -10 26 -8 15 4 16 6 4 11 -8 4 -28 12 -45 19 -16
7 -43 12 -60 13 -36 0 -45 27 -19 56 21 23 49 26 40 4 -4 -11 2 -15 22 -15 32
0 47 -10 47 -30 0 -10 12 -16 32 -18 24 -2 37 3 54 22 13 14 30 26 38 26 19 0
-32 -51 -64 -64 -13 -5 -15 -10 -7 -13 17 -7 15 -23 -3 -23 -8 0 -15 -4 -15
-10 0 -5 -7 -10 -15 -10 -8 0 -15 -7 -15 -15 0 -9 9 -15 24 -15 32 0 42 -17
16 -25 -26 -8 -26 -25 0 -25 11 0 20 -4 20 -10 0 -5 -9 -10 -20 -10 -29 0 -35
3 -33 19 1 8 -6 20 -14 27 -9 6 -16 25 -16 43 0 37 -22 42 -31 6 -4 -15 -13
-25 -25 -25 -11 0 -21 -9 -24 -21 -5 -18 -11 -21 -38 -15 -17 3 -40 6 -50 6
-11 0 -19 5 -19 11 0 8 14 10 40 6 22 -3 40 -1 40 4 0 5 -7 9 -15 9 -8 0 -15
8 -15 17 0 13 -3 14 -12 5 -7 -7 -22 -12 -34 -12 -13 0 -30 -10 -38 -22 -9
-12 -16 -18 -16 -12 0 10 -113 -7 -150 -23 -8 -3 -35 -7 -59 -8 -34 -2 -50 -9
-67 -28 -32 -38 -84 -61 -84 -38 0 5 12 12 28 14 26 4 26 4 5 12 -23 7 -28 16
-16 28 3 4 12 2 20 -5 22 -18 51 15 33 36 -8 11 -9 16 -1 16 21 0 26 -2 24
-11 -4 -12 1 -11 31 2 24 11 41 37 31 47 -2 3 -11 -1 -20 -8 -23 -19 -31 -3
-10 20 10 11 13 20 7 20 -7 0 -12 4 -12 9 0 12 44 22 48 11 6 -16 35 -11 62
10 31 24 19 38 -18 20 -15 -8 -30 -15 -33 -16 -3 -2 -17 8 -32 21 -15 15 -29
21 -32 15 -4 -6 -11 -8 -16 -4 -13 8 20 33 44 34 9 0 17 7 17 15 0 8 9 15 20
15 13 0 20 -7 20 -20 0 -11 7 -20 15 -20 8 0 15 9 15 20 0 16 5 19 30 14 19
-4 30 -2 30 5 0 6 7 11 15 11 21 0 19 -11 -10 -44 -14 -16 -22 -32 -19 -35 4
-3 9 0 11 7 3 6 9 12 15 12 6 0 16 8 23 17 11 15 13 15 24 -5 12 -22 61 -32
61 -12 0 5 -10 9 -21 7 -31 -3 -35 21 -5 29 14 3 23 10 20 15 -7 11 4 29 17
29 6 0 7 -9 4 -20z m1065 -29 c0 -12 -7 -18 -17 -17 -10 0 -19 -7 -21 -18 -3
-13 0 -17 10 -13 8 3 21 1 29 -3 11 -7 10 -10 -4 -16 -9 -3 -23 -2 -30 4 -21
17 -84 12 -106 -10 -12 -10 -26 -16 -31 -13 -13 8 -13 2 2 -31 10 -22 17 -25
44 -21 21 4 37 1 44 -8 6 -8 18 -11 26 -8 8 3 14 1 14 -5 0 -15 -81 -22 -120
-10 -19 6 -41 13 -49 15 -11 3 -12 6 -3 15 7 7 12 21 12 31 0 16 -3 17 -15 7
-17 -14 -35 -5 -35 17 0 11 6 14 25 9 14 -4 25 -2 25 4 0 5 11 10 25 10 20 0
27 6 31 29 6 26 8 28 25 18 16 -10 22 -9 30 3 9 13 10 13 6 -2 -3 -9 1 -19 9
-22 23 -9 24 -8 21 16 -1 15 5 24 23 29 14 4 26 7 28 8 1 1 2 -7 2 -18z
m-2880 -1161 c0 -13 -77 -90 -90 -90 -16 0 -12 22 8 36 14 11 15 13 1 14 -8 0
-24 -6 -35 -14 -15 -12 -16 -17 -7 -27 10 -10 9 -16 -4 -31 -16 -18 -14 -18
35 -17 47 2 52 4 52 26 0 31 14 29 29 -4 l13 -28 15 23 c9 12 22 22 30 22 14
0 14 -3 1 -22 -16 -24 -101 -48 -155 -43 -18 2 -31 -1 -30 -7 1 -5 -8 -17 -20
-25 -15 -10 -23 -11 -23 -4 0 6 6 11 13 11 8 0 12 16 13 45 1 44 0 45 -30 46
l-31 0 25 11 25 11 -23 6 -23 6 21 23 c11 12 28 22 38 22 16 -1 16 -2 0 -14
-10 -7 -18 -16 -18 -20 0 -12 36 -6 60 11 13 9 34 17 47 18 12 0 28 6 35 13
15 15 28 16 28 2z m-71 -343 c1 -4 -14 -15 -31 -23 -63 -30 -78 -39 -78 -46 0
-12 17 -9 32 5 20 20 98 29 98 11 0 -9 -11 -14 -34 -14 -20 0 -36 -6 -39 -14
-4 -10 -24 -13 -79 -12 -40 2 -78 -1 -84 -6 -7 -5 -35 -15 -63 -22 -43 -11
-51 -11 -51 0 0 8 -4 14 -10 14 -5 0 -10 -7 -10 -16 0 -11 -6 -14 -22 -9 -31
10 -46 25 -25 25 10 0 26 6 37 13 17 10 22 9 29 -2 7 -11 14 -11 42 2 61 28
119 40 135 26 8 -6 15 -9 15 -5 1 3 2 9 4 14 1 4 5 24 9 45 5 20 13 37 18 37
5 0 7 -13 3 -29 -3 -17 -2 -32 4 -36 6 -3 11 1 11 10 0 9 8 19 18 21 9 3 26
16 37 28 17 20 21 21 27 7 4 -9 7 -20 7 -24z m3146 -114 c-11 -7 -31 -13 -46
-13 -15 0 -29 -6 -32 -14 -3 -7 -21 -16 -40 -20 -19 -4 -46 -15 -60 -26 -13
-11 -45 -25 -70 -31 -30 -9 -43 -17 -40 -26 3 -9 -3 -13 -20 -13 -13 0 -30 -7
-38 -16 -8 -10 -21 -13 -36 -9 -16 4 -28 -1 -40 -14 -9 -11 -21 -18 -25 -15
-12 8 -118 -44 -142 -68 -11 -12 -26 -18 -37 -15 -20 5 -74 -17 -85 -34 -9
-16 17 -40 37 -34 9 3 20 2 23 -4 8 -12 -20 -22 -39 -15 -8 4 -22 4 -30 0 -18
-6 -9 -36 11 -36 16 0 18 -28 4 -50 -8 -13 -10 -12 -10 3 0 11 -8 17 -25 17
-27 0 -32 9 -13 28 12 12 10 13 -14 16 -25 2 -18 26 11 33 17 4 31 11 31 16 0
4 0 15 0 25 0 9 -12 22 -26 29 -25 12 -25 12 -10 -12 18 -27 7 -40 -23 -30
-11 3 -22 1 -26 -5 -4 -6 -12 -7 -24 -1 -13 7 -22 5 -34 -10 -22 -26 -21 -32
4 -24 16 6 20 3 17 -11 -5 -27 -24 -28 -47 -2 l-22 23 -6 -23 c-7 -28 -53 -30
-70 -3 -13 21 -72 34 -90 19 -9 -7 -18 -6 -28 2 -12 10 -21 10 -41 1 -14 -6
-30 -8 -36 -5 -6 4 -14 0 -19 -7 -10 -17 -15 -12 -24 29 -8 36 8 44 25 12 13
-23 40 -27 40 -5 0 17 25 20 35 5 3 -5 11 -10 17 -10 7 0 7 4 0 13 -7 8 -7 18
-2 27 5 8 7 23 4 33 -6 20 30 67 52 67 20 0 28 21 13 31 -10 6 -7 9 12 9 15 0
32 7 39 15 7 8 17 12 22 9 6 -4 6 -10 -1 -17 -16 -16 -14 -24 9 -30 11 -3 25
-18 31 -34 12 -28 12 -28 31 35 18 57 22 62 48 62 16 0 35 7 43 15 12 11 16
12 20 2 3 -9 12 -8 35 6 37 21 52 22 52 2 0 -25 29 -5 32 23 2 21 8 27 28 27
14 0 28 5 32 10 5 6 8 4 8 -4 0 -10 7 -8 24 8 15 14 26 19 31 12 8 -14 -3 -31
-21 -31 -19 0 -18 -16 2 -24 12 -5 15 -14 11 -36 -4 -16 -2 -32 4 -36 6 -3 8
-18 4 -33 l-6 -26 26 28 c14 15 34 27 43 27 20 0 64 29 45 30 -6 0 -15 -4 -18
-10 -3 -5 -17 -10 -30 -10 -16 0 -25 7 -29 26 -9 34 -3 39 40 35 40 -3 47 16
7 21 -26 3 -26 4 -9 21 22 22 31 22 55 -4 17 -19 23 -20 77 -10 32 6 59 11 61
11 2 0 3 -7 3 -15 0 -17 22 -20 48 -5 36 20 148 61 185 67 20 3 40 10 43 14 3
5 10 6 16 3 7 -5 4 -12 -7 -21z m-1140 -393 c14 -5 23 -15 20 -20 -5 -7 -11
-8 -19 -1 -15 12 -41 -3 -32 -18 4 -6 20 -11 36 -11 16 0 32 -5 35 -10 4 -6
11 -8 16 -5 5 3 6 0 3 -8 -8 -21 14 -31 32 -16 13 10 14 8 10 -16 -3 -15 -8
-30 -11 -33 -3 -3 9 -21 27 -39 27 -28 30 -35 18 -43 -23 -15 -32 -7 -48 43
-13 42 -32 64 -32 37 0 -5 -5 -10 -10 -10 -7 0 -7 6 0 20 9 17 7 22 -15 32
-25 11 -30 9 -76 -41 -55 -59 -77 -63 -34 -6 31 40 27 55 -10 35 -20 -10 -28
-11 -37 -2 -12 12 -1 17 30 13 6 -1 12 5 12 13 0 8 8 17 18 19 13 4 12 5 -5 6
-32 2 -37 18 -11 32 13 7 27 18 31 25 10 17 17 17 52 4z m2638 -642 c12 -7 45
-27 72 -44 28 -17 77 -43 110 -57 33 -13 107 -46 165 -72 198 -89 565 -198
790 -235 235 -38 506 -55 705 -44 94 5 172 8 174 7 28 -20 -204 -35 -404 -27
-335 13 -718 78 -960 164 -27 10 -75 25 -105 35 -30 9 -73 25 -95 35 -22 9
-89 39 -150 66 -60 26 -148 68 -195 93 -47 24 -97 50 -112 58 -16 8 -28 19
-28 24 0 12 6 11 33 -3z m4740 -262 c16 -17 30 -22 52 -20 17 3 38 -2 47 -9
15 -12 16 -18 5 -40 -16 -36 -30 -34 -22 2 6 26 4 29 -14 24 -12 -3 -21 -12
-21 -19 0 -8 -9 -14 -21 -14 -14 0 -19 6 -17 18 6 38 -30 56 -57 28 -16 -16
-10 -26 17 -26 11 0 16 -4 13 -10 -3 -5 -14 -10 -25 -10 -10 0 -21 -7 -24 -16
-10 -25 -34 1 -29 30 3 13 0 27 -6 30 -7 4 -11 -1 -11 -13 0 -12 -5 -21 -11
-21 -5 0 -7 -5 -3 -12 5 -8 2 -9 -10 -5 -10 4 -23 7 -29 7 -7 0 -18 4 -26 9
-12 8 -12 11 0 23 22 20 60 36 104 42 22 3 41 10 43 16 6 16 21 12 45 -14z
m-9043 -68 c0 -4 -4 -8 -10 -8 -5 0 -10 -7 -10 -15 0 -13 4 -14 20 -5 31 16
24 2 -17 -37 -33 -31 -45 -36 -85 -36 -46 0 -60 -8 -38 -22 21 -13 10 -51 -19
-68 -34 -20 -50 -22 -33 -5 8 8 8 15 2 23 -8 9 -4 11 15 7 19 -3 25 0 25 13 0
14 -6 16 -27 11 -16 -5 -29 -3 -34 5 -6 10 -11 10 -23 0 -24 -20 -21 -44 5
-36 20 7 19 4 -7 -28 -22 -29 -31 -34 -42 -24 -8 6 -27 10 -43 9 -16 -1 -29 2
-29 8 0 5 7 10 16 10 9 0 25 11 36 25 11 14 25 25 33 25 7 0 15 7 19 15 3 9
18 15 37 15 25 0 30 3 27 18 -5 16 2 19 65 20 46 1 73 6 78 14 5 7 4 15 -1 16
-13 5 -13 32 0 32 21 0 9 20 -15 26 -14 3 -25 10 -25 14 0 4 18 2 40 -3 22 -6
40 -15 40 -19z m901 -81 c3 -5 9 -8 13 -8 23 3 29 0 19 -10 -8 -8 -16 -7 -30
2 -15 9 -25 9 -39 1 -18 -11 -18 -12 4 -18 23 -7 29 -19 12 -29 -6 -4 -8 -10
-5 -15 8 -12 -21 -20 -33 -8 -7 7 -17 6 -33 -3 -20 -11 -21 -14 -6 -17 9 -2
17 -12 17 -23 0 -23 8 -24 40 -2 l25 17 -19 -22 c-24 -27 -57 -28 -74 -2 -15
24 -40 26 -70 4 -13 -9 -30 -13 -39 -9 -14 5 -12 9 11 20 16 8 39 15 52 15 15
0 24 6 24 15 0 8 -3 15 -7 16 -5 0 -23 2 -41 5 -21 2 -39 -1 -48 -11 -9 -8
-22 -15 -31 -15 -13 0 -13 3 -3 15 7 8 10 22 6 30 -5 13 3 15 51 11 45 -4 62
-1 84 15 20 14 30 16 35 8 4 -6 -1 -16 -10 -21 -16 -9 -23 -38 -8 -38 15 1 44
29 38 39 -4 5 -2 12 4 16 5 3 10 17 10 31 0 22 2 23 23 12 12 -7 25 -17 28
-21z m8341 -118 c4 -22 0 -33 -14 -40 -10 -6 -16 -15 -12 -20 3 -6 -3 -13 -15
-16 -27 -7 -27 -23 -1 -23 12 0 20 -7 20 -16 0 -12 -7 -14 -27 -10 -19 4 -38
0 -58 -14 -16 -11 -42 -20 -57 -20 -21 0 -28 -5 -28 -19 0 -23 -15 -35 -31
-26 -7 5 -5 13 5 24 30 33 -15 42 -79 15 -35 -14 -37 -14 -31 1 3 9 6 22 6 27
0 6 2 9 5 6 3 -3 31 1 63 8 55 13 110 18 85 7 -20 -7 -15 -23 6 -23 10 0 21 7
25 15 3 8 12 15 21 15 8 0 15 8 15 19 0 19 -25 31 -67 31 -13 0 -23 4 -23 8 0
4 24 8 54 8 42 1 53 -2 49 -12 -7 -18 7 -17 32 2 19 14 19 15 -3 20 -12 4 -22
13 -22 20 0 16 26 19 35 4 3 -5 12 -7 21 -3 10 4 12 9 4 18 -5 6 -7 15 -3 18
13 14 21 6 25 -24z m-1186 -1099 c-1 -23 -6 -30 -21 -30 -24 -1 -60 -46 -45
-55 8 -5 7 -11 -1 -21 -16 -20 0 -36 39 -38 17 -1 34 -5 39 -10 4 -5 -17 -6
-50 -3 -53 5 -59 4 -73 -19 -10 -14 -26 -24 -39 -24 -13 0 -25 -5 -27 -12 -3
-7 -11 -9 -24 -4 -15 7 -16 9 -4 14 8 3 32 16 53 29 42 26 41 46 -1 37 -25 -5
-25 -4 -9 9 9 8 17 22 17 32 0 14 -5 16 -27 10 -16 -3 -29 -11 -31 -16 -2 -5
-11 -9 -19 -9 -9 0 -21 -7 -28 -17 -8 -11 -18 -14 -31 -9 -16 7 -16 9 -4 15 8
3 34 18 57 33 52 34 103 34 103 1 0 -14 6 -23 15 -23 8 0 15 1 15 3 0 1 4 17
9 35 8 27 7 32 -6 30 -9 -2 -18 2 -20 9 -3 7 10 15 31 18 19 4 42 16 52 26 24
26 31 24 30 -11z"/>
<path d="M9242 5631 c-12 -7 -11 -14 2 -40 16 -29 16 -32 -1 -38 -76 -26 -84
-32 -78 -56 4 -16 0 -30 -12 -42 -17 -18 -18 -18 -24 11 -6 31 -16 20 -21 -26
-2 -19 -10 -26 -30 -28 -17 -2 -28 -9 -28 -18 0 -11 11 -14 45 -12 31 2 44 7
40 16 -2 6 0 12 6 12 5 0 12 -7 15 -15 4 -8 10 -15 16 -15 5 0 7 4 4 9 -7 11
22 23 35 15 5 -3 9 1 9 10 0 8 3 22 7 32 5 14 2 16 -20 10 -16 -4 -27 -2 -27
4 0 5 7 10 16 10 12 0 15 6 11 21 -4 17 -3 19 6 10 16 -16 32 -14 18 2 -13 16
-5 27 21 27 10 0 18 7 18 15 0 8 1 15 3 16 1 0 22 3 46 6 34 4 42 2 39 -8 -3
-8 -17 -15 -31 -17 -18 -2 -27 -9 -27 -21 0 -9 -5 -22 -11 -28 -7 -7 -2 -12
17 -17 33 -9 80 -55 61 -61 -6 -2 -21 -6 -32 -8 -11 -3 -3 -5 17 -6 20 0 40 4
43 9 4 6 15 8 24 5 20 -6 51 3 51 14 0 4 -16 7 -36 8 -43 1 -51 8 -34 28 10
12 10 15 -4 15 -9 0 -16 7 -16 14 0 13 -5 13 -37 0 l-38 -15 28 26 c18 16 38
24 55 23 15 -1 33 1 40 6 17 10 15 29 -3 22 -17 -6 -21 9 -5 19 17 11 11 25
-11 25 -12 0 -27 7 -33 16 -13 17 -113 29 -134 15z"/>
<path d="M8787 5443 c-15 -15 -5 -23 20 -17 19 5 30 2 39 -11 11 -15 16 -16
28 -6 8 7 20 10 27 6 6 -4 7 -10 2 -14 -4 -3 -17 -23 -28 -45 -19 -36 -57 -62
-74 -51 -13 8 -71 -18 -71 -32 0 -18 17 -16 24 2 3 8 17 15 33 15 24 -1 25 -2
11 -11 -18 -10 -24 -44 -10 -53 13 -8 35 11 28 23 -4 6 -1 11 8 11 8 0 18 -4
21 -10 3 -5 15 -10 26 -10 10 0 19 5 19 10 0 6 0 13 0 18 0 4 -12 7 -25 7 -31
0 -37 19 -7 23 12 2 22 8 22 13 0 13 34 11 48 -3 8 -8 15 -8 28 2 15 13 14 15
-3 22 -12 6 -10 6 7 2 14 -4 45 -8 70 -10 l45 -3 -38 10 c-30 9 -37 15 -32 30
4 10 4 28 0 38 -8 25 -35 16 -28 -8 3 -14 -4 -21 -28 -30 -42 -15 -64 2 -31
24 l21 16 -21 24 c-18 21 -31 25 -73 25 -28 0 -55 -3 -58 -7z"/>
<path d="M8592 5215 c5 -24 -12 -49 -36 -50 -31 -2 -66 -19 -66 -32 0 -8 -4
-12 -8 -9 -13 8 -52 -23 -62 -49 -6 -16 -19 -24 -44 -27 -20 -2 -40 0 -45 5
-12 12 -57 -2 -78 -25 -17 -20 -17 -20 19 -13 31 6 38 4 48 -15 12 -23 26 -22
88 6 22 11 32 22 32 38 0 32 46 73 67 60 26 -16 27 -35 4 -41 -29 -7 -26 -23
4 -23 14 0 25 4 25 10 0 5 18 19 40 30 22 11 40 23 40 27 0 3 -20 3 -45 1 -64
-8 -59 15 8 33 28 8 55 13 60 11 4 -1 6 1 6 6 -4 22 3 31 19 25 9 -3 14 -3 10
2 -4 4 -3 14 3 22 15 17 1 17 -17 -1 -20 -20 -53 -9 -47 15 4 13 0 19 -12 19
-13 0 -16 -6 -13 -25z"/>
<path d="M8037 5103 c-4 -3 -1 -16 6 -27 19 -29 27 -65 16 -72 -19 -11 -8 -24
21 -24 17 0 30 -4 30 -9 0 -6 10 -21 23 -35 25 -27 67 -26 67 1 0 11 -7 13
-31 8 -29 -7 -30 -6 -17 14 9 14 21 20 42 18 16 -1 31 4 33 11 3 8 -5 12 -24
12 l-28 0 33 26 c18 14 30 29 27 34 -7 11 -52 -12 -69 -36 -12 -15 -16 -16
-30 -5 -13 11 -19 11 -31 1 -12 -10 -19 -10 -28 -1 -9 9 -7 13 10 17 13 4 23
16 26 32 3 15 5 28 4 28 -9 7 -75 13 -80 7z"/>
<path d="M7915 4970 c-3 -5 -15 -10 -25 -10 -11 0 -21 -10 -25 -22 -16 -53
-30 -78 -44 -73 -7 3 -20 0 -27 -6 -11 -9 -14 -8 -14 5 0 9 16 24 35 33 19 9
35 23 35 30 0 18 -19 16 -27 -3 -4 -11 -13 -14 -29 -10 -19 5 -24 2 -24 -13 0
-10 -7 -21 -15 -25 -20 -7 -19 -26 1 -26 34 0 5 -25 -33 -28 -35 -3 -40 -6
-40 -26 0 -17 4 -22 16 -19 10 2 23 -3 30 -11 18 -22 41 -20 41 3 0 11 5 23
10 26 6 3 10 15 10 25 0 14 9 20 38 22 29 2 38 8 40 25 2 12 9 27 17 33 8 6
11 18 9 25 -4 10 8 16 45 21 28 4 51 11 51 16 0 5 -9 7 -19 3 -11 -3 -22 -1
-26 5 -8 13 -22 13 -30 0z"/>
<path d="M5880 4629 c-251 -47 -324 -66 -560 -149 -80 -28 -156 -54 -170 -57
-44 -9 -231 -102 -304 -150 -129 -85 -265 -207 -342 -308 -151 -197 -229 -394
-240 -610 -11 -185 33 -362 129 -523 53 -89 74 -115 177 -225 36 -38 67 -73
68 -78 2 -5 8 -9 13 -9 5 0 26 -16 47 -34 109 -102 116 -106 129 -89 7 9 10
20 7 24 -3 5 1 9 9 9 22 0 28 -38 9 -49 -14 -8 -15 -12 -4 -23 11 -11 14 -10
22 2 5 8 14 16 20 16 5 1 15 2 20 3 6 0 10 7 10 14 0 8 6 27 14 43 21 43 23
65 6 74 -17 9 -162 43 -164 38 -13 -29 -27 -44 -46 -46 -19 -3 -22 0 -16 15
13 33 11 36 -34 48 -28 7 -46 17 -48 28 -4 19 9 21 56 8 45 -13 55 -7 80 43
31 62 29 74 -15 81 -21 3 -69 12 -107 21 -66 15 -69 14 -90 -5 -29 -27 -51
-28 -37 -2 13 24 5 31 -30 24 -26 -5 -29 -3 -29 21 0 14 -4 26 -10 26 -5 0
-10 5 -10 10 0 15 31 12 64 -5 15 -8 30 -15 32 -15 5 0 54 106 54 118 0 11
-12 14 -109 30 -25 4 -47 14 -49 21 -4 11 5 13 42 8 25 -4 66 -10 90 -13 l43
-6 18 45 c9 25 14 50 11 55 -3 6 -25 13 -49 17 -73 11 -177 37 -183 46 -8 13
28 11 123 -7 120 -22 132 -19 155 40 10 27 15 53 11 57 -4 4 -55 15 -113 25
-58 9 -121 23 -140 30 l-35 13 45 0 c25 1 83 -6 130 -14 125 -22 136 -21 149
16 6 18 11 35 11 39 0 4 -39 15 -87 25 -111 21 -188 41 -210 53 -23 14 54 5
185 -19 57 -10 109 -19 117 -19 13 0 45 58 45 80 0 4 -44 15 -97 24 -134 23
-196 38 -208 49 -10 9 85 4 151 -9 26 -5 32 -2 37 15 5 20 25 26 71 21 11 -1
17 3 14 11 -2 7 -33 18 -69 26 -35 7 -84 19 -109 27 -41 14 -42 15 -10 11 128
-15 190 -16 190 -4 0 7 12 23 28 36 23 19 25 24 12 32 -8 6 -35 13 -60 16 -25
3 -74 15 -110 26 l-65 19 55 -5 c212 -18 220 -18 220 -1 0 13 7 17 32 14 23
-2 33 2 36 13 3 16 -21 24 -153 50 -33 7 -64 16 -70 21 -12 11 133 1 185 -13
19 -5 41 -9 48 -9 11 0 52 78 52 99 0 4 -37 16 -82 25 -116 25 -116 26 -1 19
l103 -6 15 36 c22 52 19 63 -17 75 l-33 11 40 -2 c37 -2 41 0 63 43 19 37 22
40 17 15 -15 -74 -20 -70 85 -72 52 -1 104 -4 115 -8 16 -5 22 1 33 32 32 91
34 87 -66 102 -49 7 -96 18 -103 23 -15 9 3 7 115 -12 91 -15 91 -15 115 42
26 63 41 57 16 -7 -9 -26 -16 -48 -14 -50 2 -2 44 -5 94 -6 l89 -3 25 48 c28
55 24 61 -46 70 -23 3 -63 9 -88 12 -25 4 -45 10 -45 15 0 11 54 12 64 2 4 -5
17 -9 29 -10 12 -1 43 -5 69 -9 45 -6 47 -5 63 27 16 30 45 67 45 56 0 -3 -7
-18 -15 -33 -30 -58 -24 -64 68 -64 l84 0 23 49 c23 51 21 70 -8 72 -9 1 -1 5
18 9 38 9 61 -7 36 -25 -7 -6 -15 -26 -18 -45 -3 -19 -8 -42 -12 -50 -5 -12 4
-19 39 -28 62 -16 85 -15 85 4 0 9 11 29 25 46 38 45 33 56 -30 63 -80 10 -77
23 4 17 68 -4 68 -4 79 24 5 16 13 38 18 48 6 16 4 18 -9 13 -19 -7 -43 39
-53 104 -11 67 -16 69 -124 48z"/>
<path d="M6422 4568 c-17 -17 -15 -35 6 -50 11 -7 21 -31 24 -55 5 -35 3 -42
-13 -46 -20 -5 -43 -52 -33 -68 3 -5 30 -9 60 -9 l55 0 18 43 c36 83 36 87 3
81 -24 -5 -33 -1 -50 23 -20 28 -20 31 -4 47 16 16 16 18 -2 32 -24 17 -48 18
-64 2z"/>
<path d="M6727 4528 c-7 -26 -1 -38 19 -38 8 0 14 -9 14 -19 0 -11 5 -23 10
-26 17 -11 11 -23 -12 -27 -17 -2 -24 -11 -26 -31 -3 -26 -1 -28 20 -23 20 6
19 5 -4 -9 -16 -9 -28 -23 -28 -32 0 -14 2 -14 16 3 11 14 17 15 21 6 20 -49
71 -56 80 -12 3 17 10 33 14 36 5 3 9 13 9 22 0 9 7 30 15 46 20 37 19 42 -7
51 -33 10 -40 12 -67 13 -23 2 -23 3 -8 20 21 23 5 42 -34 42 -19 0 -28 -6
-32 -22z"/>
<path d="M6880 4526 c0 -24 12 -46 25 -46 13 0 8 -31 -22 -138 -8 -30 -13 -55
-11 -57 2 -1 24 -6 50 -9 42 -6 48 -5 61 16 8 13 20 41 27 63 7 22 16 50 21
62 11 30 -13 53 -57 53 -37 0 -43 10 -19 30 13 11 13 14 -2 26 -24 18 -73 18
-73 0z"/>
<path d="M6636 4485 c-3 -8 -14 -15 -24 -15 -14 0 -22 -15 -35 -64 -9 -35 -17
-69 -17 -75 0 -14 75 -14 101 -1 34 19 24 42 -18 40 -58 -3 -61 0 -19 15 22 8
43 12 48 9 10 -7 47 36 48 55 0 15 -36 9 -82 -14 -15 -7 -30 -9 -33 -4 -3 4 6
11 20 15 14 3 25 10 25 15 0 4 12 15 28 23 l27 15 -31 1 c-19 0 -34 -6 -38
-15z"/>
<path d="M7190 4472 c0 -27 -1 -28 -56 -28 -42 1 -59 -3 -68 -16 -20 -27 -50
-148 -39 -159 5 -5 30 -12 56 -15 l47 -7 24 53 c14 29 31 73 38 97 7 23 16 43
20 43 11 0 11 -1 -13 -102 -12 -49 -19 -91 -17 -93 2 -2 31 -7 64 -10 l61 -7
32 86 c17 48 31 91 31 97 0 5 11 9 24 9 14 0 28 5 31 10 4 6 12 7 18 3 7 -3 3
4 -8 16 -11 13 -28 27 -38 33 -26 13 -50 -9 -42 -39 5 -21 3 -23 -27 -19 -18
3 -44 5 -57 5 -20 1 -22 3 -10 17 11 14 10 19 -10 35 -35 29 -61 25 -61 -9z"/>
<path d="M7537 4433 c-4 -3 -7 -17 -7 -31 0 -21 -3 -23 -22 -17 -45 13 -111
25 -117 20 -7 -8 -40 -136 -40 -161 -1 -18 7 -23 62 -31 34 -6 67 -9 73 -6 6
2 21 38 34 79 22 70 35 92 46 82 2 -3 -2 -27 -10 -54 -34 -122 -36 -119 67
-130 60 -6 63 -5 74 19 7 14 15 41 19 61 6 35 20 54 30 43 3 -3 -1 -30 -9 -60
-8 -30 -12 -59 -8 -65 5 -8 124 -32 159 -32 5 0 15 14 22 31 8 19 24 35 42 41
35 12 36 31 3 52 -27 18 -45 14 -45 -9 0 -22 -18 -27 -42 -12 -13 8 -40 20
-60 27 -35 10 -52 30 -28 30 16 0 12 18 -10 40 -29 29 -60 26 -60 -6 0 -17 -5
-24 -12 -22 -7 3 -37 13 -67 23 -47 15 -52 19 -38 30 25 18 21 32 -13 50 -33
17 -34 17 -43 8z"/>
<path d="M6030 4305 c-7 -30 -10 -58 -6 -62 3 -4 32 -9 64 -11 l58 -4 16 53
c20 61 16 72 -24 67 -16 -3 -31 -1 -34 4 -3 4 -18 8 -33 8 -25 0 -29 -5 -41
-55z"/>
<path d="M6209 4313 c-16 -42 -22 -90 -12 -96 5 -3 32 -9 60 -12 l50 -7 16 41
c10 23 17 51 16 64 0 12 -3 16 -6 10 -6 -17 -23 -16 -37 1 -6 8 -26 17 -43 21
-30 6 -34 4 -44 -22z"/>
<path d="M4595 4239 c-77 -22 -169 -47 -205 -57 -36 -9 -75 -27 -87 -39 -15
-15 -39 -23 -80 -28 -32 -3 -67 -11 -78 -16 -11 -5 -47 -13 -80 -18 -33 -6
-84 -15 -112 -21 -37 -8 -59 -8 -72 0 -13 7 -28 7 -46 0 -14 -5 -48 -10 -74
-10 -29 0 -53 -6 -60 -14 -19 -23 -93 -37 -132 -25 -19 6 -69 7 -114 4 -44 -3
-166 -10 -272 -14 -172 -8 -196 -11 -228 -31 -37 -23 -65 -65 -65 -98 0 -40
39 -69 142 -110 132 -51 215 -88 303 -134 38 -21 106 -56 150 -79 98 -50 110
-57 156 -91 20 -16 44 -28 54 -28 9 0 29 -13 44 -28 16 -15 72 -61 125 -101
l98 -73 26 19 c15 11 44 22 65 26 21 3 52 13 69 21 42 21 44 21 57 -15 17 -50
14 -57 -31 -70 -24 -6 -58 -17 -77 -25 l-33 -15 22 -19 c28 -24 34 -25 26 -5
-4 11 2 15 24 15 16 0 32 5 35 10 3 6 16 10 28 10 16 0 26 -9 35 -32 6 -17 14
-30 16 -27 3 2 0 54 -6 114 -12 115 -3 226 26 310 7 22 16 52 20 68 6 27 6 27
-12 10 -10 -10 -17 -24 -14 -30 5 -15 -14 -18 -23 -4 -9 15 -65 4 -79 -15 -7
-9 -11 -27 -8 -40 3 -17 0 -24 -12 -24 -9 0 -16 5 -16 10 0 6 -7 10 -15 10 -8
0 -15 -9 -15 -20 0 -11 -7 -20 -15 -20 -8 0 -19 -9 -25 -20 -8 -15 -15 -17
-33 -11 -29 11 -28 35 1 39 12 2 22 9 22 16 0 10 -10 11 -42 6 -67 -13 -65 5
2 30 31 12 184 75 250 103 14 6 27 11 30 11 18 3 35 28 84 120 50 93 127 208
163 245 8 7 22 30 33 51 26 50 91 111 168 156 34 20 62 38 62 40 0 9 -45 0
-175 -37z"/>
<path d="M5626 4258 c-20 -69 -25 -92 -21 -98 2 -4 32 -13 66 -20 60 -13 62
-13 80 11 10 13 17 29 15 35 -3 7 2 21 10 33 8 11 14 21 12 21 -13 0 -124 20
-139 25 -12 4 -21 1 -23 -7z"/>
<path d="M6680 4224 c-11 -25 -20 -54 -20 -65 0 -19 4 -20 102 -23 23 -1 46
45 47 95 1 22 -4 28 -30 33 -68 13 -78 9 -99 -40z"/>
<path d="M6982 4170 c-12 -35 -20 -65 -17 -68 2 -3 33 -5 67 -6 l62 -1 15 57
c8 32 13 60 10 62 -3 3 -30 8 -60 12 l-54 6 -23 -62z"/>
<path d="M7147 4149 c-11 -44 -13 -66 -5 -70 14 -9 98 -20 107 -14 9 5 46 124
40 129 -2 3 -32 8 -65 11 l-61 7 -16 -63z"/>
<path d="M7335 4179 c-43 -120 -43 -126 -5 -134 39 -9 29 -25 -15 -25 -31 0
-35 -4 -44 -37 -6 -20 -8 -40 -5 -45 3 -4 -2 -11 -10 -14 -18 -7 -22 -34 -4
-34 6 0 9 -3 5 -6 -7 -8 -137 17 -137 26 0 4 20 4 45 0 54 -8 60 -2 69 66 l6
52 -57 10 c-32 5 -61 8 -64 6 -4 -2 -9 -16 -12 -31 -4 -16 -18 -46 -31 -68
-22 -35 -25 -37 -26 -16 0 18 -4 22 -20 18 -11 -3 -23 -1 -26 4 -3 5 6 9 19 9
20 0 27 8 40 46 17 52 17 52 -61 56 l-54 3 -20 -54 c-23 -60 -17 -70 37 -71
23 -1 26 -3 14 -10 -12 -7 -68 1 -96 15 -1 0 4 29 11 63 7 35 10 65 6 67 -4 2
-25 7 -46 11 -40 6 -40 6 -62 -44 -28 -62 -52 -86 -52 -51 1 13 7 41 14 62 14
37 13 39 -11 48 -13 5 -42 9 -63 9 -32 0 -40 -4 -45 -22 -17 -63 -40 -98 -64
-98 -23 0 -23 1 -7 13 10 7 22 35 27 62 11 57 4 65 -57 65 -37 0 -43 -3 -48
-26 -8 -29 -47 -94 -58 -94 -10 0 -11 -1 11 65 11 33 17 63 15 67 -8 13 -38 9
-60 -7 -10 -8 -28 -15 -39 -15 -21 0 -55 -45 -55 -72 0 -11 -20 -14 -96 -14
-77 1 -98 -2 -107 -15 -8 -11 -22 -15 -44 -12 -24 4 -34 0 -42 -16 -14 -25
-61 -29 -61 -6 0 8 -4 15 -10 15 -5 0 -8 -15 -6 -32 3 -27 9 -34 32 -39 l29
-7 -30 -1 c-56 -2 -76 -13 -92 -50 l-17 -36 -3 30 c-7 56 -10 58 -45 38 -18
-10 -40 -23 -48 -29 -8 -6 -27 -14 -42 -18 -16 -3 -28 -10 -28 -15 0 -11 26
-17 103 -26 31 -4 57 -11 57 -16 0 -5 -4 -9 -9 -9 -5 0 -12 -24 -15 -54 -4
-30 -14 -60 -22 -67 -8 -6 -14 -19 -14 -29 0 -10 -7 -24 -16 -31 -15 -12 -16
-10 -9 21 4 19 11 41 16 50 10 17 39 103 36 106 -1 1 -35 4 -75 6 -72 5 -74 5
-83 -20 -18 -46 -8 -63 49 -84 67 -25 58 -42 -17 -33 -62 7 -74 1 -86 -46 -6
-24 -4 -27 32 -33 21 -4 55 -12 75 -17 l38 -10 -5 -59 c-3 -52 -2 -60 16 -65
25 -8 15 -25 -16 -25 -18 0 -25 -7 -30 -31 -4 -17 -5 -31 -3 -33 21 -12 82
-36 94 -36 8 0 22 16 30 36 21 49 30 35 14 -21 l-13 -46 -61 6 c-34 4 -67 8
-73 10 -7 3 -22 -14 -33 -37 -24 -51 -25 -58 -2 -59 9 -1 1 -5 -18 -9 -24 -6
-48 -4 -78 6 -23 8 -57 14 -75 14 -27 -1 -35 -6 -49 -37 -19 -40 -16 -53 11
-53 33 0 81 -22 81 -37 0 -13 -8 -14 -47 -8 -84 14 -88 13 -91 -20 -2 -16 -8
-35 -14 -42 -12 -15 -2 -33 20 -33 13 0 74 -18 119 -35 1 -1 0 -11 -4 -23 -3
-12 -9 -19 -14 -16 -5 3 -7 10 -4 15 4 5 -12 9 -33 9 -35 0 -39 -2 -35 -20 4
-13 0 -20 -9 -20 -22 0 -29 12 -16 27 6 7 8 17 4 21 -4 4 -14 -2 -22 -13 -8
-11 -21 -19 -28 -17 -14 2 -49 -64 -41 -78 3 -4 22 -10 42 -14 104 -15 120
-20 143 -41 14 -12 33 -25 43 -28 9 -4 17 -10 17 -15 0 -11 -50 -3 -67 10 -9
7 -14 6 -17 -3 -2 -8 -9 -29 -15 -48 -15 -46 -14 -51 9 -51 11 0 20 5 20 10 0
6 5 10 11 10 6 0 9 -7 5 -15 -4 -10 6 -17 35 -25 22 -6 43 -9 47 -6 4 2 23 -9
42 -24 l35 -29 -35 5 -35 6 -18 -67 c-10 -37 -17 -68 -15 -69 2 -1 34 -8 72
-15 73 -14 85 -10 86 32 0 9 7 17 15 17 8 0 15 -7 15 -16 0 -9 8 -23 18 -30
16 -13 16 -13 0 -14 -23 0 -24 -20 -1 -20 9 0 31 -5 50 -12 30 -11 35 -10 55
12 l23 25 4 -25 c4 -30 17 -40 53 -40 28 0 45 14 29 24 -13 9 -2 44 16 51 20
7 30 -2 16 -16 -6 -6 -7 -24 -4 -42 6 -27 13 -32 56 -43 43 -11 50 -11 62 4
13 15 14 15 8 -5 -5 -18 -1 -22 35 -28 l41 -7 -6 -41 c-3 -23 -11 -54 -17 -69
-12 -32 -5 -58 17 -58 8 0 14 3 13 8 -2 4 2 8 7 10 6 1 10 -4 10 -10 0 -7 14
-14 30 -16 28 -2 31 1 53 59 13 33 21 63 17 67 -3 3 -27 9 -53 12 -35 4 -48
10 -50 24 -3 16 0 18 19 12 13 -4 42 -9 64 -12 22 -3 49 -9 60 -14 28 -12 105
-20 105 -11 0 4 11 13 23 18 13 6 32 28 41 48 10 20 20 34 23 32 2 -3 -3 -21
-12 -40 -9 -20 -15 -47 -13 -62 3 -24 8 -27 46 -30 43 -3 59 12 22 22 -27 7
-15 22 15 19 33 -4 40 -12 25 -31 -11 -13 -7 -15 33 -15 24 0 57 -6 72 -14 15
-8 36 -13 47 -11 12 3 30 -2 42 -10 11 -8 26 -15 33 -15 13 0 41 52 54 100 6
23 7 23 8 3 1 -13 10 -24 22 -28 16 -6 18 -10 9 -18 -10 -9 -14 -9 -17 1 -9
24 -18 11 -18 -26 0 -36 1 -37 45 -44 25 -4 57 -9 71 -13 29 -8 49 11 51 47 1
13 8 32 15 43 19 28 17 33 -19 49 -27 12 -29 15 -11 15 39 2 53 12 53 42 0 16
4 29 10 29 11 0 29 60 22 78 -2 6 -12 12 -21 13 -9 1 -6 4 8 8 26 7 59 75 60
123 1 21 -5 29 -24 34 -14 3 -22 11 -19 16 3 5 17 7 30 4 27 -7 40 11 50 71 7
46 5 48 -78 58 l-55 7 -17 -36 c-24 -51 -49 -48 -44 6 l3 42 -50 13 c-84 21
-90 19 -108 -38 -10 -28 -14 -55 -11 -60 3 -5 20 -9 37 -9 18 0 41 -7 51 -15
19 -14 18 -15 -11 -15 -17 0 -36 -7 -43 -15 -15 -18 -31 -20 -27 -4 1 6 -3 13
-9 15 -5 3 -21 -15 -35 -38 l-24 -43 -3 48 c-2 26 -7 47 -13 47 -5 0 -9 -4 -9
-10 0 -5 -5 -10 -11 -10 -6 0 -8 7 -5 16 5 14 1 16 -34 11 -30 -4 -40 -2 -40
9 0 31 -21 11 -44 -40 -13 -29 -29 -57 -36 -61 -12 -8 -12 19 2 110 3 18 -3
20 -54 23 l-56 3 -12 -38 c-24 -78 -42 -103 -75 -103 -35 0 -96 20 -119 39
-14 11 -16 11 -16 -2 0 -25 -15 -28 -38 -7 -14 13 -36 20 -64 21 l-43 1 35 10
c19 5 43 14 52 19 26 13 30 11 18 -10 -7 -13 -7 -22 0 -26 16 -10 30 4 30 31
0 14 7 41 15 61 20 48 20 51 -15 57 -16 3 -43 9 -59 12 -24 4 -30 1 -36 -18
-23 -76 -76 -159 -59 -93 6 24 4 25 -20 19 -16 -4 -26 -2 -26 5 0 11 13 15 36
12 17 -2 24 50 8 56 -19 7 -17 21 4 25 9 2 -5 10 -33 17 -45 11 -51 11 -63 -6
-7 -10 -16 -30 -18 -44 -3 -14 -15 -31 -26 -38 -19 -12 -20 -11 -12 31 11 64
10 81 -3 85 -8 3 -13 -4 -13 -16 0 -12 -5 -21 -11 -21 -6 0 -8 8 -4 19 4 14 0
20 -17 25 -35 9 -68 7 -68 -4 0 -5 -4 -10 -10 -10 -16 0 -11 50 10 110 24 69
24 66 -2 75 -22 7 -21 8 7 12 17 3 36 10 43 15 9 8 16 7 25 -5 7 -9 35 -19 64
-23 l51 -6 21 41 c12 22 25 41 30 41 4 0 6 -22 3 -50 -4 -44 -2 -50 14 -50 11
0 36 -3 57 -6 35 -6 38 -5 48 25 17 49 35 37 30 -21 -2 -19 24 -29 81 -31 28
-2 35 3 50 36 20 40 38 49 38 17 0 -12 10 -24 23 -30 21 -8 18 -12 -13 -14 -8
-1 -15 -8 -15 -16 0 -11 16 -17 55 -22 49 -6 57 -4 72 15 10 12 18 28 18 35 0
6 4 12 9 12 5 0 8 -17 6 -38 -4 -39 -4 -39 43 -50 43 -10 48 -9 64 11 22 28
22 37 1 38 -15 0 -14 2 4 11 37 18 52 5 46 -40 l-5 -40 56 -12 c86 -18 98 -13
118 45 l17 50 1 -57 c0 -55 1 -58 28 -64 15 -3 40 -10 56 -15 48 -15 56 -11
76 35 18 44 20 45 57 39 50 -8 53 -12 15 -19 -24 -5 -32 -13 -37 -36 -8 -36
-6 -39 47 -49 84 -16 96 -13 107 29 16 57 14 69 -16 78 l-28 8 35 5 c31 5 37
11 49 49 7 24 10 46 7 50 -4 3 -36 8 -71 10 -36 2 -65 8 -65 12 0 14 59 22
105 16 49 -8 50 -7 60 52 6 37 4 42 -12 43 -16 0 -15 2 3 11 12 5 30 28 39 49
21 45 9 69 -32 69 -28 0 -57 25 -48 40 9 15 25 12 25 -4 0 -8 14 -17 31 -21
38 -9 55 6 64 56 7 36 7 36 -39 48 -81 20 -90 17 -119 -43 -23 -47 -29 -53
-52 -49 -31 7 -31 11 -1 23 16 6 26 19 30 44 9 47 2 56 -40 56 -24 0 -34 -5
-34 -15 0 -8 -4 -15 -10 -15 -5 0 -10 9 -10 20 0 32 -48 27 -60 -6 -17 -44
-12 -58 32 -79 l42 -20 -54 -5 c-46 -4 -52 -7 -36 -16 17 -11 17 -12 -5 -17
-13 -3 -32 -19 -42 -34 l-18 -28 3 55 3 55 -40 2 c-22 1 -54 4 -72 8 -28 6
-34 4 -44 -19 -14 -29 -27 -33 -36 -10 -3 8 -12 13 -19 10 -8 -3 -14 -1 -14 3
0 5 6 11 13 14 11 4 -55 27 -78 27 -6 0 -19 -16 -29 -35 -22 -41 -39 -46 -30
-10 14 56 12 59 -44 68 -48 8 -56 7 -73 -12 -11 -12 -29 -21 -41 -21 -21 0
-21 0 -2 14 15 12 17 17 7 27 -10 10 -16 10 -25 1 -18 -18 -78 -16 -78 3 0 25
-14 17 -35 -22 -11 -20 -27 -39 -35 -41 -12 -4 -13 -2 -4 9 15 18 23 78 13 85
-11 6 -52 -15 -62 -33 -5 -7 -13 -11 -18 -7 -6 4 -4 13 6 24 15 16 14 18 -1
24 -12 5 -26 -2 -41 -19 -31 -32 -36 -32 -28 5 5 21 3 30 -7 31 -29 3 -55 7
-90 14 -31 6 -38 4 -38 -9 0 -9 7 -16 16 -16 11 0 4 -9 -17 -23 -40 -27 -51
-12 -24 29 9 14 14 33 11 41 -4 9 -1 22 5 29 6 7 12 36 12 64 1 28 7 50 13 50
6 0 21 23 34 50 27 58 42 54 30 -8 -8 -48 -10 -47 61 -57 l47 -6 23 55 c27 66
44 63 35 -5 -6 -46 -5 -50 19 -59 48 -18 72 -13 86 21 7 18 24 44 37 58 l24
26 -6 -32 c-3 -18 -9 -46 -12 -62 -5 -28 -3 -30 33 -36 21 -4 45 -9 54 -11 21
-6 34 11 47 60 10 34 9 39 -9 43 -10 3 -19 9 -19 14 0 12 17 11 25 -2 4 -6 13
-8 20 -5 20 7 28 -28 16 -71 -13 -46 -6 -53 49 -56 42 -2 43 -1 58 41 11 28
22 42 34 42 18 0 18 -8 3 -82 -2 -13 4 -18 23 -20 15 0 40 -2 55 -3 28 -2 44
16 61 73 6 17 3 22 -11 22 -10 0 -35 6 -56 14 -28 9 -34 15 -23 19 9 4 16 13
16 21 0 7 9 16 20 19 24 6 25 3 4 -17 -20 -21 -10 -36 24 -36 28 0 62 40 62
73 0 8 7 20 15 27 21 18 20 -7 -3 -62 -10 -24 -20 -63 -21 -88 -1 -25 -3 -54
-4 -64 -2 -22 26 -33 88 -35 43 -1 40 -5 71 91 7 19 -39 33 -79 23 -14 -4 -28
-2 -31 4 -7 11 30 17 79 13 11 -1 32 -2 48 -3 15 -1 27 -6 27 -11 0 -4 9 -8
20 -8 17 0 19 -2 8 -14 -11 -11 -15 -11 -25 3 -14 18 -14 19 -19 -34 -2 -22
-5 -49 -6 -60 -3 -18 4 -21 62 -26 36 -4 70 -4 77 -2 9 4 43 82 43 99 0 2 -17
5 -37 7 l-38 4 43 1 c41 2 42 3 42 37 0 19 5 35 11 35 7 0 9 9 6 21 -4 13 1
29 12 40 17 18 17 17 15 -30 -1 -26 -9 -62 -18 -79 -9 -18 -16 -55 -16 -90 0
-67 6 -72 87 -72 40 0 42 1 57 45 16 49 15 51 -33 57 -14 2 -27 9 -29 17 -3
10 1 12 19 8 42 -11 65 2 78 42 20 68 16 80 -30 87 -48 8 -40 21 16 26 34 3
41 7 43 28 2 13 10 33 18 44 18 27 18 56 -1 56 -13 0 -13 3 -3 20 7 11 18 20
25 20 16 0 20 8 28 53 7 36 6 38 -31 54 l-39 17 45 6 45 5 18 63 c11 35 17 65
15 67 -2 3 -36 7 -76 11 l-71 7 -6 -29 c-3 -16 -13 -45 -21 -64 -13 -28 -17
-31 -25 -19 -5 10 -4 30 1 50 20 68 18 70 -82 84 -36 6 -49 4 -53 -6z"/>
<path d="M7700 4099 c-6 -24 -15 -54 -20 -66 -5 -12 -6 -25 -1 -27 4 -3 44 -8
89 -12 l81 -7 11 27 c5 15 13 44 16 65 7 44 5 45 -103 57 l-62 6 -11 -43z"/>
<path d="M7927 4113 c-13 -22 -29 -124 -21 -133 5 -5 41 -12 80 -15 l70 -7 13
43 c7 24 20 55 28 68 20 31 5 41 -67 41 -30 0 -65 3 -76 6 -12 3 -24 2 -27 -3z"/>
<path d="M7657 3963 c-3 -5 -8 -29 -12 -54 l-7 -46 56 -16 c80 -22 106 -13
129 48 10 26 14 51 10 55 -12 11 -171 22 -176 13z"/>
<path d="M7883 3938 c-13 -16 -37 -107 -31 -113 3 -3 38 -9 79 -15 61 -8 76
-7 85 6 13 17 27 91 19 103 -2 5 -30 12 -61 16 -32 4 -62 9 -69 11 -6 3 -16
-1 -22 -8z"/>
<path d="M8079 3894 c-5 -16 -11 -44 -12 -63 -2 -34 -2 -34 58 -47 33 -7 76
-13 95 -13 34 -1 36 1 56 60 l22 60 -22 8 c-11 5 -58 11 -103 15 l-83 7 -11
-27z"/>
<path d="M7622 3799 c-23 -60 -30 -89 -22 -94 18 -11 157 -17 164 -7 3 6 9 30
12 55 l6 44 -48 7 c-27 3 -61 9 -76 12 -23 5 -29 2 -36 -17z"/>
<path d="M7822 3734 c-6 -27 -8 -52 -4 -55 4 -3 38 -11 76 -19 57 -11 70 -10
77 1 15 23 10 39 -13 49 l-23 9 22 0 c20 1 51 37 40 47 -2 2 -40 7 -84 11
l-81 6 -10 -49z"/>
<path d="M4951 3752 c-21 -39 -13 -51 42 -67 77 -22 160 -24 165 -4 2 12 -4
15 -28 11 -35 -5 -39 9 -10 36 21 19 20 19 -42 26 -35 4 -75 10 -90 13 -19 4
-29 0 -37 -15z"/>
<path d="M8047 3753 c-4 -3 -7 -23 -7 -44 0 -21 -4 -41 -10 -44 -23 -14 -6
-23 58 -30 37 -3 78 -8 92 -10 34 -6 44 3 57 55 14 54 14 55 -84 69 -86 13
-97 13 -106 4z"/>
<path d="M8282 3678 c-6 -29 -7 -57 -2 -62 5 -5 30 -10 57 -11 26 -2 61 -8 76
-14 56 -22 61 -18 81 60 15 58 19 55 -74 64 -36 3 -79 8 -96 11 -31 6 -31 5
-42 -48z"/>
<path d="M7581 3656 c-7 -8 -11 -23 -10 -33 1 -10 -1 -26 -5 -35 -4 -9 -5 -21
-2 -26 8 -13 122 -36 141 -29 24 10 18 29 -7 21 -21 -6 -21 -6 -5 10 9 10 21
15 26 12 11 -7 35 49 27 63 -4 5 -32 13 -64 16 -31 4 -64 9 -73 11 -9 2 -22
-2 -28 -10z"/>
<path d="M7787 3603 c-4 -21 -9 -50 -13 -65 l-6 -28 58 0 c42 0 55 3 44 10
-13 8 -12 10 3 10 9 0 17 -7 17 -15 0 -9 9 -15 21 -15 18 0 20 4 15 25 -4 15
-2 25 4 25 15 0 29 43 19 56 -9 11 -104 34 -139 34 -12 0 -19 -11 -23 -37z"/>
<path d="M8000 3590 c-5 -9 -10 -34 -12 -55 -3 -38 -2 -39 41 -52 25 -7 67
-14 95 -15 44 -3 51 0 54 17 2 11 10 34 18 52 8 17 14 33 14 36 0 7 -57 18
-133 26 -57 6 -70 4 -77 -9z"/>
<path d="M8261 3571 c-7 -5 -10 -14 -7 -20 4 -6 0 -21 -8 -33 -9 -12 -16 -34
-16 -49 0 -25 2 -26 77 -33 127 -10 133 -9 133 18 0 22 -5 25 -42 29 l-43 4
47 1 c38 2 48 6 53 23 10 29 0 35 -81 48 -40 6 -78 13 -85 16 -8 3 -20 1 -28
-4z"/>
<path d="M4859 3506 c-7 -14 -10 -28 -8 -30 8 -9 202 -45 211 -40 16 10 40 66
31 75 -5 5 -57 12 -116 15 l-106 7 -12 -27z"/>
<path d="M7536 3501 c-4 -5 -9 -31 -13 -57 -5 -36 -3 -45 6 -40 7 4 10 13 8
19 -2 6 4 19 12 29 17 19 41 24 41 8 0 -5 -7 -10 -15 -10 -9 0 -15 -9 -15 -25
0 -22 5 -25 35 -27 69 -3 75 -3 74 6 0 5 4 12 11 16 6 4 12 19 13 35 2 22 -3
29 -23 35 -50 14 -129 20 -134 11z"/>
<path d="M7740 3445 c-14 -38 -13 -45 11 -45 11 0 18 -4 14 -9 -8 -14 3 -18
66 -26 l56 -7 13 46 c7 26 10 50 6 54 -4 4 -41 8 -82 10 -72 4 -74 4 -84 -23z"/>
<path d="M7956 3423 c-19 -87 -27 -78 80 -92 53 -7 100 -9 104 -4 11 12 30 74
25 82 -5 8 -84 27 -156 37 -45 6 -47 5 -53 -23z"/>
<path d="M4815 3404 c-15 -37 -19 -54 -11 -54 8 0 160 -20 192 -25 26 -4 33
-1 42 20 22 47 17 51 -88 74 -56 11 -105 21 -110 21 -5 0 -17 -16 -25 -36z"/>
<path d="M8207 3389 c-11 -40 -8 -77 6 -82 8 -3 40 -8 73 -12 32 -4 67 -12 78
-17 13 -7 23 -6 35 6 14 15 13 18 -14 41 -24 20 -27 26 -16 34 8 5 20 7 27 4
22 -8 37 7 23 23 -7 8 -29 13 -58 12 -25 -1 -69 2 -97 7 -48 7 -51 6 -57 -16z"/>
<path d="M7494 3357 c-3 -8 -4 -30 -2 -49 3 -33 4 -33 66 -41 34 -5 69 -6 77
-3 17 6 31 74 19 86 -5 5 -42 12 -81 16 -60 5 -74 4 -79 -9z"/>
<path d="M7701 3304 c-12 -42 -6 -60 15 -43 11 9 14 8 14 -5 0 -16 13 -20 83
-30 34 -4 39 -2 48 21 22 60 4 75 -103 89 l-47 6 -10 -38z"/>
<path d="M4781 3307 c-6 -8 -14 -28 -17 -44 l-6 -31 63 -10 c161 -27 155 -28
173 9 25 49 21 57 -31 64 -27 4 -72 11 -102 16 -69 11 -66 12 -80 -4z"/>
<path d="M7919 3293 c-11 -57 -7 -72 24 -82 49 -15 148 -31 158 -25 12 7 33
83 25 91 -16 16 -205 30 -207 16z"/>
<path d="M8177 3263 c-4 -3 -2 -12 4 -20 7 -8 8 -13 1 -13 -15 0 -25 -52 -11
-60 6 -4 47 -11 90 -14 95 -9 119 1 119 47 0 32 0 32 -77 50 -83 18 -116 21
-126 10z"/>
<path d="M4720 3154 c-31 -70 -30 -71 68 -79 152 -14 143 -16 158 35 7 24 11
46 9 48 -5 6 -176 42 -197 42 -13 0 -25 -15 -38 -46z"/>
<path d="M7892 3166 c-17 -23 -30 -63 -24 -73 4 -5 52 -15 107 -21 108 -12
115 -10 115 39 0 25 -5 28 -67 42 -101 23 -122 25 -131 13z"/>
<path d="M4997 3136 c-7 -17 8 -31 23 -21 6 3 10 1 10 -4 0 -6 -9 -11 -20 -11
-15 0 -20 -7 -20 -29 0 -31 0 -32 99 -47 41 -6 43 -5 36 16 -5 15 -4 20 4 16
9 -6 41 41 41 62 0 10 -28 17 -116 28 -41 5 -52 3 -57 -10z"/>
<path d="M8140 3111 c-12 -23 -13 -58 -2 -65 5 -3 48 -11 96 -18 83 -12 89
-11 102 7 8 10 14 31 14 47 0 25 -4 28 -35 30 -19 0 -41 1 -47 2 -7 1 -12 -7
-10 -16 2 -12 -4 -18 -18 -18 -22 0 -27 15 -8 26 8 5 6 10 -8 15 -36 14 -73
10 -84 -10z"/>
<path d="M5200 3068 c-6 -24 -12 -47 -13 -53 -1 -10 119 -37 139 -31 13 5 37
83 29 95 -5 10 -92 31 -125 31 -15 0 -22 -11 -30 -42z"/>
<path d="M4674 3033 c-3 -10 -11 -31 -16 -46 -6 -15 -8 -31 -4 -35 8 -8 124
-31 175 -35 32 -2 37 2 59 46 14 26 22 50 18 54 -7 7 -160 31 -204 32 -13 1
-25 -6 -28 -16z"/>
<path d="M7850 3034 c0 -8 5 -12 10 -9 21 13 32 -7 14 -26 -9 -10 -20 -16 -24
-14 -4 3 -10 -2 -14 -10 -3 -10 2 -16 17 -19 12 -3 57 -13 100 -22 56 -13 80
-15 88 -7 16 16 1 35 -22 28 -10 -4 -19 -2 -19 4 0 5 12 11 28 13 34 4 47 48
13 48 -12 0 -21 -3 -21 -7 0 -5 -11 -9 -25 -9 -14 -1 -25 2 -25 7 0 5 10 9 23
10 33 1 -24 15 -90 22 -43 5 -53 3 -53 -9z"/>
<path d="M4950 2993 c0 -10 -7 -27 -15 -37 -17 -23 -21 -71 -5 -61 6 4 16 2
23 -3 7 -6 40 -14 74 -17 68 -8 65 -11 79 69 l7 39 -42 -6 c-30 -4 -41 -2 -41
8 0 26 -80 34 -80 8z"/>
<path d="M8115 2997 c-2 -7 -8 -27 -14 -46 -14 -42 -4 -51 54 -51 22 0 58 -5
80 -10 60 -14 75 -6 75 41 0 40 -4 43 -47 39 -12 0 -32 5 -45 13 -32 20 -98
29 -103 14z"/>
<path d="M5161 2956 c-10 -12 -34 -97 -29 -101 8 -6 100 -25 122 -25 20 0 27
6 32 28 4 15 13 40 21 55 8 16 12 31 10 33 -11 12 -148 20 -156 10z"/>
<path d="M4621 2898 c-5 -13 -16 -41 -25 -62 -9 -22 -13 -43 -9 -47 5 -3 49
-12 100 -18 51 -6 99 -14 107 -17 19 -7 33 21 38 76 l3 44 -40 8 c-22 5 -65
16 -96 23 -70 19 -68 19 -78 -7z"/>
<path d="M7811 2883 c-13 -47 2 -62 63 -65 83 -4 91 -5 109 -13 23 -10 34 2
39 39 3 27 -1 30 -50 46 -29 10 -75 21 -102 24 l-49 7 -10 -38z"/>
<path d="M7352 2837 c-16 -44 -16 -80 1 -74 6 2 29 -2 51 -9 59 -21 96 -18 96
6 0 12 7 34 15 50 17 33 26 28 -83 50 -70 13 -66 15 -80 -23z"/>
<path d="M8074 2835 c-3 -20 -3 -40 2 -45 12 -11 134 -40 167 -40 15 0 27 6
27 13 0 6 3 23 7 36 5 20 3 22 -16 16 -17 -5 -21 -2 -21 13 0 26 -23 34 -48
16 -18 -13 -22 -12 -29 1 -5 9 -25 18 -45 22 -36 5 -37 4 -44 -32z"/>
<path d="M4875 2805 c-11 -30 -17 -57 -14 -60 9 -8 161 -35 170 -29 5 3 9 13
9 22 0 9 7 30 15 46 9 16 12 33 7 38 -7 7 -132 37 -158 38 -6 0 -19 -25 -29
-55z"/>
<path d="M6734 2815 c-4 -9 -7 -33 -8 -53 -1 -34 0 -36 49 -48 79 -21 81 -20
101 41 9 31 15 57 13 59 -2 3 -37 8 -76 11 -64 7 -73 5 -79 -10z"/>
<path d="M7570 2811 c0 -11 5 -23 12 -27 7 -5 4 -10 -10 -15 -12 -5 -22 -17
-22 -27 0 -15 13 -20 77 -30 42 -7 80 -9 84 -5 4 5 10 29 14 54 l7 45 -52 12
c-78 18 -110 16 -110 -7z"/>
<path d="M5135 2791 c4 -12 2 -21 -4 -21 -6 0 -11 8 -12 18 0 9 -11 -5 -24
-33 -13 -27 -20 -53 -16 -57 3 -3 38 -10 77 -13 l70 -7 12 40 c22 72 22 72
-71 87 -36 6 -38 5 -32 -14z"/>
<path d="M7792 2769 c2 -14 -2 -23 -8 -22 -16 3 -24 -45 -10 -56 15 -12 104
-30 171 -34 28 -2 30 1 39 46 10 57 5 64 -49 70 -22 3 -64 8 -93 12 -51 7 -52
7 -50 -16z"/>
<path d="M5292 2731 c-16 -53 -15 -60 8 -54 15 4 19 2 15 -9 -5 -11 4 -17 32
-21 21 -4 43 -7 49 -7 14 0 57 97 49 110 -10 16 -57 12 -78 -7 -19 -17 -20
-17 -15 5 5 19 2 22 -21 22 -24 0 -30 -6 -39 -39z"/>
<path d="M6384 2733 c-4 -10 -15 -37 -25 -61 -17 -40 -17 -43 -1 -49 9 -4 20
-11 23 -16 3 -4 28 -11 55 -13 l49 -5 0 70 c0 70 0 71 -30 77 -16 3 -38 8 -48
10 -11 4 -19 -1 -23 -13z"/>
<path d="M8053 2738 c-17 -25 -35 -90 -26 -99 5 -5 33 -9 62 -10 30 -1 70 -8
90 -15 45 -16 56 -6 65 54 5 34 3 42 -9 42 -14 0 -19 -11 -16 -35 1 -13 -46
-18 -54 -6 -3 6 5 17 17 25 12 9 20 18 17 20 -5 5 -117 36 -130 36 -4 0 -11
-6 -16 -12z"/>
<path d="M7307 2678 c-9 -29 -13 -55 -9 -59 14 -12 153 -32 161 -23 5 5 12 30
15 55 l7 46 -65 17 c-36 9 -71 16 -79 16 -7 0 -21 -23 -30 -52z"/>
<path d="M4817 2649 c-24 -49 -25 -55 -10 -66 9 -7 36 -13 59 -13 24 0 46 -4
49 -10 3 -5 17 -10 30 -10 28 0 51 37 57 90 3 30 0 35 -20 38 -21 3 -23 2 -12
-20 9 -19 7 -18 -13 6 -18 21 -36 29 -69 33 l-45 5 -26 -53z"/>
<path d="M7520 2638 c-7 -28 -9 -53 -4 -57 18 -17 107 -32 117 -22 6 6 19 11
28 11 9 0 19 11 23 24 3 13 9 31 12 39 8 22 -38 43 -108 50 l-56 5 -12 -50z"/>
<path d="M5064 2645 c18 -14 18 -15 2 -15 -10 0 -23 -14 -32 -37 -15 -34 -15
-38 2 -50 21 -15 80 -33 111 -33 16 0 25 10 37 46 13 40 13 45 1 40 -8 -3 -15
-1 -15 4 0 6 9 10 20 10 11 0 20 6 20 14 0 13 -95 37 -146 36 -19 -1 -19 -1 0
-15z"/>
<path d="M7745 2620 c-7 -14 -15 -40 -17 -56 -2 -24 0 -28 16 -26 10 2 22 -1
25 -7 9 -13 151 -35 161 -24 13 14 32 82 25 93 -7 12 -72 30 -143 40 -51 6
-54 6 -67 -20z"/>
<path d="M2120 2615 c-7 -8 -24 -15 -39 -15 -39 0 -72 -11 -65 -21 3 -5 10 -7
15 -3 6 3 22 3 35 0 21 -6 24 -9 14 -21 -7 -8 -17 -12 -23 -8 -17 10 -88 -78
-81 -102 18 -64 39 -78 60 -37 6 12 23 32 37 45 35 30 34 45 -2 39 -22 -3 -28
-8 -24 -21 3 -12 1 -11 -11 3 -22 27 -8 38 48 38 26 1 49 5 52 9 2 4 16 1 31
-6 21 -11 29 -12 35 -2 13 20 9 27 -12 27 -13 0 -20 7 -20 19 0 11 -5 23 -10
26 -6 4 -8 15 -5 26 8 23 -17 26 -35 4z"/>
<path d="M5250 2612 c0 -6 8 -13 18 -15 13 -4 12 -5 -5 -6 -22 -1 -26 -9 -38
-67 l-6 -32 63 -11 c34 -6 66 -7 70 -3 11 11 38 104 33 113 -3 4 -22 10 -42
13 -21 4 -50 9 -65 12 -16 3 -28 1 -28 -4z"/>
<path d="M8007 2584 c-3 -11 -8 -38 -12 -60 -6 -37 -4 -42 17 -48 37 -10 88
-7 88 5 0 15 53 1 63 -17 4 -8 12 -14 17 -14 9 0 30 63 30 91 0 19 -37 35 -95
42 -22 3 -54 9 -71 12 -26 6 -33 4 -37 -11z"/>
<path d="M5431 2562 c-15 -27 -14 -32 4 -32 8 0 15 -4 15 -10 0 -5 -7 -10 -15
-10 -13 0 -41 -38 -33 -45 13 -11 111 -35 117 -29 4 5 18 35 30 68 20 48 21
60 10 67 -20 12 -87 11 -95 -2 -5 -8 -9 -8 -14 1 -6 9 -11 7 -19 -8z"/>
<path d="M7280 2560 c0 -5 5 -10 10 -10 6 0 10 -5 10 -10 0 -6 -8 -10 -17 -8
-23 4 -41 -55 -23 -77 7 -8 20 -15 29 -15 13 0 13 2 2 9 -7 5 -10 14 -7 20 11
18 26 13 36 -13 10 -28 77 -46 91 -24 14 23 40 110 35 116 -17 16 -166 28
-166 12z"/>
<path d="M7481 2498 c-5 -18 -11 -46 -13 -63 -3 -27 0 -30 37 -37 22 -4 57 -7
77 -7 32 -1 40 4 53 29 26 51 20 73 -28 93 -23 9 -59 17 -79 17 -32 0 -38 -4
-47 -32z"/>
<path d="M1700 2505 c0 -9 -6 -15 -12 -13 -23 4 -58 -13 -68 -32 -6 -11 -26
-22 -45 -26 -33 -6 -34 -8 -18 -20 17 -12 17 -13 -4 -14 -13 0 -23 -6 -23 -13
0 -7 -15 -21 -32 -32 -25 -15 -29 -20 -16 -23 9 -2 18 -14 20 -27 2 -19 7 -22
17 -16 12 8 13 12 2 25 -12 14 -10 19 9 36 22 19 30 22 71 25 9 0 23 5 30 11
30 22 68 34 75 23 4 -6 2 -14 -3 -18 -6 -3 -12 -18 -15 -33 -4 -22 -1 -27 19
-31 23 -4 31 7 13 18 -13 8 -13 25 1 25 5 0 7 -4 4 -10 -11 -18 23 -11 37 8 7
9 25 23 41 29 15 7 27 17 27 23 0 14 -13 13 -46 -5 -37 -19 -65 -20 -58 -1 6
16 -64 29 -82 15 -6 -5 -14 -6 -17 -2 -12 11 -8 23 8 23 8 0 15 4 15 10 0 5
15 13 32 18 30 8 53 42 29 42 -6 0 -11 -7 -11 -15z"/>
<path d="M5010 2494 c-12 -4 -51 -100 -50 -125 0 -4 27 -10 61 -13 33 -4 67
-10 74 -12 18 -7 47 60 43 100 -3 26 -9 30 -53 42 -53 14 -52 14 -75 8z"/>
<path d="M7695 2446 c-6 -37 -4 -47 14 -65 28 -28 84 -41 75 -18 -3 10 2 20
16 27 28 15 38 5 17 -18 -10 -10 -14 -22 -10 -25 11 -11 43 -8 43 4 0 8 4 8
14 0 17 -14 26 -3 49 56 l17 42 -38 10 c-64 16 -143 31 -167 31 -20 0 -25 -6
-30 -44z"/>
<path d="M5189 2433 c-6 -15 -11 -46 -12 -68 -2 -38 0 -40 28 -43 17 -1 40 -8
53 -14 27 -14 33 -8 55 50 29 72 25 82 -32 82 -29 0 -51 -5 -53 -12 -3 -7 -10
-8 -17 -4 -10 7 -10 10 -1 16 9 5 9 9 1 14 -6 4 -15 -4 -22 -21z"/>
<path d="M7980 2440 c-7 -4 -16 -27 -20 -51 -5 -24 -12 -52 -15 -61 -9 -23 23
-25 39 -2 7 10 18 13 30 8 18 -7 18 -8 0 -21 -16 -12 -15 -13 17 -15 19 -1 45
-1 58 0 14 1 30 -3 37 -9 10 -8 17 -3 28 20 20 38 20 61 1 61 -8 0 -15 5 -15
10 0 6 7 10 15 10 8 0 15 4 15 9 0 13 -52 20 -72 10 -11 -6 -18 -6 -18 -1 0 6
-8 12 -17 16 -56 20 -72 23 -83 16z"/>
<path d="M7221 2380 l-10 -30 40 0 c21 0 39 -4 39 -9 0 -11 -56 -25 -69 -17
-10 7 -24 -21 -16 -34 6 -11 83 -30 129 -33 l39 -2 15 53 c10 37 12 56 4 64
-7 7 -135 38 -159 38 0 0 -6 -13 -12 -30z"/>
<path d="M8222 2373 c-6 -10 -12 -38 -13 -62 -3 -39 -1 -45 21 -53 14 -5 41
-7 60 -4 19 3 49 7 65 9 17 2 39 8 50 14 28 15 68 63 60 71 -4 4 -41 12 -83
18 -42 6 -93 15 -114 19 -30 6 -38 4 -46 -12z"/>
<path d="M5538 2333 c-8 -27 -10 -49 -6 -51 4 -2 8 -10 8 -17 0 -14 22 -25 51
-25 21 0 25 20 7 38 -9 9 -9 12 0 12 7 0 15 -13 19 -30 3 -16 11 -30 17 -30
12 0 56 93 56 117 0 8 -98 33 -133 33 -3 0 -12 -21 -19 -47z"/>
<path d="M7446 2358 c-2 -7 -8 -36 -14 -65 l-9 -52 51 -16 c96 -30 104 -27
126 35 11 30 19 60 20 65 0 13 -92 35 -118 28 -11 -2 -23 0 -26 6 -10 15 -26
14 -30 -1z"/>
<path d="M7660 2304 c-15 -38 -13 -84 4 -84 8 0 16 7 20 15 3 8 13 15 23 15
14 0 12 -5 -11 -23 -27 -22 -28 -24 -10 -41 13 -14 28 -17 61 -13 24 2 46 1
49 -4 3 -5 16 -9 30 -9 18 0 24 5 22 18 -1 9 0 22 4 27 3 6 9 26 13 45 l6 36
-89 22 c-111 27 -110 27 -122 -4z"/>
<path d="M1357 2304 c-3 -4 -27 -10 -54 -15 -59 -11 -67 -19 -52 -53 7 -14 10
-28 7 -31 -9 -10 -37 6 -41 23 -3 10 -5 2 -6 -15 -1 -26 3 -33 18 -33 11 0 23
-5 26 -11 4 -6 13 -8 21 -5 23 9 15 -8 -13 -28 -14 -11 -39 -19 -54 -19 -16 0
-26 -4 -23 -9 3 -5 0 -15 -6 -23 -16 -19 -1 -19 24 0 21 16 76 21 76 7 0 -12
59 -2 66 10 9 14 -14 27 -37 21 -10 -3 -19 0 -19 6 0 6 10 11 22 11 20 0 20 1
3 20 -17 19 -17 20 7 29 13 5 30 16 37 25 7 9 19 16 26 16 16 0 40 28 31 37
-7 7 -91 -32 -119 -56 -25 -20 -32 -7 -12 23 10 15 27 26 40 26 24 0 62 35 47
44 -5 3 -12 3 -15 0z"/>
<path d="M5886 2293 c-11 -42 -17 -108 -8 -94 8 11 12 10 21 -6 6 -12 24 -23
41 -25 30 -4 33 -2 57 54 29 65 60 81 49 26 -3 -18 -9 -50 -12 -70 l-7 -38 47
-1 c25 -1 51 -2 58 -3 14 -1 47 92 40 117 -2 9 -5 17 -6 17 0 0 -50 9 -111 20
-138 25 -162 25 -169 3z"/>
<path d="M5146 2283 c-4 -4 -14 -23 -21 -40 -8 -18 -19 -33 -24 -33 -6 0 -11
-7 -11 -16 0 -12 7 -15 27 -11 18 3 42 -3 72 -20 24 -13 47 -21 51 -16 13 15
33 92 27 106 -3 8 -23 17 -45 21 -22 3 -47 8 -54 11 -8 3 -18 2 -22 -2z"/>
<path d="M7921 2248 c-4 -13 -11 -42 -15 -65 l-6 -41 53 -12 c80 -17 131 -22
142 -13 16 13 46 106 37 115 -9 9 -150 38 -183 38 -11 0 -23 -10 -28 -22z"/>
<path d="M5312 2221 c-10 -28 -9 -31 20 -45 18 -9 41 -13 56 -9 31 7 27 -17
-6 -32 -12 -5 -20 -15 -18 -21 2 -6 0 -16 -6 -22 -8 -8 -3 -15 16 -23 14 -7
28 -10 29 -8 4 5 57 155 57 162 0 2 -17 7 -37 11 -21 3 -52 9 -69 12 -28 5
-32 3 -42 -25z"/>
<path d="M7174 2212 c-3 -15 -10 -39 -14 -54 -11 -33 5 -47 20 -18 6 11 15 20
20 20 16 0 16 -35 0 -48 -13 -11 -13 -12 0 -10 8 1 25 -3 36 -10 12 -6 36 -10
53 -9 27 2 33 8 46 42 25 69 23 76 -15 90 -19 6 -59 15 -87 18 -51 6 -53 5
-59 -21z"/>
<path d="M5485 2154 c-9 -33 -21 -72 -26 -88 -5 -16 -9 -31 -9 -33 0 -6 90
-43 105 -43 14 0 81 188 70 198 -6 6 -15 8 -82 18 l-42 7 -16 -59z"/>
<path d="M6544 2163 c-3 -15 -10 -45 -15 -66 -11 -42 -4 -61 18 -53 9 4 21 2
27 -2 6 -5 26 -12 43 -15 30 -6 33 -4 39 21 3 15 14 44 25 64 24 45 20 55 -21
56 -16 0 -40 4 -53 7 -12 4 -30 9 -39 11 -13 4 -19 -3 -24 -23z"/>
<path d="M7400 2161 c0 -21 5 -28 18 -27 9 0 20 5 23 9 3 4 12 1 19 -8 10 -12
10 -15 -3 -15 -8 0 -20 -7 -27 -15 -18 -21 -44 -20 -35 3 4 11 3 14 -4 7 -6
-6 -12 -21 -13 -35 -3 -22 2 -25 42 -32 67 -10 132 -9 125 2 -3 5 -12 7 -20 3
-26 -9 -17 21 15 50 17 16 30 34 30 41 0 16 -90 46 -136 46 -31 0 -34 -3 -34
-29z"/>
<path d="M5675 2171 c-3 -2 -5 -13 -5 -23 0 -15 5 -17 25 -12 15 4 25 2 25 -5
0 -6 -15 -14 -32 -19 -29 -7 -35 -16 -55 -73 -27 -77 -19 -91 52 -93 l47 -1
19 50 c10 28 19 51 19 52 0 2 -10 2 -22 0 -18 -2 -23 3 -23 23 0 33 32 40 38
8 3 -21 5 -19 20 14 26 58 23 63 -43 74 -33 6 -63 8 -65 5z"/>
<path d="M6722 2098 c-22 -93 -22 -92 28 -100 25 -4 57 -10 72 -13 24 -6 29
-3 38 21 6 15 13 46 16 68 6 40 5 42 -27 53 -19 6 -52 14 -74 18 l-41 6 -12
-53z"/>
<path d="M7616 2128 c-11 -43 -8 -51 19 -44 14 4 25 3 25 -1 0 -10 -42 -38
-52 -35 -5 1 -8 -2 -8 -8 0 -15 53 -39 101 -46 24 -4 51 -10 60 -15 21 -11 43
5 44 33 1 13 5 30 9 36 4 7 9 26 11 43 4 30 3 31 -25 25 -17 -3 -30 -2 -30 3
0 8 -104 31 -137 31 -6 0 -13 -10 -17 -22z"/>
<path d="M5845 2128 c-2 -7 -18 -53 -34 -103 -17 -49 -31 -93 -31 -97 0 -4 13
-8 29 -8 17 0 33 -4 36 -10 3 -5 16 -10 29 -10 19 0 25 9 40 61 9 33 13 66 9
72 -4 7 -9 3 -13 -13 -5 -20 -13 -26 -43 -28 -39 -3 -51 12 -17 23 30 10 50
34 50 61 0 25 14 32 25 14 5 -8 11 -7 21 1 22 18 17 27 -23 38 -50 14 -73 14
-78 -1z"/>
<path d="M5999 2083 c-6 -16 -17 -50 -24 -78 -8 -27 -19 -66 -24 -85 -12 -39
0 -63 21 -42 17 17 38 15 38 -3 0 -9 9 -15 24 -15 17 0 26 8 33 28 23 63 64
194 61 196 -7 4 -99 26 -108 26 -6 0 -15 -12 -21 -27z"/>
<path d="M7867 2046 c-9 -35 -17 -69 -17 -74 0 -5 22 -12 48 -16 53 -7 99 7
156 47 64 45 55 56 -66 82 -46 10 -88 19 -93 22 -6 2 -18 -25 -28 -61z"/>
<path d="M6927 2079 c-12 -43 -8 -59 14 -59 12 0 17 -4 13 -11 -3 -6 -17 -8
-30 -5 -19 5 -24 2 -24 -13 0 -25 16 -36 24 -15 3 8 10 13 15 9 6 -3 8 -12 4
-20 -3 -11 2 -15 18 -15 13 0 30 -4 38 -9 17 -11 43 -3 35 10 -3 5 1 9 9 9 8
0 21 22 31 52 21 66 12 76 -76 84 -62 6 -65 6 -71 -17z"/>
<path d="M6166 2058 c-3 -13 -6 -34 -6 -48 0 -15 -4 -30 -9 -35 -10 -11 -41
-103 -41 -121 0 -18 47 -26 69 -12 11 7 24 9 28 5 4 -5 1 -12 -7 -17 -12 -8
-10 -10 8 -10 14 0 23 6 24 18 2 31 4 37 16 59 26 47 5 57 -50 23 -40 -24 -48
-25 -48 -4 0 9 9 18 19 21 11 3 22 11 25 19 3 8 19 14 35 14 20 0 34 7 41 20
6 11 8 20 4 20 -3 0 -1 7 6 15 17 20 6 31 -39 39 -22 3 -46 8 -54 12 -9 3 -17
-3 -21 -18z"/>
<path d="M7127 2043 c-7 -39 -1 -44 44 -37 24 4 39 3 39 -4 0 -14 -25 -22 -66
-22 -28 0 -35 -4 -40 -25 -8 -31 -12 -27 57 -48 78 -24 119 -23 119 3 0 11 -4
20 -9 20 -5 0 -8 11 -8 25 0 15 5 25 14 25 8 0 11 -5 7 -12 -5 -10 -4 -10 5
-2 6 6 13 23 14 39 2 26 -2 29 -53 41 -30 7 -58 10 -62 8 -4 -2 -9 0 -13 6
-13 21 -43 10 -48 -17z"/>
<path d="M6338 2033 c-8 -14 -53 -182 -53 -195 0 -5 3 -7 6 -5 4 1 15 -5 25
-14 27 -24 63 -33 78 -19 8 6 17 27 21 48 3 20 15 64 26 96 10 33 19 62 19 66
0 4 -15 10 -32 14 -18 3 -45 9 -59 12 -15 3 -29 2 -31 -3z"/>
<path d="M7356 2008 c-2 -7 -8 -28 -14 -47 -10 -29 -9 -34 6 -38 10 -2 24 -14
31 -25 12 -20 11 -20 -26 -14 -53 10 -32 -7 37 -29 38 -13 55 -15 58 -6 5 15
23 14 20 -1 -2 -7 3 -13 11 -13 10 0 21 25 33 74 19 76 19 81 -4 85 -7 2 -24
6 -38 9 -64 15 -111 17 -114 5z"/>
<path d="M6500 1965 c0 -36 15 -46 37 -24 6 6 16 8 22 5 18 -11 13 -26 -9 -26
-20 0 -44 -32 -33 -44 3 -3 1 -6 -6 -6 -7 0 -15 10 -18 21 -5 18 -9 12 -24
-27 -26 -67 -24 -78 16 -97 70 -33 88 -23 115 66 11 34 10 40 -7 52 -17 13
-17 14 2 21 25 9 35 23 35 51 0 18 -9 23 -50 32 -77 17 -80 16 -80 -24z"/>
<path d="M7577 1973 c-3 -5 -8 -29 -12 -55 -6 -40 -5 -48 9 -48 9 0 16 -4 16
-10 0 -5 -9 -10 -19 -10 -23 0 -36 -29 -17 -36 17 -7 136 27 136 38 0 4 9 8
20 8 39 0 70 22 70 50 0 26 -4 29 -85 49 -91 23 -111 25 -118 14z"/>
<path d="M6685 1960 c-10 -16 -35 -113 -31 -118 9 -8 36 32 36 54 0 26 18 32
38 12 9 -9 12 -8 12 5 0 9 7 17 15 17 8 0 15 -9 15 -20 0 -11 1 -23 3 -27 1
-4 -12 -10 -29 -15 -17 -4 -37 -14 -43 -22 -9 -11 -5 -15 24 -20 34 -7 51 -36
20 -36 -8 0 -15 4 -15 10 0 5 -7 7 -15 4 -8 -4 -15 -1 -15 5 0 6 -12 11 -26
11 -16 0 -24 -5 -21 -12 2 -7 -2 -21 -10 -30 -8 -9 -12 -22 -8 -27 10 -17 43
-13 54 7 10 16 10 16 11 -1 0 -15 7 -18 42 -15 38 3 42 6 55 42 7 22 14 56 16
75 1 20 9 41 17 48 21 16 6 28 -55 42 -27 7 -57 14 -67 17 -9 3 -19 0 -23 -6z"/>
<path d="M6876 1888 c-3 -17 -6 -34 -6 -39 0 -17 35 -9 48 11 7 11 19 20 27
20 18 0 11 -45 -11 -71 -8 -8 -14 -22 -14 -30 0 -8 -5 -20 -12 -27 -9 -9 -5
-12 19 -12 32 0 57 20 35 28 -7 2 -12 10 -12 18 0 20 38 17 43 -3 6 -25 25 23
29 73 3 34 0 38 -27 46 -16 4 -49 10 -71 12 -40 4 -42 3 -48 -26z"/>
<path d="M7080 1861 c-14 -26 -13 -28 10 -34 27 -7 25 -27 -2 -24 -18 2 -24
-4 -26 -26 l-3 -27 72 6 c79 8 110 25 101 57 -4 16 -2 19 11 14 19 -7 33 8 16
18 -20 13 -119 18 -119 6 0 -14 -37 -15 -45 -1 -3 6 1 10 10 10 9 0 13 5 10
10 -10 16 -23 12 -35 -9z"/>
</g>
</svg>
