<?xml version="1.0" standalone="no"?>
<!DOCTYPE svg PUBLIC "-//W3C//DTD SVG 20010904//EN"
 "http://www.w3.org/TR/2001/REC-SVG-20010904/DTD/svg10.dtd">
<svg version="1.0" xmlns="http://www.w3.org/2000/svg"
 width="625.000000pt" height="660.000000pt" viewBox="0 0 625.000000 660.000000"
 preserveAspectRatio="xMidYMid meet">
<metadata>
Created by potrace 1.16, written by Peter Selinger 2001-2019
</metadata>
<g transform="translate(0.000000,660.000000) scale(0.100000,-0.100000)"
fill="#000000" stroke="none">
<path d="M0 4516 c0 -2079 0 -2084 20 -2079 11 3 20 0 20 -6 0 -6 -9 -11 -20
-11 -15 0 -20 -6 -19 -27 2 -25 2 -25 6 -5 4 19 7 21 19 11 20 -16 47 -3 40
19 -5 15 -1 19 24 19 18 0 30 -6 30 -14 0 -7 6 -13 14 -13 20 0 46 11 46 19 0
12 -62 33 -86 28 -13 -2 -27 -1 -29 3 -8 12 55 21 75 10 10 -6 29 -10 41 -10
18 0 20 -4 14 -22 -12 -41 -10 -62 6 -66 12 -2 18 7 23 33 l7 36 19 -23 18
-23 -5 28 c-5 27 -5 28 16 16 11 -8 21 -19 21 -26 0 -7 9 -13 20 -13 13 0 20
7 20 19 0 22 17 37 28 26 4 -4 1 -10 -5 -12 -18 -7 -16 -30 3 -37 24 -9 26 -8
19 14 -6 20 9 28 20 10 9 -15 24 -12 21 4 -1 8 -8 21 -14 29 -9 10 -10 17 -2
22 5 3 10 2 10 -4 0 -6 7 -7 17 -4 9 4 14 2 10 -3 -3 -6 3 -11 14 -11 16 -1
18 1 10 11 -7 8 -7 17 -1 24 7 9 7 9 -2 2 -16 -13 -48 -13 -48 0 0 6 6 10 13
8 7 -2 14 0 15 5 5 18 1 27 -15 28 -15 0 -15 2 2 8 l20 8 -20 5 c-15 4 -16 6
-3 7 9 0 19 9 21 19 3 9 5 -2 6 -25 0 -24 6 -43 12 -43 5 0 8 4 5 9 -4 5 0 12
6 14 10 4 10 6 1 6 -7 1 -13 8 -13 17 0 8 4 13 10 9 10 -6 7 44 -5 83 -6 19
-5 21 11 16 13 -5 12 -1 -6 13 -14 11 -41 26 -61 33 -42 15 -75 37 -67 45 3 3
22 -3 42 -14 20 -12 36 -18 36 -15 0 4 -14 31 -31 60 -17 30 -26 54 -19 54 6
0 15 -11 20 -24 12 -32 30 -42 30 -17 0 11 -4 23 -10 26 -5 3 -10 13 -10 21 0
8 5 14 10 14 6 0 10 -6 10 -14 0 -7 9 -16 20 -19 11 -3 20 -1 20 4 0 9 -51 59
-61 59 -3 0 -17 9 -30 21 -13 11 -31 25 -39 29 -8 5 -12 12 -8 16 4 4 14 1 23
-6 9 -7 18 -10 22 -6 3 3 14 -1 24 -10 16 -15 17 -13 8 28 -5 24 -12 51 -15
61 -3 9 -1 17 5 17 6 0 11 -6 11 -12 0 -7 8 -22 16 -33 16 -19 16 -19 9 5 -4
14 -10 31 -13 38 -3 9 5 12 27 10 17 -1 31 -5 31 -9 0 -4 7 -9 15 -13 11 -4
15 2 15 25 0 22 -10 41 -35 66 -20 20 -34 41 -32 47 2 6 -4 22 -13 36 -19 27
-70 126 -70 135 0 15 20 2 25 -16 12 -35 58 -108 74 -114 15 -6 14 1 -18 85
-23 61 -26 74 -11 65 5 -3 15 -24 21 -45 21 -69 20 -36 -1 54 -23 100 -23 96
-11 96 5 0 17 -42 27 -92 l18 -93 18 43 c10 23 23 42 29 42 6 0 6 -8 -1 -21
-16 -29 -3 -100 17 -92 8 3 18 15 22 26 8 23 -9 101 -27 119 -21 21 -13 32 9
12 l22 -19 -6 43 c-5 41 7 60 16 25 3 -10 3 9 1 42 l-3 60 20 -24 19 -23 -6
48 c-4 34 -3 45 4 35 8 -11 11 -8 15 15 l4 29 2 -30 c2 -34 21 -73 21 -43 0
11 5 15 15 12 19 -8 19 -2 0 43 -8 20 -12 39 -9 42 4 3 9 0 11 -6 6 -18 33
-16 33 1 0 8 -4 18 -10 21 -16 10 -11 28 6 21 14 -5 15 -1 9 31 -4 21 -10 40
-13 43 -4 3 -7 30 -7 60 0 33 -9 77 -22 110 -30 77 -38 110 -24 110 6 0 11 -9
11 -20 0 -11 5 -20 10 -20 14 0 13 11 -6 56 -11 26 -13 39 -5 42 6 2 11 15 11
28 0 39 17 27 18 -13 1 -21 4 -56 8 -77 l6 -40 19 35 c10 18 19 27 20 19 0 -8
4 -4 8 10 7 23 9 21 20 -20 22 -85 28 -90 36 -32 4 28 11 50 15 47 4 -3 6 -23
3 -45 -4 -25 -2 -40 5 -40 11 0 26 48 31 105 2 20 2 20 16 1 14 -19 15 -18 16
10 1 16 3 22 6 12 2 -10 9 -18 14 -18 5 0 9 -10 9 -22 1 -22 1 -22 12 -3 6 11
12 21 14 23 1 2 12 -1 23 -7 18 -10 21 -8 27 15 4 15 2 35 -5 45 -13 22 -14
29 -3 29 5 0 19 -18 31 -41 23 -40 49 -49 43 -14 -3 17 -2 17 14 5 14 -12 13
-8 -4 25 -12 22 -30 53 -40 68 -12 18 -17 38 -14 55 5 24 8 22 33 -33 l28 -60
1 38 c0 20 5 37 11 37 7 0 10 -12 7 -30 -3 -21 0 -30 9 -30 10 0 12 7 9 20 -3
11 -9 29 -12 40 -3 11 -1 20 3 20 5 0 15 -23 22 -51 7 -27 15 -48 18 -46 2 3
-2 30 -10 61 -9 31 -11 58 -7 61 5 3 14 -20 21 -50 l12 -55 23 56 c26 65 34
75 34 46 0 -11 -5 -24 -10 -27 -13 -8 -13 -35 0 -35 6 0 10 7 10 15 0 8 5 15
11 15 6 0 8 -8 4 -19 -3 -11 -1 -22 5 -26 6 -4 10 7 10 29 0 20 5 36 10 36 6
0 10 -7 10 -16 0 -8 4 -13 9 -10 5 3 7 15 4 25 -3 13 1 21 14 24 14 3 11 7
-14 17 -40 15 -43 29 -5 22 l27 -5 -27 22 c-16 13 -28 27 -28 33 0 6 7 5 17
-3 15 -12 16 -12 9 6 -4 11 -9 34 -12 50 l-4 30 12 -32 c6 -18 15 -33 19 -33
5 0 6 7 3 15 -4 8 -1 15 5 15 6 0 11 8 12 18 1 28 17 -17 18 -50 1 -25 21 -42
21 -18 0 6 9 10 21 10 17 0 13 8 -26 46 -25 26 -44 52 -41 59 5 14 -56 85 -89
103 -11 6 -17 14 -13 18 4 4 14 1 23 -6 22 -18 19 -9 -10 30 -29 39 -32 52
-10 44 11 -5 15 2 15 27 0 26 3 31 10 19 9 -13 12 -12 25 4 23 30 25 17 10
-54 -14 -64 -13 -66 12 -105 25 -38 26 -38 35 -16 4 12 6 27 2 32 -3 5 2 19
10 30 10 15 12 28 6 45 -5 13 -5 26 -1 29 5 2 20 -30 35 -73 14 -42 24 -63 22
-47 -2 17 -7 39 -11 50 -8 20 -8 20 13 1 12 -11 22 -14 22 -8 0 7 7 12 15 12
8 0 15 7 15 15 0 8 4 15 9 15 5 0 7 -19 5 -42 -3 -37 -2 -39 5 -13 5 17 9 23
10 14 1 -18 41 -68 41 -52 0 22 -24 79 -41 99 -26 28 -24 41 3 18 13 -12 7 2
-16 34 -20 30 -35 59 -33 65 2 6 12 -2 23 -17 10 -15 27 -37 36 -49 18 -22 18
-22 5 8 -6 17 -18 37 -24 45 -87 103 -123 151 -123 162 0 7 14 -3 30 -22 21
-25 28 -29 24 -15 -4 16 0 21 15 22 16 1 21 -4 21 -21 0 -13 7 -29 15 -36 8
-7 15 -9 15 -6 0 4 12 -5 27 -19 54 -50 60 -19 8 46 -19 24 -35 51 -35 60 0 8
-4 19 -9 25 -19 19 -99 174 -93 178 4 2 25 -27 46 -65 22 -37 43 -66 47 -63 4
2 12 -4 18 -13 9 -16 12 -16 21 -3 14 21 12 55 -5 96 -8 20 -12 40 -9 45 2 5
0 28 -6 51 -23 90 -23 85 -6 65 8 -11 17 -36 21 -57 4 -26 11 -37 19 -34 8 3
19 -10 29 -33 l16 -38 -4 73 c-2 40 1 72 6 72 5 0 9 -29 9 -65 0 -70 29 -147
53 -142 7 1 12 -8 11 -20 0 -12 4 -19 9 -16 13 8 27 -17 27 -49 0 -16 5 -28
10 -28 12 0 13 16 1 58 -6 20 -6 32 0 32 5 0 9 -6 10 -12 0 -7 5 -2 10 11 5
13 6 33 3 45 -6 19 -5 19 10 7 14 -11 12 -2 -8 43 -29 65 -29 66 -18 66 4 0
21 -32 37 -72 28 -66 30 -69 36 -42 l6 29 17 -42 c10 -24 22 -43 27 -43 5 0 3
12 -4 28 -8 15 -12 33 -10 40 3 7 -7 32 -21 57 -14 24 -22 46 -17 50 11 6 41
-32 41 -52 0 -6 4 -14 9 -17 5 -3 4 13 -2 36 -6 25 -7 43 -1 45 5 2 8 27 7 55
-2 41 0 47 6 28 5 -14 9 -40 10 -57 1 -33 15 -44 24 -20 3 6 6 -5 6 -25 1 -20
6 -40 12 -44 9 -5 10 11 5 60 -4 36 -4 66 1 66 14 0 43 -60 44 -93 2 -30 2
-29 8 8 l7 40 19 -32 c24 -40 45 -50 45 -23 0 11 5 20 10 20 7 0 7 6 1 19 -6
10 -7 21 -4 25 4 4 15 -8 24 -26 16 -31 17 -31 24 -9 5 18 9 20 21 10 17 -14
19 2 2 19 -6 6 -9 15 -5 19 4 3 14 -2 22 -13 9 -12 14 -14 15 -6 0 7 4 11 8 8
17 -10 4 90 -17 138 -12 27 -20 54 -17 60 2 6 13 -9 24 -34 11 -25 21 -41 21
-36 1 5 9 2 18 -5 15 -12 16 -12 11 6 -3 11 -9 28 -13 38 -15 36 13 15 30 -23
22 -48 35 -37 35 27 0 54 17 64 45 29 15 -19 25 -24 30 -16 4 6 -1 20 -11 31
-9 10 -14 22 -10 26 4 4 11 2 15 -6 6 -9 10 -6 14 10 3 13 2 28 -4 35 -5 7
-11 30 -13 51 -1 21 -6 52 -11 68 -18 68 14 5 39 -77 24 -79 60 -158 73 -158
2 0 1 4 -2 10 -3 5 -6 35 -6 67 0 76 -15 121 -51 159 -16 18 -25 34 -20 38 5
3 13 -1 16 -10 4 -9 9 -14 13 -11 3 4 -5 21 -19 39 -15 19 -25 47 -26 68 -1
24 2 30 8 20 17 -27 19 -4 5 50 -8 30 -15 62 -15 70 0 13 1 13 11 0 7 -11 9 8
7 68 -2 45 0 82 4 82 5 0 8 -12 8 -27 1 -59 13 -148 20 -153 4 -3 15 -30 25
-60 17 -49 19 -52 26 -30 l7 25 1 -25 c1 -20 3 -22 11 -10 5 8 10 25 10 38 0
12 5 22 11 22 7 0 9 -10 5 -27 -4 -15 -3 -29 3 -33 7 -4 8 -17 2 -37 -5 -17
-5 -36 0 -44 6 -10 9 -7 9 11 0 14 5 32 10 40 7 10 8 -11 5 -65 -7 -97 4 -123
36 -85 l21 25 -7 -25 c-16 -60 -17 -70 -6 -70 6 0 11 7 11 15 0 8 5 15 10 15
6 0 10 10 10 23 1 19 4 17 20 -13 l19 -35 1 33 c0 32 20 47 20 15 1 -17 1 -17
11 0 6 9 7 27 3 40 -6 19 -5 20 9 9 13 -11 15 -10 10 7 -3 12 -1 21 6 21 6 0
11 -11 11 -25 0 -14 5 -25 11 -25 7 0 10 -14 7 -36 -3 -29 -2 -33 7 -20 19 26
35 18 36 -16 0 -28 2 -30 9 -13 5 11 9 16 9 10 1 -5 6 -3 11 5 7 12 11 8 16
-18 4 -18 11 -35 15 -38 12 -7 12 -5 -7 49 -9 25 -14 54 -11 64 3 13 7 8 12
-14 4 -18 11 -33 16 -33 11 0 11 3 -1 34 -8 22 -6 28 15 42 29 19 32 55 10 94
-8 14 -14 31 -15 38 0 27 20 9 50 -44 17 -31 34 -54 37 -51 3 4 -29 76 -72
161 -42 85 -75 162 -72 173 4 17 4 17 11 -2 16 -41 119 -245 123 -242 2 2 -3
24 -11 48 -8 24 -22 69 -30 100 -32 112 -12 102 25 -13 12 -37 28 -73 37 -80
13 -12 14 -8 8 27 -4 22 -23 76 -41 119 -35 81 -37 99 -10 76 18 -15 18 -11 5
24 -5 14 -5 28 -1 31 5 2 19 -32 30 -78 32 -119 31 -118 52 -65 l19 48 -40 90
c-44 100 -44 100 -31 100 5 0 16 -17 25 -37 16 -36 16 -22 0 35 -4 12 -2 22 3
22 6 0 18 -35 27 -77 20 -89 54 -191 67 -199 12 -7 11 18 0 50 -7 18 -6 28 5
36 7 7 14 22 15 34 0 20 1 21 9 1 5 -11 9 -33 9 -48 1 -15 8 -30 16 -33 8 -4
15 -16 15 -27 0 -14 3 -18 10 -11 12 12 16 90 6 129 l-8 30 22 -25 22 -25 -6
28 c-6 27 8 39 17 15 3 -7 3 17 1 55 -3 42 -1 67 6 67 5 0 10 -7 10 -15 0 -8
6 -15 14 -15 8 0 14 -6 13 -12 -1 -41 4 -90 9 -85 3 3 6 28 6 56 -1 28 3 53 9
56 5 4 9 -11 9 -32 0 -21 5 -45 10 -53 6 -10 10 -11 10 -2 0 6 5 12 10 12 6 0
10 -8 10 -17 0 -12 8 -5 21 17 26 43 28 45 35 37 3 -3 -8 -31 -26 -62 -20 -36
-29 -60 -23 -66 6 -6 24 22 49 75 21 47 41 85 44 86 3 0 4 -53 3 -117 -1 -94
0 -110 8 -78 5 22 10 46 11 53 2 21 18 13 18 -10 0 -13 5 -30 11 -38 7 -11 9
19 4 103 -3 70 -2 117 4 117 9 0 20 -92 24 -197 1 -29 5 -53 10 -53 4 0 7 4 7
10 0 5 7 49 15 97 15 86 23 145 24 171 1 7 5 11 9 8 5 -3 5 -31 1 -63 -10 -82
-10 -103 0 -103 17 0 48 65 94 199 25 73 48 136 51 139 16 15 1 -47 -42 -175
-26 -79 -45 -143 -41 -143 4 0 12 14 18 30 5 17 13 30 16 30 4 0 4 -13 0 -30
-11 -49 4 -34 37 38 17 37 32 62 35 56 5 -14 -50 -136 -79 -176 -23 -33 -36
-128 -17 -128 8 0 10 -14 5 -47 -4 -33 -3 -43 4 -33 5 8 10 26 10 40 0 14 5
32 11 40 7 11 8 -3 4 -47 -6 -55 -5 -63 10 -63 13 0 16 -6 12 -26 -2 -14 -1
-22 3 -17 11 12 41 138 47 200 3 29 10 53 14 53 13 0 11 -26 -6 -119 -15 -78
-15 -81 5 -101 12 -12 20 -33 20 -52 0 -17 3 -28 7 -24 4 4 6 23 4 42 -1 19 2
34 8 34 10 0 16 -56 11 -105 l-1 -20 14 20 c17 24 47 184 47 249 0 28 5 46 11
46 9 0 10 -25 5 -87 -4 -53 -3 -83 2 -74 12 17 18 6 26 -51 4 -27 11 -48 15
-48 13 0 34 86 26 109 -3 12 -2 21 4 21 5 0 13 -17 17 -37 4 -21 10 -45 15
-53 15 -26 10 53 -6 106 -17 57 -19 78 -5 69 6 -3 10 -15 10 -25 0 -10 7 -25
15 -34 8 -8 15 -28 15 -44 0 -17 6 -32 14 -35 25 -10 25 44 -1 116 -25 71 -26
118 -1 57 33 -79 32 -78 36 -30 2 24 8 48 14 51 6 4 13 30 16 58 2 28 7 51 11
51 8 0 7 -280 -1 -300 -8 -18 -16 -80 -11 -80 2 0 8 12 13 26 6 14 14 22 20
19 15 -9 23 39 17 110 -3 37 -1 65 4 65 5 0 10 -15 11 -32 2 -51 3 -56 11 -64
4 -4 7 4 7 17 0 35 11 70 20 64 4 -3 -1 -51 -11 -107 -16 -91 -17 -104 -4
-114 8 -6 15 -16 15 -23 0 -6 4 -11 9 -11 9 0 16 42 34 207 15 140 32 164 21
28 -5 -55 -9 -119 -9 -142 0 -24 -4 -43 -8 -43 -5 0 -5 -19 -1 -42 8 -52 8
-58 -1 -80 -4 -10 -3 -18 3 -18 5 0 13 11 16 25 9 35 27 31 20 -4 -3 -16 -2
-31 3 -34 15 -10 13 93 -3 131 -7 19 -14 41 -14 50 0 29 41 -26 47 -63 8 -48
29 -44 37 6 5 32 2 49 -14 76 -11 19 -20 42 -20 51 1 10 9 3 21 -18 14 -26 18
-28 13 -10 -4 14 -7 32 -7 40 1 8 -3 33 -9 54 -7 28 -6 41 2 46 8 5 5 29 -9
85 -12 44 -18 82 -13 87 4 4 24 -56 44 -135 l37 -142 0 103 c1 61 5 102 11
102 6 0 11 -21 11 -47 1 -27 3 -40 6 -30 2 9 9 17 14 17 11 0 11 -7 -1 -49 -5
-19 -6 -30 -1 -25 13 13 91 196 91 214 1 12 3 11 11 -2 7 -13 5 -26 -7 -50 -9
-18 -22 -60 -30 -94 -12 -62 -44 -135 -70 -165 -8 -8 -17 -37 -20 -62 -6 -38
-4 -46 7 -42 17 7 120 143 127 168 2 9 8 17 13 17 17 0 9 -26 -27 -79 -26 -38
-34 -59 -30 -77 9 -33 40 -33 34 1 -9 44 11 27 23 -20 16 -62 23 -50 10 16 -5
30 -6 58 -1 63 5 5 12 -8 15 -30 4 -22 13 -66 20 -99 12 -57 13 -53 7 69 -4
97 -2 127 6 122 7 -4 12 -33 12 -69 0 -34 5 -69 10 -77 8 -12 10 -11 10 8 0
12 4 22 9 22 5 0 12 -10 14 -22 2 -13 3 -10 2 7 -1 16 4 35 11 42 17 17 25 16
18 -2 -4 -8 -2 -15 4 -15 6 0 13 14 17 30 10 45 20 36 22 -20 1 -27 8 -69 15
-92 11 -39 12 -41 16 -15 4 29 12 33 30 15 9 -9 12 -1 12 36 0 31 4 45 11 41
6 -4 8 -29 5 -63 l-5 -57 11 53 c6 28 15 52 20 52 5 0 7 -13 4 -30 -3 -16 -8
-45 -11 -62 l-6 -33 17 29 c13 23 15 43 9 107 -5 55 -4 79 4 79 7 0 11 -22 11
-55 0 -30 5 -55 10 -55 6 0 10 -30 11 -67 1 -58 2 -63 10 -38 5 17 12 74 16
127 4 60 10 95 16 91 6 -3 7 -41 4 -92 -4 -76 -4 -81 6 -41 8 33 12 39 15 23
2 -12 -4 -50 -12 -84 -21 -79 -20 -83 9 -29 13 25 27 69 30 97 8 57 19 62 29
13 4 -21 10 -29 17 -24 12 7 9 -22 -6 -71 -3 -11 5 1 20 28 14 26 30 47 35 47
13 0 -6 -43 -43 -100 -38 -57 -57 -113 -56 -159 l1 -36 24 50 c13 28 24 56 24
63 0 6 5 12 11 12 11 0 7 -21 -17 -79 -17 -40 -17 -41 -4 -41 6 0 10 6 10 14
0 8 5 18 11 22 9 5 10 -14 7 -71 l-5 -78 27 33 c15 18 32 30 37 27 12 -7 24
19 48 106 10 36 21 57 28 54 20 -7 10 -76 -24 -167 -28 -76 -46 -190 -29 -190
3 0 19 28 35 63 15 34 30 56 32 50 3 -7 -7 -38 -21 -69 -33 -71 -32 -73 3 -38
42 43 66 124 52 179 -13 53 -13 55 -1 55 5 0 12 -16 16 -35 4 -21 12 -35 21
-35 11 0 13 -7 9 -27 -3 -16 -2 -35 4 -43 5 -8 10 -12 11 -7 1 4 2 10 3 15 2
7 16 149 21 205 1 15 6 31 10 35 4 4 4 -42 0 -103 -4 -60 -7 -119 -6 -130 0
-11 -7 -27 -16 -37 -9 -10 -13 -21 -9 -25 3 -4 -10 -23 -30 -44 -35 -36 -35
-36 -10 -34 14 2 42 13 61 25 32 20 47 17 26 -6 -6 -5 -5 -20 3 -38 l12 -30
18 50 c10 27 20 55 22 62 2 7 8 11 13 8 5 -4 3 -26 -6 -53 -27 -88 -27 -91 0
-58 14 17 29 26 34 21 4 -4 -19 -34 -52 -65 -83 -77 -87 -83 -79 -125 7 -42
16 -45 32 -13 11 22 11 22 11 -5 1 -15 6 -30 11 -33 16 -10 12 56 -5 89 -18
33 -13 45 10 26 14 -12 15 -10 10 13 -5 17 -3 27 4 27 6 0 11 -11 11 -24 0
-13 5 -26 11 -28 9 -3 9 -10 0 -26 -7 -13 -8 -22 -2 -22 13 0 31 64 24 90 -6
21 12 28 20 8 3 -7 15 9 27 35 12 27 24 46 27 43 8 -7 -26 -104 -53 -155 -27
-48 -29 -55 -14 -46 6 3 10 -1 10 -9 0 -9 -4 -16 -10 -16 -12 0 -60 -70 -60
-87 0 -17 25 -17 39 0 6 8 12 23 14 35 5 31 17 40 17 12 0 -22 1 -23 20 -5 12
11 20 31 20 52 0 18 5 33 10 33 6 0 10 -5 10 -11 0 -5 4 -8 9 -4 5 3 11 -3 13
-12 3 -13 11 -4 25 27 12 26 22 37 22 27 1 -28 -29 -86 -51 -98 -34 -18 -60
-101 -59 -186 1 -13 -4 -23 -9 -23 -6 0 -10 -6 -10 -13 0 -7 -13 -34 -29 -59
-27 -42 -28 -47 -10 -45 12 1 19 9 19 22 1 19 1 19 15 1 13 -17 14 -15 20 18
4 20 11 36 16 36 5 0 6 8 4 18 -3 9 1 4 9 -13 12 -26 14 -27 19 -10 4 18 5 18
6 1 1 -12 6 -16 17 -12 9 3 18 6 20 6 2 0 4 12 4 26 0 39 17 20 23 -27 3 -23
10 -46 16 -52 7 -7 8 0 2 24 -16 63 -21 99 -12 99 5 0 14 -27 20 -61 7 -34 15
-59 18 -56 3 3 5 34 6 69 0 35 2 53 4 40 3 -13 11 -26 18 -28 8 -3 12 -11 10
-17 -11 -37 -14 -77 -5 -72 6 3 10 21 10 40 0 19 5 37 10 40 6 3 10 -1 10 -9
0 -21 17 -20 29 1 14 26 25 9 11 -17 -6 -12 -10 -24 -7 -26 2 -3 17 25 32 61
15 36 32 65 36 65 13 0 -25 -96 -56 -141 -26 -40 -29 -57 -19 -97 6 -21 7 -21
20 -5 13 17 13 17 14 -1 0 -18 1 -19 20 -1 11 10 23 15 28 11 4 -5 -8 -20 -25
-35 -22 -18 -33 -36 -33 -53 0 -14 -7 -45 -15 -69 l-16 -43 27 25 c14 13 38
44 52 68 14 24 28 39 30 32 7 -22 -115 -171 -139 -171 -6 0 -7 -4 -4 -10 3 -5
0 -10 -8 -10 -8 0 -25 -9 -38 -20 l-24 -21 35 6 c33 6 34 5 16 -10 -11 -8 -25
-15 -31 -15 -12 0 -75 -61 -75 -73 0 -4 5 -7 10 -7 6 0 10 7 10 16 0 8 5 12
10 9 6 -4 8 -11 5 -16 -10 -14 38 -10 59 6 24 18 39 10 26 -15 -14 -27 -12
-50 5 -50 9 0 12 -6 9 -15 -4 -10 0 -15 14 -15 11 0 25 7 32 15 15 19 34 20
27 2 -3 -8 -1 -20 4 -28 6 -9 9 1 10 31 0 34 2 40 9 25 7 -17 9 -17 9 -2 1 9
5 17 11 17 5 0 9 -8 8 -17 -1 -10 0 -27 1 -38 1 -17 3 -18 11 -5 8 12 10 8 11
-15 1 -16 0 -40 -1 -52 -1 -16 4 -23 16 -23 13 0 16 6 11 35 -6 39 7 48 18 13
7 -21 8 -19 18 15 6 20 14 37 19 37 13 0 9 -49 -7 -80 -10 -20 -11 -30 -4 -32
8 -3 6 -15 -5 -37 -10 -18 -15 -35 -12 -38 8 -9 26 7 27 25 1 10 4 7 8 -7 13
-47 31 -36 31 18 0 28 5 51 10 51 6 0 8 -12 5 -27 -3 -16 -2 -22 1 -15 3 6 10
12 15 12 6 0 5 -9 -1 -21 -7 -11 -9 -23 -6 -26 3 -3 8 2 12 11 3 9 14 16 23
16 16 -1 -18 -36 -65 -68 -16 -11 -16 -12 -1 -8 40 12 0 -37 -51 -61 -26 -13
-26 -13 11 -9 20 3 37 1 37 -4 0 -9 -14 -14 -68 -25 -18 -4 -29 -11 -26 -17 4
-5 19 -7 35 -4 16 3 29 1 29 -4 0 -6 -4 -10 -9 -10 -5 0 -11 -7 -14 -14 -9
-23 24 -7 54 26 14 15 30 28 34 28 5 0 4 -5 -3 -12 -7 -7 -12 -20 -12 -29 0
-9 -14 -32 -31 -50 -38 -41 -63 -78 -57 -84 2 -2 20 9 40 25 21 18 39 26 43
20 3 -5 -7 -18 -22 -27 -15 -10 -29 -26 -30 -36 -1 -17 1 -16 23 4 13 12 27
20 30 17 8 -9 -37 -58 -68 -74 -41 -21 -34 -32 22 -32 28 0 50 4 50 9 0 5 5 9
10 9 6 0 10 -9 10 -20 0 -12 -7 -20 -16 -20 -20 0 -66 -35 -57 -44 3 -3 -6 -6
-20 -6 -28 0 -66 -17 -79 -35 -16 -21 -7 -25 22 -10 32 17 50 19 50 7 0 -15
-70 -42 -108 -42 -21 0 -43 -5 -48 -10 -6 -6 -31 -11 -56 -13 -26 -1 -44 -5
-41 -10 3 -5 -2 -14 -11 -20 -10 -8 -13 -17 -7 -25 7 -11 11 -11 24 2 19 20
27 20 27 1 0 -8 -12 -21 -27 -30 l-28 -16 37 5 c28 3 40 0 47 -11 8 -16 39
-15 84 2 10 4 17 3 17 -4 0 -14 -32 -28 -83 -36 -38 -6 -43 -25 -6 -25 34 0
20 -16 -23 -26 -23 -5 -44 -15 -46 -23 -3 -8 0 -11 6 -7 5 3 12 -1 15 -8 4
-10 17 -13 44 -10 l38 4 -25 -20 c-14 -11 -28 -20 -32 -20 -5 0 -8 -8 -8 -17
0 -15 4 -13 21 7 20 24 21 24 16 3 -4 -18 -1 -23 16 -23 46 0 2 -14 -63 -20
-9 -1 -6 -5 8 -10 35 -15 26 -30 -20 -31 -24 -1 -50 -1 -58 0 -15 2 7 -20 40
-39 18 -10 14 -15 -20 -24 -17 -5 -21 -4 -11 2 11 8 11 11 0 18 -8 4 -15 2
-17 -6 -3 -9 -10 -6 -22 10 -13 17 -19 20 -25 10 -5 -9 -4 -11 3 -6 8 5 12 -1
12 -14 0 -15 -5 -20 -14 -17 -7 3 -19 0 -26 -6 -9 -9 -11 -7 -8 8 2 14 -2 19
-12 17 -8 -2 -12 0 -8 3 4 4 0 21 -8 37 -12 23 -20 29 -37 24 -12 -3 -32 -6
-45 -6 -13 0 -21 -4 -18 -8 2 -4 0 -14 -6 -22 -8 -12 -9 -12 -4 2 3 10 1 20
-4 23 -6 4 -10 0 -10 -8 0 -8 -8 -18 -17 -21 -15 -6 -15 -8 -3 -16 10 -7 11
-10 3 -10 -7 0 -13 -9 -13 -20 0 -26 54 -28 69 -2 9 16 11 16 28 -2 10 -10 13
-16 6 -12 -6 3 -18 -3 -27 -15 -11 -16 -21 -20 -40 -15 -15 4 -26 2 -26 -4 0
-5 7 -10 15 -10 8 0 15 -5 15 -10 0 -7 -6 -7 -19 0 -17 8 -23 5 -38 -20 -17
-30 -33 -39 -33 -20 0 6 3 10 8 10 4 0 13 9 20 20 10 16 10 20 -2 20 -8 0 -16
-6 -19 -12 -3 -7 -12 -30 -21 -50 -14 -33 -14 -38 -1 -38 10 0 12 6 8 18 -6
16 -6 16 10 0 26 -26 21 -35 -28 -49 -46 -14 -55 -23 -32 -32 12 -5 -25 -11
-53 -8 -13 2 -13 1 0 -8 8 -6 29 -11 47 -11 24 0 31 -4 27 -14 -3 -8 -13 -12
-24 -9 -24 6 -67 -16 -51 -27 10 -5 9 -9 -3 -13 -8 -3 -18 -2 -21 3 -4 6 -12
10 -18 10 -7 0 -4 -5 6 -11 11 -7 16 -18 13 -34 -3 -18 1 -26 16 -31 16 -5 18
-8 7 -15 -8 -5 -25 -9 -38 -9 -20 0 -22 2 -11 15 16 19 14 21 -30 29 -34 6
-34 6 -6 -5 17 -7 24 -14 17 -19 -7 -3 -9 -14 -6 -22 5 -12 18 -15 53 -12 41
3 44 2 22 -8 -30 -13 -56 -11 -86 8 -15 10 -24 12 -29 4 -3 -6 -11 -8 -16 -5
-5 4 -9 2 -9 -3 0 -5 -10 -14 -22 -21 -23 -11 -23 -11 2 -5 14 4 32 13 41 21
14 12 17 12 23 -2 3 -9 -1 -18 -9 -21 -27 -11 -15 -24 21 -24 22 0 41 -6 48
-15 10 -14 14 -13 33 5 22 20 59 28 48 10 -3 -5 -2 -10 4 -10 5 0 11 5 13 12
3 7 12 9 22 5 9 -4 15 -11 12 -16 -5 -7 -29 -12 -123 -23 -7 -1 -14 -7 -17
-15 -3 -7 -17 -13 -30 -13 -19 0 -24 4 -21 20 2 11 -1 20 -7 20 -5 0 -8 -6 -5
-14 3 -8 -5 -31 -19 -52 -19 -28 -21 -35 -8 -30 13 5 15 2 11 -16 -7 -27 17
-58 47 -59 18 -1 18 -2 3 -6 -10 -3 -24 0 -31 6 -10 9 -15 7 -19 -9 -3 -11 -1
-18 4 -14 5 3 9 -2 9 -10 0 -9 -5 -16 -11 -16 -6 0 -9 -6 -6 -14 4 -10 -7 -20
-31 -31 l-37 -16 35 6 c32 5 53 22 45 35 -8 13 78 8 91 -5 12 -12 11 -14 -5
-12 -11 0 -17 5 -15 9 3 4 1 8 -5 8 -5 0 -13 -5 -16 -10 -4 -6 -10 -8 -15 -5
-4 3 -10 -2 -14 -10 -7 -19 3 -24 37 -21 31 4 33 -5 11 -39 -15 -23 -14 -23 8
-18 19 5 21 3 11 -8 -16 -17 -17 -43 -1 -33 7 4 8 3 4 -4 -4 -6 -13 -9 -21 -5
-11 4 -15 -2 -15 -20 0 -26 -15 -44 -24 -29 -2 4 -17 7 -33 6 -42 -2 -43 -3
-37 -18 3 -7 -2 -16 -11 -20 -9 -3 -13 -2 -10 4 8 13 -55 70 -77 70 -10 0 -18
-4 -18 -10 0 -5 8 -10 18 -10 18 0 74 -39 57 -40 -6 0 -15 4 -20 9 -6 5 -23
11 -40 13 -16 3 -24 3 -17 1 11 -4 17 -25 13 -47 -1 -5 7 -15 19 -23 11 -8 20
-22 20 -32 0 -11 12 -24 30 -31 16 -7 30 -19 30 -26 0 -15 9 -16 140 -14 47 1
87 5 88 11 2 5 20 9 39 9 30 0 35 3 30 20 -4 17 0 20 31 20 25 0 32 -3 23 -9
-16 -11 -6 -51 14 -51 8 0 17 9 20 20 8 26 29 26 22 1 -4 -18 3 -20 102 -23
58 -2 110 -1 115 3 4 4 24 5 42 2 21 -4 34 -2 34 5 0 6 -7 9 -15 6 -8 -4 -15
-1 -15 5 0 18 24 13 42 -8 16 -18 16 -20 0 -25 -9 -3 3 -4 28 -3 35 2 45 -2
48 -15 4 -22 -17 -28 -132 -30 -53 -1 -99 -6 -102 -9 -2 -4 -20 -3 -39 2 -19
5 -60 8 -92 5 -32 -3 -91 -5 -130 -5 -42 -1 -73 -5 -73 -11 0 -5 15 -11 33
-11 31 -2 31 -2 3 -6 -19 -3 -34 2 -46 14 -16 18 -32 19 -230 17 -117 -2 -215
-5 -218 -8 -14 -15 17 -19 125 -18 75 0 111 -2 98 -8 -11 -5 -35 -9 -52 -9
-18 -1 -33 -5 -33 -9 0 -5 10 -8 22 -8 13 1 22 -4 20 -12 -1 -6 5 -12 13 -12
9 0 12 6 9 15 -4 8 -2 15 4 15 6 0 12 -4 14 -10 2 -8 51 -12 128 -9 86 3 161
-5 171 -17 10 -12 14 -12 20 -2 6 9 9 6 9 -9 0 -19 -6 -23 -30 -23 -16 0 -30
-5 -30 -11 0 -6 -5 -7 -12 -2 -7 4 -67 7 -133 7 -101 -1 -109 0 -50 5 l70 7
-97 2 c-61 1 -98 -2 -98 -8 0 -6 11 -8 28 -4 15 4 25 4 22 1 -3 -3 -24 -10
-46 -15 -35 -8 -43 -7 -53 9 -6 11 -17 19 -24 18 -9 0 -9 -2 0 -6 14 -5 18
-33 5 -33 -4 0 -13 5 -20 12 -9 9 -12 9 -12 1 0 -7 -12 -10 -27 -8 -16 2 -33
4 -39 4 -13 1 -23 30 -17 48 3 8 14 11 28 7 20 -5 22 -3 17 21 -3 21 -9 25
-24 21 -11 -2 -31 -1 -44 4 -13 5 -24 6 -24 1 0 -4 -11 -6 -25 -3 -14 2 -22 8
-19 13 3 5 0 9 -5 9 -6 0 -11 -4 -11 -9 0 -21 -31 -20 -40 2 -5 12 -9 19 -9
14 -1 -4 -16 -1 -33 6 -38 15 -173 17 -173 2 0 -5 15 -9 33 -7 22 2 32 -1 27
-7 -4 -7 5 -11 24 -11 16 0 31 4 33 10 2 5 19 7 40 4 21 -4 35 -10 32 -15 -3
-5 0 -9 6 -9 6 0 9 -4 6 -9 -7 -10 17 -21 45 -21 10 0 19 -4 19 -9 0 -6 -16
-7 -35 -4 -27 4 -35 2 -35 -10 0 -9 -8 -18 -18 -20 -13 -4 -11 -5 6 -6 13 -1
22 5 22 14 0 8 5 15 11 15 6 0 8 -9 4 -20 -4 -14 -2 -20 9 -20 20 0 30 17 14
23 -7 3 -3 6 9 6 16 1 21 -3 17 -14 -4 -10 -1 -14 7 -11 47 14 79 15 79 1 0
-10 -10 -15 -31 -15 -19 0 -37 -7 -45 -18 -13 -16 -13 -16 -14 1 0 9 -4 17
-10 17 -5 0 -14 -8 -19 -17 -9 -16 -10 -16 -11 -2 0 9 -9 19 -20 22 -11 3 -18
1 -15 -4 3 -4 -23 -6 -60 -2 -56 5 -65 4 -65 -11 0 -9 -4 -16 -10 -16 -5 0
-10 7 -10 15 0 18 -31 20 -48 3 -17 -17 -42 -19 -42 -2 0 25 -28 15 -42 -16
-14 -32 -24 -38 -30 -18 -3 7 -5 -4 -6 -25 -1 -25 -10 -47 -24 -63 -24 -25
-45 -33 -32 -12 5 8 2 9 -9 5 -13 -5 -17 0 -17 20 0 24 1 25 13 9 12 -16 14
-16 25 9 7 15 9 31 6 37 -4 6 -2 8 3 5 9 -6 22 21 23 44 0 7 -56 3 -69 -6 -6
-3 -11 -1 -11 4 0 6 -8 10 -17 9 -31 -2 -53 2 -53 10 0 10 152 9 168 -1 7 -5
12 -4 12 2 0 6 -4 11 -8 11 -5 0 -17 7 -28 15 -18 15 -18 15 8 12 15 -2 30 -6
34 -10 4 -3 14 -2 23 3 9 4 25 8 35 7 11 -1 20 3 22 8 3 6 -25 9 -73 8 -111
-3 -111 -3 -88 -13 19 -8 19 -9 -2 -9 -13 -1 -23 4 -23 9 0 6 -5 10 -11 10 -5
0 -8 -4 -5 -9 3 -4 -48 -8 -114 -7 -66 0 -120 -2 -120 -5 0 -6 102 -20 143
-20 21 0 22 -12 3 -28 -11 -10 -20 -10 -37 0 -19 10 -25 9 -36 -7 -11 -15 -13
-15 -13 -2 0 13 -12 15 -67 14 -36 0 -68 -6 -70 -11 -2 -6 35 -23 82 -38 74
-23 92 -26 130 -17 44 10 103 4 90 -8 -3 -4 -22 -5 -41 -3 l-34 3 31 -31 c30
-31 31 -32 14 -57 -21 -33 -9 -46 15 -16 21 26 26 27 33 8 3 -8 -1 -13 -10
-12 -9 0 -18 -5 -21 -13 -3 -8 0 -11 7 -7 6 4 11 2 11 -4 0 -6 -10 -15 -22
-20 -18 -8 -14 -8 17 -4 90 12 92 13 87 39 -2 15 0 25 7 25 6 0 11 -9 11 -19
0 -11 5 -23 11 -27 15 -9 -40 -56 -57 -50 -18 7 -120 -31 -117 -43 2 -6 -3 -8
-11 -5 -8 3 -17 1 -21 -5 -3 -6 -12 -11 -18 -11 -7 1 -2 9 11 19 12 11 22 24
22 29 0 5 7 15 15 22 8 7 15 17 15 23 0 6 -14 -2 -32 -19 -17 -16 -28 -23 -24
-16 9 15 -69 17 -79 2 -4 -6 6 -10 22 -10 56 0 57 -14 4 -63 -28 -26 -53 -47
-56 -47 -3 0 -16 11 -29 25 -13 14 -28 25 -35 25 -6 0 -11 4 -11 9 0 4 -19 11
-42 14 -36 5 -45 2 -70 -23 -15 -16 -28 -32 -28 -37 0 -13 77 -46 89 -39 6 4
11 3 11 -3 0 -5 -8 -14 -17 -20 -10 -5 -14 -13 -10 -17 5 -5 11 -3 15 3 10 15
79 53 97 53 8 0 15 -5 15 -11 0 -6 8 -8 19 -4 11 3 22 1 26 -5 3 -5 0 -10 -8
-10 -7 0 -28 -14 -46 -32 -30 -30 -34 -31 -76 -21 -36 8 -45 7 -49 -4 -4 -9
-13 -12 -25 -8 -12 3 -21 0 -25 -10 -3 -9 -11 -13 -17 -9 -8 4 -7 9 2 15 11 7
9 9 -6 9 -12 0 -26 5 -33 12 -9 9 -12 9 -12 1 0 -7 5 -15 10 -18 15 -9 12 -25
-5 -25 -8 0 -14 3 -14 8 3 19 -2 23 -15 13 -8 -7 -12 -21 -8 -33 3 -13 1 -19
-5 -15 -11 7 -73 -13 -73 -24 0 -11 45 -19 48 -9 5 15 42 12 42 -2 0 -21 14
-35 40 -42 24 -7 24 -6 -5 18 -16 14 -27 27 -25 28 3 2 13 10 23 17 15 12 17
11 15 -9 -3 -19 5 -25 42 -39 25 -9 48 -20 52 -26 4 -5 8 0 8 13 0 13 -8 25
-17 28 -49 16 -49 16 -29 23 14 5 16 10 8 15 -17 10 -15 23 3 30 10 4 27 -7
46 -29 16 -18 47 -39 67 -46 32 -10 34 -13 17 -20 -19 -7 -19 -8 1 -8 12 -1
24 -8 28 -16 3 -8 10 -15 16 -15 6 0 8 5 5 10 -3 6 -1 10 4 10 6 0 11 -4 11
-8 0 -10 343 -8 388 2 36 8 43 23 13 28 -17 3 -18 5 -6 22 18 24 69 15 61 -12
-9 -29 10 -44 60 -48 40 -3 43 -2 19 5 l-30 9 38 1 c20 0 37 -2 37 -6 0 -10
126 -10 136 0 12 12 26 8 18 -5 -5 -8 -1 -8 10 1 12 11 20 11 24 3 5 -7 45
-11 109 -11 86 0 101 2 97 14 -4 9 0 15 10 15 9 0 16 -7 16 -15 0 -13 11 -16
53 -14 28 1 55 7 59 13 4 6 11 6 20 0 19 -15 61 -15 70 -1 6 9 8 9 8 0 0 -7 7
-13 15 -13 8 0 15 5 15 11 0 5 6 7 12 3 19 -12 92 -12 100 0 4 6 11 6 20 -2
19 -15 321 -8 326 8 2 5 8 10 14 10 6 0 8 -6 5 -13 -4 -10 8 -13 47 -12 28 0
57 -4 65 -10 11 -8 12 -5 7 13 -6 18 -4 22 14 22 16 0 20 -5 16 -15 -4 -10 1
-15 17 -16 12 -1 37 -3 55 -5 18 -2 32 1 32 7 0 5 -4 8 -9 4 -5 -3 -12 -1 -16
5 -3 5 -11 10 -16 10 -6 0 -8 -4 -5 -9 4 -5 -4 -7 -15 -4 -20 6 -19 7 7 18 36
15 61 9 69 -16 4 -10 10 -19 15 -19 5 0 7 7 4 15 -4 8 -2 16 2 16 5 1 20 3 33
4 22 2 23 1 8 -10 -9 -7 -17 -15 -17 -18 0 -4 36 -6 80 -5 44 0 80 4 80 8 0 4
16 7 35 8 19 1 35 -2 35 -6 0 -4 22 -8 50 -10 l49 -3 1 352 c0 284 -2 350 -12
342 -15 -12 -546 -30 -668 -23 -23 1 -23 2 -5 9 11 5 26 6 33 4 6 -3 12 2 12
10 0 13 17 16 91 19 49 2 94 -1 100 -6 6 -6 9 -5 9 2 0 7 6 12 13 11 24 -3 37
1 37 12 0 9 -27 10 -97 5 -54 -4 -108 -10 -119 -12 -13 -4 -23 0 -27 9 -5 12
11 15 99 16 57 1 114 6 126 11 28 11 27 11 -145 12 -76 0 -141 -2 -144 -5 -3
-3 -10 -4 -17 -1 -7 3 -23 0 -37 -6 -20 -9 -17 -10 22 -7 39 4 79 -9 79 -24 0
-9 -166 -8 -180 1 -12 8 -8 10 15 11 l30 1 -35 9 c-19 5 -45 10 -58 11 -12 0
-25 4 -28 9 -3 5 -15 2 -28 -6 -18 -12 -23 -12 -23 -2 0 16 -4 15 107 26 47 5
93 12 103 16 9 4 23 3 30 -3 24 -20 188 -19 185 1 -2 6 6 13 17 13 11 1 26 2
33 3 23 2 12 21 -13 21 -14 0 -25 4 -25 9 0 5 -3 17 -7 27 -5 14 -2 16 15 12
15 -4 22 -2 22 8 0 8 -4 14 -10 14 -5 0 -10 12 -10 27 0 29 -15 22 -23 -12 -3
-12 -5 -6 -6 15 -1 31 2 36 24 38 21 1 25 -3 25 -26 0 -15 3 -22 8 -15 5 8 13
8 31 -1 15 -9 20 -16 12 -20 -6 -4 -15 -4 -21 -1 -6 3 -10 2 -10 -4 0 -5 -3
-16 -6 -25 -4 -12 0 -16 16 -16 11 0 19 4 15 9 -3 5 5 11 17 13 17 2 22 9 20
23 -2 11 -9 23 -15 27 -8 5 -6 8 5 8 9 0 21 -7 26 -16 10 -18 89 -47 103 -38
6 3 34 5 62 5 29 -1 72 -2 97 -2 44 -1 43 -1 -20 -14 l-65 -12 75 2 c41 2 83
3 92 4 9 1 24 8 32 17 14 13 16 48 16 225 0 133 -4 209 -10 209 -5 0 -10 5
-10 11 0 5 5 7 10 4 6 -4 10 15 10 50 0 51 -2 56 -27 67 -27 11 -28 12 -5 16
28 4 40 31 21 43 -10 6 -10 9 -2 9 10 0 13 447 13 2160 l0 2160 -3125 0 -3125
0 0 -2084z"/>
<path d="M3335 2707 c-12 -10 -14 -16 -7 -21 7 -4 12 -17 12 -30 0 -19 -6 -22
-42 -25 -44 -2 -87 -19 -58 -22 47 -5 68 -4 64 3 -6 9 8 11 45 8 13 -1 27 4
32 11 4 8 11 10 15 7 4 -4 -1 -19 -10 -32 -24 -37 -20 -46 14 -39 17 3 30 2
29 -3 -3 -20 2 -23 26 -14 18 7 25 6 25 -3 0 -6 5 -3 11 8 6 11 23 30 38 43
l26 23 -27 -12 c-16 -7 -28 -16 -28 -21 0 -4 -4 -8 -10 -8 -6 0 -9 5 -7 12 1
8 -10 13 -27 13 -16 0 -31 6 -34 14 -3 8 0 11 5 8 6 -4 20 5 32 20 23 25 23
26 3 45 -19 20 -19 20 -26 -6 -4 -15 -13 -26 -24 -26 -9 0 -28 -3 -42 -6 -19
-4 -22 -3 -10 5 16 11 15 12 -15 30 -19 11 -19 11 -1 9 10 -2 21 3 23 10 6 16
-9 15 -32 -1z"/>
<path d="M3093 2630 c4 -17 2 -19 -21 -14 -26 6 -27 6 -7 -11 15 -13 16 -15 3
-11 -15 4 -35 -11 -53 -43 -5 -8 -4 -12 2 -8 5 3 21 -5 36 -19 15 -14 32 -22
37 -19 6 3 11 1 11 -4 1 -6 2 -15 3 -20 2 -17 20 -28 52 -34 32 -6 34 -5 48
43 1 3 5 11 10 19 7 11 5 13 -8 8 -28 -11 -40 4 -17 20 12 8 26 11 31 8 20
-12 9 7 -20 37 -19 18 -36 28 -46 24 -8 -3 -13 -2 -10 2 2 4 -9 15 -26 25 -30
17 -30 17 -25 -3z"/>
<path d="M2597 2605 c-17 -24 -17 -25 0 -32 33 -12 112 -91 119 -120 7 -27 21
-29 46 -6 20 18 25 5 6 -16 -11 -11 -10 -13 2 -9 8 2 20 27 27 54 7 27 21 65
32 85 l20 36 -35 11 c-63 19 -100 -9 -88 -66 5 -26 5 -26 -10 -8 -12 15 -16
16 -16 5 -1 -10 -6 -8 -18 7 -10 12 -28 26 -40 33 -12 6 -22 19 -21 29 0 10 3
12 6 5 2 -7 12 -13 21 -13 15 1 14 3 -2 15 -26 19 -28 19 -49 -10z"/>
<path d="M1940 2598 c0 -6 3 -8 7 -5 9 9 44 -23 37 -34 -3 -5 -15 -9 -27 -10
-21 0 -21 -1 2 -10 17 -7 27 -6 31 2 6 8 9 8 14 0 4 -6 0 -18 -8 -27 -18 -18
-21 -28 -6 -19 6 4 9 1 8 -7 -2 -7 -12 -18 -23 -25 -19 -11 -19 -12 7 -18 35
-9 59 -35 33 -35 -26 0 -13 -10 21 -16 16 -3 31 -9 32 -15 2 -5 10 -9 17 -9
12 0 12 7 0 41 -18 51 -18 52 0 45 11 -4 15 1 15 17 0 16 -3 18 -9 8 -7 -10
-15 -4 -35 25 -14 21 -24 39 -22 41 2 2 20 -5 40 -17 48 -27 56 -25 56 9 0 31
-18 51 -29 33 -9 -14 -87 3 -108 23 -17 18 -53 20 -53 3z"/>
<path d="M2424 2525 c-6 -26 -27 -36 -22 -11 2 8 -1 16 -7 18 -15 4 -19 -43
-4 -52 9 -6 9 -11 0 -21 -6 -8 -18 -23 -26 -34 -13 -20 -14 -20 -38 3 -13 13
-34 24 -45 25 -11 0 -18 5 -15 10 3 4 11 6 18 3 8 -3 15 -1 17 3 4 12 48 -6
48 -20 0 -8 -6 -7 -17 2 -16 13 -17 12 -4 -4 13 -16 16 -16 30 -3 21 22 3 38
-45 39 -22 0 -45 5 -51 10 -9 7 -13 5 -13 -7 0 -11 -9 -16 -31 -16 -27 0 -30
-2 -19 -15 7 -8 17 -12 22 -9 15 10 29 -18 16 -33 -6 -7 -14 -11 -18 -8 -5 3
-12 0 -16 -6 -5 -9 1 -10 20 -5 19 5 26 3 26 -9 0 -12 -12 -15 -55 -15 -38 0
-55 -4 -55 -13 0 -8 14 -13 36 -14 20 0 39 -5 43 -11 4 -7 12 -8 21 -1 13 8
13 10 0 19 -13 8 -13 10 2 10 23 0 32 -18 18 -35 -9 -11 -6 -17 15 -31 23 -15
28 -15 37 -3 7 10 8 6 4 -13 -5 -22 -3 -28 10 -28 13 0 14 -3 4 -15 -10 -11
-9 -18 3 -30 9 -8 18 -15 21 -15 12 0 6 98 -6 102 -7 3 -9 12 -5 22 4 11 13
16 22 12 11 -4 14 1 13 19 -1 14 -8 27 -15 29 -18 7 -16 26 2 26 8 0 16 6 16
13 1 6 4 -4 8 -23 6 -33 9 -35 51 -41 48 -6 45 -12 -4 -9 -42 3 -50 -19 -18
-48 16 -15 28 -20 30 -13 2 6 8 11 14 11 6 0 4 -8 -5 -17 -13 -15 -13 -23 -3
-47 10 -25 13 -27 25 -12 12 14 15 14 33 -7 l19 -22 -6 25 c-4 14 -9 33 -11
43 -3 9 -1 17 5 17 6 0 11 -7 11 -15 0 -31 18 -14 24 23 3 20 8 54 12 76 4 24
3 36 -3 33 -5 -3 -15 16 -22 44 -12 44 -16 49 -35 43 -11 -3 -25 -10 -30 -15
-13 -12 -46 -11 -46 1 0 6 9 10 20 10 13 0 17 5 14 14 -3 8 3 27 13 43 15 24
15 26 1 15 -11 -9 -18 -10 -23 -2 -11 17 -24 11 -31 -15z"/>
<path d="M3306 2508 c-7 -21 -3 -48 6 -48 4 0 8 -6 8 -13 0 -8 -12 -14 -30
-14 -40 0 -48 -10 -24 -29 18 -15 18 -15 -8 -9 -16 3 -28 1 -28 -5 0 -5 -6
-10 -14 -10 -9 0 -12 -7 -9 -21 5 -17 11 -20 34 -15 32 6 38 -4 14 -24 -10 -9
-15 -9 -15 -1 0 6 -16 11 -35 11 -32 0 -35 -2 -25 -19 5 -11 7 -28 3 -38 -5
-14 -1 -13 20 6 15 14 27 19 27 13 0 -6 -5 -14 -10 -17 -8 -5 -7 -11 1 -21 6
-8 10 -16 8 -17 -2 -1 -19 -12 -36 -25 -19 -12 -33 -17 -33 -11 0 8 -4 9 -13
0 -8 -6 -17 -8 -20 -4 -11 10 -8 -30 3 -47 8 -12 10 -11 10 8 0 12 5 22 10 22
6 0 8 -12 6 -26 -6 -31 -4 -30 -36 -39 -20 -6 -23 -5 -12 6 18 19 15 29 -10
30 -13 0 -18 3 -12 5 24 10 2 43 -34 52 l-37 10 46 1 c43 1 47 3 47 26 0 14
-2 25 -3 25 -1 0 -19 -7 -38 -15 -42 -17 -87 -20 -87 -4 0 5 4 8 9 5 5 -4 20
-2 33 3 20 9 18 10 -17 11 -35 1 -37 2 -17 11 13 5 22 15 19 21 -5 14 -5 14
-54 3 -21 -4 -33 -3 -33 4 0 6 5 11 10 11 6 0 10 7 10 15 0 8 6 12 14 9 18 -7
24 4 35 58 5 24 12 53 16 64 9 28 -9 34 -60 20 -39 -10 -40 -12 -29 -35 l12
-23 22 22 c12 12 24 19 26 17 7 -7 -49 -61 -65 -65 -7 -1 -19 3 -27 9 -8 7
-17 9 -21 6 -3 -4 6 -12 21 -18 28 -13 33 -28 14 -47 -17 -17 -28 -15 -28 6 0
9 -9 27 -18 40 -15 20 -24 22 -53 17 -49 -10 -70 -43 -70 -115 0 -32 3 -64 6
-71 5 -8 1 -9 -14 -4 -12 4 -21 2 -21 -4 0 -6 7 -11 15 -11 8 0 15 -9 15 -21
0 -16 -4 -19 -22 -14 -20 5 -21 4 -5 -5 9 -6 17 -18 17 -26 0 -12 -3 -12 -24
1 -19 13 -26 13 -32 4 -4 -8 -2 -15 5 -17 8 -3 22 -13 32 -23 19 -19 20 -19
28 3 9 22 9 22 17 3 13 -36 25 -46 40 -34 27 22 14 -8 -15 -35 -18 -17 -36
-26 -45 -23 -10 4 -13 1 -9 -8 3 -8 9 -13 13 -10 4 3 10 -2 14 -10 3 -8 1 -15
-4 -15 -6 0 -10 -12 -10 -27 0 -21 3 -24 12 -15 21 21 29 13 12 -13 -23 -35
-4 -30 25 6 21 27 23 34 13 67 -14 45 -9 53 8 12 7 -16 16 -30 21 -30 15 0 27
44 22 76 -3 16 -2 26 2 22 5 -4 14 -3 21 3 9 7 12 1 11 -31 -1 -22 -5 -40 -9
-40 -4 0 -5 -7 -2 -15 4 -9 0 -15 -7 -15 -20 -1 -122 -107 -115 -119 4 -6 14
-7 23 -4 11 4 14 2 11 -8 -3 -8 -16 -13 -32 -12 -18 1 -26 -3 -26 -15 -1 -15
-2 -15 -15 1 -13 18 -14 18 -24 0 -7 -15 -6 -22 9 -30 14 -10 21 -8 34 6 9 10
28 19 42 19 25 0 25 -1 6 -18 -10 -10 -27 -20 -36 -21 -16 -4 -16 -6 3 -31 21
-26 29 -54 12 -44 -5 3 -20 -9 -33 -27 -18 -23 -23 -38 -17 -52 12 -30 10 -45
-3 -40 -7 3 -19 1 -27 -4 -12 -8 -13 -12 -1 -25 19 -24 6 -30 -24 -11 -15 10
-33 14 -43 11 -14 -6 -15 -9 -4 -15 9 -6 8 -10 -7 -13 -11 -3 -26 -1 -33 6
-10 8 -10 7 0 -6 7 -10 11 -26 8 -37 -3 -15 0 -17 17 -13 17 4 19 2 9 -9 -7
-7 -13 -20 -13 -29 0 -9 -10 -16 -25 -18 -29 -2 -85 -48 -85 -69 0 -8 -6 -13
-12 -10 -7 2 -21 0 -30 -4 -10 -6 -35 -4 -63 3 -39 10 -48 10 -55 -2 -5 -8 -6
-18 -3 -23 3 -5 10 -2 15 7 13 24 31 21 18 -3 -13 -25 1 -35 35 -27 13 3 27 1
30 -5 4 -6 19 -8 34 -5 24 6 25 5 8 -8 -22 -17 -2 -28 26 -14 26 13 37 -1 12
-15 -27 -15 -65 -18 -65 -5 0 6 -12 8 -30 5 -17 -4 -30 -2 -30 3 0 6 10 10 23
11 12 0 3 6 -23 13 -48 13 -68 10 -51 -7 6 -6 11 -22 11 -35 0 -37 18 -62 45
-62 15 0 25 -6 25 -14 0 -20 -17 -29 -44 -22 -18 4 -25 17 -35 58 -12 55 -60
130 -61 96 0 -10 -4 -18 -10 -18 -5 0 -10 -4 -10 -9 0 -5 10 -7 23 -4 18 4 16
-1 -15 -32 -38 -36 -45 -46 -30 -44 4 1 26 1 50 0 49 -1 58 -21 10 -21 -32 0
-32 -1 17 -25 56 -27 41 -33 -25 -10 -42 15 -43 15 -27 -3 23 -25 21 -35 -2
-20 -15 9 -25 9 -45 0 -22 -10 -26 -9 -26 4 0 13 -5 12 -26 -5 -28 -22 -64
-28 -64 -10 0 5 4 8 9 5 4 -3 17 1 27 9 18 14 18 14 -4 15 -13 0 -20 4 -17 10
9 14 -29 12 -43 -2 -15 -15 -15 -8 -2 29 l10 28 -19 -23 c-11 -12 -21 -28 -24
-35 -2 -6 -8 -8 -13 -4 -5 4 -2 12 6 18 13 8 13 10 0 19 -8 5 -23 10 -32 10
-10 0 -18 5 -18 11 0 8 11 9 32 5 30 -6 30 -5 15 12 -22 25 -22 39 1 20 20
-17 52 -30 52 -21 0 3 -8 12 -17 20 -16 13 -16 14 7 7 55 -15 102 -10 117 14
14 21 14 22 -6 22 -13 0 -19 -4 -16 -11 9 -14 -72 -7 -99 8 -19 10 -19 12 -2
28 22 23 18 26 -26 19 -27 -5 -35 -10 -31 -22 5 -12 1 -14 -20 -10 -15 3 -27
1 -27 -5 0 -5 -9 -7 -20 -4 -13 3 -21 -1 -25 -14 -7 -20 -25 -26 -25 -8 0 5
-4 8 -10 4 -5 -3 -6 -13 -3 -22 5 -12 2 -15 -10 -10 -9 3 -19 2 -22 -3 -9 -14
32 -50 57 -51 13 -1 5 -5 -17 -9 -43 -9 -92 -3 -101 11 -3 5 -16 9 -30 9 -17
0 -24 -5 -24 -20 0 -17 -3 -18 -19 -8 -15 9 -29 7 -72 -10 -30 -12 -61 -21
-69 -20 -8 1 -37 0 -63 0 -45 -2 -49 -4 -65 -40 -16 -36 -16 -37 -20 -10 -2
16 -11 30 -23 33 -27 9 -24 23 5 18 15 -3 25 1 29 11 5 12 -4 18 -33 26 -40
11 -55 30 -23 30 9 0 14 3 10 6 -9 10 -60 -5 -97 -28 -51 -31 -140 -36 -140
-7 0 6 5 7 11 4 13 -9 79 3 79 14 0 5 -20 12 -45 15 -36 6 -45 11 -45 27 0 15
7 19 36 19 21 0 33 4 29 10 -3 6 2 10 12 11 15 0 15 2 -4 11 -15 7 -34 8 -63
0 -22 -5 -40 -6 -40 -1 0 5 7 9 15 9 8 0 15 4 15 9 0 15 -36 23 -77 15 -26 -4
-35 -3 -28 4 6 5 18 12 28 14 18 3 18 4 -2 30 -34 43 -24 53 15 13 35 -37 44
-39 48 -13 1 7 6 19 10 27 6 10 5 12 -2 7 -6 -4 -30 3 -53 15 -38 19 -58 21
-223 21 -100 1 -167 4 -151 7 l30 7 -29 8 c-20 5 -32 3 -37 -6 -7 -10 -9 -9
-9 3 0 14 -12 16 -80 14 -43 -2 -88 -6 -100 -9 -58 -17 -65 -18 -50 -6 12 9 4
10 -35 6 -27 -3 -108 -9 -178 -13 -100 -5 -131 -3 -137 7 -5 8 -17 10 -34 6
l-27 -7 3 -346 c3 -298 5 -347 18 -350 13 -4 13 -3 0 6 -12 9 -9 11 15 12 40
3 47 2 70 -5 15 -5 15 -4 -3 5 -26 14 -28 25 -6 33 8 3 12 2 9 -3 -7 -13 30
-24 55 -16 16 5 19 3 13 -12 -5 -13 0 -11 18 8 13 14 23 23 22 20 -2 -2 2 -10
9 -18 8 -11 7 -12 -6 -7 -9 3 -16 1 -16 -5 0 -6 11 -10 25 -9 18 2 23 7 20 18
-4 13 8 16 73 17 70 2 75 1 58 -12 -19 -15 -19 -15 2 -15 12 0 22 5 22 11 0 5
4 8 9 4 5 -3 12 -1 16 5 9 15 38 13 29 -2 -6 -10 -4 -10 7 0 16 14 58 16 79 2
13 -9 13 -11 0 -20 -11 -7 -1 -9 32 -7 27 1 48 5 48 10 0 4 7 7 16 7 8 0 13 4
10 9 -3 5 10 11 30 13 19 2 37 0 40 -4 3 -4 -3 -8 -12 -8 -10 0 -14 -3 -11 -6
4 -4 39 -8 78 -10 57 -2 69 0 65 12 -3 8 1 14 9 14 8 0 15 -7 15 -16 0 -11 5
-14 16 -10 8 3 24 1 34 -4 13 -7 21 -7 25 0 3 5 16 10 28 10 18 0 19 2 7 10
-11 7 -6 10 22 10 20 0 43 3 52 6 9 3 16 1 16 -5 0 -6 -9 -11 -20 -11 -11 0
-20 -4 -20 -9 0 -4 11 -6 25 -3 14 2 25 9 25 16 0 6 4 5 9 -3 5 -8 14 -10 22
-5 7 4 26 9 41 11 21 2 26 -1 22 -12 -9 -22 9 -18 26 5 13 19 37 30 26 12 -2
-4 26 -7 62 -7 37 1 83 -3 102 -7 56 -15 113 -14 143 0 16 8 35 11 45 6 13 -6
9 -9 -18 -14 l-35 -7 31 -2 c17 0 37 6 44 14 11 13 14 13 26 -2 13 -17 14 -17
8 0 -8 22 12 22 25 -1 9 -16 10 -16 16 0 5 13 18 18 43 18 39 0 34 -15 -8 -23
-14 -3 8 -4 47 -3 51 1 73 5 73 14 0 7 13 12 31 12 17 0 28 -4 24 -10 -3 -5 1
-10 10 -10 9 0 14 3 12 8 -3 4 2 14 11 21 14 13 15 12 10 -7 -6 -23 7 -31 15
-9 4 9 6 9 6 0 1 -7 8 -13 16 -13 9 0 12 6 8 17 -5 13 -2 15 17 10 13 -3 30
-1 37 5 18 15 16 3 -3 -16 -14 -15 -13 -16 14 -16 17 0 38 -3 48 -7 11 -4 15
-3 11 4 -9 14 8 19 68 20 l50 1 -42 -7 c-60 -10 -61 -17 -3 -17 28 0 50 3 50
8 0 4 11 8 25 8 14 0 25 -4 25 -10 0 -11 32 -1 43 14 5 7 10 6 17 -4 5 -8 10
-10 10 -5 0 6 8 11 18 12 10 1 58 14 107 29 50 15 109 27 133 28 26 1 42 6 42
14 0 19 20 14 22 -5 2 -24 3 -31 12 -75 7 -36 9 -38 47 -38 24 0 38 4 34 10
-17 27 -33 116 -23 127 8 10 5 13 -14 13 -13 0 -30 6 -37 13 -10 10 -15 8 -27
-7 -14 -19 -14 -19 -14 -1 0 15 -3 16 -12 7 -16 -16 -38 -15 -38 1 0 19 46 60
59 53 5 -4 8 -13 4 -21 -6 -18 8 -20 25 -3 9 9 14 6 21 -13 10 -24 10 -24 10
5 1 20 5 27 16 22 8 -3 19 2 24 12 9 15 10 15 11 1 0 -11 16 -21 45 -29 59
-17 53 -23 -27 -29 -10 0 -18 -9 -17 -18 0 -11 3 -13 6 -5 2 6 9 12 15 12 6 0
4 -8 -4 -17 -19 -23 -29 -61 -17 -69 5 -3 7 -9 5 -13 -6 -9 20 -23 74 -41 19
-7 88 -14 152 -16 108 -4 119 -3 138 16 22 22 27 35 9 24 -16 -10 -1 55 20 83
9 12 38 34 64 48 47 24 81 35 45 14 -11 -6 -15 -16 -11 -27 6 -15 5 -15 -10
-3 -19 15 -22 5 -7 -19 8 -13 11 -12 24 5 8 11 12 23 10 27 -3 5 -1 8 4 8 5 0
14 -11 21 -23 7 -13 18 -24 24 -25 7 0 23 -4 37 -8 23 -7 24 -6 11 10 -8 9
-20 15 -26 12 -7 -2 -18 0 -26 5 -12 7 -12 9 1 10 8 1 24 0 35 -1 16 -2 17 0
6 14 -9 11 -18 13 -30 7 -10 -6 -20 -4 -28 4 -10 11 -7 15 17 20 17 4 30 13
30 21 0 8 7 14 15 14 8 0 15 4 15 9 0 6 -19 9 -42 9 -29 0 -37 -3 -24 -8 11
-3 15 -9 10 -12 -15 -9 -39 6 -40 25 -1 9 2 17 6 17 4 0 5 11 3 24 -5 26 -28
42 -38 26 -4 -6 0 -10 9 -10 8 0 13 -7 12 -15 -3 -22 -16 -31 -16 -10 0 14 -6
16 -30 12 -16 -4 -32 -2 -35 3 -3 6 -2 10 2 10 12 0 10 41 -1 59 -7 11 -5 13
7 8 10 -4 29 -2 43 4 32 11 42 5 24 -16 -10 -12 -10 -15 4 -15 9 0 16 5 16 10
0 6 5 10 11 10 6 0 9 -7 6 -14 -4 -10 -1 -13 9 -9 7 3 14 10 15 17 0 6 4 2 9
-9 8 -18 9 -18 9 -2 1 11 10 32 21 47 13 18 16 31 10 35 -16 10 -31 -5 -28
-27 3 -24 -10 -32 -32 -18 -12 8 -11 13 8 33 12 13 22 27 22 32 0 5 7 16 16
26 12 14 13 22 4 38 -6 12 -7 21 -1 21 5 0 11 -7 15 -15 7 -20 42 -19 111 5
49 17 125 28 88 14 -7 -3 -10 -11 -7 -18 3 -9 -7 -16 -28 -21 -25 -6 -28 -9
-13 -12 12 -2 48 8 80 23 33 14 86 29 117 31 44 5 55 9 51 20 -5 12 -1 14 18
8 l24 -7 -25 28 c-42 48 -52 53 -100 48 -91 -10 -156 -26 -195 -50 -22 -13
-50 -28 -62 -34 -13 -5 -23 -16 -23 -23 0 -8 -7 -14 -15 -14 -21 0 -19 4 13
33 33 31 135 80 185 89 20 4 37 12 37 17 0 6 6 5 15 -2 9 -7 15 -8 15 -2 0 5
8 8 18 6 9 -3 26 2 37 10 18 13 15 14 -38 11 -31 -2 -59 0 -61 4 -3 4 19 7 49
8 29 0 58 4 64 7 6 4 11 2 11 -4 0 -6 5 -8 10 -5 6 4 7 11 4 17 -4 7 -2 8 4 4
14 -8 62 3 62 15 0 12 -37 11 -45 -1 -4 -6 -15 -6 -31 0 -40 16 -117 12 -144
-7 -22 -16 -23 -16 -17 2 6 15 5 16 -7 6 -8 -7 -20 -10 -26 -6 -15 9 -47 -21
-54 -50 -4 -17 -16 -27 -37 -33 -22 -5 -38 -19 -53 -47 -11 -22 -22 -42 -23
-44 -2 -2 -6 -2 -9 2 -5 5 13 54 37 99 12 23 11 26 -3 31 -7 2 -5 3 4 2 21 -4
33 11 18 20 -6 4 -8 10 -6 14 3 4 -1 8 -9 8 -8 0 -12 -4 -9 -9 6 -10 -10 -11
-20 0 -11 11 -86 10 -86 -1 0 -6 -3 -7 -7 -4 -3 4 -13 1 -21 -6 -13 -9 -14 -9
-8 1 4 7 1 12 -9 12 -14 0 -12 -7 8 -47 39 -76 60 -126 61 -148 1 -11 7 -19
14 -18 6 2 12 0 12 -4 0 -11 -44 -73 -52 -73 -11 0 -10 18 1 22 13 5 24 48 12
48 -6 0 -11 -10 -11 -22 0 -21 -2 -20 -19 7 -10 17 -30 39 -45 49 l-27 17 3
-28 c2 -23 7 -28 28 -25 22 2 23 1 8 -8 -16 -10 -17 -14 -3 -47 18 -43 18 -40
0 -40 -11 0 -13 6 -9 20 4 13 2 17 -5 13 -6 -4 -15 2 -19 14 -7 19 -10 20 -21
7 -6 -9 -13 -26 -14 -39 -1 -25 -14 -38 -37 -38 -12 0 -15 15 -16 72 -1 65 0
68 11 42 10 -24 14 -26 20 -12 3 9 5 31 3 50 -3 28 -6 33 -28 31 l-25 -2 23
11 c16 8 26 8 30 2 4 -6 16 -14 26 -18 20 -7 20 -7 0 15 l-19 22 34 -17 c18
-10 41 -16 51 -13 13 3 17 0 13 -9 -3 -8 -10 -11 -16 -7 -6 3 -7 1 -3 -5 8
-13 36 -5 36 10 0 5 5 6 11 2 6 -3 9 -15 6 -25 -3 -11 -1 -19 4 -19 16 0 9 44
-11 70 -11 14 -20 31 -20 38 0 7 -4 10 -10 7 -5 -3 -10 1 -10 10 0 9 5 13 11
10 6 -4 5 2 -2 13 -7 12 -15 20 -18 20 -19 -2 -24 4 -12 11 12 8 9 13 -16 27
-32 19 -58 52 -49 62 4 3 12 -2 19 -12 12 -16 13 -16 13 3 0 11 -4 17 -8 15
-4 -3 -8 -1 -8 4 0 5 10 13 23 17 17 6 19 8 6 12 -15 4 -15 8 3 44 24 51 18
62 -8 14 -10 -19 -22 -35 -26 -35 -3 0 -8 -12 -10 -27 -3 -30 -34 -40 -32 -10
1 9 -5 17 -13 17 -8 0 -11 5 -7 12 5 8 0 9 -14 6 -18 -5 -22 -2 -22 19 0 16 7
27 20 30 11 3 20 9 20 13 0 5 8 11 18 13 10 3 6 5 -10 6 -20 1 -28 6 -28 19 0
15 2 15 11 2 9 -12 10 -12 5 3 -3 10 -6 25 -6 33 0 28 -19 13 -23 -18 l-4 -33
-1 33 c-2 32 -11 37 -62 34 -8 0 -23 4 -33 10 -17 9 -19 7 -15 -15 4 -20 1
-23 -14 -19 -14 3 -16 8 -9 15 20 20 11 43 -21 55 -27 10 -30 14 -18 22 8 5
10 10 5 10 -22 0 -34 -22 -24 -42 10 -19 -4 -27 -16 -8 -4 6 -10 8 -15 5 -11
-7 -6 -35 8 -44 9 -5 8 -29 -2 -97 -8 -49 -14 -79 -15 -68 -1 12 -4 37 -7 55
-4 26 -3 30 5 19 9 -12 11 -10 11 12 0 14 -5 28 -12 30 -7 3 -11 19 -10 41 2
30 -1 37 -15 38 -14 0 -13 2 5 10 13 5 20 13 17 19 -4 6 -11 8 -16 5 -5 -4 -9
-2 -9 3 0 6 -10 8 -22 4 -20 -5 -21 -4 -10 11 8 9 11 25 8 35 -5 14 1 24 18
36 28 18 61 23 36 5 -12 -9 -11 -10 7 -6 13 3 24 -1 27 -9 6 -16 36 -19 36 -3
0 5 5 7 10 4 6 -4 8 -10 5 -15 -3 -4 2 -10 10 -13 10 -4 12 -1 8 11 -5 14 -3
15 7 5 17 -16 50 1 50 25 0 15 2 15 10 2 7 -11 10 -12 10 -2 0 7 -7 20 -15 28
-21 22 -19 31 10 38 18 5 27 17 35 46 14 52 30 52 25 0 -2 -22 1 -40 6 -40 12
0 29 42 21 54 -3 5 0 6 7 2 6 -4 9 -12 6 -17 -4 -5 -1 -9 4 -9 15 0 14 23 -1
39 -10 11 -10 14 0 18 6 3 13 23 13 46 1 23 3 34 6 24 7 -27 26 -15 40 24 7
19 12 28 12 22 1 -7 5 -13 10 -13 4 0 6 11 3 25 -3 20 -7 23 -18 14 -9 -7 -14
-8 -14 -1 0 6 21 20 46 32 38 19 45 26 40 45 -5 18 -1 24 17 29 14 3 26 0 33
-9 6 -8 14 -12 17 -8 4 3 7 -1 7 -10 0 -21 19 -22 26 -2 9 21 19 19 32 -7 10
-22 10 -21 8 7 -1 19 -7 30 -16 31 -39 2 -100 26 -100 39 0 21 33 18 49 -4 11
-15 18 -17 32 -8 10 6 15 15 13 19 -6 9 12 10 43 2 13 -4 21 -9 19 -13 -3 -4
5 -8 16 -8 12 -1 24 -6 27 -11 3 -4 20 -8 36 -7 17 0 44 -5 62 -12 37 -15 53
-16 53 -5 0 10 -196 73 -272 86 l-57 11 16 33 c8 17 22 32 29 32 8 0 14 9 14
19 0 11 5 23 11 27 16 10 -10 24 -46 24 -23 0 -27 3 -15 10 10 7 11 10 2 10
-7 0 -14 -6 -16 -12z"/>
<path d="M3032 2498 c-11 -14 -44 -160 -37 -166 12 -12 23 14 19 46 -2 20 -1
30 2 22 4 -8 13 -27 20 -42 13 -24 12 -27 -1 -22 -8 4 -15 1 -15 -6 0 -8 9
-11 25 -8 14 3 25 1 25 -3 0 -5 -11 -9 -25 -9 -17 0 -23 -4 -19 -14 9 -25 27
-24 83 1 39 18 50 27 40 33 -7 5 -18 5 -24 1 -5 -4 -19 -11 -30 -15 -13 -4 -9
3 13 21 33 29 36 48 12 92 -14 28 -24 26 -39 -5 -9 -21 -14 -24 -26 -14 -19
16 -19 26 -1 33 11 4 13 1 9 -10 -4 -11 -2 -14 5 -9 16 9 15 59 0 74 -15 15
-23 15 -36 0z"/>
<path d="M3697 2254 c-16 -16 -5 -40 24 -57 38 -21 34 -31 -7 -17 -18 6 -40 6
-59 1 l-30 -9 30 -3 c17 -1 41 -3 55 -4 37 -2 70 -15 70 -27 0 -5 -7 -7 -16
-4 -8 3 -13 2 -10 -3 3 -5 -5 -11 -19 -13 -17 -4 -25 -1 -25 8 0 8 8 14 18 14
14 0 14 2 3 9 -9 6 -21 3 -34 -10 -14 -12 -29 -17 -46 -13 -25 5 -25 5 -7 -10
11 -9 23 -16 28 -16 4 0 5 -6 2 -13 -3 -9 6 -12 36 -9 22 2 37 8 34 13 -8 14
10 11 32 -6 18 -14 18 -15 0 -8 -14 4 -17 2 -14 -8 3 -8 10 -13 16 -12 6 2 9
-4 6 -12 -4 -9 0 -15 9 -15 8 0 18 -6 21 -12 3 -7 3 -3 0 10 -6 23 11 32 19
10 2 -7 7 -10 11 -7 14 13 -6 40 -25 34 -21 -7 -26 10 -6 18 8 3 30 -10 50
-28 27 -25 37 -29 41 -19 3 9 -4 19 -19 26 -13 6 -22 14 -20 19 6 9 -34 24
-42 15 -8 -8 -33 20 -33 38 0 8 -6 19 -14 23 -18 11 -38 51 -31 63 9 14 31 12
86 -7 30 -11 47 -23 45 -30 -3 -7 1 -10 10 -6 7 3 14 0 14 -6 0 -6 7 -8 15 -5
8 4 21 2 28 -4 6 -5 28 -13 47 -17 28 -5 24 -1 -25 22 -83 40 -164 71 -200 77
-16 2 -37 7 -46 10 -8 4 -18 3 -22 0z"/>
<path d="M0 2101 c0 -14 8 -23 26 -27 l27 -7 -29 -13 c-26 -11 -18 -13 81 -15
72 -1 96 -4 70 -8 -22 -3 -39 -11 -38 -18 2 -7 -16 -9 -55 -6 -76 6 -58 -14
24 -28 99 -16 160 -13 185 10 15 13 30 19 45 15 12 -3 25 -1 28 5 4 7 -1 11
-13 11 -11 0 -22 4 -25 9 -7 10 -68 24 -113 25 -17 0 -30 3 -27 8 3 4 -14 12
-37 18 -22 6 -39 13 -37 15 2 3 20 0 39 -5 63 -19 140 -22 207 -9 l67 14 -60
8 c-33 4 -80 8 -105 8 -134 0 -160 -1 -160 -11 0 -13 -37 -13 -42 -1 -1 5 -15
13 -30 16 -24 6 -28 4 -28 -14z"/>
<path d="M427 2002 c-20 -4 -19 -32 2 -48 8 -6 11 -16 6 -24 -5 -8 -10 -9 -14
-1 -4 6 -31 15 -61 21 -57 11 -82 23 -40 20 42 -4 70 0 70 8 0 5 -20 8 -44 7
-61 -1 -122 -55 -62 -55 13 0 27 -7 30 -16 3 -8 10 -12 16 -9 5 3 10 1 10 -4
0 -6 7 -11 16 -11 8 0 13 4 10 9 -8 13 46 21 66 10 9 -5 24 -6 34 -2 13 5 16
3 11 -10 -4 -11 -1 -17 8 -17 18 0 20 -17 3 -23 -19 -6 -38 3 -38 19 0 13 -5
15 -42 18 -7 1 -12 -5 -11 -11 2 -10 -19 -11 -90 -6 -50 3 -95 10 -98 15 -3 5
-16 11 -29 13 -13 2 -27 10 -30 16 -4 6 -10 -5 -14 -25 -6 -30 -10 -35 -29
-32 -12 3 -25 5 -29 5 -12 1 -10 31 1 31 6 0 13 -4 16 -10 10 -16 22 -12 28
10 6 22 -3 30 -36 35 -12 2 -32 7 -45 10 -19 6 -22 4 -22 -19 0 -15 7 -29 15
-32 8 -3 17 -14 20 -25 4 -12 16 -19 31 -19 13 0 24 -4 24 -10 0 -11 -15 -12
-47 -4 -13 4 -23 12 -23 19 0 8 -8 11 -20 8 -18 -5 -20 -14 -20 -78 0 -49 4
-75 13 -78 9 -4 9 -6 0 -6 -23 -2 -14 -21 10 -22 12 0 16 -3 9 -6 -6 -2 -10
-9 -6 -14 3 -5 -2 -9 -10 -9 -9 0 -16 -6 -16 -13 0 -16 58 -21 76 -6 11 9 14
7 15 -12 l0 -24 10 23 c5 15 13 20 21 16 9 -6 9 -9 0 -12 -7 -2 -12 -8 -12
-14 0 -10 227 -4 238 6 3 3 -2 6 -11 6 -10 0 -17 6 -17 13 0 8 -3 7 -10 -3 -7
-12 -10 -11 -16 5 -4 11 -10 25 -12 30 -3 6 2 4 11 -4 11 -9 17 -10 17 -2 0 6
9 2 20 -9 11 -11 27 -20 35 -20 8 0 15 -4 15 -10 0 -5 5 -10 11 -10 5 0 8 4 5
9 -3 5 14 6 38 4 40 -5 44 -4 48 21 5 27 -6 45 -15 26 -3 -6 -4 -5 -3 2 3 12
43 20 58 12 4 -3 -2 -14 -12 -24 -32 -32 -26 -49 14 -40 20 4 39 3 44 -2 13
-13 72 0 72 15 0 9 2 9 8 0 8 -13 156 -12 169 0 3 4 19 7 35 7 18 0 28 5 28
14 0 18 -17 30 -25 17 -8 -14 -63 7 -75 29 -6 12 -18 17 -30 15 -11 -2 -20 0
-20 4 0 5 16 12 35 15 35 7 44 19 25 31 -5 3 -10 1 -10 -4 0 -6 -5 -11 -11
-11 -5 0 -7 5 -4 10 3 6 1 10 -4 10 -6 0 -11 -4 -11 -8 0 -5 -7 -9 -15 -9 -8
0 -15 4 -15 8 0 12 33 19 84 18 56 -3 81 15 53 36 -18 13 -97 13 -185 0 -27
-4 -30 -2 -20 9 9 10 17 11 26 4 8 -7 12 -7 12 0 0 14 -16 18 -56 14 -32 -4
-49 -22 -21 -22 8 0 7 -3 -3 -10 -10 -6 -20 -4 -32 7 -17 15 -17 17 0 30 10 9
11 12 2 7 -24 -11 -60 -46 -55 -53 2 -4 -12 -7 -31 -7 -19 0 -34 4 -34 8 0 4
-7 8 -16 8 -8 0 -13 4 -10 9 3 5 24 9 46 9 22 0 44 4 50 7 15 9 12 25 -6 25
-8 0 -13 4 -10 8 3 5 26 6 51 2 25 -4 48 -3 51 1 2 5 12 5 21 2 10 -4 14 -2
10 5 -10 15 -67 26 -78 15 -5 -5 -23 -7 -40 -5 -35 5 -21 22 19 22 12 0 22 6
22 14 0 8 6 16 13 19 6 2 -1 8 -18 12 -16 5 -33 13 -37 19 -5 7 -8 7 -8 1 0
-6 -9 -11 -20 -12 -11 -1 -20 2 -20 8 0 5 7 9 16 9 9 0 12 5 8 12 -5 8 -2 9
12 4 10 -4 39 -10 64 -13 41 -4 43 -3 25 9 -11 8 -47 15 -80 16 -37 1 -55 -1
-46 -7 9 -6 10 -11 2 -15 -6 -4 -11 -18 -11 -31 0 -13 -5 -27 -11 -31 -8 -4
-9 0 -4 15 5 15 2 21 -9 21 -9 0 -16 5 -16 10 0 6 7 10 15 10 15 0 21 16 8 23
-5 2 -16 2 -26 -1z"/>
<path d="M3600 1815 c-14 -8 -33 -14 -42 -15 -45 -1 -18 -45 37 -61 19 -5 19
-6 -4 -18 -14 -8 -21 -9 -17 -2 4 6 0 11 -8 11 -9 0 -16 5 -16 10 0 14 -27 12
-33 -2 -4 -10 -7 -10 -18 0 -7 6 -21 12 -32 12 -10 0 -16 4 -12 10 3 5 13 7
23 4 13 -4 12 -3 -2 7 -16 9 -21 9 -24 0 -3 -9 -7 -9 -18 0 -9 7 -14 8 -14 1
0 -5 -14 -15 -30 -21 -23 -7 -33 -7 -42 3 -16 17 -48 8 -48 -13 0 -28 12 -61
22 -61 5 0 7 4 3 9 -3 5 -1 12 5 16 16 10 12 -22 -5 -39 -8 -8 -11 -17 -6 -20
5 -3 12 1 15 9 4 12 10 13 25 5 24 -12 34 -13 27 -2 -6 10 24 9 41 -1 6 -4 10
0 9 11 0 9 -13 25 -28 34 -45 28 -32 41 15 16 23 -13 44 -24 47 -26 2 -2 -1
-6 -7 -10 -7 -4 16 -8 50 -7 34 0 65 5 69 10 5 6 8 5 8 -2 0 -7 7 -13 15 -13
8 0 15 -4 15 -10 0 -5 8 -10 18 -10 13 0 14 2 3 9 -8 5 2 8 28 7 24 0 41 -6
41 -12 0 -6 9 -14 21 -17 15 -4 32 6 64 39 24 24 38 45 32 45 -27 3 -32 4 -32
10 0 10 -27 39 -36 39 -14 0 -10 -38 5 -52 10 -10 11 -19 3 -35 -15 -33 -31
-28 -46 12 -7 19 -17 35 -22 35 -5 0 -9 8 -10 18 0 14 -2 14 -9 -3 -7 -18 -9
-18 -15 -3 -3 9 -16 19 -28 23 -22 6 -22 6 -2 15 19 8 19 9 -2 9 -17 1 -23 -5
-23 -19 0 -11 -4 -20 -10 -20 -5 0 -10 7 -10 15 0 9 -10 15 -27 16 -26 1 -26
2 7 11 19 5 42 10 51 11 9 1 15 7 12 14 -3 7 -6 13 -7 13 0 -1 -12 -7 -26 -15z"/>
<path d="M5793 1590 c-1 -14 5 -20 20 -21 21 0 21 -1 2 -9 -17 -7 -15 -9 13
-9 17 -1 32 3 32 8 0 10 68 20 88 13 25 -9 11 -21 -20 -16 -29 5 -35 2 -45
-22 -7 -16 -13 -39 -13 -52 0 -19 4 -23 20 -19 11 3 20 1 20 -4 0 -5 11 -9 25
-9 14 0 25 5 25 10 0 6 -7 10 -16 8 -10 -2 -19 2 -21 8 -5 14 124 33 160 23
26 -7 32 -2 28 24 -1 9 13 9 23 0 4 -4 24 -6 44 -5 35 2 36 2 18 -13 -19 -14
-19 -15 7 -15 15 0 27 -4 27 -10 0 -5 5 -10 10 -10 6 0 10 9 10 20 0 11 -6 20
-12 20 -9 0 -9 3 1 9 11 7 7 10 -15 14 l-29 4 28 2 c22 1 27 6 27 26 0 24 -2
25 -82 27 -46 1 -99 2 -118 1 -117 -5 -235 -1 -238 7 -6 17 -18 11 -19 -10z"/>
<path d="M3385 1190 l-30 -7 28 -7 c33 -10 34 -18 5 -40 -13 -9 -18 -14 -11
-11 6 3 14 -1 16 -7 4 -8 6 -7 6 4 1 15 4 15 29 2 31 -16 87 -20 62 -4 -26 17
22 11 50 -6 l25 -15 -27 6 c-43 8 -33 -10 12 -25 32 -10 39 -17 35 -31 -5 -14
3 -22 32 -34 21 -9 47 -25 59 -36 14 -13 24 -17 29 -10 9 16 1 25 -49 50 -52
27 -67 51 -32 51 12 0 31 9 40 19 17 18 16 19 -12 26 -16 3 -39 15 -51 27 -16
14 -37 21 -72 21 -27 0 -49 5 -49 9 0 5 -9 4 -21 -2 -11 -7 -23 -9 -26 -6 -3
3 2 8 11 12 9 3 13 10 10 15 -6 10 -25 10 -69 -1z"/>
<path d="M6087 713 c-2 -1 -198 -4 -437 -7 -772 -10 -967 -16 -967 -32 0 -8 6
-15 14 -15 17 -2 24 -4 45 -13 9 -4 25 -3 36 3 11 6 22 8 25 5 7 -7 138 -14
376 -19 106 -3 196 -5 200 -6 3 0 39 0 80 1 52 1 71 -2 66 -10 -5 -8 -1 -7 13
1 16 10 26 10 51 0 17 -8 28 -17 26 -21 -3 -5 -1 -11 4 -15 6 -3 8 5 6 18 -4
21 -1 23 34 22 30 0 37 -3 29 -12 -6 -7 -14 -11 -18 -8 -4 3 -11 -3 -15 -13
-9 -23 -8 -25 10 -28 8 -1 12 2 9 8 -5 8 6 9 33 6 34 -5 40 -3 38 11 -1 9 -10
15 -19 15 -9 -1 -16 4 -16 11 0 8 16 11 53 9 57 -3 85 -11 105 -31 20 -19 35
-16 29 7 -4 16 0 20 21 19 15 0 21 -3 15 -6 -7 -2 -13 -12 -13 -20 0 -10 6
-13 16 -9 9 3 18 6 20 6 2 0 4 7 4 15 0 8 5 15 10 15 7 0 7 -6 0 -19 -14 -26
-13 -31 5 -25 8 4 15 1 15 -6 0 -7 -8 -10 -20 -7 -11 3 -23 1 -26 -4 -3 -6
-15 -7 -27 -3 -19 6 -20 5 -8 -10 12 -14 11 -16 -8 -16 -11 0 -21 -4 -21 -10
0 -5 -7 -10 -15 -10 -8 0 -15 -4 -15 -10 0 -5 8 -7 18 -3 15 5 14 4 -2 -9 -10
-8 -16 -20 -12 -26 4 -8 2 -10 -7 -6 -8 3 -18 1 -22 -5 -3 -6 1 -11 9 -11 9 0
16 -4 16 -10 0 -5 7 -10 15 -10 8 0 15 -4 15 -10 0 -5 -12 -10 -26 -10 -14 0
-23 4 -19 10 3 6 -1 10 -9 10 -9 0 -16 -4 -16 -10 0 -5 -7 -10 -15 -10 -8 0
-15 9 -15 21 0 11 4 18 9 14 5 -3 12 -1 16 5 3 5 0 10 -7 10 -23 0 -39 -16
-33 -32 6 -16 -20 -19 -43 -4 -6 4 -12 2 -12 -3 0 -6 -7 -11 -15 -11 -13 0
-14 -2 -3 -14 7 -8 15 -10 16 -5 5 12 32 11 32 -1 0 -5 -6 -10 -12 -10 -9 0
-9 -3 -2 -8 6 -4 13 -15 17 -25 4 -10 11 -16 16 -13 4 3 8 -4 7 -15 0 -11 -7
-23 -14 -28 -11 -7 -10 -9 3 -14 9 -4 13 -3 10 3 -4 6 7 10 24 10 16 0 33 -5
36 -10 3 -6 0 -10 -8 -10 -12 0 -27 -20 -27 -36 0 -14 20 -1 21 14 0 13 2 14
6 2 3 -8 9 -17 12 -20 3 -3 12 -15 18 -27 10 -17 10 -24 0 -29 -6 -4 -9 -4 -5
1 13 14 -22 37 -57 37 -19 0 -32 4 -29 9 3 5 0 9 -5 9 -6 0 -10 3 -9 8 1 4 -2
20 -7 35 -6 22 -10 26 -19 16 -8 -8 -8 -13 2 -16 18 -7 15 -21 -5 -26 -17 -4
-17 -5 0 -6 16 -1 21 -11 18 -36 0 -6 11 -12 26 -13 14 -1 29 -5 32 -8 3 -3
-5 -4 -19 -3 -14 2 -36 -5 -50 -15 l-25 -18 25 6 c14 4 39 9 57 13 18 3 34 12
36 19 3 8 4 7 3 -3 -1 -11 -12 -20 -31 -23 -20 -4 -26 -8 -17 -13 25 -16 12
-30 -24 -24 -31 5 -34 4 -23 -9 11 -13 10 -15 -6 -12 -10 1 -20 -3 -23 -10 -2
-7 2 -13 9 -11 8 1 30 0 49 -1 l35 -2 -37 -12 c-36 -11 -36 -11 -19 -33 18
-21 24 -22 242 -21 158 0 226 3 232 11 6 9 10 9 14 0 2 -7 11 -13 19 -13 12 0
14 23 13 129 l-1 129 -24 -4 c-15 -3 -24 0 -24 8 0 9 -3 8 -10 -2 -5 -8 -10
-10 -10 -5 0 6 5 17 10 25 8 13 11 13 19 1 12 -19 41 -6 41 19 0 19 -13 24
-52 21 -9 -1 -19 3 -23 9 -3 5 -1 10 5 10 7 0 10 7 6 15 -4 10 1 15 14 15 13
0 18 -5 14 -15 -8 -19 10 -20 25 -1 9 11 9 20 2 34 -7 13 -7 22 1 30 8 8 8 15
-2 27 -8 10 -9 15 -1 15 15 0 14 27 -1 34 -10 5 -10 7 0 12 8 4 12 36 12 107
l0 102 -81 0 c-44 0 -81 -1 -82 -2z"/>
<path d="M188 488 c3 -13 8 -15 22 -6 19 12 50 5 50 -12 0 -6 -4 -8 -10 -5 -5
3 -10 2 -10 -4 0 -5 -15 -8 -34 -6 -29 2 -33 0 -28 -17 3 -14 8 -16 15 -9 14
14 27 14 27 1 0 -5 -7 -10 -15 -10 -19 0 -49 -46 -42 -64 3 -8 -1 -17 -9 -20
-9 -3 -13 -10 -10 -15 3 -5 0 -11 -8 -14 -14 -6 -32 21 -21 31 3 3 5 2 5 -2 0
-4 7 0 16 8 20 20 10 36 -23 36 -20 0 -23 3 -15 13 7 8 7 18 2 27 -8 12 -10
12 -10 1 0 -9 -4 -10 -12 -4 -26 20 -46 22 -43 5 2 -9 4 -20 4 -24 1 -3 9 -9
18 -11 10 -2 3 -4 -15 -3 -21 1 -31 5 -27 14 2 6 0 12 -6 12 -12 0 -7 -82 6
-114 5 -11 5 -17 -1 -14 -5 3 -10 -15 -11 -40 -1 -34 4 -51 18 -63 10 -9 16
-19 12 -23 -10 -9 -25 -7 -18 3 3 5 1 12 -5 16 -14 9 -13 -28 2 -43 9 -9 9
-12 0 -12 -7 0 -12 -9 -12 -21 0 -13 4 -18 12 -13 8 5 9 2 4 -12 -4 -10 -10
-31 -13 -46 l-5 -28 185 3 c102 1 189 6 193 10 4 4 2 7 -5 7 -7 0 -9 5 -5 11
5 8 12 5 23 -9 12 -16 20 -19 31 -12 13 8 12 10 -2 10 -10 0 -18 4 -18 9 0 5
12 8 26 5 17 -3 23 -1 19 6 -4 6 1 18 11 26 18 14 17 15 -13 11 -18 -2 -33 0
-33 5 0 4 5 8 11 8 12 0 38 29 39 43 0 5 -4 5 -10 2 -5 -3 -10 -1 -10 4 0 6
-5 11 -11 11 -7 0 -9 -10 -7 -24 4 -19 1 -22 -16 -18 -11 3 -15 7 -8 10 6 2
12 12 12 23 0 10 6 20 13 21 6 0 17 2 22 3 6 2 15 3 20 4 6 1 3 5 -4 10 -9 6
-22 6 -32 0 -11 -6 -20 -5 -24 1 -3 5 1 10 9 10 9 0 16 6 16 14 0 8 8 17 18
19 16 4 16 5 0 6 -10 0 -18 6 -18 11 0 6 -6 10 -14 10 -12 0 -26 20 -26 37 0
3 12 3 28 -1 27 -5 27 -5 -3 8 -16 8 -32 11 -35 7 -9 -14 -60 -22 -60 -11 0 6
4 9 9 5 5 -3 12 -1 16 5 7 11 -4 13 -45 11 -21 -1 -22 0 -8 9 9 5 32 8 50 6
19 -3 41 0 49 6 11 7 9 9 -8 5 -15 -3 -20 -1 -17 8 3 7 1 16 -4 19 -6 3 -12
-1 -16 -9 -3 -8 -10 -15 -16 -15 -6 0 -4 7 4 16 18 18 22 49 5 38 -7 -4 -10
-1 -7 7 3 8 11 13 17 11 7 -1 9 2 6 8 -5 8 -14 5 -28 -7 -12 -10 -24 -19 -27
-21 -2 -2 2 -7 10 -12 8 -5 11 -12 8 -16 -4 -3 -14 1 -23 10 -15 14 -13 18 15
46 17 16 28 30 25 30 -3 0 -1 9 5 20 9 16 8 22 -5 26 -23 9 -30 -3 -14 -23 12
-15 12 -16 -4 -10 -15 6 -17 3 -12 -13 4 -14 2 -20 -8 -20 -9 0 -17 -6 -19
-12 -3 -7 -7 -2 -10 10 -5 16 -2 22 10 22 11 0 13 3 6 8 -7 4 -13 15 -15 26
-3 14 -13 19 -45 20 -34 1 -40 -2 -36 -16z"/>
</g>
</svg>
